<svg version="1" xmlns="http://www.w3.org/2000/svg" width="613.333" height="613.333" viewBox="0 0 460.000000 460.000000"><path d="M0 230v230h460V0H0v230zM258 66c14.5 2.4 33.8 8.3 43.3 13.2 8 4.1 15.5 8.3 16.8 9.4.8.8 1.9 1.4 2.3 1.4.4 0 4.9 3.1 9.9 6.9 10.7 7.9 24.8 21.8 31.3 30.5 2.4 3.4 5.1 7 6 8.1 3.9 4.9 12.8 21.2 16 29.2 9.8 24.2 12.9 39.9 12.9 65.8 0 20.5-1.5 31.5-6.2 47-8.8 28.6-21.5 49.8-42.2 70.6-11.2 11.2-20.3 18.4-32.1 25.3-1.4.8-4.1 2.4-6 3.5-14.9 8.8-37.1 15.8-60.8 19.2-10.7 1.5-35.7.7-48.2-1.6-20.9-3.8-44.2-12.9-60.1-23.6-2-1.3-6.3-4.2-9.5-6.4-8.4-5.7-28.8-25.8-34.2-33.9-10.3-15.1-13-19.4-18-29.3-1.9-3.7-7.2-18-9.2-25.2-6.1-21-7.9-49.6-4.5-71.1 1.8-11.5 6.7-29.4 9.6-35.2 1.1-2.1 1.9-4.3 1.9-5.1 0-.8 1.2-3.6 2.7-6.3 1.4-2.7 3.3-6.3 4.1-7.9 7.8-15.4 23.9-34.9 40.7-49.1 6-5.1 21.9-15.9 25.2-17.1 1-.4 2.9-1.5 4.3-2.5 3.2-2.3 15.3-7 29.2-11.3 9.6-2.9 25.9-5.9 37.8-6.9 7.9-.6 25.2.5 37 2.4z"/><path d="M207.8 88.5c-10.2 1.5-26.2 6.2-36.3 10.7-8 3.6-9.2 4.3-19.7 11.2l-7.7 5.1 4.2 4.5c2.3 2.5 8.3 8.8 13.2 14 5 5.3 14.1 14.9 20.3 21.5 6.2 6.6 14.8 15.6 19 20.1 4.2 4.4 12.4 13.2 18.2 19.4 5.8 6.3 12.5 13.5 15 16s11 11.5 19 20 18.1 19.3 22.6 24c4.4 4.7 11.8 12.5 16.5 17.4 4.6 4.9 10 10.6 11.9 12.6 6.3 6.5 31.5 33.2 33.5 35.6 1.1 1.3 2.3 2.4 2.7 2.4.7 0 10.4-14.1 15.1-21.9 3.9-6.5 8.7-16.8 10.2-22.1.8-2.5 2.3-7.7 3.4-11.5 2.8-9.7 5.1-26.5 5.1-37.1 0-11.7-3.1-32-6.4-41.7-1.4-4.2-2.6-8.3-2.6-9.1 0-1.7-11.7-24.5-13.9-27.1-.9-1.1-3.5-4.6-5.6-7.8-5-7.5-23.6-25.9-30.4-30.2-2.9-1.9-6-4-6.9-4.8-1-.9-6.5-4-12.3-7.1-24.6-13-58.4-18.4-88.1-14.1zm32.5 17.7c3.2 1 6.4 3.6 13.7 10.9 5.2 5.3 10.6 9.9 11.9 10.2 1.2.3 5.7-.2 10-1.1 10.9-2.3 16.3-1.9 23.6 1.8 10.2 5.2 14.4 12.5 16 27.6 1 9.1 2.8 11.4 11.9 15.2 9.9 4.2 13.2 6.2 16.2 10.3 4.5 5.9 6.4 11.5 6.4 18.8 0 6.1-.5 7.6-5.1 16.7-7.6 14.8-7.5 12.8-1.2 25 4.7 9.1 5.7 11.8 6 17.3.7 9.3-2.3 17-8.9 23.3-2.8 2.7-5.6 4.8-6.3 4.8-.7 0-3.4.9-6 2.1l-4.8 2.1-7-7-7-7.1 3.4-1.4c1.9-.8 5.3-2.3 7.7-3.3 6.9-2.8 9.2-5.6 9.2-10.8 0-2.5-.4-4.8-1-5.1-.5-.3-2.1-2.9-3.6-5.8s-3.4-6.6-4.3-8.2c-1.1-2.1-1.6-5.6-1.5-11.5 0-8.1.2-8.9 4.4-16.5 2.3-4.4 4.9-9 5.7-10.2 1.7-2.6.9-8.5-1.5-10.6-1-.7-5.7-3.1-10.7-5.2-10.1-4.3-13.4-6.8-17.5-14-2.2-4-3-6.8-3.5-13.8-1.2-14-4.6-16.7-18.5-14.6-17.7 2.8-22.7 1.2-35.8-12-8.2-8.2-9.4-9.1-12.8-9.1-3.5 0-4.6.9-13.5 9.9-10.5 10.8-13.4 12.4-23.3 12.4l-5 .1-10.4-11-10.3-10.9 3.2-.7c1.9-.3 7.4.2 13.1 1.2 7.3 1.4 10.6 1.7 12.6.9 1.4-.6 6.7-5.2 11.7-10.2 5.8-6 10.2-9.6 12.5-10.3 4.9-1.6 15.3-1.6 20.3-.2zm-17.5 58.1c9.3 3.3 18.6 11.7 23.3 21.3 2.7 5.4 3.3 7.9 3.7 15.9.6 11.3-.1 11.8-6.8 4.7-2.5-2.7-10.8-11.5-18.5-19.7-7.7-8.2-15.1-16.1-16.5-17.5-1.4-1.4-3.4-3.6-4.5-4.9l-2-2.4 8.5.6c4.7.2 10.4 1.2 12.8 2zm68.1 67c4.3 2.9 6.9 7.5 7.8 13.9.4 2.6-.2 5.2-2.1 9.3l-2.5 5.6-9.4-9.8c-15.4-16.1-16.9-18-15.5-19 6.5-4.2 15.4-4.2 21.7 0zM137 122.5c-1.2 1.4-1.1 2.9.5 6.7.4 1.1.3 1.8-.3 1.8s-1.4-.9-1.7-2c-.3-1.1-1.5-2-2.6-2-2.4 0-2.4.7.1 4.7 3.7 6.1 9.6 3.7 8.5-3.4-.6-3.4-.5-3.6.8-2.1 1.7 2.2 4.7 2.4 4.7.3 0-4.2-7.4-7.2-10-4zM143.5 133.3c-2.5 2.5-3.2 4-2.8 5.6.5 2.1 4.7 6.1 6.4 6.1 1.6 0 1-3.8-.7-4.4-2.2-.9-1.3-4.7 1.3-5.7 1.5-.6 2.7-.4 3.7.6 3.3 3.3 4.9.7 2-3.3-2.2-3.2-6-2.8-9.9 1.1zM121.6 136.2c-8.5 10.2-17.5 24.4-22.4 35.3-17.2 38.6-16 85.9 3.1 123.5 3.2 6.3 6.6 12.4 7.6 13.5 1 1.1 3.2 4.2 4.9 7 4.8 7.7 24.4 26.5 35.4 33.8 8.5 5.7 27.4 15.7 29.7 15.7.5 0 4.4 1.1 8.7 2.5 13.7 4.4 24.5 5.9 41.9 5.9 17.3 0 27.9-1.5 41.7-5.9 4.3-1.4 8.3-2.5 8.7-2.5 1.3 0 15.1-6.7 20.2-9.7 10.9-6.6 22-14.6 21.7-15.8-.2-.7-7.9-9.3-17.3-19.1-18.4-19.3-29.3-30.8-45.5-47.9-5.7-6.1-14.4-15.3-19.4-20.6-5-5.2-14-14.9-20.1-21.4-6-6.5-14.7-15.7-19.2-20.4-12.1-12.7-18.3-19.3-32.9-34.7-35.3-37.6-41-43.4-42.1-43.4-.7 0-2.8 1.9-4.7 4.2zm34.2 42.8c-2.1 3.3-6.3 6.1-15.3 10.1-4.8 2.2-9.4 4.7-10.1 5.7-2.1 2.7-1.7 9.5.9 13.3 1.2 1.9 3.6 6.1 5.2 9.4 2.6 5.2 3 7.1 3 14-.1 8.2-2 13.6-7.7 21.8-2.8 4-3.8 8.2-2.7 12 .8 3 1.8 3.8 8.2 6.6 11.7 5.2 13.9 6.4 17 9.6 4.7 4.9 7.6 12.2 8.6 21.8.9 9.5 1.5 10.7 6.7 13.2 3.2 1.5 4 1.5 11.7-.1 16.4-3.4 22.9-1.1 35.7 12.3 11.1 11.6 13 11.6 25.6-.8 13.5-13.1 18-14.7 34.7-11.5 4.8.9 9.2 1.4 9.8 1 1-.6 14.9 12.2 14.9 13.6 0 1-6.5 3.8-10.4 4.5-2.1.4-7.7 0-13.5-1-5.4-1-11-1.5-12.3-1.2-1.4.4-6.7 4.9-11.9 10.1-8.1 8.1-10.2 9.6-14.8 11-6.9 2-10 2-17.2 0-6-1.7-6.1-1.8-22.7-19-2.8-2.9-6.4-3.1-16.4-.8-8.9 2-15.2 1.4-22-2.3-5.9-3.2-12.3-10.7-13.7-16.1-.6-2-1.3-7-1.7-11-.9-9.6-2.8-11.9-13.5-16.3-13.2-5.4-18.1-11-20.9-23.5-1.4-6.3.7-14.3 6.5-24.6 2.5-4.4 4.5-9.1 4.5-10.4 0-1.3-2.3-6.7-5.1-12-4.4-8.1-5.3-10.6-5.7-16.4-.6-8.2 1.4-14.9 6.3-21.3 2.8-3.7 5-5.1 13.4-8.7 5.5-2.4 10.9-5.2 11.8-6.2 1.7-1.9 1.9-1.8 8 4.7 5.3 5.7 6 6.9 5.1 8.5zm20.4 18.7c2.9 3.1 7.8 8.1 10.8 11.3 13.2 13.6 30.5 32.2 31.3 33.5 1.1 2-4.7 2.9-14 2.2-9.2-.7-17.5-4.7-25.1-12-4.9-4.9-6.9-8.1-10.3-16.7-1.5-3.7-1.9-20.2-.7-23.3 1-2.3 1.6-1.9 8 5zm42.8 69.9c5.6 2.3 8 6 8 12.4 0 4.7-.4 5.6-3.8 9-5.2 5.2-10 6.1-15.9 3-11.5-6.1-10.8-20.6 1.2-24.8 4.3-1.5 5.9-1.4 10.5.4zM152.7 141.7c-5.1 5.2-5.3 5.5-3.4 7.1 1.9 1.6 11.1-7.7 10.1-10.1-.9-2.5-1.6-2.2-6.7 3zM156.5 147l-4.9 5 2.9 3c2.9 3 4.9 3.7 5.9 2.2.3-.5-.3-1.8-1.4-2.9-2.3-2.6-1.3-3.9 1.2-1.6 1.4 1.2 2.1 1.4 3 .5.9-.9.7-1.6-.6-3.1-.9-1-1.3-2.2-.8-2.5.5-.3 1.7.3 2.7 1.4 1.4 1.6 2.1 1.7 3.2.8 1.1-.9.8-1.7-1.9-4.5-1.7-1.8-3.5-3.3-3.8-3.3-.3 0-2.8 2.2-5.5 5zM164.6 155.5c-4.2 3.8-4.7 4.7-3.6 6 1.2 1.4 1.6 1.3 4.3-1.2l2.9-2.8-1.6 3.9c-1.3 3.1-1.4 4.2-.4 5.5.7.9 1.3 1.8 1.5 2 .1.2 2.5-2 5.2-4.9 4.1-4.2 4.9-5.6 3.9-6.7-.9-1.1-1.6-.9-3.9 1.3l-2.9 2.8 1.7-4.3c1.4-3.7 1.5-4.4.2-5.2-2.1-1.3-2-1.3-7.3 3.6zM174.2 165.3c-3.9 4.2-1.9 11.7 3.1 11.7 2.1 0 2.2-2.6.2-3.4-1.8-.7-2-3.7-.3-5.4 1.7-1.7 4.5-1.5 5.2.3.6 1.6 4.6 2.1 4.6.6 0-.4-.9-2-2.1-3.5-2.7-3.4-7.7-3.6-10.7-.3zM183.3 174.6l-5.3 4.6 3.2 3.9c2.8 3.5 3.3 3.8 4.7 2.5 1.3-1.4 1.3-1.8-.4-3.6-2.3-2.5-1.2-3.9 1.3-1.7 1.4 1.3 2.1 1.4 3 .5.9-.9.8-1.6-.5-3-2.2-2.4-.8-3.6 1.6-1.4 3.3 3 4.4.8 1.5-3-1.5-1.9-2.9-3.4-3.3-3.4-.3 0-3 2.1-5.8 4.6zM195.3 185c-2.9 1.7-3.3 2.5-3.3 6.5 0 4.7 1.6 6.5 6 6.5 2.8 0 8-5.2 8-8 0-2.3-4.2-7-6.2-7-.7 0-2.8.9-4.5 2zm6.5 4.6c.2 1.4-.6 2.4-2.3 3.2-4.5 2.1-6-.3-2.4-3.9 2.4-2.4 4.3-2.1 4.7.7zM204.2 197.2c-4.8 4.6-5.2 5.2-3.8 6.6 1.4 1.4 1.7 1.4 3.4-.1 1.7-1.6 2-1.6 3.2-.2 1.9 2.3 5.7 1.8 7.6-1 1.5-2.3 1.5-2.7 0-4.8-2.4-3.4-4.3-5.7-4.7-5.7-.2 0-2.8 2.3-5.7 5.2zm6.8 2.3c0 .8-.4 1.5-.9 1.5-1.3 0-2.2-1.6-1.4-2.4 1.1-1.1 2.3-.6 2.3.9zM213.2 206.3c-2.3 2.3-4.2 4.7-4.2 5.3 0 .6 1.3 2.2 2.8 3.7 2.2 2.1 3.1 2.4 4 1.5.9-.9.7-1.7-1-3.5-1.6-1.7-1.8-2.3-.7-2.3.8 0 2 .5 2.7 1.2.9.9 1.5.9 2.4 0 .9-.9.9-1.5 0-2.4-2-2-1.3-3.2.8-1.3 1.1 1 2.6 1.5 3.6 1.1 1.4-.6 1.3-1-.9-3.9-1.3-1.7-3.1-3.3-3.8-3.5-.8-.1-3.3 1.7-5.7 4.1zM221.1 214.9c-3.1 2.8-5.1 5.3-4.7 6 1.1 1.7 2.7 1.3 5.3-1.1l2.4-2.2-1.5 4.1c-1.4 4-.8 6.3 1.8 6.3 1 0 9.6-9 9.6-10.2 0-1.9-2.4-1.8-4.5.2l-2.4 2.3 1-3.8c1-3.7.7-6.5-.8-6.5-.4.1-3.2 2.3-6.2 4.9zM230.7 225.8c-3.7 3.7-4.4 5.1-3.5 6 .9.9 1.7.7 3.5-1 2.6-2.4 2.8-2.1 1.3 1.7-.7 1.8-.7 3.3 0 4.6 1 1.8 1.4 1.6 6.5-2.8 3-2.7 5.5-5.4 5.5-6.1 0-1.9-3.2-1.4-5.8 1l-2.4 2.3 1.7-3.7c1.9-3.8 1.5-6.8-.8-6.8-.7 0-3.4 2.2-6 4.8zM240.5 236l-4.9 5 3.4 3.5c2.6 2.7 3.6 3.2 4.7 2.3 1.1-.9 1-1.5-.7-3.3-1.5-1.6-1.8-2.5-1-3 .6-.4 1.7.1 2.4 1.1 1.4 1.8 3.6 1.2 3.6-1.1 0-.8-.7-1.8-1.6-2.3-1-.6-1.2-1.2-.6-1.6.5-.3 1.5.1 2.2.9 1.6 1.9 4 2 4 .1 0-1.5-4.4-6.6-5.7-6.6-.5 0-3.1 2.2-5.8 5zM250.3 242.5c-.3.9-.3 3.3 0 5.3.6 3.6.5 3.6-1 1.4s-5.3-3.1-5.3-1.2c0 .5 1.3 2.4 2.9 4.2 2.7 3 3.1 3.1 5.6 2 2.5-1.2 2.7-1.6 2.1-5.5-.5-3.7-.4-4 .8-2.5 1.6 2.1 4.6 2.4 4.6.5 0-4.1-8.3-7.7-9.7-4.2zM259.7 250.1c-1.6.9-1.8 1.8-1.2 5.7.6 4.1.5 4.5-.9 3.3-.9-.8-1.6-2-1.6-2.8 0-.8-.7-1.3-1.7-1.1-2.5.5-1.8 3.8 1.3 6.5 3.1 2.8 3.9 2.8 6.5.2 1.3-1.3 1.8-2.7 1.4-3.7-.4-.9-1-2.6-1.3-3.7-.5-1.9-.4-1.9 1.5-.3 2.3 2.1 4.3 2.3 4.3.5 0-3.6-5.1-6.4-8.3-4.6zM269.6 263.1c-1.1 1.6-1.2 2.8-.5 4.7 1.2 3.1.4 4.1-1.1 1.3-1.3-2.6-4-2.8-4-.3 0 3.1 4.5 6.5 7.6 5.8 2.5-.7 2.6-1 2.1-5.4-.4-4.4-.4-4.6 1-2.5 1.5 2.3 4.3 2.1 4.3-.3 0-2-3.7-5.4-5.9-5.4-1.1 0-2.7 1-3.5 2.1zM277.2 272.3c-2.4 2.4-4.2 5.2-4.2 6.5 0 2.9 3.4 6.2 6.3 6.2 2.4 0 9.7-6.6 9.7-8.7 0-2.5-1.9-2.1-5.6 1.2-4.2 3.8-4.9 4.1-6 2.4-.3-.6 1.1-2.8 3.2-5 3.4-3.5 3.6-4.1 2.3-5.4-1.3-1.3-1.9-1-5.7 2.8zM285.8 283.9c-4 4.2-4.5 5.1-3.3 6.1 1.2 1 1.8 1 3 0s1.9-1 2.7-.2c.7.7 2.4 1.2 3.8 1.2 5.5 0 6.7-5 2.2-9.3-1.5-1.5-3-2.7-3.3-2.7-.2 0-2.5 2.2-5.1 4.9zm7.2 2.2c0 .5-.7.9-1.5.9-1.5 0-2-1.2-.9-2.3.8-.8 2.4.1 2.4 1.4zM294.9 292.8c-4.7 4.4-5.2 5.1-4 6.6 1.2 1.4 1.6 1.5 3 .2s1.9-1.3 3.5 0c2.6 1.8 5.1 1.8 7-.2 2.4-2.4 1.9-5.7-1.3-8.8l-2.8-2.7-5.4 4.9zm7.1 2.8c0 1.6-.2 1.6-2.4.8-1.3-.5-1.4-.9-.5-2 1.3-1.6 2.9-.9 2.9 1.2zM304.3 301.6c-5.8 4.5-3.6 12.4 3.5 12.4 3.2 0 7.2-4.3 7.2-7.7 0-3.4-.8-4.6-3.7-6.2-3-1.5-3.3-1.4-7 1.5zm6.4 2.9c.5 1.6-2.2 5.5-3.9 5.5-1.8 0-2-3.1-.3-5 2.2-2.4 3.4-2.5 4.2-.5zM313.7 312.8c-2.6 2.6-4.7 5.3-4.7 5.9 0 1.9 2.4 2.1 4.2.5 1.6-1.4 1.8-1.2 1.5 2.3-.2 4.5 1.7 5.8 3.4 2.3.6-1.3 2.4-2.9 4-3.5 3.9-1.5 4-5.9.1-9.6-1.5-1.5-3-2.7-3.3-2.7-.3 0-2.6 2.2-5.2 4.8zm7.3 2.8c0 1.7-2.2 1.4-2.8-.4-.2-.7.3-1.2 1.2-1.2.9 0 1.6.7 1.6 1.6zM326.2 318.2c-.9.9-.9 1.5 0 2.6 1 1.2.6 2-2.5 4.6-2 1.7-3.7 3.6-3.7 4.2 0 2.7 3 2.1 6.5-1.3 3-2.9 3.8-3.3 5.1-2.2 1.1.9 1.8.9 2.7 0 .9-.9.2-2.1-2.9-5.1-3.1-3.1-4.2-3.8-5.2-2.8z"/></svg>