<?xml version="1.0" encoding="UTF-8" ?>
<!DOCTYPE svg PUBLIC "-//W3C//DTD SVG 1.1//EN" "http://www.w3.org/Graphics/SVG/1.1/DTD/svg11.dtd">
<svg width="2000pt" height="423pt" viewBox="0 0 2000 423" version="1.1" xmlns="http://www.w3.org/2000/svg">
<g id="#ccccccff">
<path fill="#cccccc" opacity="1.00" d=" M 185.50 1.83 C 237.80 -5.09 292.43 8.89 335.18 39.76 C 364.35 60.66 388.11 89.06 403.37 121.55 C 418.61 153.64 425.35 189.66 422.98 225.09 C 421.12 258.20 410.95 290.76 394.04 319.26 C 373.48 354.05 342.72 382.70 306.56 400.76 C 277.04 415.49 244.01 423.44 210.98 422.92 C 183.09 423.19 155.25 417.27 129.55 406.51 C 94.37 391.71 63.36 367.16 40.87 336.32 C 14.70 300.86 0.34 256.99 0.10 212.95 C -0.01 190.61 3.40 168.24 10.23 146.96 C 23.06 106.71 48.43 70.64 81.78 44.75 C 111.63 21.44 147.88 6.29 185.50 1.83 M 103.10 66.60 C 142.17 107.60 180.93 148.91 219.91 190.01 C 263.46 236.17 307.14 282.21 350.66 328.39 C 369.33 305.77 383.03 278.88 389.04 250.10 C 400.04 201.14 389.14 147.81 359.91 107.02 C 329.43 63.58 279.03 34.62 226.01 31.05 C 182.52 27.34 137.91 40.27 103.10 66.60 M 93.53 79.78 C 94.08 82.24 96.50 84.97 94.12 87.18 C 92.13 85.60 90.87 83.44 90.25 81.00 C 89.03 81.20 87.81 81.39 86.59 81.58 C 87.31 84.95 88.86 88.54 92.29 89.90 C 95.53 91.80 100.26 88.82 99.88 85.09 C 99.79 82.44 96.48 79.72 98.33 77.30 C 100.82 77.05 101.41 80.25 102.40 81.92 C 103.42 81.84 104.44 81.75 105.47 81.66 C 105.49 78.14 103.32 74.77 99.93 73.65 C 96.40 72.17 92.06 76.14 93.53 79.78 M 99.77 98.25 C 101.00 101.26 104.19 102.62 107.20 103.06 C 107.26 102.13 107.38 100.27 107.43 99.33 C 105.27 99.30 103.40 97.86 102.85 95.77 C 103.35 92.31 106.80 88.58 110.54 89.45 C 112.57 89.92 112.66 92.31 113.46 93.86 C 114.64 93.69 115.81 93.53 116.99 93.36 C 116.46 90.57 115.33 87.54 112.54 86.31 C 105.70 82.17 96.02 91.12 99.77 98.25 M 80.29 86.70 C 76.73 90.70 73.16 94.71 69.81 98.90 C 41.18 134.60 26.90 181.49 31.18 227.08 C 35.06 278.74 63.06 327.75 104.99 358.04 C 138.17 382.42 179.85 394.79 220.95 392.56 C 260.44 390.83 298.98 375.35 329.14 349.87 C 246.18 262.16 163.29 174.37 80.29 86.70 M 107.09 106.06 C 108.09 107.16 109.07 108.27 110.06 109.37 C 114.39 105.29 118.71 101.20 123.03 97.12 C 122.02 96.07 121.02 95.01 120.02 93.96 C 115.79 98.07 111.53 102.16 107.09 106.06 M 112.74 112.08 C 115.45 114.95 118.14 117.83 120.84 120.71 C 121.67 119.79 122.50 118.87 123.32 117.96 C 121.68 116.25 120.01 114.56 118.34 112.88 C 119.24 111.99 120.15 111.09 121.06 110.20 C 122.40 111.68 123.74 113.17 125.06 114.67 C 125.99 113.80 126.92 112.93 127.86 112.06 C 126.46 110.69 125.08 109.31 123.69 107.94 C 124.45 107.13 125.22 106.33 125.99 105.52 C 127.59 107.32 129.22 109.09 130.86 110.86 C 131.49 110.21 132.77 108.91 133.41 108.26 C 130.85 105.50 128.20 102.82 125.77 99.95 C 121.44 104.00 117.21 108.18 112.74 112.08 M 122.97 122.96 C 123.95 124.00 124.93 125.04 125.89 126.09 C 128.87 123.18 131.77 120.20 134.52 117.07 C 132.86 121.35 131.22 125.64 129.60 129.94 C 130.59 131.04 131.57 132.15 132.55 133.26 C 136.96 129.29 141.15 125.09 145.54 121.11 C 144.64 120.05 143.74 119.00 142.85 117.94 C 139.72 120.69 137.07 123.90 134.06 126.77 C 135.97 122.65 137.37 118.34 138.94 114.09 C 137.95 112.98 136.96 111.87 135.99 110.74 C 131.70 114.86 127.35 118.93 122.97 122.96 M 138.62 139.16 C 139.74 142.39 143.05 144.02 146.23 144.51 C 146.38 143.29 146.52 142.07 146.67 140.85 C 144.59 140.40 142.14 139.44 141.99 136.97 C 142.42 133.68 145.61 130.59 148.98 130.64 C 151.33 130.97 151.81 133.46 152.51 135.29 C 153.41 135.14 155.19 134.84 156.08 134.69 C 155.52 131.87 154.26 128.81 151.44 127.61 C 144.75 123.89 135.60 132.08 138.62 139.16 M 146.27 147.62 C 148.89 150.39 151.50 153.17 154.10 155.96 C 154.99 155.08 155.88 154.20 156.77 153.33 C 155.05 151.63 153.37 149.88 151.71 148.12 C 152.67 147.30 153.62 146.48 154.58 145.66 C 155.88 147.13 157.19 148.61 158.49 150.09 C 159.37 149.19 160.25 148.28 161.13 147.38 C 159.77 145.98 158.41 144.59 157.06 143.19 C 157.82 142.44 158.59 141.68 159.36 140.93 C 160.95 142.67 162.55 144.41 164.14 146.14 C 165.02 145.33 165.91 144.51 166.79 143.70 C 164.24 140.86 161.57 138.14 159.06 135.27 C 154.99 139.58 150.43 143.39 146.27 147.62 M 169.41 153.30 C 166.32 154.89 163.51 157.60 162.83 161.13 C 161.80 165.89 166.27 170.72 171.05 170.42 C 175.16 169.86 178.66 166.81 180.23 163.03 C 182.42 157.12 175.11 150.20 169.41 153.30 M 185.68 163.66 C 181.45 167.77 177.14 171.80 172.85 175.85 C 173.88 176.91 174.91 177.98 175.93 179.05 C 177.28 177.65 178.64 176.25 180.00 174.86 C 181.77 176.48 183.39 178.93 186.05 178.95 C 190.01 179.66 194.30 174.73 192.05 171.03 C 190.42 168.19 187.92 166.00 185.68 163.66 M 183.98 187.70 C 186.74 190.44 189.44 193.25 191.97 196.21 C 192.79 195.26 193.61 194.32 194.44 193.38 C 192.83 191.67 191.22 189.97 189.64 188.24 C 190.47 187.37 191.30 186.49 192.13 185.62 C 193.54 187.09 194.91 188.61 196.25 190.14 C 197.14 189.29 198.03 188.43 198.92 187.58 C 197.59 186.11 196.26 184.64 194.93 183.17 C 195.67 182.43 196.41 181.69 197.14 180.95 C 198.79 182.73 200.43 184.51 202.00 186.36 C 202.84 185.42 203.67 184.48 204.51 183.55 C 201.94 180.87 199.35 178.22 196.96 175.38 C 192.64 179.50 188.28 183.56 183.98 187.70 M 194.32 198.40 C 195.21 199.43 196.09 200.48 196.99 201.52 C 200.05 198.81 202.70 195.70 205.59 192.82 C 203.98 196.98 202.33 201.13 200.86 205.34 C 201.87 206.48 202.87 207.61 203.90 208.74 C 208.06 204.59 212.37 200.59 216.68 196.60 C 215.77 195.51 214.87 194.41 213.98 193.30 C 210.89 196.24 207.98 199.36 205.20 202.59 C 206.96 198.28 208.52 193.90 210.19 189.55 C 209.13 188.42 208.09 187.27 207.07 186.12 C 202.96 190.36 198.52 194.26 194.32 198.40 M 206.63 211.51 C 207.54 212.53 208.46 213.53 209.37 214.55 C 212.47 211.89 215.07 208.73 218.09 206.00 C 216.22 210.04 214.81 214.26 213.24 218.42 C 214.21 219.56 215.17 220.72 216.13 221.89 C 220.43 217.79 224.72 213.67 229.15 209.69 C 228.21 208.66 227.26 207.62 226.33 206.59 C 223.14 209.37 220.43 212.63 217.42 215.59 C 219.50 211.44 220.89 207.01 222.53 202.68 C 221.51 201.58 220.46 200.50 219.42 199.43 C 215.21 203.51 210.88 207.47 206.63 211.51 M 219.06 224.77 C 221.68 227.51 224.27 230.28 226.90 233.02 C 227.80 232.19 228.70 231.37 229.61 230.56 C 227.92 228.82 226.25 227.08 224.53 225.38 C 225.44 224.48 226.36 223.59 227.28 222.71 C 228.59 224.21 229.91 225.71 231.21 227.23 C 232.10 226.34 232.98 225.46 233.88 224.59 C 232.54 223.16 231.21 221.72 229.87 220.29 C 230.43 219.73 231.55 218.59 232.11 218.02 C 233.72 219.74 235.33 221.46 236.95 223.17 C 237.85 222.37 238.76 221.56 239.66 220.76 C 237.02 218.04 234.39 215.31 231.91 212.45 C 227.65 216.59 223.18 220.50 219.06 224.77 M 238.91 225.88 C 234.59 228.44 237.58 233.71 238.71 237.23 C 236.15 240.35 233.90 235.05 233.75 232.75 C 232.42 232.91 231.10 233.07 229.78 233.23 C 230.48 236.81 232.34 240.83 236.15 241.89 C 239.34 243.13 243.34 240.47 242.97 236.96 C 242.53 234.58 241.45 232.40 240.89 230.06 C 242.92 227.12 244.98 231.92 245.48 233.68 C 246.35 233.56 248.10 233.32 248.97 233.20 C 248.60 228.62 243.67 223.00 238.91 225.88 M 246.70 240.97 C 247.15 243.40 248.38 245.59 249.04 247.96 C 248.53 248.34 247.52 249.10 247.01 249.48 C 245.53 247.91 244.35 246.09 243.97 243.94 C 243.05 243.97 241.20 244.04 240.27 244.08 C 240.75 247.71 242.61 251.46 246.23 252.83 C 249.16 254.31 252.63 251.96 253.42 249.04 C 253.92 245.88 250.38 243.04 251.84 239.92 C 254.29 239.87 254.98 242.76 255.86 244.52 C 256.67 244.42 258.30 244.23 259.11 244.13 C 258.96 240.55 256.52 236.92 252.86 236.26 C 249.89 235.55 246.92 238.01 246.70 240.97 M 261.58 258.62 C 261.78 260.45 264.18 262.77 262.06 264.14 C 259.27 263.87 258.64 260.87 258.21 258.62 C 257.22 258.69 255.24 258.83 254.25 258.91 C 254.76 262.85 257.04 266.84 261.05 268.05 C 263.54 268.84 266.05 267.05 267.10 264.87 C 268.76 261.52 264.26 258.10 265.97 254.93 C 268.44 254.80 269.09 257.69 269.85 259.48 C 270.73 259.37 272.50 259.15 273.38 259.04 C 272.78 254.96 269.61 250.31 264.93 251.17 C 261.43 251.51 260.27 255.78 261.58 258.62 M 267.46 269.57 C 263.51 274.62 271.12 282.83 276.42 279.35 C 280.27 277.03 283.21 273.53 286.48 270.50 C 285.61 269.48 284.73 268.47 283.86 267.46 C 280.62 270.06 277.99 273.41 274.54 275.73 C 271.96 277.37 269.13 273.47 271.30 271.43 C 273.90 268.48 276.99 266.01 279.72 263.18 C 278.76 262.14 277.80 261.10 276.85 260.06 C 273.75 263.25 270.03 265.89 267.46 269.57 M 276.37 285.42 C 277.32 286.47 278.27 287.53 279.21 288.59 C 280.64 287.28 282.05 285.94 283.48 284.62 C 285.34 286.39 287.25 288.50 290.00 288.69 C 293.02 288.64 295.94 286.12 295.99 283.00 C 295.68 278.66 291.56 276.24 289.12 273.09 C 285.12 277.45 280.60 281.29 276.37 285.42 M 287.52 297.17 C 288.45 298.24 289.39 299.30 290.35 300.36 C 291.83 299.04 293.30 297.70 294.76 296.36 C 296.07 297.68 297.23 299.35 299.09 299.95 C 302.87 301.82 307.76 298.03 307.23 293.97 C 306.06 290.24 302.72 287.85 300.24 285.01 C 296.13 289.19 291.77 293.13 287.52 297.17 M 307.35 300.24 C 304.46 301.93 301.92 304.59 301.22 307.96 C 300.52 311.51 302.98 314.98 306.04 316.53 C 311.86 318.72 318.13 313.68 319.03 307.96 C 319.43 302.20 312.63 297.17 307.35 300.24 M 311.39 322.46 C 312.33 323.55 313.27 324.64 314.22 325.73 C 315.87 324.16 317.51 322.58 319.16 321.00 C 320.96 323.76 318.59 326.69 317.80 329.36 C 318.95 330.61 320.09 331.89 321.21 333.18 C 321.98 330.58 322.68 327.96 323.52 325.38 C 327.11 326.72 330.96 323.60 331.35 320.02 C 330.44 315.89 326.78 313.32 324.15 310.31 C 320.01 314.48 315.64 318.42 311.39 322.46 M 332.03 324.01 C 333.17 325.17 334.32 326.33 335.44 327.52 C 331.93 330.65 328.65 334.04 325.03 337.04 C 326.06 338.15 327.07 339.27 328.08 340.40 C 331.39 337.04 335.03 334.03 338.22 330.56 C 339.36 331.74 340.49 332.93 341.64 334.11 C 342.54 333.30 343.44 332.48 344.36 331.69 C 341.19 328.30 337.88 325.05 334.88 321.50 C 333.93 322.34 332.98 323.17 332.03 324.01 Z" />
<path fill="#cccccc" opacity="1.00" d=" M 446.20 22.18 C 448.87 17.83 454.03 15.55 459.03 15.61 C 486.02 15.64 513.02 15.59 540.01 15.63 C 545.47 15.73 551.38 17.94 553.97 23.09 C 556.83 29.52 556.86 37.27 553.75 43.61 C 550.90 48.75 544.68 50.91 539.08 50.77 C 521.41 50.73 503.74 50.80 486.07 50.74 C 485.88 63.58 485.86 76.44 486.07 89.29 C 501.05 89.25 516.03 89.24 531.01 89.29 C 536.47 89.20 542.15 92.21 544.42 97.31 C 546.90 103.74 546.81 111.35 543.57 117.48 C 540.62 122.58 534.47 124.28 528.94 124.25 C 514.67 124.24 500.39 124.33 486.12 124.19 C 485.69 140.48 486.13 156.78 485.90 173.06 C 485.87 179.10 483.08 185.46 477.69 188.53 C 472.70 191.43 466.70 191.49 461.11 191.09 C 455.05 190.80 448.79 187.62 446.14 181.95 C 444.10 178.33 443.98 174.07 443.84 170.03 C 443.84 123.99 443.85 77.96 443.83 31.93 C 443.90 28.58 444.12 24.97 446.20 22.18 Z" />
<path fill="#cccccc" opacity="1.00" d=" M 586.31 30.10 C 586.34 22.31 593.16 15.42 601.02 15.63 C 627.66 15.59 654.30 15.64 680.94 15.61 C 685.28 15.72 690.00 16.54 693.24 19.68 C 697.04 23.35 698.07 28.97 697.91 34.05 C 697.77 38.91 696.40 44.27 692.39 47.39 C 689.14 49.77 685.05 50.85 681.05 50.77 C 663.57 50.73 646.09 50.79 628.61 50.74 C 628.62 61.55 628.62 72.36 628.61 83.17 C 642.73 83.16 656.84 83.13 670.96 83.18 C 676.50 83.22 682.61 85.32 685.31 90.53 C 688.20 96.75 688.21 104.19 685.72 110.55 C 683.29 115.88 677.32 118.77 671.63 118.58 C 657.29 118.65 642.95 118.64 628.61 118.58 C 628.64 131.00 628.58 143.41 628.64 155.83 C 646.75 155.62 664.87 155.80 682.98 155.74 C 688.55 155.77 694.80 157.33 697.95 162.35 C 701.69 168.95 701.76 177.57 698.24 184.28 C 695.42 189.25 689.44 191.39 683.96 191.24 C 656.01 191.24 628.06 191.34 600.12 191.19 C 592.24 191.23 586.02 183.68 586.28 176.06 C 586.28 127.41 586.21 78.75 586.31 30.10 Z" />
<path fill="#cccccc" opacity="1.00" d=" M 748.39 16.57 C 755.73 14.91 764.31 14.96 770.65 19.52 C 775.77 23.30 777.42 29.94 777.43 36.01 C 777.47 80.66 777.42 125.32 777.45 169.97 C 777.46 175.92 776.35 182.50 771.64 186.62 C 766.35 191.42 758.71 191.64 751.98 191.04 C 746.38 190.65 740.75 187.78 737.92 182.80 C 735.99 179.20 735.06 175.10 735.18 171.02 C 735.19 127.01 735.19 83.00 735.18 38.99 C 735.04 34.53 735.19 29.93 737.12 25.81 C 739.01 21.10 743.47 17.65 748.39 16.57 Z" />
<path fill="#cccccc" opacity="1.00" d=" M 801.84 22.93 C 803.11 17.58 808.99 15.50 813.94 15.61 C 819.94 15.68 825.94 15.48 831.94 15.71 C 836.79 16.06 841.33 19.01 843.31 23.51 C 852.60 46.83 860.32 70.75 869.24 94.21 C 869.77 93.47 870.23 92.69 870.64 91.88 C 877.75 72.65 885.12 53.52 892.28 34.32 C 894.40 29.28 895.46 23.35 900.01 19.80 C 904.06 16.10 909.76 15.25 915.05 15.61 C 921.30 15.99 928.37 14.32 933.89 18.07 C 938.44 21.45 938.02 27.89 935.69 32.47 C 920.85 64.33 905.81 96.11 890.93 127.95 C 890.26 129.20 890.29 130.64 890.30 132.02 C 890.34 144.68 890.30 157.34 890.33 170.01 C 890.25 176.10 889.02 182.94 884.03 187.01 C 878.79 191.38 871.52 191.61 865.05 191.06 C 859.51 190.70 853.91 187.94 851.09 183.02 C 848.90 179.09 848.16 174.49 848.20 170.04 C 848.23 157.37 848.19 144.69 848.23 132.02 C 848.32 130.45 848.07 128.90 847.38 127.49 C 833.95 98.65 820.55 69.79 807.17 40.93 C 804.84 35.18 800.46 29.44 801.84 22.93 Z" />
<path fill="#cccccc" opacity="1.00" d=" M 990.09 26.92 C 992.13 20.17 998.98 15.55 1005.95 15.61 C 1014.95 15.65 1023.96 15.55 1032.97 15.66 C 1039.98 15.92 1046.48 21.08 1048.16 27.92 C 1062.65 74.66 1077.04 121.44 1091.52 168.19 C 1092.64 172.39 1094.71 176.48 1094.30 180.95 C 1094.40 186.40 1089.30 190.81 1084.08 191.08 C 1078.07 191.44 1072.05 191.24 1066.05 191.21 C 1059.23 191.19 1053.01 186.05 1051.42 179.48 C 1048.98 169.97 1046.46 160.48 1044.13 150.94 C 1026.79 151.04 1009.44 150.79 992.10 151.07 C 989.92 160.43 987.43 169.71 985.02 179.01 C 983.82 184.61 979.37 189.41 973.79 190.81 C 969.24 191.62 964.59 191.13 960.01 191.27 C 955.92 191.22 951.39 191.56 947.93 188.97 C 943.39 186.04 942.31 179.82 944.14 174.98 C 959.37 125.60 974.77 76.27 990.09 26.92 M 1017.71 46.54 C 1012.51 70.66 1006.20 94.51 1000.37 118.48 C 1012.30 118.36 1024.24 118.40 1036.17 118.45 C 1030.45 96.65 1025.02 74.77 1019.96 52.81 C 1019.26 50.71 1019.32 48.21 1017.71 46.54 Z" />
<path fill="#cccccc" opacity="1.00" d=" M 1122.61 18.68 C 1127.17 14.91 1133.45 15.63 1138.98 15.62 C 1144.97 15.85 1151.26 14.75 1156.95 17.17 C 1160.74 18.91 1163.65 22.20 1165.46 25.90 C 1176.22 46.67 1187.01 67.42 1197.79 88.18 C 1206.45 104.12 1212.95 121.10 1220.60 137.51 C 1221.00 137.97 1221.80 138.90 1222.19 139.36 C 1219.51 114.32 1215.88 89.28 1216.32 64.03 C 1216.34 54.33 1216.28 44.63 1216.35 34.93 C 1216.45 29.57 1217.92 23.81 1222.00 20.07 C 1225.78 16.64 1231.06 15.74 1235.99 15.59 C 1241.44 15.58 1247.44 16.50 1251.49 20.50 C 1255.60 24.47 1256.62 30.48 1256.68 35.96 C 1256.68 80.32 1256.67 124.67 1256.68 169.03 C 1256.55 173.31 1257.17 177.76 1255.65 181.87 C 1253.94 187.22 1248.62 191.23 1242.97 191.20 C 1236.00 191.31 1229.03 191.30 1222.06 191.21 C 1216.54 191.26 1211.46 187.69 1209.15 182.77 C 1196.16 157.44 1183.15 132.11 1170.21 106.76 C 1165.20 95.71 1160.36 84.58 1155.41 73.50 C 1154.38 71.37 1153.92 68.79 1151.88 67.34 C 1152.88 79.93 1154.88 92.43 1155.66 105.05 C 1158.18 126.61 1156.97 148.34 1157.28 170.00 C 1157.42 176.16 1156.16 183.11 1151.14 187.23 C 1146.15 191.42 1139.21 191.58 1133.04 191.07 C 1127.27 190.77 1121.57 187.51 1119.06 182.20 C 1116.79 177.14 1116.81 171.46 1116.89 166.02 C 1116.90 121.34 1116.90 76.66 1116.89 31.98 C 1116.81 27.02 1118.41 21.69 1122.61 18.68 Z" />
<path fill="#cccccc" opacity="1.00" d=" M 1294.91 16.09 C 1300.09 15.97 1305.29 16.16 1310.48 15.95 C 1310.49 145.26 1310.56 274.56 1310.44 403.86 C 1305.32 403.64 1300.20 403.74 1295.09 403.78 C 1295.00 291.53 1295.07 179.27 1295.05 67.02 C 1294.97 50.04 1295.21 33.07 1294.91 16.09 Z" />
<path fill="#cccccc" opacity="1.00" d=" M 1543.38 17.42 C 1551.01 14.57 1560.82 20.51 1560.49 28.99 C 1561.22 34.41 1557.96 39.97 1552.82 41.86 C 1547.71 44.12 1541.20 42.68 1537.61 38.38 C 1532.31 31.74 1534.77 19.95 1543.38 17.42 Z" />
<path fill="#cccccc" opacity="1.00" d=" M 1371.45 29.46 C 1380.07 25.13 1390.11 24.74 1399.54 25.78 C 1406.60 26.51 1413.29 29.07 1419.66 32.10 C 1417.80 37.48 1415.71 42.78 1413.60 48.06 C 1404.63 42.71 1393.30 40.66 1383.24 43.88 C 1377.12 45.94 1374.76 54.25 1378.42 59.39 C 1383.07 65.29 1390.75 67.01 1397.36 69.77 C 1405.72 72.86 1414.47 76.81 1419.50 84.58 C 1424.70 91.85 1424.93 101.36 1423.51 109.87 C 1421.74 119.10 1414.42 126.60 1405.56 129.39 C 1395.29 132.64 1384.21 132.71 1373.64 131.13 C 1366.98 130.29 1360.85 127.33 1354.85 124.50 C 1356.52 118.78 1358.94 113.33 1360.69 107.64 C 1371.07 113.93 1383.97 117.07 1395.87 113.66 C 1402.27 111.84 1405.76 103.92 1403.09 97.91 C 1400.18 92.39 1394.15 89.67 1388.71 87.29 C 1379.49 83.38 1368.95 80.88 1362.21 72.91 C 1355.94 65.90 1355.09 55.62 1357.42 46.84 C 1359.07 39.27 1364.60 32.91 1371.45 29.46 Z" />
<path fill="#cccccc" opacity="1.00" d=" M 1449.53 61.57 C 1455.65 55.78 1463.72 52.31 1471.99 50.99 C 1483.64 49.68 1495.87 49.94 1506.82 54.59 C 1504.94 59.93 1503.88 65.51 1502.13 70.89 C 1492.50 67.67 1481.78 66.44 1472.03 69.83 C 1466.44 71.67 1461.67 76.21 1460.18 81.98 C 1458.04 89.17 1458.28 97.34 1461.94 104.00 C 1465.39 110.48 1472.97 113.40 1479.97 113.71 C 1488.36 114.07 1497.00 114.08 1505.00 111.14 C 1506.11 116.72 1506.85 122.36 1507.95 127.95 C 1498.07 131.58 1487.33 132.12 1476.91 131.48 C 1467.16 130.87 1457.26 127.71 1449.89 121.11 C 1441.49 113.67 1437.89 102.01 1438.25 91.03 C 1437.92 80.28 1441.63 69.08 1449.53 61.57 Z" />
<path fill="#cccccc" opacity="1.00" d=" M 1606.10 70.15 C 1611.26 59.38 1622.18 51.48 1634.16 50.52 C 1642.27 49.87 1650.92 50.71 1657.97 55.11 C 1664.32 58.92 1668.68 65.44 1670.78 72.44 C 1673.48 80.56 1673.34 89.29 1672.78 97.74 C 1655.92 97.60 1639.05 97.72 1622.19 97.67 C 1622.58 101.75 1623.95 105.94 1627.29 108.56 C 1633.00 113.43 1640.81 114.33 1648.04 113.81 C 1654.17 113.88 1659.97 111.71 1665.81 110.10 C 1666.90 115.95 1668.00 121.82 1668.53 127.77 C 1662.73 129.12 1657.05 131.06 1651.07 131.40 C 1639.32 132.39 1626.64 131.30 1616.62 124.54 C 1608.33 119.12 1603.26 109.71 1601.90 100.04 C 1600.83 89.96 1601.22 79.27 1606.10 70.15 M 1629.68 69.71 C 1624.89 72.69 1623.27 78.44 1622.21 83.62 C 1632.60 83.66 1643.00 83.54 1653.41 83.68 C 1653.80 76.85 1649.81 69.53 1642.91 67.74 C 1638.47 67.19 1633.44 66.86 1629.68 69.71 Z" />
<path fill="#cccccc" opacity="1.00" d=" M 1689.45 54.59 C 1699.78 52.09 1710.35 50.27 1721.02 50.68 C 1729.77 50.35 1739.29 52.91 1745.01 59.94 C 1750.62 66.97 1751.60 76.31 1751.83 84.98 C 1751.84 100.01 1751.87 115.03 1751.81 130.06 C 1745.02 129.84 1738.24 129.95 1731.46 130.07 C 1731.39 115.05 1731.49 100.03 1731.41 85.01 C 1731.27 80.29 1730.71 75.13 1727.73 71.28 C 1722.86 66.72 1715.59 68.45 1709.62 68.91 C 1709.60 89.29 1709.64 109.66 1709.60 130.04 C 1702.86 130.14 1696.13 129.76 1689.40 130.08 C 1689.40 104.91 1689.30 79.75 1689.45 54.59 Z" />
<path fill="#cccccc" opacity="1.00" d=" M 1774.25 69.23 C 1780.09 58.89 1791.41 52.66 1802.92 50.96 C 1814.47 49.70 1826.57 49.96 1837.43 54.54 C 1835.96 60.00 1834.25 65.39 1833.04 70.92 C 1822.84 67.55 1811.38 66.28 1801.21 70.41 C 1795.27 72.86 1791.13 78.56 1790.09 84.83 C 1789.19 91.59 1789.26 99.01 1793.18 104.89 C 1797.12 111.17 1804.93 113.68 1812.01 113.78 C 1819.95 113.96 1828.22 114.12 1835.69 110.98 C 1836.60 116.65 1837.66 122.30 1838.82 127.92 C 1828.65 131.61 1817.60 132.20 1806.91 131.42 C 1797.92 130.78 1788.92 127.88 1781.85 122.17 C 1775.43 116.97 1771.23 109.31 1769.86 101.21 C 1767.65 90.50 1768.86 78.84 1774.25 69.23 Z" />
<path fill="#cccccc" opacity="1.00" d=" M 1857.98 64.00 C 1863.90 56.19 1873.25 51.00 1883.07 50.45 C 1891.33 49.92 1900.14 50.99 1907.10 55.82 C 1914.18 60.54 1918.41 68.62 1919.93 76.84 C 1921.38 83.69 1921.63 90.77 1920.89 97.73 C 1904.05 97.60 1887.22 97.74 1870.39 97.65 C 1870.16 103.92 1874.66 109.42 1880.33 111.61 C 1885.47 114.20 1891.37 113.97 1896.97 113.77 C 1902.88 113.72 1908.46 111.55 1914.11 110.03 C 1914.71 115.87 1915.73 121.65 1916.95 127.39 C 1906.08 131.23 1894.32 132.74 1882.88 131.08 C 1872.68 129.90 1862.43 125.12 1856.42 116.55 C 1851.64 110.05 1849.74 101.91 1849.39 93.97 C 1848.97 83.43 1851.41 72.44 1857.98 64.00 M 1878.43 69.25 C 1873.32 72.11 1871.07 78.16 1870.39 83.67 C 1880.77 83.61 1891.16 83.53 1901.56 83.71 C 1901.68 76.91 1897.96 69.54 1890.98 67.75 C 1886.80 67.24 1882.12 66.86 1878.43 69.25 Z" />
<path fill="#cccccc" opacity="1.00" d=" M 190.34 59.26 C 203.32 48.97 223.81 49.74 235.80 61.26 C 241.57 67.16 246.85 73.54 252.56 79.49 C 258.38 82.69 264.95 80.08 271.06 79.52 C 275.13 79.13 278.87 76.97 283.03 77.37 C 298.43 77.05 313.27 87.71 317.81 102.45 C 320.47 109.51 319.67 117.19 320.90 124.52 C 321.84 128.46 324.77 131.93 328.64 133.25 C 336.36 136.76 344.92 138.96 351.38 144.72 C 363.60 154.76 368.12 173.14 361.30 187.52 C 357.92 194.25 353.70 200.52 350.12 207.14 C 348.38 210.54 349.01 214.77 351.15 217.85 C 356.21 227.18 363.56 236.01 364.08 247.06 C 365.31 259.44 359.77 272.28 349.82 279.77 C 343.90 284.44 336.39 286.16 329.75 289.50 C 323.83 283.29 318.02 276.96 312.00 270.85 C 318.34 267.25 325.43 265.22 331.93 261.97 C 337.27 258.87 339.52 251.71 336.81 246.14 C 333.90 240.84 330.66 235.72 327.71 230.43 C 322.67 220.90 322.14 209.23 325.85 199.15 C 329.12 191.01 335.02 184.19 338.22 176.04 C 338.76 171.66 337.41 166.11 333.05 164.04 C 326.67 160.83 319.80 158.72 313.42 155.49 C 303.89 150.50 297.00 140.81 295.50 130.15 C 295.01 124.75 294.73 119.31 293.84 113.95 C 292.72 107.67 286.12 103.10 279.85 103.98 C 274.92 104.70 270.03 105.72 265.12 106.59 C 256.54 109.29 247.13 106.71 239.62 102.22 C 232.62 98.16 227.76 91.55 222.28 85.79 C 219.80 83.23 217.86 79.57 214.02 78.93 C 208.78 77.61 203.41 80.15 200.33 84.40 C 193.83 90.90 188.71 99.14 180.38 103.50 C 173.14 107.30 164.43 108.92 156.54 106.30 C 147.87 97.06 139.13 87.90 130.43 78.70 C 134.82 77.66 139.45 76.77 143.92 77.88 C 149.61 79.19 155.44 79.78 161.19 80.82 C 165.68 81.75 170.73 80.30 173.74 76.76 C 179.34 71.00 184.23 64.50 190.34 59.26 Z" />
<path fill="#cccccc" opacity="1.00" d=" M 1519.50 52.14 C 1533.44 52.36 1547.40 52.30 1561.35 52.17 C 1561.42 68.47 1561.35 84.78 1561.39 101.08 C 1561.53 105.10 1562.19 109.85 1565.76 112.33 C 1568.38 114.33 1571.92 113.84 1575.03 113.79 C 1579.66 113.78 1583.98 111.96 1588.19 110.20 C 1589.21 115.65 1589.75 121.18 1590.84 126.62 C 1580.81 131.48 1569.08 133.11 1558.20 130.45 C 1552.17 128.74 1546.93 124.38 1544.42 118.60 C 1540.53 109.61 1540.84 99.59 1540.90 89.99 C 1540.87 83.02 1540.94 76.06 1540.85 69.09 C 1533.71 69.23 1526.58 69.12 1519.45 69.17 C 1519.45 63.49 1519.38 57.82 1519.50 52.14 Z" />
<path fill="#cccccc" opacity="1.00" d=" M 174.71 125.38 C 186.35 123.32 198.71 125.06 209.16 130.66 C 221.51 137.11 231.08 148.72 234.99 162.10 C 237.98 171.17 237.66 180.97 236.04 190.27 C 215.51 168.73 195.04 147.11 174.71 125.38 Z" />
<path fill="#cccccc" opacity="1.00" d=" M 102.73 126.59 C 108.45 132.68 114.20 138.75 119.92 144.84 C 116.30 149.24 112.22 153.43 107.02 155.96 C 101.69 158.45 96.17 160.51 90.76 162.83 C 85.29 165.36 81.78 171.97 83.90 177.85 C 88.16 187.08 95.35 195.05 97.32 205.27 C 98.43 213.30 98.02 221.78 94.33 229.15 C 91.31 234.78 87.91 240.21 84.72 245.75 C 81.37 250.94 83.02 259.45 89.09 261.88 C 98.99 266.68 110.75 269.06 117.99 278.04 C 125.40 286.17 126.62 297.58 126.95 308.09 C 126.83 315.04 132.77 321.92 139.97 321.46 C 147.07 321.07 154.02 319.21 160.98 317.87 C 171.38 317.17 181.58 321.77 189.04 328.85 C 194.23 334.02 198.82 339.78 203.97 345.00 C 208.59 348.00 215.43 347.34 219.13 343.13 C 222.54 339.52 225.86 335.82 229.18 332.14 C 235.72 324.60 244.89 319.03 254.92 317.98 C 258.71 317.21 262.31 319.05 266.07 319.22 C 272.82 319.89 279.54 322.61 286.36 320.90 C 292.21 327.04 298.00 333.25 303.92 339.33 C 299.14 342.49 293.67 344.63 288.00 345.46 C 281.94 346.42 276.11 344.11 270.15 343.44 C 264.31 342.76 257.72 340.45 252.44 344.24 C 245.59 350.13 240.55 357.88 233.63 363.70 C 219.75 374.92 197.26 373.13 185.66 359.42 C 181.09 354.32 176.41 349.31 171.89 344.17 C 168.84 341.77 164.54 341.86 160.87 342.34 C 155.74 343.23 150.49 343.57 145.55 345.31 C 130.12 347.86 113.86 338.80 107.51 324.58 C 103.62 316.60 104.05 307.50 102.85 298.90 C 102.53 295.48 100.05 292.62 97.27 290.80 C 89.00 286.75 79.57 284.65 72.51 278.44 C 62.78 270.37 57.62 257.04 59.74 244.55 C 61.45 233.45 69.50 224.99 73.98 215.04 C 75.95 210.45 73.21 205.86 70.80 202.08 C 67.01 195.20 61.97 188.74 60.47 180.85 C 56.54 164.93 64.85 146.90 79.68 139.78 C 85.51 137.13 91.52 134.88 97.38 132.29 C 99.81 131.11 101.30 128.77 102.73 126.59 Z" />
<path fill="#cccccc" opacity="1.00" d=" M 1382.47 148.62 C 1389.50 147.19 1396.88 148.02 1403.58 150.51 C 1412.03 153.92 1418.27 161.44 1421.46 169.83 C 1426.93 183.49 1426.74 198.53 1426.01 212.98 C 1424.89 222.97 1422.64 233.27 1416.68 241.58 C 1412.50 247.56 1406.14 251.98 1399.06 253.74 C 1389.26 255.77 1378.27 255.04 1369.89 249.13 C 1361.23 243.11 1356.64 232.88 1354.66 222.81 C 1352.22 212.74 1352.65 202.28 1352.91 192.00 C 1353.91 180.68 1356.38 168.80 1363.72 159.77 C 1368.33 153.91 1375.13 149.90 1382.47 148.62 M 1384.38 166.64 C 1378.61 168.85 1376.17 175.34 1374.93 180.90 C 1372.76 194.32 1372.78 208.13 1374.84 221.57 C 1376.01 227.57 1378.85 234.35 1385.08 236.54 C 1389.46 237.35 1394.65 237.44 1398.07 234.06 C 1403.61 228.91 1404.52 220.88 1405.28 213.77 C 1406.02 202.56 1406.12 191.18 1404.01 180.11 C 1402.89 175.28 1400.73 170.25 1396.45 167.42 C 1392.76 165.48 1388.28 165.19 1384.38 166.64 Z" />
<path fill="#cccccc" opacity="1.00" d=" M 171.31 157.16 C 172.79 156.65 175.14 156.46 175.88 158.21 C 177.79 161.72 173.92 165.07 170.94 166.25 C 168.79 167.22 166.90 164.90 166.54 162.98 C 167.27 160.50 169.06 158.41 171.31 157.16 Z" />
<path fill="#cccccc" opacity="1.00" d=" M 134.10 195.77 C 129.70 184.24 129.97 171.22 133.96 159.61 C 155.64 182.74 177.57 205.63 199.21 228.79 C 187.97 231.84 175.69 231.68 164.85 227.20 C 150.76 221.73 139.28 209.96 134.10 195.77 Z" />
<path fill="#cccccc" opacity="1.00" d=" M 182.47 172.86 C 183.71 171.53 184.97 170.22 186.22 168.89 C 187.37 170.36 189.91 172.81 187.59 174.43 C 185.85 176.38 183.93 173.79 182.47 172.86 Z" />
<path fill="#cccccc" opacity="1.00" d=" M 1526.20 188.16 C 1531.78 179.96 1540.99 174.33 1550.88 173.30 C 1561.88 172.12 1574.36 174.45 1581.76 183.37 C 1590.40 193.51 1590.98 207.71 1590.17 220.38 C 1573.29 220.38 1556.41 220.39 1539.53 220.38 C 1539.79 225.80 1542.71 230.98 1547.68 233.40 C 1558.74 239.31 1571.94 236.59 1583.19 232.69 C 1584.31 238.50 1584.97 244.38 1586.02 250.21 C 1574.24 254.42 1561.47 255.44 1549.15 253.43 C 1541.66 251.80 1534.25 248.66 1528.87 243.05 C 1521.39 235.46 1518.28 224.44 1518.73 213.97 C 1518.41 204.86 1521.08 195.69 1526.20 188.16 M 1544.98 194.03 C 1541.59 197.26 1540.50 201.94 1539.59 206.35 C 1550.00 206.29 1560.40 206.33 1570.81 206.33 C 1570.81 200.21 1568.06 193.67 1562.14 191.14 C 1556.48 189.28 1549.37 189.55 1544.98 194.03 Z" />
<path fill="#cccccc" opacity="1.00" d=" M 1773.36 189.48 C 1778.71 180.92 1787.86 174.73 1797.92 173.44 C 1809.40 171.90 1822.60 174.33 1830.20 183.81 C 1838.32 194.01 1839.25 207.90 1838.32 220.42 C 1821.38 220.33 1804.44 220.42 1787.51 220.37 C 1787.74 226.05 1791.13 231.38 1796.35 233.74 C 1807.39 239.24 1820.28 236.46 1831.39 232.65 C 1831.83 238.58 1833.44 244.34 1834.03 250.25 C 1824.71 253.42 1814.87 254.99 1805.02 254.27 C 1793.90 253.88 1782.30 249.82 1775.07 241.01 C 1768.96 233.81 1766.82 224.17 1766.67 214.94 C 1766.65 206.08 1768.49 197.00 1773.36 189.48 M 1793.41 193.65 C 1789.79 196.89 1788.53 201.79 1787.51 206.35 C 1798.00 206.29 1808.49 206.35 1818.99 206.32 C 1818.78 200.17 1816.02 193.53 1810.00 191.07 C 1804.53 189.35 1797.81 189.60 1793.41 193.65 Z" />
<path fill="#cccccc" opacity="1.00" d=" M 1862.53 180.57 C 1869.47 174.48 1879.08 173.14 1887.99 172.96 C 1896.81 173.05 1905.77 173.98 1914.01 177.32 C 1912.72 183.08 1912.01 188.95 1910.76 194.72 C 1901.55 191.34 1891.72 188.86 1881.88 190.59 C 1879.16 190.79 1876.61 192.54 1875.46 194.98 C 1874.63 198.50 1878.20 200.74 1880.82 202.20 C 1890.55 206.98 1902.09 208.21 1910.55 215.43 C 1919.36 222.77 1919.70 237.81 1911.74 245.86 C 1906.98 250.38 1900.48 252.45 1894.17 253.64 C 1885.89 254.64 1877.46 254.76 1869.22 253.42 C 1863.73 252.12 1858.48 250.02 1853.19 248.12 C 1853.96 242.33 1855.55 236.69 1856.28 230.89 C 1861.79 233.07 1867.41 235.02 1873.18 236.43 C 1879.34 237.47 1885.67 237.31 1891.87 236.58 C 1894.21 236.14 1897.44 234.86 1897.39 232.02 C 1897.72 229.18 1895.34 227.04 1893.07 225.85 C 1882.99 220.96 1870.97 220.11 1862.13 212.75 C 1852.36 204.96 1853.19 188.36 1862.53 180.57 Z" />
<path fill="#cccccc" opacity="1.00" d=" M 1944.89 180.89 C 1951.63 174.70 1961.15 173.19 1969.97 172.98 C 1979.03 172.97 1988.25 173.89 1996.71 177.35 C 1995.36 183.11 1994.72 189.00 1993.40 194.77 C 1983.69 191.05 1973.06 188.58 1962.72 190.99 C 1960.54 191.76 1957.98 193.56 1958.19 196.14 C 1958.09 199.31 1961.35 200.95 1963.72 202.30 C 1972.65 206.61 1982.90 208.04 1991.16 213.79 C 1996.60 217.48 2000.30 223.84 2000.00 230.51 L 2000.00 231.45 C 2000.05 236.14 1998.69 240.98 1995.59 244.57 C 1991.13 249.79 1984.31 252.08 1977.81 253.48 C 1969.60 254.65 1961.23 254.74 1953.03 253.61 C 1947.14 252.47 1941.57 250.15 1935.96 248.13 C 1936.72 242.36 1938.09 236.71 1938.98 230.96 C 1944.66 233.02 1950.33 235.19 1956.25 236.49 C 1962.10 237.43 1968.09 237.31 1973.98 236.66 C 1976.64 236.40 1979.86 234.96 1980.20 231.96 C 1980.11 229.02 1977.83 226.75 1975.29 225.62 C 1967.31 221.93 1958.45 220.53 1950.59 216.56 C 1945.68 214.06 1941.20 210.21 1939.11 205.01 C 1936.32 196.78 1938.15 186.71 1944.89 180.89 Z" />
<path fill="#cccccc" opacity="1.00" d=" M 1441.22 177.32 C 1452.18 174.27 1463.62 173.01 1474.98 173.47 C 1483.95 173.82 1493.04 177.34 1498.96 184.28 C 1506.77 193.12 1508.90 205.48 1508.46 216.92 C 1507.91 225.69 1506.24 234.73 1501.34 242.20 C 1496.90 249.09 1489.16 253.91 1480.90 254.27 C 1474.27 254.92 1467.61 253.51 1461.64 250.66 C 1461.70 260.46 1461.68 270.27 1461.65 280.08 C 1454.85 279.90 1448.04 279.87 1441.24 280.06 C 1441.18 245.82 1441.22 211.57 1441.22 177.32 M 1461.70 191.20 C 1461.63 205.47 1461.71 219.73 1461.66 234.00 C 1467.94 237.20 1476.89 238.91 1482.44 233.46 C 1487.38 227.97 1487.70 220.07 1487.65 213.06 C 1487.52 206.11 1485.87 198.40 1480.37 193.66 C 1475.14 189.26 1467.91 190.97 1461.70 191.20 Z" />
<path fill="#cccccc" opacity="1.00" d=" M 1606.77 177.23 C 1619.24 174.38 1632.12 172.38 1644.92 173.81 C 1652.44 174.55 1660.03 178.37 1663.97 185.01 C 1667.93 191.26 1668.69 198.80 1669.18 206.01 C 1669.26 221.55 1669.17 237.10 1669.22 252.65 C 1662.39 252.61 1655.57 252.57 1648.75 252.68 C 1648.69 238.44 1648.80 224.20 1648.70 209.97 C 1648.51 204.51 1648.61 198.46 1645.06 193.96 C 1640.19 189.43 1633.02 191.07 1627.07 191.59 C 1626.80 211.95 1627.05 232.31 1626.91 252.67 C 1620.19 252.59 1613.47 252.58 1606.76 252.68 C 1606.73 227.53 1606.71 202.38 1606.77 177.23 Z" />
<path fill="#cccccc" opacity="1.00" d=" M 1689.38 177.31 C 1701.62 174.35 1714.31 172.51 1726.91 173.73 C 1734.54 174.32 1742.23 178.02 1746.40 184.62 C 1750.89 191.51 1751.62 199.98 1751.83 207.99 C 1751.84 222.88 1751.86 237.77 1751.82 252.66 C 1745.04 252.62 1738.26 252.53 1731.49 252.71 C 1731.36 237.82 1731.50 222.92 1731.42 208.02 C 1731.34 203.28 1730.73 198.23 1727.98 194.22 C 1723.15 189.33 1715.69 191.09 1709.61 191.59 C 1709.60 211.96 1709.66 232.34 1709.58 252.71 C 1702.85 252.56 1696.13 252.57 1689.41 252.70 C 1689.34 227.57 1689.40 202.44 1689.38 177.31 Z" />
<path fill="#cccccc" opacity="1.00" d=" M 258.42 214.10 C 262.82 210.53 268.24 207.94 273.98 207.83 C 283.55 207.44 292.95 213.37 296.85 222.10 C 301.05 231.18 298.71 242.24 291.97 249.45 C 280.68 237.77 269.66 225.83 258.42 214.10 Z" />
<path fill="#cccccc" opacity="1.00" d=" M 647.17 229.98 C 654.31 227.25 662.55 227.21 669.63 230.17 C 676.06 233.03 679.26 240.29 679.17 247.04 C 679.30 263.00 679.11 278.97 679.26 294.94 C 698.59 294.77 717.92 294.80 737.25 294.92 C 737.30 278.93 737.23 262.93 737.28 246.94 C 737.20 241.59 739.10 235.95 743.27 232.42 C 747.88 228.57 754.21 227.83 760.01 228.06 C 765.89 228.25 772.30 230.29 775.67 235.45 C 777.79 238.88 778.95 242.90 778.88 246.94 C 778.91 292.65 778.88 338.36 778.89 384.06 C 779.03 389.79 777.18 395.98 772.55 399.66 C 768.43 402.82 763.11 403.96 757.99 403.70 C 751.78 403.99 744.97 402.06 741.03 396.99 C 738.52 393.53 737.20 389.26 737.28 384.99 C 737.23 367.15 737.29 349.30 737.26 331.46 C 717.91 331.54 698.56 331.51 679.21 331.47 C 679.22 347.33 679.20 363.18 679.22 379.03 C 679.21 384.36 679.50 390.08 676.71 394.85 C 673.47 401.22 665.84 403.96 659.04 403.69 C 653.56 403.99 647.77 402.93 643.38 399.46 C 638.88 395.78 637.01 389.74 637.17 384.08 C 637.16 338.37 637.12 292.65 637.19 246.94 C 636.98 240.04 640.55 232.70 647.17 229.98 Z" />
<path fill="#cccccc" opacity="1.00" d=" M 826.81 242.98 C 826.57 235.22 833.02 228.14 840.86 228.06 C 867.58 228.02 894.32 228.07 921.05 228.04 C 926.01 227.96 931.46 229.22 934.76 233.21 C 938.32 237.59 938.54 243.62 938.07 249.00 C 937.81 253.56 935.63 258.18 931.66 260.63 C 928.10 262.64 923.97 263.33 919.93 263.23 C 903.04 263.13 886.15 263.33 869.26 263.12 C 869.16 273.93 869.22 284.73 869.22 295.54 C 882.80 295.45 896.38 295.53 909.97 295.49 C 915.31 295.44 921.34 296.77 924.70 301.30 C 928.25 306.11 928.20 312.40 927.65 318.08 C 926.94 322.35 924.74 326.69 920.78 328.78 C 917.52 330.68 913.71 331.28 909.99 331.17 C 896.41 331.09 882.83 331.27 869.26 331.07 C 869.15 343.44 869.24 355.80 869.21 368.17 C 885.47 368.14 901.72 368.17 917.98 368.15 C 922.71 368.16 927.66 367.82 932.13 369.71 C 936.83 371.38 940.01 376.02 940.60 380.88 C 941.55 386.77 941.28 393.56 937.45 398.45 C 934.41 401.97 929.61 403.72 925.02 403.67 C 896.99 403.68 868.96 403.69 840.93 403.67 C 833.19 403.77 826.62 396.64 826.83 388.98 C 826.75 340.31 826.78 291.65 826.81 242.98 Z" />
<path fill="#cccccc" opacity="1.00" d=" M 984.64 230.53 C 992.09 227.10 1001.11 227.08 1008.63 230.34 C 1015.17 233.52 1017.94 241.10 1017.92 247.99 C 1017.99 288.04 1017.93 328.10 1017.95 368.16 C 1034.98 368.17 1052.02 368.14 1069.06 368.17 C 1074.60 368.21 1080.82 370.03 1083.72 375.15 C 1087.10 381.57 1087.18 389.64 1084.04 396.16 C 1081.51 401.25 1075.51 403.74 1070.06 403.67 C 1043.36 403.68 1016.67 403.68 989.97 403.67 C 982.15 403.92 975.47 396.77 975.64 389.06 C 975.59 342.04 975.62 295.02 975.62 248.00 C 975.67 241.24 978.17 233.70 984.64 230.53 Z" />
<path fill="#cccccc" opacity="1.00" d=" M 1117.68 242.00 C 1117.71 234.04 1125.21 227.93 1132.88 228.00 C 1149.60 228.09 1166.34 228.05 1183.07 228.04 C 1200.58 228.16 1218.82 230.54 1234.01 239.84 C 1244.03 245.69 1251.14 255.76 1254.33 266.81 C 1259.44 286.05 1256.83 308.67 1242.70 323.59 C 1231.60 336.55 1214.68 342.61 1198.15 344.57 C 1186.20 346.19 1174.10 345.26 1162.09 345.49 C 1162.11 358.00 1162.12 370.51 1162.09 383.02 C 1161.94 389.19 1160.20 396.13 1154.85 399.84 C 1149.38 403.75 1142.39 404.01 1135.92 403.60 C 1129.01 403.20 1121.81 399.48 1119.23 392.73 C 1116.75 386.13 1117.86 378.92 1117.62 372.02 C 1117.66 328.68 1117.53 285.34 1117.68 242.00 M 1162.10 261.42 C 1162.11 278.32 1162.10 295.21 1162.11 312.11 C 1171.10 311.98 1180.11 312.42 1189.09 311.75 C 1197.43 310.79 1206.33 307.04 1210.30 299.17 C 1214.07 291.17 1214.62 281.38 1210.77 273.30 C 1207.97 267.54 1201.73 264.45 1195.75 263.11 C 1184.72 260.42 1173.32 261.78 1162.10 261.42 Z" />
<path fill="#cccccc" opacity="1.00" d=" M 185.49 256.72 C 195.56 253.73 207.10 261.47 208.09 271.93 C 209.89 282.11 201.20 292.48 190.89 292.48 C 182.28 293.17 173.90 286.54 172.37 278.08 C 170.11 268.91 176.45 259.05 185.49 256.72 Z" />
<path fill="#cccccc" opacity="1.00" d=" M 1364.14 280.19 C 1371.13 273.21 1381.39 270.64 1391.01 270.66 C 1400.98 270.38 1410.90 273.06 1419.69 277.70 C 1417.70 282.93 1415.74 288.17 1413.68 293.37 C 1405.84 289.19 1396.82 286.61 1387.90 288.06 C 1384.06 288.72 1379.85 290.23 1377.91 293.88 C 1376.05 297.85 1376.18 303.17 1379.64 306.25 C 1386.01 312.31 1395.07 313.75 1402.80 317.41 C 1412.26 320.95 1420.78 328.37 1423.36 338.42 C 1425.04 347.41 1424.75 357.54 1419.15 365.19 C 1413.46 373.15 1403.39 376.43 1394.02 377.20 C 1384.93 377.53 1375.52 377.98 1366.80 374.96 C 1362.66 373.64 1358.66 371.89 1354.86 369.81 C 1356.63 364.11 1358.98 358.61 1360.73 352.91 C 1367.63 357.31 1375.70 360.38 1383.98 360.32 C 1388.48 360.34 1393.31 360.68 1397.41 358.41 C 1402.73 356.16 1405.11 349.46 1403.45 344.14 C 1401.21 338.96 1396.01 336.03 1391.11 333.80 C 1383.59 330.24 1375.27 328.33 1368.29 323.67 C 1362.49 319.81 1357.82 313.85 1356.73 306.84 C 1355.24 297.52 1357.24 287.02 1364.14 280.19 Z" />
<path fill="#cccccc" opacity="1.00" d=" M 1868.09 278.03 C 1874.85 277.27 1881.52 275.78 1888.28 274.90 C 1888.25 282.47 1888.22 290.05 1888.30 297.62 C 1899.17 297.48 1910.04 297.60 1920.91 297.55 C 1920.87 303.21 1920.88 308.86 1920.90 314.52 C 1910.04 314.44 1899.17 314.59 1888.31 314.43 C 1888.23 325.58 1888.21 336.73 1888.31 347.88 C 1888.37 352.65 1890.52 358.51 1895.95 359.18 C 1903.88 360.12 1912.33 359.10 1919.39 355.18 C 1920.49 361.08 1921.61 366.98 1922.31 372.95 C 1912.04 376.95 1900.78 377.81 1889.88 376.89 C 1883.41 376.26 1876.44 373.97 1872.77 368.23 C 1868.03 361.11 1867.87 352.25 1868.05 344.00 C 1867.98 334.15 1868.20 324.30 1867.91 314.46 C 1862.03 314.55 1856.16 314.44 1850.29 314.55 C 1850.24 308.87 1850.25 303.19 1850.29 297.51 C 1856.20 297.58 1862.13 297.56 1868.06 297.55 C 1868.05 291.04 1868.00 284.54 1868.09 278.03 Z" />
<path fill="#cccccc" opacity="1.00" d=" M 289.78 278.65 C 290.69 279.86 291.59 281.08 292.50 282.31 C 291.57 283.44 290.50 284.44 289.28 285.25 C 288.15 284.23 287.02 283.21 285.89 282.20 C 287.19 281.03 288.48 279.84 289.78 278.65 Z" />
<path fill="#cccccc" opacity="1.00" d=" M 530.37 289.63 C 536.16 287.88 542.50 288.44 548.01 290.85 C 554.09 293.79 558.85 299.22 561.17 305.54 C 563.01 311.39 563.08 317.74 561.38 323.64 C 558.74 331.64 552.06 338.28 543.84 340.40 C 536.64 341.79 528.65 341.01 522.78 336.26 C 511.03 327.71 509.18 309.27 518.09 298.05 C 521.24 294.15 525.43 290.86 530.37 289.63 Z" />
<path fill="#cccccc" opacity="1.00" d=" M 296.98 294.10 C 298.31 292.87 299.65 291.64 300.98 290.40 C 301.77 291.54 302.78 292.57 303.21 293.93 C 303.35 295.47 301.60 296.01 300.78 297.00 C 299.48 296.07 298.22 295.10 296.98 294.10 Z" />
<path fill="#cccccc" opacity="1.00" d=" M 1523.91 300.01 C 1534.32 297.19 1545.15 295.90 1555.94 296.07 C 1565.06 296.29 1574.55 299.23 1580.84 306.14 C 1588.92 314.53 1591.32 326.66 1591.20 337.93 C 1590.76 347.51 1589.18 357.51 1583.59 365.55 C 1578.67 372.91 1569.86 377.36 1561.04 377.21 C 1555.22 377.49 1549.57 375.70 1544.32 373.38 C 1544.30 383.15 1544.35 392.92 1544.30 402.69 C 1537.51 402.55 1530.71 402.63 1523.93 402.64 C 1523.86 368.43 1523.90 334.22 1523.91 300.01 M 1544.34 314.12 C 1544.29 328.34 1544.34 342.56 1544.31 356.78 C 1550.50 359.67 1558.83 361.61 1564.56 356.71 C 1570.68 350.58 1570.51 341.11 1570.22 333.04 C 1569.69 325.98 1567.04 317.87 1560.20 314.59 C 1555.12 312.61 1549.59 313.73 1544.34 314.12 Z" />
<path fill="#cccccc" opacity="1.00" d=" M 1606.75 299.98 C 1616.60 297.29 1626.83 296.07 1637.04 296.04 C 1645.33 296.09 1653.98 297.97 1660.52 303.35 C 1668.72 310.00 1672.93 320.53 1673.55 330.89 C 1674.35 342.66 1673.13 355.32 1666.39 365.36 C 1661.37 373.06 1652.13 377.57 1643.00 377.21 C 1637.38 377.42 1632.04 375.48 1626.91 373.44 C 1626.97 383.18 1626.98 392.93 1626.91 402.68 C 1620.18 402.58 1613.46 402.59 1606.75 402.67 C 1606.73 368.44 1606.73 334.21 1606.75 299.98 M 1626.95 314.20 C 1627.02 328.42 1626.79 342.65 1627.07 356.88 C 1633.05 359.47 1640.67 361.46 1646.45 357.35 C 1651.08 353.80 1652.30 347.58 1652.97 342.11 C 1653.64 333.57 1652.83 323.87 1646.74 317.29 C 1641.60 311.93 1633.52 313.52 1626.95 314.20 Z" />
<path fill="#cccccc" opacity="1.00" d=" M 1714.25 296.15 C 1724.86 294.37 1736.47 297.14 1744.50 304.49 C 1750.20 309.60 1753.86 316.69 1755.67 324.07 C 1757.96 335.43 1757.49 347.80 1752.19 358.29 C 1748.30 366.10 1741.51 372.55 1733.21 375.42 C 1727.09 377.85 1720.32 377.66 1713.88 377.07 C 1705.06 375.67 1696.90 370.64 1691.67 363.40 C 1684.62 353.74 1682.67 341.14 1684.16 329.48 C 1685.03 321.23 1688.39 313.21 1693.89 306.98 C 1699.11 301.10 1706.49 297.33 1714.25 296.15 M 1714.35 314.52 C 1708.45 317.27 1705.85 323.87 1704.83 329.90 C 1704.10 338.13 1704.08 347.11 1708.75 354.29 C 1713.85 361.96 1726.80 361.65 1731.71 353.89 C 1736.34 346.55 1737.02 337.27 1735.57 328.88 C 1734.53 323.48 1732.46 317.53 1727.28 314.82 C 1723.25 313.01 1718.47 313.03 1714.35 314.52 Z" />
<path fill="#cccccc" opacity="1.00" d=" M 1776.34 303.03 C 1794.01 295.47 1814.20 294.78 1833.01 298.22 C 1834.52 298.57 1836.02 299.05 1837.54 299.53 C 1836.29 305.83 1835.21 312.16 1833.77 318.43 C 1821.76 315.43 1808.91 314.61 1796.86 317.72 C 1796.95 336.92 1796.84 356.13 1796.91 375.33 C 1790.03 375.33 1783.16 375.29 1776.29 375.36 C 1776.28 351.25 1776.18 327.14 1776.34 303.03 Z" />
<path fill="#cccccc" opacity="1.00" d=" M 1440.75 297.52 C 1447.46 297.60 1454.19 297.54 1460.91 297.55 C 1460.94 312.03 1460.76 326.51 1461.00 340.98 C 1461.54 346.50 1461.55 353.09 1465.87 357.19 C 1470.72 360.78 1477.14 359.38 1482.67 358.70 C 1482.69 338.30 1482.67 317.91 1482.68 297.51 C 1489.58 297.58 1496.47 297.59 1503.38 297.51 C 1503.36 322.58 1503.44 347.66 1503.34 372.73 C 1493.07 375.23 1482.61 377.54 1471.98 377.20 C 1463.02 377.44 1453.09 375.03 1447.32 367.68 C 1441.47 360.19 1440.60 350.18 1440.73 341.01 C 1440.75 326.51 1440.73 312.02 1440.75 297.52 Z" />
<path fill="#cccccc" opacity="1.00" d=" M 305.26 311.50 C 304.62 307.43 308.14 303.90 311.98 303.33 C 313.51 303.91 315.36 305.15 314.97 307.07 C 314.16 311.05 308.77 315.10 305.26 311.50 Z" />
<path fill="#cccccc" opacity="1.00" d=" M 324.72 315.75 C 325.95 317.22 328.61 319.51 326.23 321.24 C 324.29 322.50 322.62 320.43 321.25 319.33 C 322.35 318.08 323.52 316.90 324.72 315.75 Z" />
</g>
</svg>
