<svg xmlns="http://www.w3.org/2000/svg" viewBox="0 0 2000 423"><g fill="#ccc"><path d="M185.5 1.83c52.3-6.92 106.93 7.06 149.68 37.93 29.17 20.9 52.93 49.3 68.19 81.79 15.24 32.09 21.98 68.11 19.61 103.54-1.86 33.11-12.03 65.67-28.94 94.17-20.56 34.79-51.32 63.44-87.48 81.5-29.52 14.73-62.55 22.68-95.58 22.16-27.89.27-55.73-5.65-81.43-16.41-35.18-14.8-66.19-39.35-88.68-70.19C14.7 300.86.34 256.99.1 212.95c-.11-22.34 3.3-44.71 10.13-65.99 12.83-40.25 38.2-76.32 71.55-102.21 29.85-23.31 66.1-38.46 103.72-42.92M103.1 66.6c39.07 41 77.83 82.31 116.81 123.41 43.55 46.16 87.23 92.2 130.75 138.38 18.67-22.62 32.37-49.51 38.38-78.29 11-48.96.1-102.29-29.13-143.08-30.48-43.44-80.88-72.4-133.9-75.97-43.49-3.71-88.1 9.22-122.91 35.55m-9.57 13.18c.55 2.46 2.97 5.19.59 7.4-1.99-1.58-3.25-3.74-3.87-6.18-1.22.2-2.44.39-3.66.58.72 3.37 2.27 6.96 5.7 8.32 3.24 1.9 7.97-1.08 7.59-4.81-.09-2.65-3.4-5.37-1.55-7.79 2.49-.25 3.08 2.95 4.07 4.62 1.02-.08 2.04-.17 3.07-.26.02-3.52-2.15-6.89-5.54-8.01-3.53-1.48-7.87 2.49-6.4 6.13m6.24 18.47c1.23 3.01 4.42 4.37 7.43 4.81.06-.93.18-2.79.23-3.73-2.16-.03-4.03-1.47-4.58-3.56.5-3.46 3.95-7.19 7.69-6.32 2.03.47 2.12 2.86 2.92 4.41 1.18-.17 2.35-.33 3.53-.5-.53-2.79-1.66-5.82-4.45-7.05-6.84-4.14-16.52 4.81-12.77 11.94M80.29 86.7c-3.56 4-7.13 8.01-10.48 12.2-28.63 35.7-42.91 82.59-38.63 128.18 3.88 51.66 31.88 100.67 73.81 130.96 33.18 24.38 74.86 36.75 115.96 34.52 39.49-1.73 78.03-17.21 108.19-42.69-82.96-87.71-165.85-175.5-248.85-263.17m26.8 19.36c1 1.1 1.98 2.21 2.97 3.31 4.33-4.08 8.65-8.17 12.97-12.25-1.01-1.05-2.01-2.11-3.01-3.16-4.23 4.11-8.49 8.2-12.93 12.1m5.65 6.02c2.71 2.87 5.4 5.75 8.1 8.63.83-.92 1.66-1.84 2.48-2.75-1.64-1.71-3.31-3.4-4.98-5.08.9-.89 1.81-1.79 2.72-2.68 1.34 1.48 2.68 2.97 4 4.47.93-.87 1.86-1.74 2.8-2.61-1.4-1.37-2.78-2.75-4.17-4.12.76-.81 1.53-1.61 2.3-2.42 1.6 1.8 3.23 3.57 4.87 5.34.63-.65 1.91-1.95 2.55-2.6-2.56-2.76-5.21-5.44-7.64-8.31-4.33 4.05-8.56 8.23-13.03 12.13m10.23 10.88c.98 1.04 1.96 2.08 2.92 3.13 2.98-2.91 5.88-5.89 8.63-9.02-1.66 4.28-3.3 8.57-4.92 12.87.99 1.1 1.97 2.21 2.95 3.32 4.41-3.97 8.6-8.17 12.99-12.15-.9-1.06-1.8-2.11-2.69-3.17-3.13 2.75-5.78 5.96-8.79 8.83 1.91-4.12 3.31-8.43 4.88-12.68-.99-1.11-1.98-2.22-2.95-3.35-4.29 4.12-8.64 8.19-13.02 12.22m15.65 16.2c1.12 3.23 4.43 4.86 7.61 5.35.15-1.22.29-2.44.44-3.66-2.08-.45-4.53-1.41-4.68-3.88.43-3.29 3.62-6.38 6.99-6.33 2.35.33 2.83 2.82 3.53 4.65.9-.15 2.68-.45 3.57-.6-.56-2.82-1.82-5.88-4.64-7.08-6.69-3.72-15.84 4.47-12.82 11.55m7.65 8.46c2.62 2.77 5.23 5.55 7.83 8.34.89-.88 1.78-1.76 2.67-2.63-1.72-1.7-3.4-3.45-5.06-5.21.96-.82 1.91-1.64 2.87-2.46 1.3 1.47 2.61 2.95 3.91 4.43.88-.9 1.76-1.81 2.64-2.71-1.36-1.4-2.72-2.79-4.07-4.19.76-.75 1.53-1.51 2.3-2.26 1.59 1.74 3.19 3.48 4.78 5.21.88-.81 1.77-1.63 2.65-2.44-2.55-2.84-5.22-5.56-7.73-8.43-4.07 4.31-8.63 8.12-12.79 12.35m23.14 5.68c-3.09 1.59-5.9 4.3-6.58 7.83-1.03 4.76 3.44 9.59 8.22 9.29 4.11-.56 7.61-3.61 9.18-7.39 2.19-5.91-5.12-12.83-10.82-9.73m16.27 10.36c-4.23 4.11-8.54 8.14-12.83 12.19 1.03 1.06 2.06 2.13 3.08 3.2 1.35-1.4 2.71-2.8 4.07-4.19 1.77 1.62 3.39 4.07 6.05 4.09 3.96.71 8.25-4.22 6-7.92-1.63-2.84-4.13-5.03-6.37-7.37m-1.7 24.04c2.76 2.74 5.46 5.55 7.99 8.51.82-.95 1.64-1.89 2.47-2.83-1.61-1.71-3.22-3.41-4.8-5.14.83-.87 1.66-1.75 2.49-2.62 1.41 1.47 2.78 2.99 4.12 4.52.89-.85 1.78-1.71 2.67-2.56l-3.99-4.41c.74-.74 1.48-1.48 2.21-2.22 1.65 1.78 3.29 3.56 4.86 5.41.84-.94 1.67-1.88 2.51-2.81-2.57-2.68-5.16-5.33-7.55-8.17-4.32 4.12-8.68 8.18-12.98 12.32m10.34 10.7c.89 1.03 1.77 2.08 2.67 3.12 3.06-2.71 5.71-5.82 8.6-8.7-1.61 4.16-3.26 8.31-4.73 12.52 1.01 1.14 2.01 2.27 3.04 3.4 4.16-4.15 8.47-8.15 12.78-12.14-.91-1.09-1.81-2.19-2.7-3.3-3.09 2.94-6 6.06-8.78 9.29 1.76-4.31 3.32-8.69 4.99-13.04-1.06-1.13-2.1-2.28-3.12-3.43-4.11 4.24-8.55 8.14-12.75 12.28m12.31 13.11c.91 1.02 1.83 2.02 2.74 3.04 3.1-2.66 5.7-5.82 8.72-8.55-1.87 4.04-3.28 8.26-4.85 12.42.97 1.14 1.93 2.3 2.89 3.47 4.3-4.1 8.59-8.22 13.02-12.2-.94-1.03-1.89-2.07-2.82-3.1-3.19 2.78-5.9 6.04-8.91 9 2.08-4.15 3.47-8.58 5.11-12.91-1.02-1.1-2.07-2.18-3.11-3.25-4.21 4.08-8.54 8.04-12.79 12.08m12.43 13.26c2.62 2.74 5.21 5.51 7.84 8.25.9-.83 1.8-1.65 2.71-2.46-1.69-1.74-3.36-3.48-5.08-5.18.91-.9 1.83-1.79 2.75-2.67 1.31 1.5 2.63 3 3.93 4.52.89-.89 1.77-1.77 2.67-2.64-1.34-1.43-2.67-2.87-4.01-4.3.56-.56 1.68-1.7 2.24-2.27 1.61 1.72 3.22 3.44 4.84 5.15.9-.8 1.81-1.61 2.71-2.41-2.64-2.72-5.27-5.45-7.75-8.31-4.26 4.14-8.73 8.05-12.85 12.32m19.85 1.11c-4.32 2.56-1.33 7.83-.2 11.35-2.56 3.12-4.81-2.18-4.96-4.48-1.33.16-2.65.32-3.97.48.7 3.58 2.56 7.6 6.37 8.66 3.19 1.24 7.19-1.42 6.82-4.93-.44-2.38-1.52-4.56-2.08-6.9 2.03-2.94 4.09 1.86 4.59 3.62.87-.12 2.62-.36 3.49-.48-.37-4.58-5.3-10.2-10.06-7.32m7.79 15.09c.45 2.43 1.68 4.62 2.34 6.99-.51.38-1.52 1.14-2.03 1.52-1.48-1.57-2.66-3.39-3.04-5.54-.92.03-2.77.1-3.7.14.48 3.63 2.34 7.38 5.96 8.75 2.93 1.48 6.4-.87 7.19-3.79.5-3.16-3.04-6-1.58-9.12 2.45-.05 3.14 2.84 4.02 4.6.81-.1 2.44-.29 3.25-.39-.15-3.58-2.59-7.21-6.25-7.87-2.97-.71-5.94 1.75-6.16 4.71m14.88 17.65c.2 1.83 2.6 4.15.48 5.52-2.79-.27-3.42-3.27-3.85-5.52-.99.07-2.97.21-3.96.29.51 3.94 2.79 7.93 6.8 9.14 2.49.79 5-1 6.05-3.18 1.66-3.35-2.84-6.77-1.13-9.94 2.47-.13 3.12 2.76 3.88 4.55.88-.11 2.65-.33 3.53-.44-.6-4.08-3.77-8.73-8.45-7.87-3.5.34-4.66 4.61-3.35 7.45m5.88 10.95c-3.95 5.05 3.66 13.26 8.96 9.78 3.85-2.32 6.79-5.82 10.06-8.85-.87-1.02-1.75-2.03-2.62-3.04-3.24 2.6-5.87 5.95-9.32 8.27-2.58 1.64-5.41-2.26-3.24-4.3 2.6-2.95 5.69-5.42 8.42-8.25-.96-1.04-1.92-2.08-2.87-3.12-3.1 3.19-6.82 5.83-9.39 9.51m8.91 15.85c.95 1.05 1.9 2.11 2.84 3.17 1.43-1.31 2.84-2.65 4.27-3.97 1.86 1.77 3.77 3.88 6.52 4.07 3.02-.05 5.94-2.57 5.99-5.69-.31-4.34-4.43-6.76-6.87-9.91-4 4.36-8.52 8.2-12.75 12.33m11.15 11.75c.93 1.07 1.87 2.13 2.83 3.19 1.48-1.32 2.95-2.66 4.41-4 1.31 1.32 2.47 2.99 4.33 3.59 3.78 1.87 8.67-1.92 8.14-5.98-1.17-3.73-4.51-6.12-6.99-8.96-4.11 4.18-8.47 8.12-12.72 12.16m19.83 3.07c-2.89 1.69-5.43 4.35-6.13 7.72-.7 3.55 1.76 7.02 4.82 8.57 5.82 2.19 12.09-2.85 12.99-8.57.4-5.76-6.4-10.79-11.68-7.72m4.04 22.22c.94 1.09 1.88 2.18 2.83 3.27 1.65-1.57 3.29-3.15 4.94-4.73 1.8 2.76-.57 5.69-1.36 8.36 1.15 1.25 2.29 2.53 3.41 3.82.77-2.6 1.47-5.22 2.31-7.8 3.59 1.34 7.44-1.78 7.83-5.36-.91-4.13-4.57-6.7-7.2-9.71-4.14 4.17-8.51 8.11-12.76 12.15m20.64 1.55c1.14 1.16 2.29 2.32 3.41 3.51-3.51 3.13-6.79 6.52-10.41 9.52 1.03 1.11 2.04 2.23 3.05 3.36 3.31-3.36 6.95-6.37 10.14-9.84 1.14 1.18 2.27 2.37 3.42 3.55.9-.81 1.8-1.63 2.72-2.42-3.17-3.39-6.48-6.64-9.48-10.19-.95.84-1.9 1.67-2.85 2.51zM446.2 22.18c2.67-4.35 7.83-6.63 12.83-6.57 26.99.03 53.99-.02 80.98.02 5.46.1 11.37 2.31 13.96 7.46 2.86 6.43 2.89 14.18-.22 20.52-2.85 5.14-9.07 7.3-14.67 7.16-17.67-.04-35.34.03-53.01-.03-.19 12.84-.21 25.7 0 38.55 14.98-.04 29.96-.05 44.94 0 5.46-.09 11.14 2.92 13.41 8.02 2.48 6.43 2.39 14.04-.85 20.17-2.95 5.1-9.1 6.8-14.63 6.77-14.27-.01-28.55.08-42.82-.06-.43 16.29.01 32.59-.22 48.87-.03 6.04-2.82 12.4-8.21 15.47-4.99 2.9-10.99 2.96-16.58 2.56-6.06-.29-12.32-3.47-14.97-9.14-2.04-3.62-2.16-7.88-2.3-11.92 0-46.04.01-92.07-.01-138.1.07-3.35.29-6.96 2.37-9.75zM586.31 30.1c.03-7.79 6.85-14.68 14.71-14.47 26.64-.04 53.28.01 79.92-.02 4.34.11 9.06.93 12.3 4.07 3.8 3.67 4.83 9.29 4.67 14.37-.14 4.86-1.51 10.22-5.52 13.34-3.25 2.38-7.34 3.46-11.34 3.38-17.48-.04-34.96.02-52.44-.03.01 10.81.01 21.62 0 32.43 14.12-.01 28.23-.04 42.35.01 5.54.04 11.65 2.14 14.35 7.35 2.89 6.22 2.9 13.66.41 20.02-2.43 5.33-8.4 8.22-14.09 8.03-14.34.07-28.68.06-43.02 0 .03 12.42-.03 24.83.03 37.25 18.11-.21 36.23-.03 54.34-.09 5.57.03 11.82 1.59 14.97 6.61 3.74 6.6 3.81 15.22.29 21.93-2.82 4.97-8.8 7.11-14.28 6.96-27.95 0-55.9.1-83.84-.05-7.88.04-14.1-7.51-13.84-15.13 0-48.65-.07-97.31.03-145.96zM748.39 16.57c7.34-1.66 15.92-1.61 22.26 2.95 5.12 3.78 6.77 10.42 6.78 16.49.04 44.65-.01 89.31.02 133.96.01 5.95-1.1 12.53-5.81 16.65-5.29 4.8-12.93 5.02-19.66 4.42-5.6-.39-11.23-3.26-14.06-8.24-1.93-3.6-2.86-7.7-2.74-11.78.01-44.01.01-88.02 0-132.03-.14-4.46.01-9.06 1.94-13.18 1.89-4.71 6.35-8.16 11.27-9.24zM801.84 22.93c1.27-5.35 7.15-7.43 12.1-7.32 6 .07 12-.13 18 .1 4.85.35 9.39 3.3 11.37 7.8 9.29 23.32 17.01 47.24 25.93 70.7.53-.74.99-1.52 1.4-2.33 7.11-19.23 14.48-38.36 21.64-57.56 2.12-5.04 3.18-10.97 7.73-14.52 4.05-3.7 9.75-4.55 15.04-4.19 6.25.38 13.32-1.29 18.84 2.46 4.55 3.38 4.13 9.82 1.8 14.4-14.84 31.86-29.88 63.64-44.76 95.48-.67 1.25-.64 2.69-.63 4.07.04 12.66 0 25.32.03 37.99-.08 6.09-1.31 12.93-6.3 17-5.24 4.37-12.51 4.6-18.98 4.05-5.54-.36-11.14-3.12-13.96-8.04-2.19-3.93-2.93-8.53-2.89-12.98.03-12.67-.01-25.35.03-38.02.09-1.57-.16-3.12-.85-4.53-13.43-28.84-26.83-57.7-40.21-86.56-2.33-5.75-6.71-11.49-5.33-18zM990.09 26.92c2.04-6.75 8.89-11.37 15.86-11.31 9 .04 18.01-.06 27.02.05 7.01.26 13.51 5.42 15.19 12.26 14.49 46.74 28.88 93.52 43.36 140.27 1.12 4.2 3.19 8.29 2.78 12.76.1 5.45-5 9.86-10.22 10.13-6.01.36-12.03.16-18.03.13-6.82-.02-13.04-5.16-14.63-11.73-2.44-9.51-4.96-19-7.29-28.54-17.34.1-34.69-.15-52.03.13-2.18 9.36-4.67 18.64-7.08 27.94-1.2 5.6-5.65 10.4-11.23 11.8-4.55.81-9.2.32-13.78.46-4.09-.05-8.62.29-12.08-2.3-4.54-2.93-5.62-9.15-3.79-13.99 15.23-49.38 30.63-98.71 45.95-148.06m27.62 19.62c-5.2 24.12-11.51 47.97-17.34 71.94 11.93-.12 23.87-.08 35.8-.03-5.72-21.8-11.15-43.68-16.21-65.64-.7-2.1-.64-4.6-2.25-6.27zM1122.61 18.68c4.56-3.77 10.84-3.05 16.37-3.06 5.99.23 12.28-.87 17.97 1.55 3.79 1.74 6.7 5.03 8.51 8.73 10.76 20.77 21.55 41.52 32.33 62.28 8.66 15.94 15.16 32.92 22.81 49.33.4.46 1.2 1.39 1.59 1.85-2.68-25.04-6.31-50.08-5.87-75.33.02-9.7-.04-19.4.03-29.1.1-5.36 1.57-11.12 5.65-14.86 3.78-3.43 9.06-4.33 13.99-4.48 5.45-.01 11.45.91 15.5 4.91 4.11 3.97 5.13 9.98 5.19 15.46 0 44.36-.01 88.71 0 133.07-.13 4.28.49 8.73-1.03 12.84-1.71 5.35-7.03 9.36-12.68 9.33-6.97.11-13.94.1-20.91.01-5.52.05-10.6-3.52-12.91-8.44-12.99-25.33-26-50.66-38.94-76.01-5.01-11.05-9.85-22.18-14.8-33.26-1.03-2.13-1.49-4.71-3.53-6.16 1 12.59 3 25.09 3.78 37.71 2.52 21.56 1.31 43.29 1.62 64.95.14 6.16-1.12 13.11-6.14 17.23-4.99 4.19-11.93 4.35-18.1 3.84-5.77-.3-11.47-3.56-13.98-8.87-2.27-5.06-2.25-10.74-2.17-16.18.01-44.68.01-89.36 0-134.04-.08-4.96 1.52-10.29 5.72-13.3zM1294.91 16.09c5.18-.12 10.38.07 15.57-.14.01 129.31.08 258.61-.04 387.91-5.12-.22-10.24-.12-15.35-.08-.09-112.25-.02-224.51-.04-336.76-.08-16.98.16-33.95-.14-50.93zM1543.38 17.42c7.63-2.85 17.44 3.09 17.11 11.57.73 5.42-2.53 10.98-7.67 12.87-5.11 2.26-11.62.82-15.21-3.48-5.3-6.64-2.84-18.43 5.77-20.96zM1371.45 29.46c8.62-4.33 18.66-4.72 28.09-3.68 7.06.73 13.75 3.29 20.12 6.32-1.86 5.38-3.95 10.68-6.06 15.96-8.97-5.35-20.3-7.4-30.36-4.18-6.12 2.06-8.48 10.37-4.82 15.51 4.65 5.9 12.33 7.62 18.94 10.38 8.36 3.09 17.11 7.04 22.14 14.81 5.2 7.27 5.43 16.78 4.01 25.29-1.77 9.23-9.09 16.73-17.95 19.52-10.27 3.25-21.35 3.32-31.92 1.74-6.66-.84-12.79-3.8-18.79-6.63 1.67-5.72 4.09-11.17 5.84-16.86 10.38 6.29 23.28 9.43 35.18 6.02 6.4-1.82 9.89-9.74 7.22-15.75-2.91-5.52-8.94-8.24-14.38-10.62-9.22-3.91-19.76-6.41-26.5-14.38-6.27-7.01-7.12-17.29-4.79-26.07 1.65-7.57 7.18-13.93 14.03-17.38zM1449.53 61.57c6.12-5.79 14.19-9.26 22.46-10.58 11.65-1.31 23.88-1.05 34.83 3.6-1.88 5.34-2.94 10.92-4.69 16.3-9.63-3.22-20.35-4.45-30.1-1.06-5.59 1.84-10.36 6.38-11.85 12.15-2.14 7.19-1.9 15.36 1.76 22.02 3.45 6.48 11.03 9.4 18.03 9.71 8.39.36 17.03.37 25.03-2.57 1.11 5.58 1.85 11.22 2.95 16.81-9.88 3.63-20.62 4.17-31.04 3.53-9.75-.61-19.65-3.77-27.02-10.37-8.4-7.44-12-19.1-11.64-30.08-.33-10.75 3.38-21.95 11.28-29.46zM1606.1 70.15c5.16-10.77 16.08-18.67 28.06-19.63 8.11-.65 16.76.19 23.81 4.59 6.35 3.81 10.71 10.33 12.81 17.33 2.7 8.12 2.56 16.85 2 25.3-16.86-.14-33.73-.02-50.59-.07.39 4.08 1.76 8.27 5.1 10.89 5.71 4.87 13.52 5.77 20.75 5.25 6.13.07 11.93-2.1 17.77-3.71 1.09 5.85 2.19 11.72 2.72 17.67-5.8 1.35-11.48 3.29-17.46 3.63-11.75.99-24.43-.1-34.45-6.86-8.29-5.42-13.36-14.83-14.72-24.5-1.07-10.08-.68-20.77 4.2-29.89m23.58-.44c-4.79 2.98-6.41 8.73-7.47 13.91 10.39.04 20.79-.08 31.2.06.39-6.83-3.6-14.15-10.5-15.94-4.44-.55-9.47-.88-13.23 1.97zM1689.45 54.59c10.33-2.5 20.9-4.32 31.57-3.91 8.75-.33 18.27 2.23 23.99 9.26 5.61 7.03 6.59 16.37 6.82 25.04.01 15.03.04 30.05-.02 45.08-6.79-.22-13.57-.11-20.35.01-.07-15.02.03-30.04-.05-45.06-.14-4.72-.7-9.88-3.68-13.73-4.87-4.56-12.14-2.83-18.11-2.37-.02 20.38.02 40.75-.02 61.13-6.74.1-13.47-.28-20.2.04 0-25.17-.1-50.33.05-75.49zM1774.25 69.23c5.84-10.34 17.16-16.57 28.67-18.27 11.55-1.26 23.65-1 34.51 3.58-1.47 5.46-3.18 10.85-4.39 16.38-10.2-3.37-21.66-4.64-31.83-.51-5.94 2.45-10.08 8.15-11.12 14.42-.9 6.76-.83 14.18 3.09 20.06 3.94 6.28 11.75 8.79 18.83 8.89 7.94.18 16.21.34 23.68-2.8.91 5.67 1.97 11.32 3.13 16.94-10.17 3.69-21.22 4.28-31.91 3.5-8.99-.64-17.99-3.54-25.06-9.25-6.42-5.2-10.62-12.86-11.99-20.96-2.21-10.71-1-22.37 4.39-31.98zM1857.98 64c5.92-7.81 15.27-13 25.09-13.55 8.26-.53 17.07.54 24.03 5.37 7.08 4.72 11.31 12.8 12.83 21.02 1.45 6.85 1.7 13.93.96 20.89-16.84-.13-33.67.01-50.5-.08-.23 6.27 4.27 11.77 9.94 13.96 5.14 2.59 11.04 2.36 16.64 2.16 5.91-.05 11.49-2.22 17.14-3.74.6 5.84 1.62 11.62 2.84 17.36-10.87 3.84-22.63 5.35-34.07 3.69-10.2-1.18-20.45-5.96-26.46-14.53-4.78-6.5-6.68-14.64-7.03-22.58-.42-10.54 2.02-21.53 8.59-29.97m20.45 5.25c-5.11 2.86-7.36 8.91-8.04 14.42 10.38-.06 20.77-.14 31.17.04.12-6.8-3.6-14.17-10.58-15.96-4.18-.51-8.86-.89-12.55 1.5z"/><path d="M190.34 59.26c12.98-10.29 33.47-9.52 45.46 2 5.77 5.9 11.05 12.28 16.76 18.23 5.82 3.2 12.39.59 18.5.03 4.07-.39 7.81-2.55 11.97-2.15 15.4-.32 30.24 10.34 34.78 25.08 2.66 7.06 1.86 14.74 3.09 22.07.94 3.94 3.87 7.41 7.74 8.73 7.72 3.51 16.28 5.71 22.74 11.47 12.22 10.04 16.74 28.42 9.92 42.8-3.38 6.73-7.6 13-11.18 19.62-1.74 3.4-1.11 7.63 1.03 10.71 5.06 9.33 12.41 18.16 12.93 29.21 1.23 12.38-4.31 25.22-14.26 32.71-5.92 4.67-13.43 6.39-20.07 9.73-5.92-6.21-11.73-12.54-17.75-18.65 6.34-3.6 13.43-5.63 19.93-8.88 5.34-3.1 7.59-10.26 4.88-15.83-2.91-5.3-6.15-10.42-9.1-15.71-5.04-9.53-5.57-21.2-1.86-31.28 3.27-8.14 9.17-14.96 12.37-23.11.54-4.38-.81-9.93-5.17-12-6.38-3.21-13.25-5.32-19.63-8.55-9.53-4.99-16.42-14.68-17.92-25.34-.49-5.4-.77-10.84-1.66-16.2-1.12-6.28-7.72-10.85-13.99-9.97-4.93.72-9.82 1.74-14.73 2.61-8.58 2.7-17.99.12-25.5-4.37-7-4.06-11.86-10.67-17.34-16.43-2.48-2.56-4.42-6.22-8.26-6.86-5.24-1.32-10.61 1.22-13.69 5.47-6.5 6.5-11.62 14.74-19.95 19.1-7.24 3.8-15.95 5.42-23.84 2.8-8.67-9.24-17.41-18.4-26.11-27.6 4.39-1.04 9.02-1.93 13.49-.82 5.69 1.31 11.52 1.9 17.27 2.94 4.49.93 9.54-.52 12.55-4.06 5.6-5.76 10.49-12.26 16.6-17.5zM1519.5 52.14c13.94.22 27.9.16 41.85.03.07 16.3 0 32.61.04 48.91.14 4.02.8 8.77 4.37 11.25 2.62 2 6.16 1.51 9.27 1.46 4.63-.01 8.95-1.83 13.16-3.59 1.02 5.45 1.56 10.98 2.65 16.42-10.03 4.86-21.76 6.49-32.64 3.83-6.03-1.71-11.27-6.07-13.78-11.85-3.89-8.99-3.58-19.01-3.52-28.61-.03-6.97.04-13.93-.05-20.9-7.14.14-14.27.03-21.4.08 0-5.68-.07-11.35.05-17.03z"/><path d="M174.71 125.38c11.64-2.06 24-.32 34.45 5.28 12.35 6.45 21.92 18.06 25.83 31.44 2.99 9.07 2.67 18.87 1.05 28.17-20.53-21.54-41-43.16-61.33-64.89zM102.73 126.59c5.72 6.09 11.47 12.16 17.19 18.25-3.62 4.4-7.7 8.59-12.9 11.12-5.33 2.49-10.85 4.55-16.26 6.87-5.47 2.53-8.98 9.14-6.86 15.02 4.26 9.23 11.45 17.2 13.42 27.42 1.11 8.03.7 16.51-2.99 23.88-3.02 5.63-6.42 11.06-9.61 16.6-3.35 5.19-1.7 13.7 4.37 16.13 9.9 4.8 21.66 7.18 28.9 16.16 7.41 8.13 8.63 19.54 8.96 30.05-.12 6.95 5.82 13.83 13.02 13.37 7.1-.39 14.05-2.25 21.01-3.59 10.4-.7 20.6 3.9 28.06 10.98 5.19 5.17 9.78 10.93 14.93 16.15 4.62 3 11.46 2.34 15.16-1.87 3.41-3.61 6.73-7.31 10.05-10.99 6.54-7.54 15.71-13.11 25.74-14.16 3.79-.77 7.39 1.07 11.15 1.24 6.75.67 13.47 3.39 20.29 1.68 5.85 6.14 11.64 12.35 17.56 18.43-4.78 3.16-10.25 5.3-15.92 6.13-6.06.96-11.89-1.35-17.85-2.02-5.84-.68-12.43-2.99-17.71.8-6.85 5.89-11.89 13.64-18.81 19.46-13.88 11.22-36.37 9.43-47.97-4.28-4.57-5.1-9.25-10.11-13.77-15.25-3.05-2.4-7.35-2.31-11.02-1.83-5.13.89-10.38 1.23-15.32 2.97-15.43 2.55-31.69-6.51-38.04-20.73-3.89-7.98-3.46-17.08-4.66-25.68-.32-3.42-2.8-6.28-5.58-8.1-8.27-4.05-17.7-6.15-24.76-12.36-9.73-8.07-14.89-21.4-12.77-33.89 1.71-11.1 9.76-19.56 14.24-29.51 1.97-4.59-.77-9.18-3.18-12.96-3.79-6.88-8.83-13.34-10.33-21.23-3.93-15.92 4.38-33.95 19.21-41.07 5.83-2.65 11.84-4.9 17.7-7.49 2.43-1.18 3.92-3.52 5.35-5.7zM1382.47 148.62c7.03-1.43 14.41-.6 21.11 1.89 8.45 3.41 14.69 10.93 17.88 19.32 5.47 13.66 5.28 28.7 4.55 43.15-1.12 9.99-3.37 20.29-9.33 28.6-4.18 5.98-10.54 10.4-17.62 12.16-9.8 2.03-20.79 1.3-29.17-4.61-8.66-6.02-13.25-16.25-15.23-26.32-2.44-10.07-2.01-20.53-1.75-30.81 1-11.32 3.47-23.2 10.81-32.23 4.61-5.86 11.41-9.87 18.75-11.15m1.91 18.02c-5.77 2.21-8.21 8.7-9.45 14.26-2.17 13.42-2.15 27.23-.09 40.67 1.17 6 4.01 12.78 10.24 14.97 4.38.81 9.57.9 12.99-2.48 5.54-5.15 6.45-13.18 7.21-20.29.74-11.21.84-22.59-1.27-33.66-1.12-4.83-3.28-9.86-7.56-12.69-3.69-1.94-8.17-2.23-12.07-.78zM171.31 157.16c1.48-.51 3.83-.7 4.57 1.05 1.91 3.51-1.96 6.86-4.94 8.04-2.15.97-4.04-1.35-4.4-3.27.73-2.48 2.52-4.57 4.77-5.82z"/><path d="M134.1 195.77c-4.4-11.53-4.13-24.55-.14-36.16 21.68 23.13 43.61 46.02 65.25 69.18-11.24 3.05-23.52 2.89-34.36-1.59-14.09-5.47-25.57-17.24-30.75-31.43zM182.47 172.86c1.24-1.33 2.5-2.64 3.75-3.97 1.15 1.47 3.69 3.92 1.37 5.54-1.74 1.95-3.66-.64-5.12-1.57zM1526.2 188.16c5.58-8.2 14.79-13.83 24.68-14.86 11-1.18 23.48 1.15 30.88 10.07 8.64 10.14 9.22 24.34 8.41 37.01-16.88 0-33.76.01-50.64 0 .26 5.42 3.18 10.6 8.15 13.02 11.06 5.91 24.26 3.19 35.51-.71 1.12 5.81 1.78 11.69 2.83 17.52-11.78 4.21-24.55 5.23-36.87 3.22-7.49-1.63-14.9-4.77-20.28-10.38-7.48-7.59-10.59-18.61-10.14-29.08-.32-9.11 2.35-18.28 7.47-25.81m18.78 5.87c-3.39 3.23-4.48 7.91-5.39 12.32 10.41-.06 20.81-.02 31.22-.02 0-6.12-2.75-12.66-8.67-15.19-5.66-1.86-12.77-1.59-17.16 2.89zM1773.36 189.48c5.35-8.56 14.5-14.75 24.56-16.04 11.48-1.54 24.68.89 32.28 10.37 8.12 10.2 9.05 24.09 8.12 36.61-16.94-.09-33.88 0-50.81-.05.23 5.68 3.62 11.01 8.84 13.37 11.04 5.5 23.93 2.72 35.04-1.09.44 5.93 2.05 11.69 2.64 17.6-9.32 3.17-19.16 4.74-29.01 4.02-11.12-.39-22.72-4.45-29.95-13.26-6.11-7.2-8.25-16.84-8.4-26.07-.02-8.86 1.82-17.94 6.69-25.46m20.05 4.17c-3.62 3.24-4.88 8.14-5.9 12.7 10.49-.06 20.98 0 31.48-.03-.21-6.15-2.97-12.79-8.99-15.25-5.47-1.72-12.19-1.47-16.59 2.58zM1862.53 180.57c6.94-6.09 16.55-7.43 25.46-7.61 8.82.09 17.78 1.02 26.02 4.36-1.29 5.76-2 11.63-3.25 17.4-9.21-3.38-19.04-5.86-28.88-4.13-2.72.2-5.27 1.95-6.42 4.39-.83 3.52 2.74 5.76 5.36 7.22 9.73 4.78 21.27 6.01 29.73 13.23 8.81 7.34 9.15 22.38 1.19 30.43-4.76 4.52-11.26 6.59-17.57 7.78-8.28 1-16.71 1.12-24.95-.22-5.49-1.3-10.74-3.4-16.03-5.3.77-5.79 2.36-11.43 3.09-17.23 5.51 2.18 11.13 4.13 16.9 5.54 6.16 1.04 12.49.88 18.69.15 2.34-.44 5.57-1.72 5.52-4.56.33-2.84-2.05-4.98-4.32-6.17-10.08-4.89-22.1-5.74-30.94-13.1-9.77-7.79-8.94-24.39.4-32.18zM1944.89 180.89c6.74-6.19 16.26-7.7 25.08-7.91 9.06-.01 18.28.91 26.74 4.37-1.35 5.76-1.99 11.65-3.31 17.42-9.71-3.72-20.34-6.19-30.68-3.78-2.18.77-4.74 2.57-4.53 5.15-.1 3.17 3.16 4.81 5.53 6.16 8.93 4.31 19.18 5.74 27.44 11.49 5.44 3.69 9.14 10.05 8.84 16.72v.94c.05 4.69-1.31 9.53-4.41 13.12-4.46 5.22-11.28 7.51-17.78 8.91-8.21 1.17-16.58 1.26-24.78.13-5.89-1.14-11.46-3.46-17.07-5.48.76-5.77 2.13-11.42 3.02-17.17 5.68 2.06 11.35 4.23 17.27 5.53 5.85.94 11.84.82 17.73.17 2.66-.26 5.88-1.7 6.22-4.7-.09-2.94-2.37-5.21-4.91-6.34-7.98-3.69-16.84-5.09-24.7-9.06-4.91-2.5-9.39-6.35-11.48-11.55-2.79-8.23-.96-18.3 5.78-24.12zM1441.22 177.32c10.96-3.05 22.4-4.31 33.76-3.85 8.97.35 18.06 3.87 23.98 10.81 7.81 8.84 9.94 21.2 9.5 32.64-.55 8.77-2.22 17.81-7.12 25.28-4.44 6.89-12.18 11.71-20.44 12.07-6.63.65-13.29-.76-19.26-3.61.06 9.8.04 19.61.01 29.42-6.8-.18-13.61-.21-20.41-.02-.06-34.24-.02-68.49-.02-102.74m20.48 13.88c-.07 14.27.01 28.53-.04 42.8 6.28 3.2 15.23 4.91 20.78-.54 4.94-5.49 5.26-13.39 5.21-20.4-.13-6.95-1.78-14.66-7.28-19.4-5.23-4.4-12.46-2.69-18.67-2.46zM1606.77 177.23c12.47-2.85 25.35-4.85 38.15-3.42 7.52.74 15.11 4.56 19.05 11.2 3.96 6.25 4.72 13.79 5.21 21 .08 15.54-.01 31.09.04 46.64-6.83-.04-13.65-.08-20.47.03-.06-14.24.05-28.48-.05-42.71-.19-5.46-.09-11.51-3.64-16.01-4.87-4.53-12.04-2.89-17.99-2.37-.27 20.36-.02 40.72-.16 61.08-6.72-.08-13.44-.09-20.15.01-.03-25.15-.05-50.3.01-75.45zM1689.38 177.31c12.24-2.96 24.93-4.8 37.53-3.58 7.63.59 15.32 4.29 19.49 10.89 4.49 6.89 5.22 15.36 5.43 23.37.01 14.89.03 29.78-.01 44.67-6.78-.04-13.56-.13-20.33.05-.13-14.89.01-29.79-.07-44.69-.08-4.74-.69-9.79-3.44-13.8-4.83-4.89-12.29-3.13-18.37-2.63-.01 20.37.05 40.75-.03 61.12-6.73-.15-13.45-.14-20.17-.01-.07-25.13-.01-50.26-.03-75.39zM258.42 214.1c4.4-3.57 9.82-6.16 15.56-6.27 9.57-.39 18.97 5.54 22.87 14.27 4.2 9.08 1.86 20.14-4.88 27.35-11.29-11.68-22.31-23.62-33.55-35.35zM647.17 229.98c7.14-2.73 15.38-2.77 22.46.19 6.43 2.86 9.63 10.12 9.54 16.87.13 15.96-.06 31.93.09 47.9 19.33-.17 38.66-.14 57.99-.02.05-15.99-.02-31.99.03-47.98-.08-5.35 1.82-10.99 5.99-14.52 4.61-3.85 10.94-4.59 16.74-4.36 5.88.19 12.29 2.23 15.66 7.39 2.12 3.43 3.28 7.45 3.21 11.49.03 45.71 0 91.42.01 137.12.14 5.73-1.71 11.92-6.34 15.6-4.12 3.16-9.44 4.3-14.56 4.04-6.21.29-13.02-1.64-16.96-6.71-2.51-3.46-3.83-7.73-3.75-12-.05-17.84.01-35.69-.02-53.53-19.35.08-38.7.05-58.05.01.01 15.86-.01 31.71.01 47.56-.01 5.33.28 11.05-2.51 15.82-3.24 6.37-10.87 9.11-17.67 8.84-5.48.3-11.27-.76-15.66-4.23-4.5-3.68-6.37-9.72-6.21-15.38-.01-45.71-.05-91.43.02-137.14-.21-6.9 3.36-14.24 9.98-16.96zM826.81 242.98c-.24-7.76 6.21-14.84 14.05-14.92 26.72-.04 53.46.01 80.19-.02 4.96-.08 10.41 1.18 13.71 5.17 3.56 4.38 3.78 10.41 3.31 15.79-.26 4.56-2.44 9.18-6.41 11.63-3.56 2.01-7.69 2.7-11.73 2.6-16.89-.1-33.78.1-50.67-.11-.1 10.81-.04 21.61-.04 32.42 13.58-.09 27.16-.01 40.75-.05 5.34-.05 11.37 1.28 14.73 5.81 3.55 4.81 3.5 11.1 2.95 16.78-.71 4.27-2.91 8.61-6.87 10.7-3.26 1.9-7.07 2.5-10.79 2.39-13.58-.08-27.16.1-40.73-.1-.11 12.37-.02 24.73-.05 37.1 16.26-.03 32.51 0 48.77-.02 4.73.01 9.68-.33 14.15 1.56 4.7 1.67 7.88 6.31 8.47 11.17.95 5.89.68 12.68-3.15 17.57-3.04 3.52-7.84 5.27-12.43 5.22-28.03.01-56.06.02-84.09 0-7.74.1-14.31-7.03-14.1-14.69-.08-48.67-.05-97.33-.02-146zM984.64 230.53c7.45-3.43 16.47-3.45 23.99-.19 6.54 3.18 9.31 10.76 9.29 17.65.07 40.05.01 80.11.03 120.17 17.03.01 34.07-.02 51.11.01 5.54.04 11.76 1.86 14.66 6.98 3.38 6.42 3.46 14.49.32 21.01-2.53 5.09-8.53 7.58-13.98 7.51-26.7.01-53.39.01-80.09 0-7.82.25-14.5-6.9-14.33-14.61-.05-47.02-.02-94.04-.02-141.06.05-6.76 2.55-14.3 9.02-17.47zM1117.68 242c.03-7.96 7.53-14.07 15.2-14 16.72.09 33.46.05 50.19.04 17.51.12 35.75 2.5 50.94 11.8 10.02 5.85 17.13 15.92 20.32 26.97 5.11 19.24 2.5 41.86-11.63 56.78-11.1 12.96-28.02 19.02-44.55 20.98-11.95 1.62-24.05.69-36.06.92.02 12.51.03 25.02 0 37.53-.15 6.17-1.89 13.11-7.24 16.82-5.47 3.91-12.46 4.17-18.93 3.76-6.91-.4-14.11-4.12-16.69-10.87-2.48-6.6-1.37-13.81-1.61-20.71.04-43.34-.09-86.68.06-130.02m44.42 19.42c.01 16.9 0 33.79.01 50.69 8.99-.13 18 .31 26.98-.36 8.34-.96 17.24-4.71 21.21-12.58 3.77-8 4.32-17.79.47-25.87-2.8-5.76-9.04-8.85-15.02-10.19-11.03-2.69-22.43-1.33-33.65-1.69zM185.49 256.72c10.07-2.99 21.61 4.75 22.6 15.21 1.8 10.18-6.89 20.55-17.2 20.55-8.61.69-16.99-5.94-18.52-14.4-2.26-9.17 4.08-19.03 13.12-21.36zM1364.14 280.19c6.99-6.98 17.25-9.55 26.87-9.53 9.97-.28 19.89 2.4 28.68 7.04-1.99 5.23-3.95 10.47-6.01 15.67-7.84-4.18-16.86-6.76-25.78-5.31-3.84.66-8.05 2.17-9.99 5.82-1.86 3.97-1.73 9.29 1.73 12.37 6.37 6.06 15.43 7.5 23.16 11.16 9.46 3.54 17.98 10.96 20.56 21.01 1.68 8.99 1.39 19.12-4.21 26.77-5.69 7.96-15.76 11.24-25.13 12.01-9.09.33-18.5.78-27.22-2.24-4.14-1.32-8.14-3.07-11.94-5.15 1.77-5.7 4.12-11.2 5.87-16.9 6.9 4.4 14.97 7.47 23.25 7.41 4.5.02 9.33.36 13.43-1.91 5.32-2.25 7.7-8.95 6.04-14.27-2.24-5.18-7.44-8.11-12.34-10.34-7.52-3.56-15.84-5.47-22.82-10.13-5.8-3.86-10.47-9.82-11.56-16.83-1.49-9.32.51-19.82 7.41-26.65zM1868.09 278.03c6.76-.76 13.43-2.25 20.19-3.13-.03 7.57-.06 15.15.02 22.72 10.87-.14 21.74-.02 32.61-.07-.04 5.66-.03 11.31-.01 16.97-10.86-.08-21.73.07-32.59-.09-.08 11.15-.1 22.3 0 33.45.06 4.77 2.21 10.63 7.64 11.3 7.93.94 16.38-.08 23.44-4 1.1 5.9 2.22 11.8 2.92 17.77-10.27 4-21.53 4.86-32.43 3.94-6.47-.63-13.44-2.92-17.11-8.66-4.74-7.12-4.9-15.98-4.72-24.23-.07-9.85.15-19.7-.14-29.54-5.88.09-11.75-.02-17.62.09-.05-5.68-.04-11.36 0-17.04 5.91.07 11.84.05 17.77.04-.01-6.51-.06-13.01.03-19.52zM289.78 278.65c.91 1.21 1.81 2.43 2.72 3.66-.93 1.13-2 2.13-3.22 2.94-1.13-1.02-2.26-2.04-3.39-3.05 1.3-1.17 2.59-2.36 3.89-3.55zM530.37 289.63c5.79-1.75 12.13-1.19 17.64 1.22 6.08 2.94 10.84 8.37 13.16 14.69 1.84 5.85 1.91 12.2.21 18.1-2.64 8-9.32 14.64-17.54 16.76-7.2 1.39-15.19.61-21.06-4.14-11.75-8.55-13.6-26.99-4.69-38.21 3.15-3.9 7.34-7.19 12.28-8.42zM296.98 294.1c1.33-1.23 2.67-2.46 4-3.7.79 1.14 1.8 2.17 2.23 3.53.14 1.54-1.61 2.08-2.43 3.07-1.3-.93-2.56-1.9-3.8-2.9zM1523.91 300.01c10.41-2.82 21.24-4.11 32.03-3.94 9.12.22 18.61 3.16 24.9 10.07 8.08 8.39 10.48 20.52 10.36 31.79-.44 9.58-2.02 19.58-7.61 27.62-4.92 7.36-13.73 11.81-22.55 11.66-5.82.28-11.47-1.51-16.72-3.83-.02 9.77.03 19.54-.02 29.31-6.79-.14-13.59-.06-20.37-.05-.07-34.21-.03-68.42-.02-102.63m20.43 14.11c-.05 14.22 0 28.44-.03 42.66 6.19 2.89 14.52 4.83 20.25-.07 6.12-6.13 5.95-15.6 5.66-23.67-.53-7.06-3.18-15.17-10.02-18.45-5.08-1.98-10.61-.86-15.86-.47zM1606.75 299.98c9.85-2.69 20.08-3.91 30.29-3.94 8.29.05 16.94 1.93 23.48 7.31 8.2 6.65 12.41 17.18 13.03 27.54.8 11.77-.42 24.43-7.16 34.47-5.02 7.7-14.26 12.21-23.39 11.85-5.62.21-10.96-1.73-16.09-3.77.06 9.74.07 19.49 0 29.24-6.73-.1-13.45-.09-20.16-.01-.02-34.23-.02-68.46 0-102.69m20.2 14.22c.07 14.22-.16 28.45.12 42.68 5.98 2.59 13.6 4.58 19.38.47 4.63-3.55 5.85-9.77 6.52-15.24.67-8.54-.14-18.24-6.23-24.82-5.14-5.36-13.22-3.77-19.79-3.09zM1714.25 296.15c10.61-1.78 22.22.99 30.25 8.34 5.7 5.11 9.36 12.2 11.17 19.58 2.29 11.36 1.82 23.73-3.48 34.22-3.89 7.81-10.68 14.26-18.98 17.13-6.12 2.43-12.89 2.24-19.33 1.65-8.82-1.4-16.98-6.43-22.21-13.67-7.05-9.66-9-22.26-7.51-33.92.87-8.25 4.23-16.27 9.73-22.5 5.22-5.88 12.6-9.65 20.36-10.83m.1 18.37c-5.9 2.75-8.5 9.35-9.52 15.38-.73 8.23-.75 17.21 3.92 24.39 5.1 7.67 18.05 7.36 22.96-.4 4.63-7.34 5.31-16.62 3.86-25.01-1.04-5.4-3.11-11.35-8.29-14.06-4.03-1.81-8.81-1.79-12.93-.3zM1776.34 303.03c17.67-7.56 37.86-8.25 56.67-4.81 1.51.35 3.01.83 4.53 1.31-1.25 6.3-2.33 12.63-3.77 18.9-12.01-3-24.86-3.82-36.91-.71.09 19.2-.02 38.41.05 57.61-6.88 0-13.75-.04-20.62.03-.01-24.11-.11-48.22.05-72.33zM1440.75 297.52c6.71.08 13.44.02 20.16.03.03 14.48-.15 28.96.09 43.43.54 5.52.55 12.11 4.87 16.21 4.85 3.59 11.27 2.19 16.8 1.51.02-20.4 0-40.79.01-61.19 6.9.07 13.79.08 20.7 0-.02 25.07.06 50.15-.04 75.22-10.27 2.5-20.73 4.81-31.36 4.47-8.96.24-18.89-2.17-24.66-9.52-5.85-7.49-6.72-17.5-6.59-26.67.02-14.5 0-28.99.02-43.49zM305.26 311.5c-.64-4.07 2.88-7.6 6.72-8.17 1.53.58 3.38 1.82 2.99 3.74-.81 3.98-6.2 8.03-9.71 4.43zM324.72 315.75c1.23 1.47 3.89 3.76 1.51 5.49-1.94 1.26-3.61-.81-4.98-1.91 1.1-1.25 2.27-2.43 3.47-3.58z"/></g></svg>