<?xml version="1.0" encoding="UTF-8" ?>
<!DOCTYPE svg PUBLIC "-//W3C//DTD SVG 1.1//EN" "http://www.w3.org/Graphics/SVG/1.1/DTD/svg11.dtd">
<svg width="934pt" height="934pt" viewBox="0 0 934 934" version="1.1" xmlns="http://www.w3.org/2000/svg">
<g id="#ffffffff">
<path fill="#ffffff" opacity="1.00" d=" M 425.58 1.88 C 479.27 -2.79 533.78 1.68 585.90 15.43 C 655.83 33.75 721.23 68.83 775.38 116.69 C 829.66 164.53 872.69 225.09 899.69 292.23 C 913.54 326.51 923.24 362.47 928.54 399.06 C 931.43 418.00 932.57 437.15 933.58 456.28 C 934.30 470.78 933.11 485.28 932.26 499.76 C 928.20 558.64 912.80 616.72 887.04 669.83 C 847.08 752.71 781.93 823.14 702.52 869.58 C 653.54 898.33 599.25 918.00 543.20 927.18 C 519.66 931.18 495.80 932.82 471.97 933.76 C 436.71 933.61 401.38 930.25 366.90 922.71 C 298.83 907.96 234.27 877.49 179.45 834.54 C 121.32 789.13 74.12 729.80 43.14 662.84 C 26.08 626.05 13.88 587.02 6.97 547.06 C -5.94 472.52 -0.68 394.83 22.69 322.85 C 48.90 241.47 98.25 167.80 163.21 112.26 C 223.24 60.68 296.60 24.74 374.24 9.25 C 391.20 5.85 408.34 3.38 425.58 1.88 M 427.25 68.81 C 355.10 75.73 285.13 103.05 227.18 146.56 C 409.02 339.10 590.87 531.64 772.71 724.18 C 802.18 689.25 825.58 649.22 841.54 606.40 C 866.86 538.75 873.10 464.19 859.87 393.21 C 846.91 322.94 814.41 256.46 767.17 202.87 C 719.23 148.20 656.14 106.92 586.72 85.20 C 535.40 69.05 480.79 63.53 427.25 68.81 M 205.52 171.99 C 205.39 177.36 208.72 181.95 209.81 187.07 C 210.51 189.20 207.99 191.32 205.98 190.44 C 201.61 188.37 200.07 183.28 199.57 178.84 C 196.75 179.02 193.94 179.19 191.13 179.42 C 191.47 187.79 196.74 196.33 204.97 198.87 C 211.26 201.00 218.85 196.55 219.71 189.92 C 220.33 184.17 216.43 179.34 215.23 173.95 C 214.54 171.97 217.02 169.66 218.87 170.78 C 222.60 172.40 224.11 176.59 224.70 180.32 C 227.21 180.12 229.72 179.91 232.23 179.69 C 232.39 171.18 225.84 162.37 217.01 161.85 C 211.23 161.26 205.66 166.18 205.52 171.99 M 218.97 202.86 C 214.33 213.83 224.02 227.45 235.93 226.59 C 236.22 224.06 236.51 221.53 236.81 219.01 C 232.20 218.97 227.31 215.92 226.88 211.02 C 226.73 206.31 230.07 202.34 233.61 199.63 C 236.90 197.07 241.90 195.79 245.53 198.43 C 248.25 200.17 249.04 203.51 249.30 206.52 C 251.89 206.28 254.49 206.10 257.10 205.91 C 257.39 197.65 251.22 189.96 243.14 188.39 C 232.89 186.18 222.74 193.63 218.97 202.86 M 89.64 333.50 C 66.06 399.96 60.74 472.69 73.94 541.93 C 87.35 613.00 120.77 680.08 169.15 733.80 C 216.55 786.71 278.25 826.70 346.02 848.06 C 420.23 871.61 501.36 872.77 576.24 851.43 C 630.87 835.96 682.02 808.51 725.31 771.79 C 542.57 578.22 359.74 384.74 177.00 191.17 C 138.36 231.82 108.28 280.59 89.64 333.50 M 236.01 234.03 C 238.18 236.33 240.35 238.65 242.54 240.94 C 251.97 232.01 261.42 223.11 270.88 214.22 C 268.72 211.88 266.54 209.57 264.34 207.28 C 254.92 216.23 245.43 225.09 236.01 234.03 M 248.51 247.25 C 254.26 253.45 260.10 259.57 265.90 265.73 C 267.82 263.89 269.76 262.06 271.70 260.25 C 268.07 256.40 264.46 252.54 260.83 248.71 C 262.79 246.89 264.73 245.05 266.68 243.21 C 269.69 246.32 272.63 249.51 275.64 252.64 C 277.54 250.79 279.47 248.96 281.42 247.15 C 278.44 244.02 275.49 240.85 272.50 237.72 C 274.21 236.12 275.91 234.51 277.61 232.89 C 281.09 236.61 284.60 240.29 288.06 244.01 C 290.00 242.20 291.92 240.38 293.85 238.57 C 288.21 232.55 282.53 226.57 276.89 220.55 C 267.40 229.41 258.02 238.40 248.51 247.25 M 271.01 271.15 C 273.07 273.34 275.13 275.55 277.25 277.70 C 284.18 271.11 291.57 264.80 296.93 256.78 C 292.51 266.48 289.32 276.67 285.66 286.67 C 287.84 289.02 290.05 291.34 292.25 293.68 C 301.72 284.79 311.14 275.85 320.61 266.96 C 318.56 264.75 316.48 262.55 314.41 260.36 C 307.71 266.62 300.94 272.83 295.33 280.11 C 299.50 270.80 302.50 261.05 305.98 251.47 C 303.81 249.10 301.60 246.77 299.40 244.42 C 289.90 253.29 280.50 262.27 271.01 271.15 M 317.22 281.32 C 310.53 284.75 304.77 291.20 304.04 298.92 C 303.08 308.85 311.96 318.62 322.07 317.96 C 322.37 315.43 322.66 312.89 322.98 310.37 C 319.13 310.18 315.01 308.40 313.57 304.57 C 311.83 300.21 314.63 295.70 317.69 292.74 C 320.98 289.43 326.25 286.90 330.77 289.23 C 334.04 290.78 335.23 294.48 335.46 297.84 C 338.05 297.64 340.64 297.46 343.23 297.28 C 343.20 292.39 341.47 287.40 337.70 284.15 C 332.34 279.00 323.78 277.93 317.22 281.32 M 350.46 298.66 C 341.05 307.60 331.58 316.48 322.14 325.38 C 327.97 331.52 333.72 337.72 339.58 343.82 C 341.48 341.97 343.41 340.15 345.35 338.33 C 341.72 334.49 338.09 330.66 334.48 326.80 C 336.44 324.97 338.40 323.13 340.32 321.27 C 343.29 324.43 346.25 327.58 349.24 330.70 C 351.18 328.90 353.10 327.08 355.05 325.29 C 352.13 322.09 349.11 318.97 346.15 315.80 C 347.85 314.21 349.54 312.61 351.23 311.01 C 354.75 314.67 358.20 318.41 361.73 322.08 C 363.67 320.28 365.59 318.47 367.49 316.63 C 361.78 310.66 356.21 304.58 350.46 298.66 M 374.46 337.67 C 367.06 340.66 360.63 347.09 358.75 354.99 C 356.26 365.62 366.34 376.85 377.15 375.72 C 382.64 375.27 387.52 372.10 391.31 368.27 C 394.80 364.74 397.57 360.14 397.76 355.07 C 398.39 343.58 385.51 333.13 374.46 337.67 M 380.94 387.68 C 383.08 390.03 385.27 392.34 387.47 394.63 C 390.56 391.68 393.69 388.76 396.78 385.81 C 400.04 389.31 403.42 393.18 408.26 394.40 C 417.02 397.03 427.16 387.32 423.64 378.49 C 420.70 371.36 414.12 366.73 409.27 360.96 C 399.86 369.90 390.40 378.80 380.94 387.68 M 405.47 413.74 C 411.25 419.90 417.07 426.02 422.84 432.18 C 424.79 430.37 426.74 428.54 428.65 426.68 C 425.04 422.85 421.45 419.01 417.80 415.22 C 419.74 413.36 421.70 411.52 423.65 409.68 C 426.65 412.79 429.59 415.95 432.55 419.10 C 434.50 417.28 436.44 415.45 438.37 413.61 C 435.41 410.46 432.43 407.32 429.49 404.17 C 431.19 402.56 432.89 400.95 434.61 399.37 C 438.06 403.10 441.57 406.77 445.04 410.47 C 446.97 408.66 448.90 406.85 450.82 405.03 C 445.18 399.00 439.48 393.03 433.85 387.01 C 424.38 395.91 414.95 404.85 405.47 413.74 M 427.98 437.62 C 430.05 439.81 432.11 442.02 434.22 444.19 C 440.90 437.94 447.64 431.71 453.31 424.48 C 449.24 433.85 446.09 443.56 442.63 453.16 C 444.84 455.49 447.04 457.82 449.23 460.17 C 458.65 451.22 468.14 442.35 477.57 433.42 C 475.52 431.21 473.45 429.03 471.41 426.83 C 464.66 433.05 457.93 439.34 452.26 446.59 C 456.50 437.29 459.47 427.51 462.94 417.91 C 460.78 415.54 458.56 413.23 456.37 410.89 C 446.88 419.77 437.46 428.72 427.98 437.62 M 455.30 466.56 C 457.35 468.78 459.43 470.97 461.50 473.17 C 468.20 466.89 474.94 460.64 480.64 453.41 C 476.52 462.76 473.41 472.50 469.93 482.09 C 472.11 484.44 474.33 486.76 476.52 489.11 C 485.97 480.19 495.42 471.28 504.88 462.37 C 502.82 460.16 500.76 457.96 498.66 455.80 C 491.98 462.02 485.24 468.24 479.63 475.48 C 483.75 466.15 486.83 456.42 490.24 446.82 C 488.04 444.49 485.84 442.17 483.67 439.82 C 474.21 448.72 464.76 457.64 455.30 466.56 M 482.59 495.55 C 488.40 501.66 494.16 507.82 499.97 513.94 C 501.91 512.13 503.84 510.31 505.76 508.48 C 502.17 504.62 498.53 500.82 494.94 496.97 C 496.86 495.10 498.83 493.27 500.79 491.44 C 503.73 494.59 506.70 497.71 509.65 500.86 C 511.61 499.05 513.56 497.22 515.46 495.35 C 512.50 492.22 509.55 489.08 506.58 485.96 C 508.28 484.35 509.99 482.74 511.70 481.13 C 515.16 484.85 518.68 488.52 522.14 492.24 C 524.08 490.43 526.01 488.61 527.94 486.79 C 522.26 480.80 516.62 474.77 510.94 468.79 C 501.49 477.71 492.01 486.60 482.59 495.55 M 521.35 506.07 C 520.76 511.79 524.53 516.67 525.60 522.10 C 526.24 524.44 523.07 526.49 521.17 524.98 C 517.15 522.77 515.84 517.93 515.32 513.70 C 512.51 513.88 509.70 514.05 506.89 514.26 C 507.21 522.79 512.69 531.51 521.18 533.85 C 527.35 535.68 534.54 531.28 535.45 524.87 C 536.20 518.78 531.72 513.79 530.89 507.98 C 530.95 506.10 533.17 504.69 534.86 505.70 C 538.41 507.48 539.86 511.50 540.48 515.19 C 542.97 514.98 545.48 514.76 547.99 514.55 C 548.09 506.41 542.26 498.15 534.01 496.81 C 528.16 495.61 521.90 500.10 521.35 506.07 M 544.23 529.95 C 543.39 536.05 547.73 541.19 548.53 547.04 C 548.36 549.19 545.73 550.36 543.98 549.20 C 540.02 546.93 538.65 542.17 538.16 537.93 C 535.36 538.08 532.57 538.27 529.78 538.44 C 529.96 547.01 535.58 555.78 544.08 558.09 C 550.27 559.84 557.38 555.47 558.31 549.06 C 559.00 542.94 554.50 537.92 553.70 532.06 C 553.87 530.21 556.20 528.88 557.81 529.98 C 561.29 531.80 562.72 535.78 563.32 539.43 C 565.84 539.19 568.37 538.98 570.89 538.72 C 570.83 530.66 565.20 522.49 557.02 521.04 C 551.25 519.81 544.96 524.05 544.23 529.95 M 575.23 562.91 C 574.43 569.02 578.77 574.15 579.56 580.02 C 579.26 581.99 576.88 583.24 575.13 582.18 C 571.08 579.95 569.68 575.11 569.17 570.83 C 566.36 570.98 563.56 571.17 560.77 571.34 C 561.02 579.87 566.54 588.62 575.02 590.95 C 581.22 592.75 588.43 588.36 589.32 581.90 C 589.98 575.82 585.55 570.81 584.71 564.99 C 584.91 563.11 587.21 561.73 588.87 562.88 C 592.29 564.73 593.74 568.66 594.33 572.30 C 596.85 572.09 599.37 571.87 601.89 571.61 C 601.87 563.55 596.21 555.38 588.03 553.94 C 582.24 552.66 575.93 556.98 575.23 562.91 M 595.01 587.94 C 591.56 591.23 588.25 595.13 587.34 599.95 C 586.57 603.70 587.93 607.61 590.25 610.56 C 593.04 614.22 596.98 617.56 601.76 617.89 C 607.09 618.25 611.80 615.09 615.60 611.70 C 620.95 606.73 626.24 601.69 631.55 596.68 C 629.46 594.47 627.38 592.26 625.30 590.06 C 620.07 594.90 614.92 599.84 609.73 604.72 C 607.96 606.32 606.11 607.97 603.80 608.72 C 600.19 610.04 596.30 606.59 596.08 603.02 C 596.26 599.95 598.61 597.67 600.66 595.63 C 605.90 590.63 611.21 585.69 616.47 580.69 C 614.32 578.40 612.15 576.12 610.01 573.83 C 604.98 578.50 600.02 583.25 595.01 587.94 M 609.04 629.63 C 611.21 631.94 613.37 634.25 615.58 636.53 C 618.69 633.59 621.81 630.65 624.91 627.69 C 628.29 631.42 631.97 635.50 637.16 636.50 C 646.13 638.52 655.79 628.09 651.38 619.42 C 648.10 612.89 642.09 608.33 637.37 602.90 C 627.94 611.83 618.47 620.71 609.04 629.63 M 633.60 655.68 C 635.76 657.98 637.93 660.27 640.10 662.57 C 643.24 659.63 646.33 656.65 649.50 653.76 C 652.73 657.34 656.22 661.21 661.10 662.40 C 669.84 664.85 679.80 655.19 676.29 646.40 C 673.33 639.30 666.78 634.65 661.93 628.92 C 652.51 637.86 643.00 646.71 633.60 655.68 M 679.38 661.57 C 671.53 664.95 664.54 672.21 663.73 681.02 C 662.97 690.80 672.09 700.17 681.92 699.51 C 687.49 699.24 692.49 696.12 696.33 692.27 C 699.92 688.78 702.73 684.18 703.07 679.09 C 703.86 667.36 690.58 656.63 679.38 661.57 M 714.60 684.74 C 705.10 693.62 695.68 702.58 686.20 711.48 C 688.39 713.77 690.57 716.09 692.74 718.41 C 696.02 715.26 699.35 712.16 702.64 709.03 C 703.64 710.08 704.64 711.13 705.64 712.21 C 703.96 717.05 702.30 721.91 700.60 726.75 C 703.04 729.30 705.45 731.88 707.88 734.45 C 709.63 728.87 711.37 723.28 713.10 717.69 C 719.88 720.27 727.55 715.55 729.61 708.94 C 730.90 704.39 728.48 699.84 725.58 696.48 C 722.01 692.48 718.22 688.68 714.60 684.74 M 732.06 714.84 C 734.45 717.39 736.87 719.93 739.24 722.50 C 731.69 729.56 724.17 736.67 716.65 743.78 C 718.83 746.07 720.99 748.38 723.19 750.66 C 730.70 743.56 738.25 736.51 745.72 729.38 C 748.17 731.90 750.58 734.47 752.98 737.06 C 754.88 735.22 756.81 733.41 758.76 731.62 C 751.81 724.18 744.80 716.82 737.85 709.39 C 735.92 711.21 733.99 713.02 732.06 714.84 Z" />
<path fill="#ffffff" opacity="1.00" d=" M 443.02 118.15 C 467.39 110.59 495.67 114.99 515.54 131.37 C 522.91 137.35 528.72 144.94 535.23 151.79 C 541.65 159.02 548.45 165.93 554.52 173.45 C 560.33 178.52 568.61 178.86 575.95 178.55 C 586.52 176.88 597.10 175.14 607.64 173.26 C 612.22 171.47 617.07 170.38 622.02 170.61 C 639.47 170.08 657.05 175.41 671.18 185.68 C 684.77 195.45 695.06 209.61 700.39 225.46 C 705.41 239.75 705.03 255.09 706.77 269.96 C 706.80 279.24 712.78 287.90 720.77 292.29 C 731.98 297.05 743.26 301.65 754.49 306.38 C 772.00 314.33 786.72 328.39 795.13 345.72 C 806.46 368.41 806.21 396.63 793.73 418.80 C 786.78 430.83 779.76 442.82 772.73 454.79 C 768.62 461.86 768.57 471.09 772.63 478.20 C 779.17 489.40 785.71 500.61 792.24 511.82 C 802.39 529.57 805.44 551.17 800.67 571.05 C 795.22 594.88 778.53 616.04 756.14 626.10 C 746.31 630.29 736.41 634.33 726.56 638.47 C 713.70 624.72 700.65 611.14 687.83 597.36 C 697.50 591.65 708.27 588.21 718.50 583.66 C 724.11 580.98 730.57 579.65 735.17 575.20 C 739.08 571.69 742.21 567.22 744.08 562.31 C 745.16 555.58 745.55 548.14 741.95 542.06 C 736.26 532.38 730.64 522.67 724.97 512.99 C 709.58 488.24 708.79 455.21 722.61 429.62 C 729.33 418.02 736.09 406.43 742.89 394.88 C 745.07 390.94 746.25 386.37 745.82 381.85 C 745.55 379.17 744.32 376.71 743.98 374.04 C 743.09 367.15 736.66 362.94 730.94 360.11 C 720.13 355.49 709.24 351.05 698.40 346.51 C 678.15 338.42 661.59 321.39 654.65 300.65 C 649.17 284.67 650.45 267.44 647.68 250.97 C 645.66 242.13 639.12 234.46 630.65 231.18 C 625.73 229.13 620.25 229.08 615.03 229.59 C 606.00 231.05 596.98 232.63 587.94 234.07 C 583.48 234.57 579.51 237.13 574.95 237.17 C 550.15 239.36 525.90 227.54 508.91 210.02 C 500.23 200.38 491.37 190.90 482.80 181.16 C 479.88 176.92 475.11 174.09 469.97 173.64 C 460.92 172.15 451.18 174.97 445.09 182.00 C 435.58 192.50 425.99 202.93 416.54 213.48 C 402.01 229.18 380.47 237.79 359.18 237.33 C 354.44 236.93 349.94 235.17 345.22 234.63 C 325.98 214.31 306.75 193.97 287.57 173.58 C 297.92 170.99 309.05 169.06 319.47 172.35 C 331.69 174.19 343.90 176.26 356.10 178.31 C 365.39 179.79 375.51 176.96 382.05 170.04 C 391.26 159.88 400.50 149.77 409.69 139.60 C 418.62 129.64 430.22 122.08 443.02 118.15 Z" />
<path fill="#ffffff" opacity="1.00" d=" M 384.67 276.48 C 410.18 271.83 437.25 275.71 460.26 287.73 C 487.10 301.57 507.95 326.37 517.18 355.10 C 523.93 375.76 524.83 398.28 519.71 419.41 C 474.68 371.78 429.72 324.08 384.67 276.48 Z" />
<path fill="#ffffff" opacity="1.00" d=" M 212.49 292.61 C 218.60 290.10 223.45 284.95 225.81 278.80 C 238.57 292.16 251.15 305.68 263.90 319.04 C 255.79 330.57 244.73 340.16 231.76 345.81 C 220.65 350.48 209.50 355.05 198.41 359.74 C 192.12 363.16 187.51 369.11 184.64 375.58 C 183.65 380.22 183.42 385.09 184.14 389.79 C 184.82 394.37 187.66 398.13 189.87 402.06 C 195.39 411.59 201.02 421.04 206.46 430.61 C 219.00 454.72 218.84 485.12 205.86 509.02 C 199.64 519.74 193.41 530.46 187.11 541.14 C 184.44 545.26 182.54 550.03 182.62 555.02 C 182.57 558.42 184.15 561.53 184.61 564.85 C 185.61 571.29 191.53 575.30 196.88 578.10 C 204.60 581.52 212.46 584.61 220.23 587.91 C 227.09 590.87 234.22 593.33 240.64 597.23 C 255.41 605.90 267.16 619.69 273.12 635.77 C 278.70 650.15 278.16 665.83 279.97 680.92 C 280.11 691.13 285.78 701.20 294.92 705.97 C 301.96 709.97 310.47 709.68 318.17 708.19 C 326.89 706.60 335.71 705.49 344.37 703.65 C 351.21 700.68 358.85 700.91 366.13 701.43 C 389.94 703.63 411.25 717.64 426.23 735.77 C 433.51 743.83 440.91 751.81 448.09 759.97 C 454.70 765.66 464.58 766.31 472.65 763.80 C 478.71 761.79 483.22 757.06 487.25 752.34 C 494.75 744.12 502.19 735.85 509.72 727.66 C 524.88 712.55 545.28 701.70 567.00 701.15 C 571.79 700.89 576.32 702.74 580.98 703.51 C 590.73 704.66 600.36 706.58 610.06 708.12 C 616.93 709.49 624.19 709.75 630.97 707.73 C 643.83 721.41 656.78 734.99 669.60 748.70 C 656.22 757.74 640.15 762.76 623.98 762.62 C 618.87 762.46 614.09 760.31 609.01 759.97 C 597.97 758.46 587.04 756.21 576.00 754.68 C 567.05 753.66 557.77 756.98 551.53 763.46 C 542.81 773.11 534.02 782.69 525.31 792.35 C 520.82 797.52 515.66 802.12 509.96 805.94 C 483.14 823.93 444.80 822.78 419.40 802.67 C 412.39 797.36 406.96 790.37 400.99 784.00 C 394.54 776.79 387.86 769.80 381.57 762.46 C 376.54 754.83 366.29 754.30 358.04 754.67 C 350.48 755.65 342.98 757.15 335.44 758.33 C 331.51 759.08 327.43 759.30 323.68 760.79 C 318.42 762.84 312.66 762.68 307.11 762.59 C 290.25 762.11 273.58 756.15 260.31 745.72 C 246.54 735.05 236.56 719.72 232.00 702.93 C 228.95 692.20 228.92 680.96 227.69 669.94 C 226.91 664.35 227.53 658.35 224.75 653.23 C 221.52 646.69 215.84 641.30 208.81 639.08 C 199.23 635.11 189.67 631.11 180.10 627.13 C 161.49 618.95 146.00 603.79 137.67 585.22 C 127.38 562.87 128.10 535.67 140.25 514.19 C 147.23 502.17 154.24 490.17 161.26 478.18 C 165.28 471.07 165.24 461.87 161.14 454.81 C 154.72 443.89 148.37 432.93 141.98 422.00 C 133.09 406.72 129.40 388.50 131.62 370.96 C 134.84 343.02 153.43 317.15 179.54 306.30 C 190.53 301.74 201.49 297.12 212.49 292.61 Z" />
<path fill="#ffffff" opacity="1.00" d=" M 379.19 346.08 C 384.39 344.04 390.30 349.55 388.58 354.87 C 386.70 360.46 381.71 365.09 376.01 366.59 C 371.17 367.90 366.14 362.88 367.57 358.04 C 369.18 352.53 373.88 348.05 379.19 346.08 Z" />
<path fill="#ffffff" opacity="1.00" d=" M 295.26 352.27 C 343.11 403.00 391.05 453.66 438.90 504.40 C 415.85 511.43 390.59 510.91 367.85 502.95 C 336.67 492.20 310.59 467.80 297.63 437.49 C 285.98 410.76 285.16 379.61 295.26 352.27 Z" />
<path fill="#ffffff" opacity="1.00" d=" M 402.26 380.66 C 404.94 378.14 407.62 375.61 410.29 373.08 C 412.35 375.45 415.36 377.61 415.61 380.99 C 415.17 384.50 410.80 387.48 407.52 385.53 C 405.42 384.32 403.94 382.34 402.26 380.66 Z" />
<path fill="#ffffff" opacity="1.00" d=" M 569.74 472.38 C 580.28 462.80 594.72 457.63 608.96 458.64 C 622.16 459.41 634.93 465.39 644.03 474.96 C 654.75 485.93 660.29 501.71 658.73 516.97 C 657.64 529.39 651.84 541.23 643.01 549.98 C 618.59 524.11 594.15 498.26 569.74 472.38 Z" />
<path fill="#ffffff" opacity="1.00" d=" M 411.48 565.84 C 422.38 563.75 434.12 566.41 442.97 573.14 C 458.42 584.23 463.58 606.87 454.58 623.61 C 449.81 632.95 441.22 640.27 431.21 643.42 C 420.15 647.02 407.55 645.49 397.71 639.27 C 389.02 633.89 382.55 625.05 380.09 615.12 C 377.42 604.65 379.16 593.11 384.95 583.97 C 390.75 574.57 400.62 567.83 411.48 565.84 Z" />
<path fill="#ffffff" opacity="1.00" d=" M 630.38 622.54 C 633.07 620.04 635.74 617.52 638.38 614.98 C 640.33 617.14 642.83 619.10 643.65 622.03 C 644.06 625.17 640.96 627.84 638.03 628.11 C 634.59 627.93 632.60 624.72 630.38 622.54 Z" />
<path fill="#ffffff" opacity="1.00" d=" M 654.94 648.56 C 657.62 646.05 660.31 643.53 662.97 641.00 C 665.01 643.44 668.13 645.64 668.28 649.11 C 667.72 651.90 664.98 654.19 662.12 654.14 C 658.93 653.57 657.04 650.71 654.94 648.56 Z" />
<path fill="#ffffff" opacity="1.00" d=" M 682.40 670.68 C 687.17 667.36 694.48 671.08 694.13 676.98 C 693.33 683.00 688.14 687.69 682.77 689.94 C 678.16 692.13 672.26 688.25 672.64 683.14 C 673.39 677.63 677.77 673.32 682.40 670.68 Z" />
<path fill="#ffffff" opacity="1.00" d=" M 715.57 696.87 C 717.44 698.88 719.65 700.72 720.82 703.27 C 722.28 706.58 718.32 710.15 715.09 709.52 C 712.07 708.71 710.25 705.98 708.14 703.90 C 710.59 701.53 713.08 699.20 715.57 696.87 Z" />
</g>
</svg>
