<?xml version="1.0" encoding="UTF-8" ?>
<!DOCTYPE svg PUBLIC "-//W3C//DTD SVG 1.1//EN" "http://www.w3.org/Graphics/SVG/1.1/DTD/svg11.dtd">
<svg width="2036pt" height="623pt" viewBox="0 0 2036 623" version="1.1" xmlns="http://www.w3.org/2000/svg">
<g id="#ff0c00ff">
<path fill="#ff0c00" opacity="1.00" d=" M 285.23 1.12 C 324.83 -2.14 365.06 2.09 403.04 13.84 C 451.58 28.77 496.28 55.92 531.98 92.02 C 576.73 136.87 607.22 195.73 617.79 258.22 C 625.64 304.15 623.19 351.85 610.38 396.67 C 593.41 456.64 557.70 511.03 509.69 550.73 C 459.37 592.68 395.46 618.02 330.03 621.70 C 322.99 622.01 316.00 623.05 308.94 622.76 C 287.64 621.68 266.27 619.98 245.41 615.32 C 181.88 601.81 123.11 567.51 79.79 519.17 C 42.76 478.11 16.95 427.01 6.15 372.76 C -3.68 323.70 -1.61 272.28 12.36 224.23 C 29.56 164.60 65.29 110.59 113.18 71.16 C 161.60 30.99 222.50 6.12 285.23 1.12 M 151.46 97.70 C 159.52 106.26 167.59 114.80 175.67 123.34 C 185.10 116.90 196.59 113.17 208.05 113.87 C 217.46 115.81 227.00 117.00 236.46 118.73 C 242.84 119.97 249.93 118.30 254.51 113.53 C 261.23 106.27 267.79 98.85 274.52 91.60 C 284.12 81.50 298.13 76.07 312.00 76.40 C 325.74 76.42 339.44 82.15 348.76 92.32 C 355.85 100.17 363.07 107.92 370.02 115.90 C 375.02 119.75 381.93 119.47 387.84 118.45 C 394.99 117.03 402.34 116.52 409.29 114.22 C 422.76 112.28 436.94 116.00 447.87 124.09 C 457.59 131.21 464.67 141.72 467.85 153.31 C 469.90 160.34 469.93 167.72 470.74 174.95 C 471.24 179.01 470.87 183.39 472.96 187.07 C 474.86 190.59 477.74 193.73 481.48 195.29 C 488.36 198.16 495.26 201.01 502.14 203.89 C 516.49 210.04 528.04 222.47 532.88 237.34 C 537.46 250.99 536.22 266.55 529.17 279.15 C 524.56 287.20 519.83 295.18 515.17 303.20 C 512.89 307.08 512.46 311.95 513.92 316.20 C 520.39 330.09 531.31 342.11 534.22 357.53 C 538.02 376.12 531.29 396.46 517.01 408.99 C 506.10 418.86 491.16 421.74 478.41 428.38 C 475.25 430.32 473.09 433.47 471.77 436.88 C 486.24 452.17 500.68 467.49 515.15 482.79 C 543.12 449.63 562.85 409.56 571.86 367.11 C 580.63 326.06 579.61 282.94 568.78 242.38 C 559.16 206.15 541.69 172.06 518.01 143.01 C 490.73 109.44 455.19 82.62 415.35 65.73 C 374.87 48.45 330.05 41.63 286.25 45.73 C 237.65 50.14 190.47 68.41 151.46 97.70 M 297.08 120.98 C 290.51 128.12 284.01 135.34 277.48 142.53 C 272.03 148.38 265.06 152.73 257.52 155.35 C 249.45 158.06 240.58 159.35 232.29 156.83 C 222.69 155.75 213.28 153.00 203.59 152.88 C 215.21 165.26 226.91 177.57 238.54 189.93 C 264.06 178.18 295.83 181.70 318.05 198.94 C 334.14 211.15 345.06 229.88 347.85 249.88 C 350.27 265.98 347.34 282.74 339.82 297.15 C 349.92 307.86 360.05 318.55 370.14 329.27 C 372.84 322.26 377.54 315.98 383.82 311.80 C 396.56 302.84 415.14 303.89 426.80 314.22 C 438.53 323.91 442.68 341.48 436.40 355.36 C 432.32 364.99 423.76 372.42 413.81 375.50 C 424.47 386.78 435.14 398.07 445.80 409.37 C 448.86 405.87 452.20 402.58 456.04 399.93 C 462.39 395.33 469.99 393.06 477.08 389.90 C 482.38 387.47 488.63 386.16 492.30 381.21 C 497.57 375.60 497.97 366.38 493.86 360.01 C 490.26 353.96 486.76 347.85 483.18 341.78 C 472.57 324.52 472.55 301.31 483.11 284.02 C 487.26 276.88 491.50 269.78 495.58 262.60 C 498.45 257.65 496.94 251.82 495.20 246.78 C 493.43 243.33 489.88 241.27 486.48 239.71 C 478.69 236.39 470.82 233.27 463.07 229.88 C 448.28 223.15 437.17 208.93 434.49 192.88 C 433.29 184.86 433.03 176.74 432.04 168.70 C 430.88 160.03 422.88 152.82 414.08 152.89 C 407.65 152.92 401.40 154.73 395.05 155.53 C 390.24 155.91 385.84 158.39 380.96 158.25 C 365.39 158.83 350.43 151.31 339.66 140.41 C 332.93 133.11 326.31 125.69 319.62 118.36 C 312.96 113.52 302.61 114.94 297.08 120.98 M 50.72 254.05 C 41.08 298.18 42.80 344.76 55.84 388.02 C 74.04 449.15 115.19 502.97 169.21 536.83 C 202.00 557.54 239.38 570.93 277.87 575.68 C 318.51 580.77 360.32 576.46 398.99 562.94 C 429.84 552.19 458.63 535.65 483.54 514.52 C 475.16 505.62 466.76 496.75 458.38 487.86 C 448.15 500.95 431.63 509.05 414.96 508.33 C 405.07 506.39 395.09 504.95 385.16 503.27 C 378.67 502.16 371.75 504.48 367.33 509.37 C 360.83 516.50 354.39 523.69 347.84 530.78 C 331.16 548.22 301.79 550.62 282.09 536.94 C 275.71 532.74 271.06 526.60 265.89 521.09 C 261.81 516.51 257.53 512.11 253.63 507.38 C 250.37 503.42 244.72 502.98 239.96 503.07 C 232.62 503.79 225.37 505.30 218.10 506.53 C 209.39 509.67 199.75 508.61 190.99 506.17 C 175.20 501.57 162.06 489.15 156.34 473.76 C 151.93 462.66 152.66 450.50 151.01 438.86 C 149.90 434.11 146.61 429.86 142.37 427.46 C 133.03 423.08 123.07 420.03 114.05 414.98 C 101.25 407.42 91.65 394.57 88.36 380.04 C 85.41 367.51 87.21 353.89 93.57 342.68 C 98.10 334.85 102.68 327.05 107.24 319.24 C 110.11 314.52 110.28 308.29 107.56 303.47 C 103.28 296.06 98.92 288.69 94.63 281.29 C 90.03 273.36 87.51 264.25 87.34 255.09 C 86.98 239.21 93.86 223.29 105.88 212.87 C 116.69 203.28 131.34 200.35 143.93 193.90 C 147.75 191.53 150.68 187.48 151.13 182.95 C 151.70 176.73 152.26 170.51 152.80 164.29 C 141.18 152.03 129.60 139.74 118.00 127.46 C 84.61 162.49 60.97 206.74 50.72 254.05 M 183.56 196.87 C 179.14 211.70 168.28 224.76 153.90 230.80 C 147.31 233.54 140.74 236.30 134.13 239.01 C 129.05 240.94 125.26 245.40 123.16 250.31 C 121.67 255.98 122.43 262.26 125.97 267.04 C 131.92 278.04 140.11 288.23 142.55 300.77 C 145.42 314.40 143.42 329.20 136.19 341.19 C 132.23 347.92 128.34 354.69 124.36 361.40 C 120.48 366.87 121.67 374.02 124.26 379.74 C 126.30 382.75 129.55 384.67 132.82 386.10 C 140.35 389.28 147.93 392.34 155.45 395.57 C 169.82 401.93 180.85 415.32 184.13 430.72 C 185.89 439.71 185.81 448.94 187.16 457.98 C 188.91 467.42 198.66 474.23 208.14 472.68 C 216.80 471.31 225.57 470.30 234.00 467.81 C 245.62 466.20 257.52 469.56 267.37 475.72 C 279.03 482.75 286.92 494.15 296.19 503.82 C 300.39 510.16 309.23 511.53 315.95 508.87 C 321.36 506.65 324.57 501.50 328.53 497.49 C 334.38 491.35 339.54 484.44 346.40 479.34 C 354.69 472.99 364.62 468.51 375.10 467.59 C 380.79 466.76 386.20 469.20 391.81 469.61 C 400.49 470.58 409.09 473.63 417.88 472.48 C 424.66 471.55 429.81 465.93 431.62 459.55 C 390.66 416.14 349.66 372.77 308.70 329.37 C 290.24 339.95 267.38 342.53 247.12 335.93 C 220.16 327.50 198.72 303.61 193.54 275.81 C 189.69 256.43 193.89 235.75 204.65 219.23 C 197.63 211.76 190.58 204.33 183.56 196.87 M 267.44 220.49 C 282.64 236.60 297.82 252.73 313.08 268.78 C 313.74 258.06 311.36 246.93 304.78 238.26 C 296.35 226.57 281.88 219.50 267.44 220.49 M 229.41 274.45 C 233.51 288.80 245.52 300.58 259.97 304.33 C 267.94 306.50 276.46 305.92 284.33 303.61 C 266.57 284.75 248.77 265.93 230.97 247.10 C 227.47 255.72 226.74 265.50 229.41 274.45 Z" />
<path fill="#ff0c00" opacity="1.00" d=" M 931.47 211.37 C 954.75 188.76 990.91 180.04 1021.76 190.39 C 1034.79 194.83 1046.57 202.61 1056.13 212.48 C 1048.89 221.22 1041.64 229.95 1034.39 238.69 C 1026.30 230.80 1016.42 224.17 1005.11 222.21 C 989.36 219.25 972.31 224.61 961.27 236.28 C 948.32 249.70 943.09 268.73 942.31 286.96 C 941.68 304.52 943.92 322.82 952.60 338.37 C 958.60 349.23 968.55 358.10 980.54 361.65 C 993.25 365.49 1007.44 364.32 1019.27 358.24 C 1026.49 354.63 1032.75 349.38 1038.30 343.56 C 1045.53 352.11 1052.79 360.64 1060.02 369.20 C 1051.27 379.34 1040.44 387.84 1028.02 393.00 C 1011.30 400.05 992.45 401.00 974.74 397.64 C 956.96 394.25 940.16 385.45 927.72 372.25 C 913.11 356.99 904.78 336.60 901.77 315.89 C 899.11 297.37 899.61 278.27 904.12 260.07 C 908.65 241.79 917.82 224.46 931.47 211.37 Z" />
<path fill="#ff0c00" opacity="1.00" d=" M 1517.08 190.00 C 1542.72 190.02 1568.36 189.95 1594.01 190.04 C 1612.73 190.66 1632.70 194.05 1647.53 206.37 C 1658.99 215.76 1664.82 230.47 1665.79 244.99 C 1667.28 262.42 1663.63 281.23 1651.72 294.61 C 1645.08 302.24 1636.32 307.76 1626.97 311.45 C 1642.97 339.50 1658.99 367.53 1675.00 395.58 C 1659.68 395.59 1644.37 395.57 1629.06 395.59 C 1614.95 369.69 1600.91 343.74 1586.82 317.83 C 1577.32 317.84 1567.83 317.83 1558.34 317.84 C 1558.33 343.75 1558.33 369.67 1558.33 395.58 C 1544.58 395.59 1530.83 395.58 1517.09 395.59 C 1517.08 327.06 1517.09 258.53 1517.08 190.00 M 1558.34 285.25 C 1568.20 285.21 1578.07 285.33 1587.94 285.19 C 1598.09 284.82 1608.96 282.72 1616.70 275.65 C 1623.51 269.51 1626.02 259.96 1625.70 251.05 C 1625.63 243.56 1623.27 235.59 1617.30 230.67 C 1609.99 224.63 1600.14 223.24 1590.98 222.70 C 1580.10 222.44 1569.21 222.66 1558.34 222.58 C 1558.33 243.47 1558.33 264.36 1558.34 285.25 Z" />
<path fill="#ff0c00" opacity="1.00" d=" M 1706.58 190.00 C 1748.64 190.00 1790.69 190.00 1832.75 190.00 C 1832.74 201.42 1832.75 212.83 1832.75 224.25 C 1804.41 224.25 1776.08 224.25 1747.75 224.25 C 1747.75 240.06 1747.75 255.86 1747.75 271.66 C 1771.83 271.67 1795.91 271.66 1820.00 271.67 C 1820.00 283.17 1820.00 294.67 1820.00 306.17 C 1795.91 306.17 1771.83 306.17 1747.75 306.17 C 1747.75 324.47 1747.74 342.78 1747.75 361.08 C 1777.11 361.09 1806.47 361.08 1835.83 361.08 C 1835.83 372.58 1835.84 384.08 1835.83 395.58 C 1792.75 395.58 1749.67 395.59 1706.58 395.58 C 1706.58 327.05 1706.58 258.53 1706.58 190.00 Z" />
<path fill="#ff0c00" opacity="1.00" d=" M 1877.41 190.01 C 1891.61 189.99 1905.82 190.00 1920.03 190.00 C 1931.03 190.06 1942.08 189.63 1953.03 191.07 C 1971.52 193.26 1990.05 199.41 2004.46 211.53 C 2017.84 222.58 2026.70 238.36 2031.07 255.02 C 2035.41 272.32 2036.91 290.45 2034.75 308.19 C 2032.84 328.34 2026.51 348.68 2013.37 364.41 C 2001.66 378.65 1984.78 387.98 1966.97 392.16 C 1949.34 396.68 1931.04 395.42 1913.04 395.58 C 1901.16 395.58 1889.29 395.59 1877.42 395.58 C 1877.41 327.06 1877.42 258.53 1877.41 190.01 M 1918.59 222.84 C 1918.58 269.39 1918.58 315.94 1918.59 362.50 C 1929.01 362.45 1939.58 362.95 1949.82 360.57 C 1963.01 357.84 1975.34 350.14 1982.48 338.56 C 1992.23 323.00 1993.94 303.95 1993.37 286.01 C 1992.69 269.28 1988.98 251.38 1977.06 238.87 C 1969.43 230.83 1958.85 226.15 1948.07 224.25 C 1938.35 222.36 1928.42 222.91 1918.59 222.84 Z" />
<path fill="#ff0c00" opacity="1.00" d=" M 805.31 237.23 C 818.25 234.81 832.59 235.88 843.84 243.25 C 852.91 249.20 858.56 259.15 861.43 269.41 C 864.37 279.66 865.03 290.39 865.00 301.00 C 864.99 332.53 865.01 364.06 864.99 395.59 C 851.36 395.58 837.72 395.58 824.09 395.59 C 824.08 366.39 824.08 337.19 824.09 307.99 C 824.05 299.53 824.17 290.78 821.09 282.77 C 819.31 277.96 815.49 273.80 810.49 272.32 C 804.38 270.51 797.70 270.84 791.68 272.81 C 782.95 275.83 776.17 282.43 769.66 288.70 C 769.68 324.33 769.66 359.96 769.66 395.58 C 756.14 395.59 742.61 395.58 729.09 395.59 C 729.08 343.73 729.09 291.86 729.08 240.00 C 740.21 240.00 751.35 239.99 762.48 240.01 C 763.58 247.00 764.04 254.11 765.61 261.01 C 776.79 250.26 789.73 240.26 805.31 237.23 Z" />
<path fill="#ff0c00" opacity="1.00" d=" M 1144.52 236.75 C 1165.51 233.79 1187.73 240.26 1203.47 254.56 C 1216.87 266.47 1225.21 283.40 1228.04 300.98 C 1230.88 318.86 1229.51 337.71 1222.39 354.48 C 1216.35 368.84 1205.77 381.32 1192.32 389.25 C 1173.99 400.23 1150.80 402.49 1130.62 395.53 C 1114.97 390.27 1101.32 379.39 1092.60 365.38 C 1083.72 351.31 1079.80 334.51 1079.90 317.98 C 1079.82 300.46 1084.18 282.61 1094.10 268.02 C 1105.42 251.01 1124.27 239.36 1144.52 236.75 M 1146.41 270.58 C 1138.85 272.61 1132.65 278.19 1128.90 284.94 C 1122.35 296.74 1121.18 310.68 1121.80 323.92 C 1122.56 335.77 1125.36 348.32 1133.67 357.28 C 1143.94 368.59 1163.53 369.07 1174.46 358.46 C 1182.14 351.09 1185.52 340.43 1186.91 330.13 C 1188.25 319.10 1187.93 307.75 1185.18 296.95 C 1183.00 288.62 1178.93 280.40 1171.96 275.09 C 1164.81 269.57 1155.00 268.25 1146.41 270.58 Z" />
<path fill="#ff0c00" opacity="1.00" d=" M 1245.42 240.00 C 1259.17 240.00 1272.91 239.99 1286.65 240.01 C 1292.56 260.16 1298.49 280.30 1304.41 300.45 C 1310.68 321.10 1315.74 342.09 1321.43 362.91 C 1321.64 363.86 1322.18 364.59 1323.05 365.11 C 1333.49 323.03 1346.39 281.63 1358.47 240.01 C 1371.57 239.99 1384.66 240.00 1397.76 240.00 C 1380.45 291.86 1363.12 343.72 1345.81 395.59 C 1330.03 395.58 1314.26 395.59 1298.49 395.58 C 1280.80 343.72 1263.11 291.86 1245.42 240.00 Z" />
<path fill="#ff0c00" opacity="1.00" d=" M 1441.40 346.59 C 1449.64 344.87 1458.76 347.35 1464.63 353.48 C 1475.16 364.08 1474.66 383.46 1463.35 393.31 C 1454.22 401.58 1438.87 401.59 1429.86 393.14 C 1419.05 383.40 1418.37 364.90 1428.11 354.20 C 1431.58 350.33 1436.29 347.60 1441.40 346.59 Z" />
<path fill="#ff0c00" opacity="1.00" d=" M 272.41 377.66 C 281.25 375.24 291.23 377.79 297.79 384.19 C 307.66 393.25 308.76 409.88 300.19 420.17 C 292.02 430.91 275.39 433.46 264.36 425.68 C 253.57 418.72 249.43 403.54 255.14 392.05 C 258.41 385.02 264.90 379.60 272.41 377.66 Z" />
</g>
</svg>
