<?xml version="1.0" encoding="UTF-8" ?>
<!DOCTYPE svg PUBLIC "-//W3C//DTD SVG 1.1//EN" "http://www.w3.org/Graphics/SVG/1.1/DTD/svg11.dtd">
<svg width="2082pt" height="637pt" viewBox="0 0 2082 637" version="1.1" xmlns="http://www.w3.org/2000/svg">
    <g id="#ff0c00ff">
        <path fill="#ff0c00" opacity="1.00" d=" M 292.15 1.13 C 365.24 -4.94 440.38 15.05 500.33 57.42 C 560.38 99.17 605.38 162.28 624.58 232.92 C 636.21 274.74 639.32 318.94 633.22 361.94 C 627.99 398.36 616.89 434.02 599.61 466.55 C 570.15 522.43 523.70 569.12 467.97 598.86 C 425.86 621.44 378.51 633.91 330.83 636.09 C 322.38 637.03 313.83 637.02 305.39 636.08 C 266.64 634.31 228.15 625.71 192.47 610.45 C 161.47 597.18 132.77 578.73 107.46 556.49 C 73.69 526.61 46.32 489.48 27.84 448.34 C 12.86 414.79 3.83 378.60 0.95 341.98 C -2.89 291.94 5.61 241.08 24.90 194.79 C 47.33 141.46 84.62 94.44 131.55 60.59 C 178.21 26.36 234.56 5.96 292.15 1.13 M 283.53 60.82 C 242.42 66.01 202.93 82.00 168.97 105.62 C 173.86 110.92 178.92 116.07 183.77 121.40 C 195.36 115.49 209.15 111.63 222.03 115.25 C 229.72 116.29 237.35 117.79 245.03 118.94 C 249.09 119.60 253.60 118.77 256.49 115.67 C 262.28 109.37 268.01 103.02 273.76 96.68 C 287.60 80.09 311.20 72.82 332.06 78.11 C 343.94 80.53 354.68 87.33 362.59 96.43 C 368.73 103.32 375.11 110.00 381.11 117.02 C 382.21 118.49 384.15 118.86 385.88 118.99 C 392.40 119.55 398.75 117.52 405.18 116.72 C 409.54 116.25 413.63 114.49 417.97 113.94 C 426.94 113.05 435.98 114.74 444.46 117.62 C 462.78 124.33 477.28 140.58 481.74 159.59 C 484.42 169.36 484.05 179.61 485.57 189.56 C 486.64 192.40 488.83 194.96 491.71 196.09 C 498.79 199.06 505.90 201.96 512.97 204.95 C 530.20 212.77 543.80 228.66 547.81 247.27 C 551.38 260.60 549.29 275.03 543.41 287.38 C 538.97 295.53 534.12 303.45 529.48 311.48 C 527.60 314.20 526.23 317.64 527.50 320.92 C 534.26 334.56 544.76 346.67 547.66 361.98 C 550.77 374.06 549.00 386.88 544.66 398.42 C 538.48 414.01 525.56 426.70 509.82 432.51 C 502.36 435.98 494.22 438.18 487.26 442.62 C 498.74 454.85 510.26 467.05 521.82 479.22 C 538.70 457.93 552.11 433.93 561.64 408.51 C 578.75 363.30 581.93 313.25 572.63 265.94 C 565.80 232.46 552.02 200.47 532.90 172.19 C 504.44 130.48 463.75 97.18 416.98 78.03 C 375.11 60.40 328.49 55.01 283.53 60.82 M 309.00 132.96 C 302.60 139.92 296.25 146.93 289.93 153.96 C 278.84 166.02 262.32 172.46 246.07 172.17 C 240.41 170.99 234.69 170.14 228.98 169.22 C 235.12 175.68 241.24 182.15 247.33 188.65 C 259.08 184.49 271.62 182.19 284.10 183.31 C 298.73 184.69 313.29 189.18 325.41 197.66 C 343.28 209.62 356.21 228.77 360.52 249.84 C 364.84 267.46 362.36 286.27 355.21 302.80 C 361.93 310.05 368.81 317.15 375.52 324.41 C 385.05 309.98 404.06 302.50 420.80 307.06 C 433.84 309.92 444.94 319.70 450.03 331.97 C 453.02 339.97 454.45 348.84 452.21 357.23 C 450.01 368.70 442.49 378.78 432.58 384.82 C 439.38 391.89 446.05 399.09 452.83 406.19 C 463.32 396.16 477.68 392.53 490.53 386.63 C 495.52 383.95 498.17 377.54 495.78 372.27 C 492.06 365.69 488.17 359.21 484.38 352.67 C 472.96 334.13 472.30 309.65 482.43 290.42 C 486.99 282.41 491.74 274.53 496.32 266.53 C 498.28 263.36 496.66 259.62 495.67 256.41 C 494.06 254.55 491.74 253.57 489.55 252.60 C 482.44 249.64 475.33 246.70 468.24 243.72 C 452.62 236.88 440.07 222.88 435.90 206.24 C 433.23 196.55 433.39 186.42 432.13 176.51 C 431.54 172.97 429.18 169.77 426.00 168.11 C 422.62 166.20 418.55 166.89 414.89 167.39 C 408.56 168.61 402.09 169.17 395.89 171.00 C 388.74 173.08 381.08 172.40 373.93 170.69 C 359.54 167.56 346.82 158.74 337.38 147.62 C 332.08 141.90 326.96 135.98 321.61 130.33 C 317.45 128.67 312.01 129.36 309.00 132.96 M 71.64 236.41 C 56.95 280.12 54.91 327.77 64.20 372.83 C 75.50 425.21 103.46 473.83 143.14 509.86 C 173.58 537.89 210.95 558.18 250.83 569.07 C 291.85 579.97 335.52 580.52 376.91 571.24 C 414.54 562.35 450.22 545.10 480.37 520.88 C 475.39 515.68 470.45 510.45 465.55 505.18 C 454.95 515.50 440.61 521.53 425.88 522.36 C 420.78 522.87 415.94 520.74 410.91 520.35 C 403.57 519.37 396.33 517.53 388.94 517.05 C 383.83 516.58 379.81 520.30 376.85 523.99 C 370.97 530.40 365.23 536.93 359.25 543.24 C 348.96 553.61 334.55 559.15 320.07 559.72 C 304.01 560.11 287.70 554.11 276.49 542.44 C 270.30 535.64 264.12 528.83 257.94 522.02 C 256.21 520.22 254.88 517.54 252.10 517.30 C 243.71 516.38 235.49 519.04 227.24 520.17 C 218.21 523.33 208.36 522.91 199.19 520.56 C 181.90 516.79 166.98 504.50 159.21 488.71 C 152.94 476.42 152.60 462.39 151.39 448.94 C 151.21 445.10 148.49 441.58 145.00 440.10 C 137.29 436.81 129.48 433.78 121.84 430.35 C 105.35 422.21 92.46 406.62 88.69 388.50 C 85.20 375.19 87.36 360.79 93.28 348.50 C 98.13 339.70 103.40 331.14 108.38 322.42 C 109.98 319.74 109.93 316.19 108.30 313.55 C 103.92 306.00 99.47 298.49 95.11 290.93 C 91.24 284.20 89.16 276.61 87.91 268.99 C 86.36 259.22 88.02 249.25 91.10 239.94 C 96.55 224.39 108.66 211.28 123.85 204.84 C 131.16 201.79 138.48 198.76 145.79 195.71 C 148.56 194.61 150.96 192.10 151.21 189.03 C 151.70 183.98 152.09 178.92 152.59 173.88 C 143.41 164.14 134.23 154.41 125.03 144.70 C 101.13 171.14 82.97 202.65 71.64 236.41 M 164.65 243.77 C 157.39 246.86 150.05 249.79 142.80 252.92 C 137.98 255.31 135.33 260.90 136.69 266.16 C 142.99 279.12 152.99 290.52 155.92 304.95 C 159.62 319.08 157.63 334.38 151.50 347.54 C 146.82 356.12 141.66 364.44 136.82 372.94 C 134.72 376.20 136.25 380.23 137.53 383.49 C 140.84 386.68 145.51 387.71 149.57 389.62 C 157.77 393.30 166.58 395.89 174.01 401.11 C 185.53 408.82 194.23 420.89 197.37 434.44 C 199.88 444.06 199.62 454.10 201.03 463.89 C 202.26 469.17 207.49 473.38 213.00 472.78 C 220.10 472.30 227.12 470.74 234.13 469.51 C 241.87 466.81 250.31 466.89 258.22 468.79 C 272.79 471.75 285.74 480.51 295.32 491.70 C 299.89 496.79 304.57 501.78 309.07 506.93 C 312.09 511.25 319.00 511.08 322.77 507.89 C 332.57 498.41 340.30 486.68 351.73 478.97 C 361.89 471.68 374.38 467.40 386.91 467.51 C 396.53 469.41 406.27 470.74 415.93 472.45 C 421.13 473.39 427.31 473.06 430.53 468.21 C 391.84 427.08 352.97 386.14 314.28 345.01 C 298.14 352.53 279.60 355.69 262.04 352.00 C 229.63 346.32 201.93 320.08 194.68 287.98 C 189.27 267.63 192.91 245.46 202.95 227.13 C 199.57 223.67 196.31 220.11 192.96 216.63 C 186.73 228.39 176.89 238.35 164.65 243.77 M 295.11 239.19 C 299.77 244.15 304.42 249.12 309.13 254.02 C 305.85 247.95 300.88 242.93 295.11 239.19 M 241.74 268.27 C 240.50 287.67 257.67 305.82 277.07 305.76 C 265.38 293.18 253.52 280.77 241.74 268.27 Z" />
        <path fill="#ff0c00" opacity="1.00" d=" M 966.37 200.49 C 981.57 193.81 998.50 191.14 1015.02 192.68 C 1035.51 194.67 1054.85 204.58 1069.21 219.21 C 1060.58 229.80 1051.94 240.37 1043.31 250.96 C 1034.80 243.32 1024.73 236.58 1013.11 235.21 C 998.91 233.10 984.08 238.87 974.72 249.67 C 962.38 263.57 958.28 282.87 958.61 301.01 C 958.95 318.00 962.39 336.07 973.72 349.34 C 982.26 359.56 995.88 364.71 1009.05 363.85 C 1023.44 363.31 1036.56 355.44 1046.09 345.00 C 1054.81 355.40 1063.54 365.80 1072.27 376.20 C 1063.79 385.97 1053.35 394.14 1041.46 399.34 C 1026.65 405.95 1010.05 407.81 994.00 406.27 C 976.01 404.59 958.32 398.12 944.14 386.82 C 930.97 376.45 921.13 362.15 915.34 346.47 C 908.66 328.50 906.79 309.01 908.06 289.97 C 909.45 270.08 915.29 250.23 926.60 233.67 C 936.39 219.17 950.33 207.49 966.37 200.49 Z" />
        <path fill="#ff0c00" opacity="1.00" d=" M 1545.41 402.92 C 1545.42 333.89 1545.41 264.86 1545.42 195.83 C 1571.91 195.87 1598.40 195.76 1624.89 195.89 C 1644.24 196.34 1664.72 199.49 1680.61 211.37 C 1692.57 220.19 1699.62 234.41 1701.41 248.98 C 1703.78 267.40 1701.22 287.50 1689.72 302.64 C 1683.78 310.61 1675.63 316.70 1666.71 320.96 C 1682.08 348.28 1697.46 375.59 1712.83 402.92 C 1694.26 402.92 1675.70 402.91 1657.15 402.92 C 1644.45 378.64 1631.75 354.37 1619.06 330.08 C 1611.12 330.08 1603.18 330.08 1595.25 330.08 C 1595.25 354.36 1595.25 378.64 1595.25 402.92 C 1578.64 402.92 1562.02 402.92 1545.41 402.92 M 1595.25 235.42 C 1595.25 253.89 1595.25 272.36 1595.25 290.83 C 1607.96 290.33 1620.99 292.23 1633.43 288.84 C 1642.16 286.56 1650.05 280.10 1652.43 271.17 C 1654.52 263.20 1654.60 254.04 1650.23 246.80 C 1645.71 239.65 1636.94 237.00 1628.99 236.03 C 1617.79 234.83 1606.49 235.66 1595.25 235.42 Z" />
        <path fill="#ff0c00" opacity="1.00" d=" M 1742.08 195.83 C 1785.83 195.83 1829.58 195.83 1873.33 195.83 C 1873.33 209.67 1873.33 223.50 1873.33 237.33 C 1846.19 237.33 1819.05 237.33 1791.92 237.33 C 1791.92 250.08 1791.91 262.83 1791.92 275.59 C 1814.97 275.58 1838.03 275.59 1861.08 275.58 C 1861.08 289.50 1861.08 303.42 1861.08 317.33 C 1838.03 317.33 1814.97 317.33 1791.92 317.33 C 1791.92 331.94 1791.91 346.55 1791.92 361.17 C 1820.05 361.16 1848.19 361.17 1876.33 361.16 C 1876.33 375.08 1876.33 389.00 1876.33 402.92 C 1831.58 402.92 1786.83 402.92 1742.08 402.92 C 1742.08 333.89 1742.08 264.86 1742.08 195.83 Z" />
        <path fill="#ff0c00" opacity="1.00" d=" M 1917.08 195.83 C 1936.70 195.83 1956.33 195.83 1975.95 195.83 C 1987.28 195.85 1998.65 196.72 2009.73 199.15 C 2026.40 202.73 2042.63 210.09 2054.85 222.21 C 2067.06 234.11 2074.62 250.11 2078.18 266.64 C 2080.28 275.62 2080.67 284.86 2082.00 293.96 L 2082.00 302.97 C 2080.53 313.36 2080.05 323.92 2077.31 334.10 C 2073.04 351.41 2064.25 367.94 2050.70 379.75 C 2036.88 392.01 2018.94 398.79 2000.82 401.39 C 1988.29 403.33 1975.57 402.86 1962.94 402.92 C 1947.65 402.92 1932.36 402.92 1917.08 402.92 C 1917.08 333.89 1917.08 264.86 1917.08 195.83 M 1966.92 235.67 C 1966.92 278.06 1966.92 320.44 1966.92 362.83 C 1981.22 363.15 1996.57 362.12 2008.74 353.75 C 2020.33 346.00 2026.48 332.45 2028.76 319.08 C 2030.62 308.52 2030.80 297.71 2029.98 287.04 C 2028.97 275.65 2026.30 263.98 2019.60 254.51 C 2014.43 247.14 2006.66 241.81 1998.14 239.08 C 1988.10 235.72 1977.39 235.52 1966.92 235.67 Z" />
        <path fill="#ff0c00" opacity="1.00" d=" M 813.98 241.99 C 827.25 239.55 841.98 240.69 853.42 248.40 C 863.46 255.16 869.31 266.55 872.08 278.06 C 875.75 292.41 874.91 307.32 875.00 321.99 C 875.00 348.96 875.00 375.94 875.00 402.92 C 858.50 402.92 842.00 402.92 825.50 402.92 C 825.49 372.32 825.51 341.72 825.49 311.13 C 825.28 303.63 825.24 295.51 821.02 288.99 C 817.09 283.17 809.23 282.62 802.89 283.44 C 793.62 284.53 786.42 291.09 780.00 297.32 C 780.00 332.52 780.00 367.72 780.00 402.92 C 763.50 402.91 747.00 402.92 730.50 402.92 C 730.50 350.19 730.50 297.47 730.50 244.75 C 743.94 244.75 757.39 244.74 770.84 244.75 C 772.10 251.47 773.17 258.22 774.62 264.90 C 785.59 254.24 798.67 244.88 813.98 241.99 Z" />
        <path fill="#ff0c00" opacity="1.00" d=" M 1155.53 241.71 C 1177.46 238.32 1200.82 244.81 1217.49 259.56 C 1231.54 271.74 1240.37 289.27 1243.19 307.54 C 1245.98 325.95 1244.24 345.37 1236.46 362.41 C 1229.54 377.70 1217.45 390.63 1202.48 398.27 C 1183.60 408.10 1160.62 409.41 1140.65 402.18 C 1122.62 395.80 1107.37 382.18 1098.88 365.06 C 1090.65 348.77 1088.33 329.96 1090.28 311.95 C 1092.11 295.13 1098.71 278.64 1110.10 266.00 C 1121.75 252.88 1138.18 244.22 1155.53 241.71 M 1160.47 281.76 C 1155.04 283.13 1150.39 286.80 1147.41 291.49 C 1142.41 299.36 1140.93 308.86 1140.41 318.01 C 1139.97 328.38 1140.45 339.04 1143.91 348.92 C 1146.24 355.58 1150.65 361.97 1157.34 364.78 C 1165.63 368.22 1176.17 367.20 1182.81 360.83 C 1188.33 355.58 1190.93 348.07 1192.36 340.76 C 1194.08 331.16 1194.17 321.29 1193.11 311.61 C 1191.97 302.76 1189.55 293.41 1183.00 286.96 C 1177.18 281.21 1168.19 279.78 1160.47 281.76 Z" />
        <path fill="#ff0c00" opacity="1.00" d=" M 1259.32 244.75 C 1275.93 244.75 1292.54 244.75 1309.16 244.75 C 1319.21 283.47 1329.99 322.02 1338.98 361.01 C 1339.60 362.92 1339.49 365.40 1341.38 366.64 C 1346.50 345.67 1351.16 324.58 1356.91 303.77 C 1362.16 284.10 1367.43 264.42 1372.68 244.75 C 1388.55 244.75 1404.42 244.75 1420.29 244.75 C 1403.24 297.47 1386.19 350.20 1369.14 402.92 C 1350.05 402.92 1330.96 402.92 1311.87 402.92 C 1294.33 350.20 1276.85 297.47 1259.32 244.75 Z" />
        <path fill="#ff0c00" opacity="1.00" d=" M 1467.56 345.75 C 1477.45 343.95 1488.28 347.26 1494.90 354.97 C 1505.90 367.33 1504.85 388.43 1492.44 399.46 C 1481.90 409.20 1464.02 409.21 1453.48 399.49 C 1441.12 388.41 1440.14 367.35 1451.02 354.94 C 1455.25 350.08 1461.21 346.82 1467.56 345.75 Z" />
        <path fill="#ff0c00" opacity="1.00" d=" M 279.48 377.61 C 296.27 373.53 315.05 385.04 318.76 401.98 C 323.89 419.06 312.50 438.97 295.04 442.92 C 277.66 448.29 257.34 436.45 253.71 418.57 C 248.64 400.87 261.24 380.60 279.48 377.61 Z" />
    </g>
</svg>