<?xml version="1.0" encoding="UTF-8" ?>
<!DOCTYPE svg PUBLIC "-//W3C//DTD SVG 1.1//EN" "http://www.w3.org/Graphics/SVG/1.1/DTD/svg11.dtd">
<svg width="2000pt" height="423pt" viewBox="0 0 2000 423" version="1.1" xmlns="http://www.w3.org/2000/svg">
<g id="#a20002ff">
<path fill="#a20002" opacity="1.00" d=" M 133.95 14.93 C 158.12 5.34 184.09 0.37 210.07 0.10 C 250.73 -0.24 291.43 11.34 325.66 33.31 C 355.81 52.52 380.95 79.48 397.99 110.91 C 422.14 154.96 429.34 207.77 418.63 256.78 C 413.22 281.79 403.14 305.75 389.13 327.15 C 367.00 361.07 334.94 388.41 297.92 404.85 C 274.42 415.45 248.95 421.15 223.29 423.00 L 201.10 423.00 C 193.65 422.49 186.25 421.56 178.87 420.54 C 145.93 415.41 114.27 402.31 87.34 382.67 C 58.05 361.39 34.31 332.50 19.27 299.56 C 6.83 272.51 0.34 242.78 0.10 213.03 C -0.20 170.70 12.49 128.34 36.34 93.33 C 60.03 58.20 94.50 30.42 133.95 14.93 M 181.99 32.89 C 153.48 37.49 126.22 49.26 103.11 66.55 C 142.95 108.50 182.60 150.64 222.39 192.63 C 265.09 237.93 307.99 283.03 350.61 328.40 C 363.63 312.58 374.39 294.82 381.54 275.58 C 397.09 234.81 397.09 188.40 381.53 147.63 C 368.89 113.94 345.83 84.33 316.44 63.60 C 277.99 36.14 228.53 24.97 181.99 32.89 M 93.24 78.04 C 93.46 81.23 96.26 84.32 94.26 87.44 C 92.36 85.67 91.00 83.47 90.13 81.03 C 88.93 81.21 87.72 81.40 86.52 81.60 C 87.40 84.89 88.83 88.52 92.25 89.90 C 95.01 91.46 98.65 89.72 99.69 86.88 C 100.73 83.48 96.82 80.55 98.09 77.21 C 100.74 77.04 101.35 80.23 102.55 81.96 C 103.57 81.84 104.59 81.71 105.61 81.59 C 105.21 78.54 103.87 75.39 100.89 74.06 C 97.85 72.10 93.43 74.50 93.24 78.04 M 99.79 98.30 C 101.01 101.34 104.28 102.41 107.16 103.22 C 107.23 102.32 107.37 100.52 107.44 99.62 C 105.38 98.93 102.61 97.70 103.01 95.03 C 103.80 91.90 107.03 88.61 110.51 89.44 C 112.47 90.00 112.70 92.34 113.59 93.87 C 114.76 93.68 115.93 93.50 117.11 93.31 C 116.28 90.64 115.39 87.54 112.58 86.32 C 105.71 82.14 95.98 91.15 99.79 98.30 M 80.32 86.68 C 56.84 111.62 40.21 143.10 33.82 176.81 C 25.27 219.78 33.05 265.78 55.45 303.47 C 73.68 334.43 101.28 359.77 133.74 375.19 C 160.39 387.97 190.20 393.94 219.71 392.62 C 259.63 391.13 298.67 375.63 329.14 349.87 C 246.20 262.14 163.26 174.41 80.32 86.68 M 107.10 106.07 C 108.10 107.17 109.09 108.27 110.09 109.38 C 114.38 105.27 118.71 101.21 123.03 97.13 C 122.03 96.07 121.03 95.02 120.03 93.96 C 115.79 98.07 111.52 102.15 107.10 106.07 M 112.75 112.11 C 115.46 114.96 118.15 117.83 120.84 120.70 C 121.67 119.78 122.50 118.86 123.33 117.94 C 121.67 116.25 120.00 114.56 118.34 112.88 C 119.24 111.98 120.15 111.09 121.06 110.20 C 122.40 111.68 123.74 113.17 125.06 114.67 C 125.99 113.80 126.92 112.93 127.85 112.06 C 126.46 110.68 125.08 109.31 123.69 107.94 C 124.45 107.13 125.21 106.32 125.97 105.52 C 127.59 107.31 129.23 109.09 130.87 110.87 C 131.71 109.96 132.56 109.05 133.41 108.15 C 130.77 105.50 128.21 102.78 125.76 99.97 C 121.43 104.02 117.17 108.16 112.75 112.11 M 122.98 122.97 C 123.95 124.00 124.92 125.04 125.89 126.08 C 128.88 123.16 131.76 120.14 134.65 117.11 C 132.75 121.31 131.25 125.66 129.61 129.96 C 130.62 131.06 131.62 132.16 132.62 133.28 C 136.91 129.21 141.18 125.11 145.54 121.12 C 144.63 120.05 143.72 118.99 142.81 117.92 C 139.78 120.78 136.96 123.85 134.08 126.85 C 135.89 122.67 137.39 118.37 138.94 114.09 C 137.93 112.98 136.94 111.86 135.96 110.73 C 131.72 114.90 127.34 118.92 122.98 122.97 M 138.69 139.34 C 139.84 142.53 143.18 143.84 146.19 144.63 C 146.31 143.73 146.54 141.93 146.65 141.03 C 144.65 140.23 142.15 139.41 141.89 136.89 C 142.52 133.89 145.05 131.28 148.05 130.64 C 150.87 130.20 151.74 133.28 152.66 135.25 C 153.84 135.06 155.02 134.86 156.20 134.66 C 155.33 131.92 154.29 128.75 151.37 127.57 C 144.61 123.91 135.47 132.25 138.69 139.34 M 146.27 147.62 C 148.88 150.39 151.49 153.17 154.10 155.96 C 154.99 155.09 155.87 154.22 156.76 153.36 C 155.06 151.62 153.38 149.87 151.70 148.13 C 152.65 147.31 153.61 146.50 154.57 145.68 C 155.90 147.16 157.24 148.63 158.59 150.11 C 159.43 149.20 160.27 148.29 161.12 147.38 C 159.76 145.98 158.41 144.58 157.06 143.19 C 157.63 142.62 158.78 141.49 159.35 140.93 C 160.95 142.67 162.54 144.40 164.14 146.14 C 165.03 145.33 165.91 144.52 166.80 143.70 C 164.24 140.89 161.61 138.13 159.07 135.29 C 154.94 139.54 150.45 143.42 146.27 147.62 M 169.39 153.31 C 166.00 155.02 163.02 158.17 162.68 162.10 C 162.44 166.55 166.55 170.64 170.99 170.43 C 175.15 169.88 178.75 166.79 180.25 162.91 C 182.36 157.02 175.04 150.21 169.39 153.31 M 185.71 163.65 C 181.45 167.74 177.15 171.80 172.85 175.85 C 173.88 176.91 174.91 177.98 175.94 179.05 C 177.27 177.66 178.61 176.28 179.95 174.91 C 181.77 176.44 183.37 178.81 185.96 178.95 C 190.00 179.71 194.37 174.67 191.99 170.93 C 190.35 168.15 187.90 165.98 185.71 163.65 M 183.99 187.68 C 186.73 190.44 189.43 193.26 191.98 196.20 C 192.80 195.25 193.61 194.31 194.43 193.37 C 192.81 191.64 191.18 189.92 189.58 188.17 C 190.49 187.33 191.41 186.49 192.34 185.66 C 193.64 187.16 194.94 188.66 196.24 190.17 C 197.13 189.29 198.02 188.42 198.91 187.55 C 197.58 186.09 196.25 184.64 194.93 183.18 C 195.67 182.43 196.40 181.68 197.15 180.94 C 198.78 182.73 200.42 184.52 202.01 186.35 C 202.84 185.42 203.67 184.49 204.51 183.56 C 201.94 180.88 199.37 178.19 196.93 175.40 C 192.64 179.51 188.28 183.56 183.99 187.68 M 194.32 198.40 C 195.21 199.44 196.11 200.49 197.01 201.53 C 200.06 198.70 202.89 195.65 205.67 192.56 C 204.03 196.81 202.38 201.05 200.87 205.35 C 201.87 206.47 202.87 207.60 203.88 208.73 C 208.07 204.61 212.36 200.59 216.67 196.61 C 215.77 195.51 214.87 194.41 213.97 193.30 C 210.89 196.27 207.97 199.39 205.16 202.62 C 206.96 198.31 208.53 193.92 210.18 189.55 C 209.13 188.42 208.10 187.28 207.08 186.14 C 202.93 190.34 198.54 194.28 194.32 198.40 M 206.64 211.48 C 207.55 212.51 208.46 213.54 209.37 214.57 C 212.42 211.82 215.18 208.78 218.09 205.89 C 216.31 210.01 214.77 214.22 213.25 218.44 C 214.22 219.58 215.18 220.72 216.13 221.87 C 220.44 217.77 224.75 213.67 229.15 209.67 C 228.20 208.64 227.24 207.60 226.29 206.58 C 223.20 209.45 220.36 212.57 217.46 215.63 C 219.41 211.41 220.95 207.03 222.52 202.66 C 221.50 201.57 220.47 200.50 219.44 199.43 C 215.20 203.48 210.92 207.48 206.64 211.48 M 219.05 224.76 C 221.67 227.50 224.27 230.27 226.89 233.02 C 227.79 232.20 228.70 231.38 229.61 230.56 C 227.92 228.82 226.24 227.08 224.54 225.35 C 225.44 224.47 226.35 223.59 227.26 222.71 C 228.60 224.22 229.93 225.73 231.26 227.25 C 232.12 226.34 232.99 225.44 233.86 224.55 C 232.53 223.13 231.20 221.72 229.87 220.30 C 230.43 219.73 231.55 218.59 232.11 218.02 C 233.72 219.73 235.32 221.46 236.94 223.17 C 237.85 222.37 238.75 221.57 239.66 220.78 C 237.03 218.05 234.41 215.30 231.88 212.47 C 227.63 216.59 223.20 220.53 219.05 224.76 M 236.74 231.00 C 236.98 233.69 239.74 236.64 237.19 238.95 C 235.37 237.28 234.18 235.15 233.59 232.76 C 232.28 232.93 230.97 233.10 229.67 233.27 C 230.66 236.72 232.23 240.77 236.04 241.86 C 238.91 242.97 242.51 241.12 242.95 238.00 C 242.89 235.01 241.24 232.33 241.00 229.37 C 243.81 228.24 244.56 231.95 245.65 233.71 C 246.51 233.57 248.23 233.28 249.09 233.14 C 248.17 230.09 246.83 226.72 243.60 225.51 C 240.20 223.71 235.58 227.24 236.74 231.00 M 246.74 240.96 C 247.31 243.73 248.52 246.32 249.29 249.04 C 245.92 249.73 244.67 246.49 243.79 243.95 C 242.88 244.00 241.05 244.12 240.14 244.17 C 240.99 247.43 242.25 251.04 245.58 252.53 C 248.60 254.52 252.65 252.24 253.45 248.96 C 253.49 245.77 250.81 242.96 251.73 239.69 C 254.17 240.11 254.91 242.65 256.00 244.49 C 256.82 244.39 258.47 244.20 259.29 244.10 C 258.67 240.92 257.03 237.41 253.65 236.47 C 250.57 235.22 246.87 237.64 246.74 240.96 M 261.42 257.91 C 261.53 260.02 264.27 262.76 261.85 264.26 C 259.28 263.54 258.76 260.83 258.08 258.63 C 257.10 258.70 255.13 258.85 254.15 258.92 C 254.95 262.50 256.58 266.28 260.22 267.75 C 263.17 269.28 266.65 266.92 267.43 263.97 C 267.67 260.79 264.73 257.85 265.91 254.71 C 268.33 255.10 269.04 257.58 269.98 259.45 C 270.86 259.35 272.62 259.13 273.49 259.02 C 272.59 255.40 270.30 250.92 265.95 251.12 C 262.36 250.68 260.07 254.82 261.42 257.91 M 267.43 269.62 C 263.58 274.65 271.06 282.76 276.35 279.38 C 280.25 277.06 283.22 273.55 286.49 270.47 C 285.60 269.46 284.71 268.46 283.82 267.45 C 280.69 270.09 278.03 273.30 274.66 275.64 C 272.53 277.29 269.47 274.34 270.87 272.15 C 273.32 268.72 276.83 266.23 279.72 263.19 C 278.77 262.15 277.81 261.11 276.86 260.07 C 273.71 263.23 270.01 265.93 267.43 269.62 M 276.37 285.41 C 277.32 286.46 278.27 287.51 279.23 288.57 C 280.65 287.27 282.05 285.96 283.48 284.67 C 285.20 286.16 286.82 288.05 289.16 288.56 C 293.14 289.38 297.28 284.96 295.59 281.05 C 294.24 277.87 291.32 275.73 289.15 273.13 C 285.06 277.39 280.64 281.33 276.37 285.41 M 287.51 297.19 C 288.46 298.25 289.41 299.31 290.38 300.37 C 291.80 299.08 293.20 297.77 294.61 296.46 C 296.26 297.87 297.75 299.73 299.98 300.25 C 303.61 301.28 307.73 297.68 307.22 293.97 C 306.04 290.26 302.74 287.84 300.26 285.02 C 296.11 289.17 291.77 293.14 287.51 297.19 M 307.42 300.21 C 304.50 301.87 301.94 304.55 301.24 307.93 C 300.50 311.49 302.98 315.04 306.10 316.54 C 311.92 318.69 318.14 313.65 319.03 307.95 C 319.41 302.21 312.69 297.21 307.42 300.21 M 311.39 322.46 C 312.33 323.54 313.28 324.63 314.22 325.72 C 315.94 324.08 317.65 322.45 319.42 320.87 C 320.42 323.85 318.86 326.65 317.84 329.38 C 318.97 330.63 320.09 331.90 321.22 333.17 C 321.95 330.65 322.66 328.12 323.42 325.61 C 327.07 326.38 330.95 323.82 331.34 320.04 C 330.44 315.92 326.81 313.32 324.16 310.32 C 319.98 314.45 315.66 318.43 311.39 322.46 M 332.03 324.02 C 333.17 325.16 334.31 326.32 335.44 327.48 C 331.99 330.69 328.62 333.98 325.05 337.06 C 326.07 338.16 327.09 339.27 328.10 340.39 C 331.44 337.07 334.98 333.95 338.27 330.58 C 339.40 331.75 340.52 332.94 341.65 334.13 C 342.55 333.31 343.45 332.49 344.35 331.68 C 341.17 328.31 337.91 325.00 334.85 321.53 C 333.90 322.36 332.96 323.18 332.03 324.02 Z" />
<path fill="#a20002" opacity="1.00" d=" M 446.19 22.19 C 448.88 17.84 454.02 15.56 459.03 15.62 C 485.70 15.61 512.38 15.62 539.06 15.61 C 543.41 15.70 548.11 16.56 551.37 19.69 C 554.99 23.06 555.92 28.27 556.10 33.00 C 555.99 37.57 555.17 42.56 551.95 46.05 C 548.65 49.52 543.68 50.83 539.01 50.77 C 521.35 50.75 503.68 50.77 486.02 50.75 C 485.88 63.59 486.00 76.43 485.95 89.26 C 500.98 89.29 516.01 89.21 531.04 89.29 C 537.37 89.14 543.87 93.34 545.23 99.73 C 546.86 106.18 546.56 113.86 542.27 119.24 C 538.84 123.41 533.11 124.26 528.02 124.27 C 514.04 124.24 500.06 124.31 486.08 124.22 C 485.75 140.50 486.12 156.78 485.90 173.06 C 485.86 178.90 483.28 185.05 478.18 188.22 C 473.10 191.43 466.81 191.52 461.01 191.09 C 455.20 190.76 449.23 187.85 446.45 182.55 C 444.19 178.79 443.95 174.30 443.84 170.03 C 443.84 124.00 443.85 77.96 443.83 31.93 C 443.91 28.58 444.14 24.99 446.19 22.19 Z" />
<path fill="#a20002" opacity="1.00" d=" M 591.28 19.27 C 594.14 16.58 598.17 15.62 602.00 15.61 C 628.33 15.63 654.66 15.62 680.99 15.61 C 685.33 15.73 690.07 16.55 693.30 19.73 C 697.06 23.41 698.06 28.99 697.91 34.05 C 697.78 38.91 696.40 44.27 692.39 47.38 C 689.17 49.78 685.10 50.81 681.12 50.77 C 663.62 50.74 646.12 50.79 628.61 50.74 C 628.62 61.55 628.62 72.36 628.62 83.17 C 642.42 83.15 656.23 83.16 670.04 83.16 C 675.67 83.09 682.03 84.83 685.01 90.03 C 688.10 95.91 688.18 103.09 686.19 109.33 C 684.15 115.66 677.24 118.96 670.92 118.61 C 656.82 118.62 642.71 118.64 628.61 118.59 C 628.63 130.99 628.60 143.40 628.63 155.81 C 644.76 155.64 660.89 155.79 677.03 155.73 C 682.57 155.73 688.57 155.35 693.57 158.18 C 698.70 161.12 700.72 167.34 700.75 172.95 C 700.95 178.84 699.16 185.64 693.75 188.81 C 689.68 191.46 684.63 191.24 679.98 191.28 C 653.67 191.22 627.36 191.31 601.06 191.24 C 595.53 191.44 590.13 188.14 587.87 183.09 C 585.80 179.07 586.30 174.44 586.25 170.08 C 586.27 124.03 586.27 77.98 586.25 31.93 C 586.09 27.26 587.70 22.40 591.28 19.27 Z" />
<path fill="#a20002" opacity="1.00" d=" M 750.27 16.14 C 757.67 14.96 766.42 15.31 772.12 20.81 C 776.49 24.95 777.42 31.26 777.45 37.00 C 777.44 81.33 777.44 125.67 777.45 170.01 C 777.45 175.97 776.33 182.57 771.58 186.67 C 766.28 191.42 758.66 191.64 751.95 191.04 C 745.64 190.63 739.31 186.92 736.99 180.85 C 734.60 175.55 735.24 169.64 735.18 164.00 C 735.18 121.32 735.20 78.64 735.17 35.96 C 735.09 31.60 736.06 27.15 738.37 23.42 C 740.96 19.31 745.56 16.88 750.27 16.14 Z" />
<path fill="#a20002" opacity="1.00" d=" M 802.42 21.42 C 804.13 17.26 808.94 15.80 813.07 15.65 C 818.37 15.53 823.68 15.65 829.00 15.60 C 833.56 15.46 838.54 16.77 841.44 20.54 C 844.53 24.68 845.61 29.86 847.55 34.56 C 855.20 54.36 861.63 74.61 869.38 94.36 C 878.63 71.62 886.72 48.38 895.68 25.51 C 898.28 19.63 904.53 15.71 910.92 15.63 C 915.93 15.59 920.94 15.54 925.95 15.66 C 930.05 15.81 934.80 17.29 936.53 21.40 C 938.61 25.46 936.77 30.01 935.09 33.86 C 920.46 64.99 905.86 96.13 891.24 127.26 C 890.50 128.72 890.24 130.34 890.30 131.97 C 890.33 144.64 890.32 157.32 890.33 169.99 C 890.22 175.86 889.17 182.40 884.57 186.53 C 879.33 191.36 871.70 191.65 864.99 191.06 C 859.69 190.67 854.30 188.16 851.43 183.55 C 848.90 179.52 848.19 174.63 848.20 169.95 C 848.22 157.28 848.21 144.61 848.23 131.94 C 848.28 130.19 847.86 128.48 847.13 126.91 C 832.61 95.81 818.20 64.65 803.71 33.53 C 802.10 29.79 800.42 25.35 802.42 21.42 Z" />
<path fill="#a20002" opacity="1.00" d=" M 990.03 27.10 C 992.02 20.24 998.94 15.52 1006.01 15.62 C 1015.01 15.65 1024.01 15.52 1033.01 15.68 C 1040.02 15.91 1046.45 21.10 1048.16 27.90 C 1062.98 75.73 1077.69 123.59 1092.53 171.41 C 1093.93 175.38 1095.02 179.74 1093.84 183.91 C 1092.31 188.39 1087.59 191.18 1082.97 191.17 C 1077.30 191.35 1071.62 191.32 1065.96 191.20 C 1060.58 191.13 1055.41 187.90 1052.90 183.17 C 1050.75 178.83 1050.15 173.96 1048.81 169.36 C 1047.28 163.21 1045.56 157.12 1044.14 150.95 C 1026.81 150.95 1009.48 150.96 992.16 151.02 C 989.78 160.66 987.36 170.29 984.77 179.87 C 983.11 186.39 976.78 191.43 969.99 191.23 C 963.71 191.12 957.32 191.83 951.13 190.57 C 944.62 188.80 941.63 181.04 944.13 175.01 C 959.35 125.69 974.72 76.40 990.03 27.10 M 1017.88 46.30 C 1016.28 51.76 1015.47 57.41 1013.97 62.90 C 1009.84 81.52 1004.77 99.91 1000.35 118.46 C 1012.29 118.37 1024.24 118.41 1036.18 118.44 C 1030.59 97.19 1025.26 75.88 1020.36 54.46 C 1019.72 51.69 1019.05 48.90 1017.88 46.30 Z" />
<path fill="#a20002" opacity="1.00" d=" M 1122.59 18.68 C 1127.47 14.71 1134.14 15.71 1139.98 15.61 C 1145.33 15.79 1150.91 14.93 1156.05 16.84 C 1160.24 18.33 1163.40 21.85 1165.37 25.74 C 1176.16 46.55 1186.98 67.35 1197.78 88.16 C 1206.33 103.86 1212.71 120.60 1220.29 136.76 C 1220.84 137.74 1221.46 138.69 1222.15 139.60 C 1219.66 114.79 1215.90 89.99 1216.32 64.99 C 1216.37 54.68 1216.23 44.38 1216.38 34.08 C 1216.58 27.83 1219.10 20.97 1224.99 18.00 C 1230.90 15.15 1237.91 15.00 1244.21 16.54 C 1249.32 17.68 1253.73 21.62 1255.28 26.64 C 1257.09 31.89 1256.63 37.50 1256.68 42.95 C 1256.68 86.97 1256.67 130.99 1256.69 175.01 C 1256.84 180.16 1255.00 185.69 1250.59 188.70 C 1246.12 192.10 1240.20 191.12 1234.97 191.27 C 1229.64 191.11 1224.27 191.67 1218.99 190.83 C 1214.39 189.90 1210.78 186.33 1208.84 182.19 C 1196.07 157.24 1183.25 132.31 1170.50 107.35 C 1165.78 97.09 1161.30 86.71 1156.71 76.39 C 1155.24 73.23 1154.17 69.83 1151.95 67.09 C 1152.76 79.78 1154.91 92.33 1155.66 105.03 C 1158.15 126.28 1156.98 147.69 1157.28 169.03 C 1157.47 175.48 1156.45 182.87 1151.15 187.22 C 1146.14 191.43 1139.18 191.58 1132.99 191.07 C 1127.19 190.74 1121.47 187.45 1119.00 182.08 C 1116.37 176.08 1116.93 169.39 1116.89 163.01 C 1116.90 119.33 1116.89 75.65 1116.90 31.97 C 1116.83 27.02 1118.41 21.70 1122.59 18.68 Z" />
<path fill="#a20002" opacity="1.00" d=" M 1295.08 15.93 C 1300.21 16.08 1305.35 16.10 1310.48 15.93 C 1310.50 145.23 1310.53 274.53 1310.47 403.83 C 1305.34 403.68 1300.21 403.72 1295.09 403.78 C 1295.00 274.50 1294.99 145.21 1295.08 15.93 Z" />
<path fill="#a20002" opacity="1.00" d=" M 1543.40 17.42 C 1550.08 15.05 1558.39 19.01 1560.17 26.00 C 1560.85 30.07 1560.80 34.75 1557.98 38.05 C 1553.44 43.92 1543.88 44.54 1538.57 39.40 C 1532.04 33.12 1534.30 20.05 1543.40 17.42 Z" />
<path fill="#a20002" opacity="1.00" d=" M 1377.27 27.12 C 1391.39 23.35 1406.74 25.45 1419.69 32.10 C 1417.79 37.45 1415.72 42.74 1413.64 48.01 C 1404.57 42.79 1393.27 40.58 1383.17 43.92 C 1376.26 46.24 1374.40 56.50 1379.97 61.13 C 1386.40 66.92 1395.29 68.40 1402.92 72.03 C 1412.38 75.58 1420.93 83.07 1423.39 93.16 C 1424.77 100.82 1424.80 109.19 1421.24 116.29 C 1417.59 123.85 1409.90 128.63 1401.93 130.47 C 1391.24 132.78 1380.07 132.64 1369.40 130.34 C 1364.33 128.95 1359.53 126.76 1354.81 124.48 C 1356.61 118.82 1358.86 113.32 1360.70 107.67 C 1371.10 113.91 1383.98 117.08 1395.86 113.65 C 1403.02 111.68 1406.54 101.86 1401.88 95.97 C 1397.53 90.48 1390.63 88.10 1384.36 85.54 C 1376.15 82.46 1367.28 79.38 1361.67 72.24 C 1355.45 64.77 1355.13 54.06 1357.89 45.12 C 1360.51 36.16 1368.50 29.66 1377.27 27.12 Z" />
<path fill="#a20002" opacity="1.00" d=" M 1444.56 67.54 C 1450.58 58.22 1461.19 52.68 1471.96 51.00 C 1483.62 49.62 1495.78 50.05 1506.79 54.49 C 1505.06 59.90 1503.80 65.44 1502.16 70.88 C 1492.46 67.69 1481.67 66.41 1471.87 69.89 C 1466.35 71.75 1461.68 76.25 1460.18 81.95 C 1457.87 89.82 1458.27 99.06 1463.18 105.89 C 1466.73 110.86 1472.97 113.09 1478.84 113.63 C 1487.60 114.14 1496.63 114.14 1505.00 111.15 C 1506.07 116.73 1506.88 122.37 1507.96 127.95 C 1497.76 131.65 1486.67 132.20 1475.95 131.40 C 1465.16 130.60 1454.12 126.44 1446.94 118.09 C 1442.42 112.99 1440.03 106.39 1438.77 99.78 C 1437.30 88.82 1438.32 76.98 1444.56 67.54 Z" />
<path fill="#a20002" opacity="1.00" d=" M 1606.41 69.54 C 1611.66 59.07 1622.41 51.48 1634.14 50.52 C 1642.49 49.85 1651.41 50.78 1658.56 55.48 C 1664.81 59.45 1668.98 66.08 1670.99 73.11 C 1673.49 81.05 1673.29 89.51 1672.81 97.72 C 1655.91 97.63 1639.01 97.69 1622.11 97.69 C 1622.55 103.34 1625.71 108.66 1630.99 111.01 C 1641.94 116.34 1654.74 113.63 1665.84 110.12 C 1666.91 115.94 1667.90 121.77 1668.59 127.65 C 1658.69 130.75 1648.26 132.53 1637.87 131.45 C 1629.41 130.80 1620.91 128.20 1614.25 122.81 C 1606.52 116.57 1602.17 106.76 1601.61 96.95 C 1600.92 87.62 1601.79 77.86 1606.41 69.54 M 1628.45 70.61 C 1624.50 73.78 1623.26 78.93 1622.18 83.62 C 1632.61 83.63 1643.04 83.57 1653.47 83.66 C 1653.62 77.17 1650.29 70.23 1643.85 68.03 C 1638.71 66.83 1632.60 66.89 1628.45 70.61 Z" />
<path fill="#a20002" opacity="1.00" d=" M 1689.39 54.63 C 1700.03 51.96 1710.96 50.23 1721.97 50.68 C 1730.67 50.48 1740.09 53.37 1745.50 60.57 C 1750.87 67.83 1751.69 77.20 1751.84 85.94 C 1751.83 100.65 1751.87 115.36 1751.82 130.07 C 1745.03 130.02 1738.24 129.83 1731.46 130.07 C 1731.37 114.70 1731.53 99.32 1731.38 83.95 C 1731.08 79.40 1730.54 74.22 1727.21 70.79 C 1722.22 66.84 1715.42 68.49 1709.62 68.89 C 1709.60 89.29 1709.64 109.68 1709.60 130.08 C 1702.86 129.96 1696.13 129.85 1689.40 130.07 C 1689.36 104.92 1689.38 79.78 1689.39 54.63 Z" />
<path fill="#a20002" opacity="1.00" d=" M 1774.26 69.22 C 1780.10 58.90 1791.39 52.65 1802.90 50.97 C 1814.45 49.63 1826.49 50.07 1837.41 54.45 C 1835.99 59.95 1834.28 65.37 1833.03 70.90 C 1822.86 67.58 1811.44 66.27 1801.31 70.38 C 1795.32 72.80 1791.10 78.54 1790.10 84.86 C 1789.17 91.61 1789.27 99.03 1793.20 104.90 C 1796.91 110.86 1804.18 113.42 1810.91 113.73 C 1819.24 114.05 1827.85 114.10 1835.75 111.05 C 1836.58 116.71 1837.67 122.32 1838.82 127.92 C 1828.65 131.60 1817.61 132.20 1806.90 131.42 C 1797.69 130.76 1788.44 127.74 1781.32 121.73 C 1775.44 116.76 1771.51 109.68 1770.05 102.16 C 1767.60 91.17 1768.70 79.12 1774.26 69.22 Z" />
<path fill="#a20002" opacity="1.00" d=" M 1857.57 64.54 C 1863.48 56.43 1873.03 51.01 1883.10 50.44 C 1891.37 49.91 1900.17 51.01 1907.14 55.85 C 1912.87 59.64 1916.69 65.73 1918.78 72.19 C 1921.26 80.43 1921.67 89.14 1921.00 97.68 C 1904.09 97.67 1887.19 97.68 1870.29 97.67 C 1870.27 107.84 1880.86 113.85 1889.99 113.81 C 1898.25 114.55 1906.31 112.54 1914.10 110.04 C 1914.71 115.89 1915.77 121.68 1916.92 127.45 C 1906.23 131.11 1894.76 132.70 1883.53 131.18 C 1874.69 130.21 1865.86 126.73 1859.55 120.32 C 1854.19 114.85 1851.03 107.54 1849.99 100.01 C 1848.17 87.85 1850.10 74.59 1857.57 64.54 M 1880.31 68.29 C 1874.02 70.66 1871.21 77.46 1870.29 83.64 C 1880.77 83.59 1891.25 83.63 1901.74 83.62 C 1901.14 79.16 1900.29 74.32 1896.83 71.12 C 1892.56 66.81 1885.76 66.63 1880.31 68.29 Z" />
<path fill="#a20002" opacity="1.00" d=" M 189.75 59.74 C 200.64 50.68 217.20 49.62 229.43 56.56 C 236.15 60.27 240.59 66.72 245.83 72.13 C 249.34 75.73 252.18 81.15 257.95 81.02 C 265.08 80.84 272.20 79.45 279.11 77.65 C 290.17 76.17 301.75 80.49 309.46 88.51 C 316.01 95.28 319.61 104.62 319.91 113.99 C 320.49 120.06 319.82 127.53 325.44 131.53 C 333.63 136.26 343.51 137.94 350.82 144.25 C 363.23 154.04 368.12 172.34 361.59 186.85 C 358.37 193.63 354.09 199.84 350.50 206.42 C 348.83 209.26 348.64 212.95 350.11 215.90 C 353.64 222.66 358.12 228.91 361.31 235.85 C 367.64 250.17 363.49 268.27 351.53 278.39 C 345.35 283.98 337.05 285.93 329.72 289.48 C 323.82 283.24 317.98 276.95 311.97 270.81 C 318.19 267.43 324.98 265.29 331.37 262.27 C 337.11 259.38 339.65 251.84 336.76 246.08 C 333.80 240.53 330.29 235.28 327.35 229.71 C 321.97 218.91 322.11 205.46 327.86 194.82 C 330.80 189.51 334.08 184.39 337.00 179.06 C 339.96 173.96 338.01 166.10 332.40 163.69 C 326.63 160.93 320.55 158.88 314.76 156.17 C 306.90 152.41 300.48 145.61 297.44 137.43 C 294.22 129.70 295.56 121.09 293.61 113.08 C 292.12 107.23 285.82 103.15 279.87 104.00 C 273.53 104.88 267.25 106.21 260.99 107.52 C 250.20 108.60 239.49 103.67 231.90 96.20 C 227.28 91.42 222.90 86.41 218.46 81.47 C 215.73 78.41 211.04 78.10 207.32 79.19 C 202.77 80.53 200.20 84.84 197.04 88.03 C 192.11 93.11 187.98 99.20 181.71 102.76 C 174.22 107.10 164.95 109.06 156.56 106.32 C 147.87 97.07 139.13 87.88 130.39 78.67 C 134.60 77.73 138.99 76.87 143.28 77.75 C 149.23 79.06 155.28 79.84 161.29 80.83 C 165.29 81.58 169.76 80.62 172.74 77.74 C 178.61 71.94 183.59 65.25 189.75 59.74 Z" />
<path fill="#a20002" opacity="1.00" d=" M 1519.47 52.17 C 1533.43 52.33 1547.40 52.30 1561.37 52.19 C 1561.41 68.48 1561.36 84.76 1561.39 101.05 C 1561.44 105.68 1562.64 111.44 1567.50 113.29 C 1574.49 114.96 1581.79 113.16 1588.20 110.22 C 1589.17 115.69 1589.83 121.20 1590.81 126.67 C 1580.98 131.32 1569.60 133.07 1558.93 130.62 C 1552.31 129.07 1546.61 124.20 1544.10 117.87 C 1540.18 108.05 1540.95 97.29 1540.89 86.94 C 1540.88 81.00 1540.91 75.05 1540.87 69.11 C 1533.74 69.21 1526.60 69.11 1519.48 69.19 C 1519.41 63.51 1519.41 57.84 1519.47 52.17 Z" />
<path fill="#a20002" opacity="1.00" d=" M 174.63 125.38 C 186.10 123.38 198.27 124.97 208.63 130.38 C 221.24 136.79 231.01 148.53 235.00 162.10 C 237.98 171.19 237.65 180.99 236.05 190.30 C 215.49 168.74 195.07 147.05 174.63 125.38 Z" />
<path fill="#a20002" opacity="1.00" d=" M 102.82 126.64 C 108.47 132.76 114.24 138.76 119.92 144.85 C 116.56 148.83 112.95 152.78 108.29 155.26 C 102.65 158.25 96.55 160.24 90.74 162.85 C 85.23 165.39 81.70 172.12 83.98 178.00 C 88.20 187.15 95.35 195.04 97.28 205.18 C 98.41 213.01 98.09 221.31 94.59 228.55 C 91.33 235.15 87.05 241.19 83.71 247.74 C 82.23 252.30 83.23 258.61 87.77 261.13 C 96.11 265.73 105.92 267.58 113.45 273.63 C 119.56 278.58 123.99 285.65 125.45 293.40 C 126.65 298.92 126.56 304.59 127.19 310.18 C 127.88 316.37 133.59 321.85 139.96 321.46 C 147.06 321.14 153.96 319.13 160.94 317.91 C 171.62 317.09 182.10 322.01 189.60 329.41 C 193.86 333.80 197.87 338.43 201.96 342.98 C 205.68 347.84 213.60 348.05 218.06 344.13 C 225.30 337.36 230.73 328.57 239.41 323.43 C 246.33 319.17 254.91 316.50 262.98 318.73 C 270.81 319.49 278.53 322.48 286.46 321.01 C 292.28 327.14 298.08 333.29 303.93 339.39 C 297.02 343.65 288.77 346.69 280.56 345.34 C 274.46 344.08 268.31 343.11 262.15 342.25 C 258.30 341.62 254.10 342.55 251.20 345.24 C 245.47 350.81 240.64 357.26 234.81 362.72 C 221.78 374.28 199.91 373.78 187.58 361.41 C 182.19 355.81 177.14 349.89 171.86 344.19 C 166.96 340.51 160.45 342.57 154.91 343.23 C 150.19 343.60 145.80 345.83 141.03 345.69 C 126.98 346.11 113.28 337.37 107.51 324.58 C 103.61 316.59 104.06 307.48 102.84 298.88 C 102.35 294.69 98.97 291.26 95.13 289.82 C 87.23 286.24 78.44 283.98 71.94 277.95 C 60.65 268.29 56.08 251.40 61.65 237.51 C 64.84 230.08 69.72 223.54 73.41 216.37 C 74.91 213.52 75.06 210.04 73.61 207.15 C 69.45 198.57 62.87 191.06 60.63 181.63 C 57.23 168.57 61.80 153.81 71.99 144.96 C 79.31 138.32 89.35 136.38 97.93 131.95 C 100.06 130.71 101.37 128.55 102.82 126.64 Z" />
<path fill="#a20002" opacity="1.00" d=" M 1382.46 148.62 C 1389.47 147.20 1396.86 147.99 1403.55 150.51 C 1412.02 153.89 1418.24 161.43 1421.45 169.81 C 1426.91 183.48 1426.77 198.52 1426.00 212.99 C 1424.90 222.98 1422.63 233.27 1416.68 241.58 C 1411.82 248.53 1403.99 253.40 1395.54 254.36 C 1387.74 255.31 1379.41 254.67 1372.47 250.73 C 1365.07 246.73 1359.98 239.46 1357.17 231.69 C 1352.33 218.72 1352.33 204.64 1352.99 191.00 C 1354.08 180.01 1356.58 168.53 1363.72 159.76 C 1368.33 153.91 1375.12 149.91 1382.46 148.62 M 1384.39 166.64 C 1381.45 167.61 1379.33 170.13 1377.84 172.73 C 1374.62 178.60 1374.13 185.42 1373.61 191.96 C 1373.14 202.32 1373.11 212.82 1375.16 223.03 C 1376.48 228.55 1379.36 234.63 1385.15 236.55 C 1389.02 237.20 1393.57 237.52 1396.90 234.98 C 1401.10 232.03 1403.06 226.92 1404.11 222.07 C 1406.08 211.49 1405.99 200.64 1405.35 189.93 C 1404.71 183.18 1404.00 175.91 1399.68 170.38 C 1396.27 165.70 1389.56 164.75 1384.39 166.64 Z" />
<path fill="#a20002" opacity="1.00" d=" M 171.27 157.20 C 172.77 156.61 175.16 156.44 175.89 158.25 C 177.41 160.56 175.50 163.24 173.65 164.67 C 172.06 166.02 169.27 167.51 167.71 165.32 C 164.93 162.42 168.68 158.69 171.27 157.20 Z" />
<path fill="#a20002" opacity="1.00" d=" M 134.07 195.74 C 129.71 184.21 129.99 171.23 133.95 159.63 C 155.67 182.74 177.59 205.67 199.25 228.83 C 188.22 231.69 176.25 231.74 165.57 227.48 C 151.14 222.12 139.35 210.19 134.07 195.74 Z" />
<path fill="#a20002" opacity="1.00" d=" M 182.38 172.99 C 183.67 171.59 184.99 170.21 186.30 168.82 C 187.23 170.28 188.16 171.74 189.06 173.23 C 188.08 173.95 187.07 174.61 186.03 175.22 C 184.74 174.60 183.57 173.76 182.38 172.99 Z" />
<path fill="#a20002" opacity="1.00" d=" M 1529.22 184.36 C 1535.49 177.38 1544.67 173.32 1554.02 173.01 C 1561.98 172.84 1570.42 174.13 1576.99 178.97 C 1583.72 183.77 1587.65 191.57 1589.28 199.52 C 1590.51 206.40 1590.66 213.42 1590.19 220.38 C 1573.28 220.39 1556.36 220.37 1539.45 220.40 C 1539.94 225.46 1542.29 230.52 1546.96 232.98 C 1558.09 239.49 1571.68 236.59 1583.20 232.75 C 1584.29 238.55 1585.02 244.42 1586.00 250.25 C 1577.92 252.87 1569.53 254.69 1561.00 254.40 C 1549.93 254.54 1538.22 251.78 1529.92 244.08 C 1521.99 236.74 1518.43 225.62 1518.72 215.00 C 1518.23 203.97 1521.78 192.62 1529.22 184.36 M 1544.52 194.51 C 1541.46 197.71 1540.50 202.16 1539.56 206.34 C 1549.99 206.30 1560.42 206.34 1570.86 206.32 C 1570.68 200.35 1568.25 193.90 1562.47 191.31 C 1556.59 189.10 1548.92 189.57 1544.52 194.51 Z" />
<path fill="#a20002" opacity="1.00" d=" M 1775.89 185.97 C 1781.94 178.38 1791.26 173.63 1800.95 173.09 C 1809.26 172.68 1818.15 173.93 1825.03 178.97 C 1831.55 183.58 1835.49 191.08 1837.10 198.77 C 1838.81 205.85 1838.83 213.18 1838.35 220.40 C 1821.37 220.37 1804.39 220.38 1787.41 220.40 C 1787.93 225.72 1790.69 230.96 1795.65 233.36 C 1806.76 239.40 1820.00 236.47 1831.37 232.72 C 1831.92 238.62 1833.36 244.38 1834.06 250.26 C 1825.95 252.85 1817.56 254.71 1809.00 254.40 C 1798.16 254.52 1786.72 251.92 1778.47 244.53 C 1772.50 239.23 1768.69 231.71 1767.52 223.85 C 1765.27 210.85 1767.38 196.43 1775.89 185.97 M 1796.65 191.46 C 1790.84 194.09 1788.72 200.58 1787.46 206.33 C 1797.99 206.30 1808.52 206.35 1819.05 206.31 C 1818.52 202.10 1817.74 197.54 1814.64 194.39 C 1810.23 189.40 1802.48 189.12 1796.65 191.46 Z" />
<path fill="#a20002" opacity="1.00" d=" M 1862.50 180.60 C 1869.16 174.73 1878.36 173.23 1886.96 172.99 C 1896.12 172.92 1905.43 173.89 1914.02 177.31 C 1912.79 183.06 1911.88 188.88 1910.88 194.68 C 1901.00 191.23 1890.34 188.46 1879.90 191.03 C 1877.26 191.98 1874.24 194.74 1875.69 197.80 C 1878.61 202.23 1884.11 203.66 1888.82 205.39 C 1896.52 208.17 1904.92 210.21 1911.08 215.92 C 1920.48 224.32 1919.37 241.87 1908.43 248.48 C 1898.53 254.66 1886.33 254.79 1875.06 254.13 C 1867.38 253.82 1860.29 250.61 1853.16 248.11 C 1854.04 242.34 1855.48 236.68 1856.29 230.91 C 1862.04 233.12 1867.86 235.25 1873.91 236.55 C 1879.83 237.43 1885.88 237.33 1891.82 236.58 C 1894.20 236.15 1897.47 234.87 1897.39 231.98 C 1897.68 229.16 1895.34 227.03 1893.07 225.86 C 1882.99 220.94 1870.94 220.12 1862.11 212.73 C 1852.36 204.94 1853.19 188.40 1862.50 180.60 Z" />
<path fill="#a20002" opacity="1.00" d=" M 1943.92 181.82 C 1949.14 176.47 1956.62 174.04 1963.92 173.38 C 1974.93 172.43 1986.26 173.31 1996.66 177.23 C 1995.49 183.05 1994.65 188.94 1993.43 194.75 C 1983.68 191.10 1973.02 188.52 1962.67 191.02 C 1960.26 191.83 1957.61 193.99 1958.22 196.82 C 1958.65 199.59 1961.47 201.01 1963.68 202.28 C 1972.83 206.72 1983.41 208.10 1991.75 214.22 C 1996.87 217.91 2000.22 224.03 2000.00 230.42 L 2000.00 233.08 C 1999.66 237.47 1998.15 241.91 1995.07 245.15 C 1990.57 249.97 1984.04 252.18 1977.74 253.48 C 1970.89 254.52 1963.91 254.63 1957.02 254.08 C 1949.65 253.62 1942.83 250.57 1935.96 248.14 C 1936.77 242.38 1938.02 236.71 1939.01 230.98 C 1943.24 232.52 1947.47 234.09 1951.81 235.36 C 1958.66 237.53 1966.00 237.42 1973.09 236.78 C 1975.78 236.52 1979.04 235.63 1980.05 232.78 C 1980.68 229.59 1978.05 226.87 1975.36 225.66 C 1966.94 221.69 1957.44 220.43 1949.28 215.85 C 1944.37 213.06 1939.88 208.73 1938.56 203.07 C 1936.74 195.72 1938.42 187.23 1943.92 181.82 Z" />
<path fill="#a20002" opacity="1.00" d=" M 1441.24 177.29 C 1452.20 174.32 1463.62 172.98 1474.98 173.47 C 1483.91 173.82 1492.97 177.31 1498.89 184.21 C 1506.54 192.78 1508.78 204.80 1508.50 215.97 C 1508.06 225.10 1506.38 234.56 1501.26 242.32 C 1497.85 247.57 1492.55 251.52 1486.57 253.34 C 1478.26 255.48 1469.34 254.37 1461.64 250.68 C 1461.70 260.48 1461.68 270.28 1461.66 280.08 C 1454.85 279.91 1448.04 279.88 1441.24 280.07 C 1441.20 245.81 1441.19 211.55 1441.24 177.29 M 1461.69 191.19 C 1461.65 205.48 1461.70 219.78 1461.67 234.07 C 1467.99 237.10 1476.86 238.95 1482.41 233.48 C 1487.38 227.99 1487.70 220.07 1487.65 213.05 C 1487.51 206.10 1485.87 198.38 1480.36 193.65 C 1475.12 189.27 1467.90 190.98 1461.69 191.19 Z" />
<path fill="#a20002" opacity="1.00" d=" M 1606.77 177.22 C 1619.24 174.39 1632.11 172.38 1644.92 173.80 C 1652.47 174.55 1660.08 178.39 1664.01 185.09 C 1668.08 191.61 1668.81 199.49 1669.20 206.98 C 1669.23 222.21 1669.19 237.43 1669.21 252.65 C 1662.39 252.60 1655.56 252.58 1648.75 252.67 C 1648.70 238.43 1648.79 224.19 1648.70 209.96 C 1648.50 204.51 1648.62 198.42 1645.03 193.95 C 1640.19 189.41 1633.02 191.11 1627.09 191.56 C 1626.85 211.92 1627.07 232.28 1626.94 252.65 C 1620.20 252.61 1613.47 252.58 1606.75 252.67 C 1606.75 227.52 1606.70 202.37 1606.77 177.22 Z" />
<path fill="#a20002" opacity="1.00" d=" M 1689.41 177.25 C 1702.00 174.35 1715.03 172.34 1727.96 173.85 C 1735.44 174.64 1742.86 178.58 1746.76 185.18 C 1751.10 192.29 1751.71 200.87 1751.84 209.00 C 1751.84 223.55 1751.85 238.10 1751.83 252.65 C 1745.04 252.61 1738.25 252.56 1731.46 252.69 C 1731.37 237.47 1731.52 222.25 1731.39 207.03 C 1731.13 202.43 1730.62 197.28 1727.43 193.70 C 1722.50 189.42 1715.50 191.16 1709.61 191.57 C 1709.61 211.94 1709.64 232.31 1709.60 252.68 C 1702.86 252.58 1696.13 252.58 1689.40 252.68 C 1689.38 227.54 1689.35 202.39 1689.41 177.25 Z" />
<path fill="#a20002" opacity="1.00" d=" M 258.38 214.02 C 262.90 210.61 268.23 207.89 274.00 207.83 C 285.38 207.33 296.44 215.94 298.46 227.20 C 300.28 235.22 297.30 243.48 291.96 249.50 C 280.73 237.71 269.59 225.83 258.38 214.02 Z" />
<path fill="#a20002" opacity="1.00" d=" M 642.85 232.75 C 647.21 228.87 653.35 227.93 658.99 228.02 C 664.49 228.10 670.46 229.42 674.36 233.58 C 677.97 237.44 679.25 242.86 679.20 248.02 C 679.25 263.65 679.15 279.28 679.25 294.92 C 698.58 294.79 717.92 294.81 737.25 294.91 C 737.29 278.92 737.23 262.93 737.28 246.94 C 737.20 241.58 739.11 235.93 743.29 232.41 C 747.34 228.98 752.85 228.08 757.99 227.95 C 763.38 228.00 769.19 229.02 773.33 232.74 C 777.47 236.57 779.04 242.47 778.90 247.97 C 778.89 293.32 778.89 338.68 778.90 384.03 C 778.99 389.53 777.37 395.43 773.12 399.17 C 768.98 402.74 763.32 403.95 757.97 403.71 C 753.09 403.90 748.07 402.81 744.05 399.94 C 739.45 396.57 737.25 390.67 737.29 385.09 C 737.22 367.22 737.29 349.34 737.26 331.47 C 717.91 331.53 698.56 331.51 679.21 331.47 C 679.21 348.67 679.21 365.86 679.22 383.06 C 679.26 388.00 678.39 393.19 675.21 397.16 C 671.20 402.28 664.27 403.99 658.02 403.71 C 652.01 403.92 645.45 402.23 641.41 397.51 C 638.29 393.78 637.07 388.84 637.17 384.05 C 637.15 338.68 637.16 293.30 637.16 247.92 C 636.98 242.40 638.64 236.54 642.85 232.75 Z" />
<path fill="#a20002" opacity="1.00" d=" M 830.26 233.18 C 833.28 229.38 838.29 227.82 843.01 228.03 C 866.66 228.09 890.31 227.98 913.97 228.01 C 919.20 227.97 924.66 227.50 929.64 229.52 C 934.34 231.29 937.45 236.04 937.92 240.96 C 938.67 246.84 938.51 253.60 934.41 258.31 C 930.83 262.30 925.12 263.27 920.02 263.23 C 903.09 263.15 886.16 263.31 869.24 263.14 C 869.17 273.94 869.23 284.73 869.21 295.52 C 882.83 295.47 896.44 295.52 910.06 295.49 C 915.39 295.47 921.38 296.79 924.70 301.32 C 928.05 305.84 928.18 311.73 927.75 317.11 C 927.29 322.00 924.71 327.04 920.08 329.15 C 916.69 330.99 912.75 331.24 908.98 331.18 C 895.73 331.09 882.49 331.26 869.25 331.08 C 869.16 343.44 869.23 355.80 869.21 368.17 C 887.48 368.16 905.76 368.13 924.03 368.18 C 929.86 368.18 936.44 370.37 939.09 376.00 C 941.70 381.80 941.63 388.65 939.67 394.65 C 937.54 400.54 931.09 403.77 925.08 403.66 C 897.38 403.70 869.68 403.65 841.98 403.69 C 837.08 404.00 832.23 401.50 829.44 397.51 C 827.21 394.49 826.84 390.58 826.77 386.96 C 826.81 339.30 826.78 291.64 826.79 243.98 C 826.87 240.17 827.63 236.10 830.26 233.18 Z" />
<path fill="#a20002" opacity="1.00" d=" M 981.08 233.08 C 985.58 228.84 992.11 227.86 998.05 228.03 C 1003.52 228.17 1009.43 229.58 1013.18 233.85 C 1017.38 238.46 1018.04 245.05 1017.97 251.01 C 1018.04 290.06 1017.85 329.11 1018.03 368.16 C 1035.04 368.16 1052.05 368.14 1069.06 368.17 C 1074.59 368.22 1080.85 370.02 1083.72 375.17 C 1087.29 381.96 1087.23 390.70 1083.37 397.34 C 1080.51 401.64 1075.14 403.71 1070.12 403.67 C 1045.06 403.70 1020.01 403.65 994.95 403.69 C 990.97 403.65 986.68 404.13 983.14 401.91 C 978.05 399.33 975.44 393.55 975.61 388.02 C 975.62 341.67 975.63 295.33 975.61 248.98 C 975.70 243.34 976.78 237.12 981.08 233.08 Z" />
<path fill="#a20002" opacity="1.00" d=" M 1120.31 234.27 C 1123.56 229.56 1129.52 227.75 1135.02 227.94 C 1152.34 228.16 1169.66 227.96 1186.99 228.08 C 1204.83 228.60 1223.53 231.82 1238.20 242.67 C 1248.01 250.13 1254.14 261.79 1255.81 273.89 C 1258.69 291.25 1255.10 310.55 1242.68 323.62 C 1231.77 336.32 1215.25 342.43 1199.02 344.45 C 1186.79 346.23 1174.40 345.26 1162.09 345.49 C 1162.13 356.00 1162.08 366.52 1162.12 377.04 C 1162.23 383.84 1162.23 391.32 1157.88 396.98 C 1153.64 402.19 1146.49 403.93 1140.03 403.71 C 1133.28 403.99 1125.72 402.18 1121.43 396.57 C 1118.40 392.74 1117.69 387.74 1117.62 383.01 C 1117.60 338.02 1117.64 293.03 1117.60 248.03 C 1117.59 243.38 1117.27 238.16 1120.31 234.27 M 1162.10 261.42 C 1162.11 278.32 1162.10 295.21 1162.11 312.11 C 1171.10 311.97 1180.11 312.44 1189.09 311.74 C 1197.42 310.80 1206.33 307.04 1210.29 299.18 C 1214.08 291.17 1214.64 281.32 1210.73 273.24 C 1208.13 267.88 1202.47 264.87 1196.94 263.39 C 1185.56 260.37 1173.71 261.77 1162.10 261.42 Z" />
<path fill="#a20002" opacity="1.00" d=" M 185.47 256.73 C 194.87 253.96 205.61 260.42 207.74 269.92 C 209.30 276.20 207.40 283.26 202.56 287.62 C 197.13 292.89 188.25 294.11 181.64 290.43 C 176.26 287.70 172.61 282.09 172.02 276.11 C 171.02 267.47 177.11 258.93 185.47 256.73 Z" />
<path fill="#a20002" opacity="1.00" d=" M 1369.20 276.19 C 1376.27 271.84 1384.79 270.43 1392.99 270.66 C 1402.31 270.67 1411.43 273.46 1419.69 277.63 C 1417.74 282.89 1415.73 288.13 1413.69 293.36 C 1406.45 289.58 1398.31 286.99 1390.06 287.79 C 1385.70 288.22 1380.75 289.43 1378.23 293.35 C 1375.96 297.36 1376.06 303.08 1379.69 306.29 C 1385.37 311.79 1393.43 313.30 1400.43 316.44 C 1408.18 319.30 1415.81 323.76 1420.15 331.03 C 1424.16 337.20 1424.70 344.88 1423.98 352.02 C 1423.35 360.53 1418.25 368.64 1410.63 372.59 C 1401.01 377.83 1389.69 377.72 1379.06 377.24 C 1370.48 376.96 1362.33 373.74 1354.81 369.83 C 1356.68 364.18 1358.91 358.66 1360.71 352.99 C 1367.70 357.22 1375.66 360.41 1383.96 360.33 C 1388.71 360.39 1393.82 360.62 1398.06 358.08 C 1404.64 354.74 1406.14 344.49 1400.36 339.66 C 1389.56 329.94 1372.93 330.07 1362.94 319.12 C 1356.14 312.25 1355.02 301.64 1357.31 292.62 C 1358.79 285.81 1363.26 279.80 1369.20 276.19 Z" />
<path fill="#a20002" opacity="1.00" d=" M 1868.08 278.08 C 1874.83 277.22 1881.50 275.78 1888.27 274.93 C 1888.25 282.49 1888.24 290.05 1888.28 297.61 C 1899.15 297.49 1910.03 297.60 1920.91 297.55 C 1920.88 303.20 1920.88 308.86 1920.90 314.52 C 1910.03 314.46 1899.16 314.56 1888.29 314.45 C 1888.22 324.64 1888.28 334.83 1888.25 345.02 C 1888.21 348.63 1888.50 352.41 1890.37 355.60 C 1891.93 358.26 1895.14 359.31 1898.08 359.45 C 1905.38 359.86 1912.91 358.72 1919.42 355.23 C 1920.49 361.14 1921.61 367.04 1922.32 373.01 C 1911.70 376.96 1900.14 377.95 1888.92 376.77 C 1882.52 376.06 1875.75 373.44 1872.37 367.62 C 1867.79 360.28 1867.98 351.37 1867.96 343.05 C 1867.97 333.52 1868.21 324.00 1867.92 314.48 C 1862.04 314.53 1856.17 314.45 1850.31 314.56 C 1850.22 308.88 1850.25 303.20 1850.28 297.52 C 1856.20 297.58 1862.13 297.56 1868.07 297.55 C 1868.03 291.06 1867.81 284.57 1868.08 278.08 Z" />
<path fill="#a20002" opacity="1.00" d=" M 289.81 278.64 C 290.73 279.90 291.64 281.16 292.54 282.44 C 291.33 283.22 290.19 285.92 288.57 284.44 C 287.61 283.77 286.68 283.06 285.77 282.33 C 287.12 281.10 288.46 279.87 289.81 278.64 Z" />
<path fill="#a20002" opacity="1.00" d=" M 530.43 289.60 C 538.29 287.32 547.39 288.98 553.54 294.51 C 564.14 303.27 565.63 320.55 557.30 331.32 C 552.82 337.27 545.51 341.29 537.95 340.95 C 530.59 341.50 523.34 337.96 518.68 332.36 C 509.98 322.25 510.48 305.45 519.92 295.98 C 522.80 293.01 526.38 290.62 530.43 289.60 Z" />
<path fill="#a20002" opacity="1.00" d=" M 296.95 294.11 C 298.34 292.84 299.73 291.58 301.12 290.31 C 301.72 291.75 303.47 293.08 303.00 294.76 C 302.50 295.35 301.49 296.53 300.99 297.11 C 299.62 296.13 298.28 295.13 296.95 294.11 Z" />
<path fill="#a20002" opacity="1.00" d=" M 1523.90 300.03 C 1534.66 297.10 1545.88 295.78 1557.03 296.13 C 1566.04 296.48 1575.29 299.73 1581.34 306.67 C 1589.05 315.07 1591.31 326.93 1591.20 337.99 C 1590.76 347.56 1589.15 357.56 1583.57 365.59 C 1579.21 372.07 1571.83 376.31 1564.09 377.07 C 1557.26 377.90 1550.50 376.14 1544.28 373.44 C 1544.37 383.18 1544.30 392.93 1544.31 402.67 C 1537.50 402.57 1530.69 402.63 1523.89 402.63 C 1523.90 368.43 1523.88 334.23 1523.90 300.03 M 1544.33 314.11 C 1544.31 328.37 1544.31 342.62 1544.33 356.87 C 1550.42 359.47 1558.25 361.55 1564.03 357.15 C 1569.45 352.48 1570.31 344.68 1570.34 337.96 C 1570.54 330.43 1569.16 321.99 1563.38 316.66 C 1558.16 311.98 1550.64 313.66 1544.33 314.11 Z" />
<path fill="#a20002" opacity="1.00" d=" M 1606.75 299.99 C 1616.26 297.35 1626.13 296.18 1635.99 296.04 C 1644.19 295.97 1652.77 297.54 1659.48 302.54 C 1668.08 308.91 1672.69 319.51 1673.48 329.99 C 1674.33 340.45 1673.51 351.41 1668.93 361.00 C 1665.83 367.55 1660.36 373.14 1653.42 375.51 C 1644.77 378.79 1635.16 377.08 1626.91 373.46 C 1626.98 383.19 1626.99 392.92 1626.92 402.65 C 1620.19 402.61 1613.47 402.58 1606.75 402.67 C 1606.73 368.44 1606.73 334.22 1606.75 299.99 M 1626.94 314.18 C 1627.06 328.43 1626.77 342.69 1627.08 356.94 C 1633.43 359.61 1641.80 361.67 1647.49 356.51 C 1652.80 350.82 1653.28 342.37 1653.12 334.98 C 1652.69 327.66 1650.62 319.19 1643.91 315.13 C 1638.67 312.38 1632.53 313.70 1626.94 314.18 Z" />
<path fill="#a20002" opacity="1.00" d=" M 1712.42 296.50 C 1723.99 293.95 1737.03 296.97 1745.53 305.46 C 1756.61 316.40 1758.73 333.44 1755.80 348.13 C 1753.38 359.55 1745.91 370.31 1734.87 374.78 C 1728.35 377.73 1720.98 377.80 1714.00 377.07 C 1704.16 375.61 1695.22 369.50 1690.07 361.03 C 1683.51 350.33 1682.43 337.00 1684.90 324.89 C 1687.66 311.22 1698.36 298.96 1712.42 296.50 M 1714.43 314.50 C 1708.15 317.39 1705.51 324.57 1704.71 330.98 C 1704.12 339.08 1704.26 347.98 1709.16 354.86 C 1714.57 361.99 1726.99 361.42 1731.76 353.82 C 1736.34 346.49 1737.01 337.28 1735.58 328.92 C 1734.55 323.49 1732.45 317.49 1727.22 314.80 C 1723.22 313.03 1718.50 313.03 1714.43 314.50 Z" />
<path fill="#a20002" opacity="1.00" d=" M 1776.30 302.69 C 1795.75 295.45 1817.43 294.11 1837.52 299.45 C 1836.35 305.78 1835.19 312.11 1833.79 318.39 C 1821.76 315.42 1808.99 314.72 1796.88 317.62 C 1796.92 336.86 1796.86 356.10 1796.91 375.33 C 1790.02 375.32 1783.14 375.30 1776.27 375.34 C 1776.28 351.13 1776.22 326.91 1776.30 302.69 Z" />
<path fill="#a20002" opacity="1.00" d=" M 1440.74 297.53 C 1447.46 297.58 1454.18 297.55 1460.91 297.55 C 1460.92 311.70 1460.81 325.85 1460.95 340.00 C 1461.41 345.66 1461.40 352.17 1465.33 356.69 C 1470.06 360.94 1476.94 359.34 1482.65 358.75 C 1482.71 338.34 1482.66 317.93 1482.68 297.52 C 1489.58 297.58 1496.48 297.58 1503.38 297.52 C 1503.36 322.59 1503.42 347.66 1503.35 372.74 C 1492.79 375.34 1482.00 377.61 1471.05 377.20 C 1462.58 377.28 1453.36 374.91 1447.73 368.17 C 1442.16 361.51 1440.84 352.43 1440.74 344.02 C 1440.73 328.52 1440.74 313.02 1440.74 297.53 Z" />
<path fill="#a20002" opacity="1.00" d=" M 305.13 311.55 C 304.84 307.48 308.01 303.90 311.98 303.31 C 313.47 303.95 315.32 305.10 314.98 307.01 C 314.18 311.14 308.83 314.94 305.13 311.55 Z" />
<path fill="#a20002" opacity="1.00" d=" M 324.85 315.71 C 325.88 317.31 328.57 319.57 326.21 321.25 C 324.20 322.49 322.59 320.26 321.15 319.18 C 322.37 318.01 323.60 316.85 324.85 315.71 Z" />
</g>
</svg>
