<?xml version="1.0" encoding="UTF-8" ?>
<!DOCTYPE svg PUBLIC "-//W3C//DTD SVG 1.1//EN" "http://www.w3.org/Graphics/SVG/1.1/DTD/svg11.dtd">
<svg width="2000pt" height="423pt" viewBox="0 0 2000 423" version="1.1" xmlns="http://www.w3.org/2000/svg">
<g id="#8b3830ff">
<path fill="#8b3830" opacity="1.00" d=" M 115.99 23.01 C 151.86 4.77 193.04 -2.98 233.07 1.22 C 266.37 4.46 298.82 15.87 326.87 34.09 C 357.13 53.66 382.26 81.08 399.08 112.95 C 412.95 139.19 421.31 168.40 422.97 198.05 C 426.29 245.65 412.67 294.16 385.09 333.10 C 360.87 367.61 326.14 394.66 286.65 409.47 C 266.63 417.21 245.39 421.19 224.07 423.00 L 200.48 423.00 C 189.59 421.99 178.66 420.90 167.97 418.51 C 140.11 412.73 113.51 401.08 90.23 384.73 C 59.41 363.13 34.47 333.18 18.96 298.87 C 7.53 273.82 1.27 246.49 0.21 219.00 C -1.07 181.50 7.74 143.68 25.73 110.74 C 46.06 73.29 77.96 42.25 115.99 23.01 M 103.11 66.56 C 185.67 153.78 268.20 241.04 350.63 328.40 C 363.62 312.57 374.39 294.83 381.53 275.60 C 397.01 235.06 397.10 188.92 381.79 148.31 C 369.35 114.76 346.59 85.19 317.51 64.37 C 283.26 39.62 240.13 27.54 198.01 31.01 C 163.83 33.32 130.51 46.03 103.11 66.56 M 93.24 77.99 C 93.38 81.20 96.38 84.32 94.22 87.41 C 92.34 85.64 90.99 83.45 90.13 81.03 C 88.93 81.22 87.72 81.41 86.52 81.60 C 87.40 84.91 88.84 88.54 92.28 89.91 C 95.03 91.45 98.65 89.72 99.69 86.89 C 100.79 83.49 96.71 80.51 98.16 77.21 C 100.76 77.08 101.35 80.25 102.54 81.95 C 103.56 81.83 104.58 81.72 105.60 81.60 C 105.21 78.57 103.90 75.44 100.95 74.09 C 97.92 72.09 93.48 74.44 93.24 77.99 M 99.80 98.32 C 101.03 101.35 104.28 102.44 107.18 103.18 C 107.24 102.29 107.36 100.50 107.43 99.60 C 105.39 98.95 102.68 97.70 102.93 95.13 C 103.81 91.97 106.98 88.58 110.54 89.45 C 112.48 90.02 112.70 92.35 113.58 93.86 C 114.75 93.68 115.93 93.50 117.10 93.32 C 116.28 90.62 115.38 87.51 112.53 86.30 C 105.65 82.17 95.97 91.19 99.80 98.32 M 33.70 177.46 C 25.04 221.69 33.73 269.05 57.74 307.23 C 75.92 336.48 102.59 360.38 133.70 375.17 C 160.17 387.87 189.76 393.86 219.08 392.65 C 259.21 391.29 298.51 375.77 329.14 349.87 C 246.25 262.12 163.22 174.50 80.41 86.68 C 56.65 111.69 40.03 143.51 33.70 177.46 M 107.10 106.07 C 108.09 107.17 109.09 108.28 110.09 109.38 C 114.38 105.27 118.71 101.21 123.03 97.13 C 122.03 96.07 121.03 95.02 120.03 93.96 C 115.79 98.07 111.51 102.15 107.10 106.07 M 112.75 112.11 C 115.46 114.96 118.15 117.83 120.84 120.70 C 121.67 119.78 122.50 118.86 123.33 117.94 C 121.67 116.25 120.00 114.56 118.34 112.88 C 119.24 111.98 120.15 111.09 121.06 110.20 C 122.40 111.68 123.74 113.17 125.07 114.67 C 126.00 113.80 126.93 112.93 127.85 112.06 C 126.46 110.68 125.08 109.31 123.69 107.94 C 124.45 107.13 125.21 106.33 125.97 105.52 C 127.59 107.31 129.23 109.09 130.87 110.87 C 131.71 109.96 132.56 109.05 133.41 108.15 C 130.77 105.50 128.22 102.78 125.76 99.97 C 121.43 104.02 117.17 108.15 112.75 112.11 M 122.98 122.97 C 123.95 124.00 124.92 125.04 125.89 126.08 C 128.87 123.17 131.75 120.17 134.60 117.13 C 132.74 121.33 131.25 125.68 129.61 129.96 C 130.62 131.06 131.62 132.17 132.62 133.28 C 136.91 129.21 141.18 125.11 145.55 121.12 C 144.63 120.05 143.72 118.99 142.81 117.92 C 139.79 120.78 136.96 123.83 134.09 126.84 C 135.88 122.66 137.40 118.37 138.94 114.09 C 137.94 112.98 136.94 111.86 135.96 110.73 C 131.71 114.90 127.34 118.92 122.98 122.97 M 138.67 139.31 C 139.82 142.53 143.17 143.84 146.20 144.63 C 146.31 143.73 146.54 141.92 146.65 141.02 C 144.75 140.21 142.14 139.51 141.99 137.01 C 142.31 133.92 145.06 131.34 147.99 130.64 C 150.86 130.16 151.73 133.27 152.65 135.29 C 153.54 135.12 155.32 134.79 156.21 134.63 C 155.32 131.93 154.31 128.79 151.43 127.60 C 144.67 123.87 135.49 132.20 138.67 139.31 M 146.27 147.62 C 148.88 150.39 151.49 153.17 154.10 155.96 C 154.98 155.09 155.87 154.23 156.76 153.36 C 155.06 151.62 153.38 149.87 151.70 148.12 C 152.65 147.31 153.61 146.50 154.56 145.69 C 155.91 147.16 157.26 148.64 158.62 150.11 C 159.45 149.20 160.28 148.28 161.11 147.37 C 159.76 145.97 158.41 144.58 157.06 143.19 C 157.63 142.62 158.78 141.49 159.35 140.93 C 160.94 142.67 162.54 144.40 164.14 146.14 C 165.03 145.33 165.91 144.52 166.80 143.71 C 164.24 140.89 161.61 138.13 159.07 135.29 C 154.93 139.54 150.45 143.42 146.27 147.62 M 169.34 153.34 C 166.00 155.04 163.05 158.14 162.68 162.03 C 162.39 166.51 166.53 170.64 170.99 170.43 C 175.14 169.89 178.74 166.80 180.24 162.94 C 182.38 157.02 175.01 150.17 169.34 153.34 M 185.70 163.66 C 181.44 167.75 177.14 171.80 172.85 175.86 C 173.88 176.92 174.91 177.98 175.94 179.05 C 177.27 177.66 178.61 176.28 179.95 174.91 C 181.78 176.44 183.38 178.84 185.99 178.95 C 189.97 179.69 194.30 174.77 192.05 171.04 C 190.43 168.19 187.92 166.01 185.70 163.66 M 183.99 187.68 C 186.73 190.44 189.42 193.26 191.98 196.20 C 192.79 195.25 193.61 194.31 194.43 193.38 C 192.83 191.67 191.23 189.97 189.64 188.25 C 190.48 187.36 191.32 186.48 192.16 185.60 C 193.52 187.11 194.89 188.61 196.25 190.13 C 197.14 189.27 198.03 188.41 198.93 187.55 C 197.60 186.10 196.26 184.66 194.94 183.21 C 195.67 182.45 196.40 181.69 197.14 180.93 C 198.78 182.72 200.41 184.52 202.01 186.35 C 202.84 185.42 203.67 184.49 204.51 183.56 C 201.94 180.88 199.38 178.19 196.93 175.40 C 192.63 179.51 188.28 183.56 183.99 187.68 M 194.32 198.38 C 195.21 199.43 196.11 200.49 197.01 201.54 C 199.99 198.72 202.79 195.73 205.63 192.76 C 203.97 196.92 202.36 201.11 200.87 205.33 C 201.87 206.47 202.87 207.60 203.88 208.73 C 208.07 204.61 212.36 200.59 216.67 196.60 C 215.77 195.51 214.87 194.40 213.97 193.30 C 210.89 196.26 207.98 199.39 205.17 202.61 C 206.97 198.30 208.53 193.91 210.18 189.55 C 209.14 188.42 208.10 187.28 207.08 186.14 C 202.93 190.33 198.55 194.28 194.32 198.38 M 206.63 211.51 C 207.55 212.53 208.46 213.54 209.38 214.57 C 212.40 211.81 215.18 208.81 218.06 205.92 C 216.31 210.04 214.76 214.23 213.25 218.44 C 214.22 219.57 215.18 220.72 216.13 221.87 C 220.44 217.78 224.75 213.67 229.15 209.67 C 228.20 208.64 227.24 207.60 226.29 206.58 C 223.21 209.45 220.36 212.55 217.48 215.62 C 219.40 211.40 220.96 207.03 222.52 202.67 C 221.50 201.58 220.47 200.50 219.44 199.43 C 215.20 203.49 210.90 207.48 206.63 211.51 M 219.04 224.78 C 221.65 227.47 224.22 230.19 226.76 232.95 C 227.73 232.18 228.69 231.40 229.65 230.62 C 227.95 228.86 226.26 227.09 224.54 225.36 C 225.44 224.47 226.35 223.59 227.27 222.71 C 228.60 224.22 229.93 225.73 231.25 227.25 C 232.12 226.34 232.99 225.44 233.86 224.54 C 232.53 223.12 231.20 221.71 229.87 220.30 C 230.43 219.73 231.55 218.59 232.11 218.02 C 233.71 219.73 235.32 221.45 236.94 223.17 C 237.85 222.37 238.75 221.57 239.67 220.78 C 237.03 218.05 234.42 215.29 231.89 212.47 C 227.63 216.59 223.18 220.53 219.04 224.78 M 236.95 231.91 C 237.12 234.16 240.13 237.22 237.08 238.55 C 234.95 237.32 234.25 234.97 233.62 232.77 C 232.30 232.93 230.98 233.09 229.67 233.27 C 230.65 236.72 232.22 240.74 236.02 241.86 C 238.90 242.98 242.55 241.11 242.95 237.95 C 242.88 234.98 241.19 232.31 241.04 229.33 C 243.85 228.30 244.57 231.99 245.68 233.74 C 246.53 233.58 248.23 233.28 249.08 233.12 C 248.17 229.85 246.53 226.27 242.95 225.27 C 239.18 223.94 235.22 228.24 236.95 231.91 M 246.75 240.93 C 247.31 243.72 248.52 246.33 249.28 249.07 C 245.92 249.68 244.67 246.51 243.81 243.95 C 242.90 244.00 241.06 244.10 240.14 244.15 C 240.98 247.43 242.25 251.06 245.61 252.55 C 248.60 254.50 252.60 252.26 253.42 249.04 C 253.64 245.84 250.68 242.98 251.79 239.75 C 254.23 240.09 254.88 242.71 256.00 244.49 C 256.82 244.40 258.46 244.20 259.28 244.10 C 258.68 240.89 257.00 237.38 253.60 236.45 C 250.54 235.24 246.88 237.65 246.75 240.93 M 261.40 257.85 C 261.51 259.98 264.28 262.74 261.85 264.26 C 259.27 263.54 258.79 260.85 258.09 258.65 C 257.12 258.71 255.17 258.83 254.19 258.89 C 254.90 262.49 256.57 266.25 260.19 267.73 C 263.12 269.29 266.62 266.97 267.41 264.03 C 267.81 260.84 264.59 257.82 265.97 254.74 C 268.39 255.10 269.01 257.62 269.98 259.45 C 270.86 259.34 272.61 259.13 273.49 259.02 C 272.58 255.43 270.35 250.97 266.03 251.13 C 262.45 250.63 260.06 254.73 261.40 257.85 M 267.47 269.56 C 263.36 274.84 271.64 283.28 276.94 279.04 C 280.53 276.68 283.40 273.42 286.49 270.47 C 285.60 269.46 284.71 268.46 283.83 267.45 C 280.69 270.09 278.04 273.30 274.67 275.64 C 272.53 277.30 269.45 274.31 270.89 272.13 C 273.34 268.71 276.83 266.22 279.72 263.20 C 278.77 262.15 277.81 261.11 276.86 260.07 C 273.72 263.21 270.05 265.90 267.47 269.56 M 276.37 285.43 C 277.32 286.47 278.27 287.51 279.23 288.56 C 280.65 287.27 282.07 285.96 283.50 284.68 C 285.22 286.17 286.84 288.08 289.19 288.56 C 293.14 289.36 297.25 284.99 295.61 281.09 C 294.27 277.89 291.34 275.73 289.15 273.13 C 285.05 277.40 280.63 281.32 276.37 285.43 M 287.51 297.19 C 288.46 298.25 289.40 299.31 290.36 300.37 C 291.79 299.08 293.21 297.77 294.62 296.46 C 296.27 297.88 297.76 299.75 300.00 300.25 C 303.62 301.27 307.71 297.69 307.22 293.98 C 306.04 290.27 302.75 287.84 300.26 285.02 C 296.11 289.17 291.77 293.14 287.51 297.19 M 307.35 300.25 C 304.45 301.92 301.91 304.61 301.23 307.97 C 300.52 311.55 303.03 315.12 306.19 316.57 C 311.99 318.64 318.14 313.62 319.03 307.95 C 319.42 302.18 312.61 297.17 307.35 300.25 M 311.39 322.46 C 312.33 323.54 313.28 324.63 314.23 325.72 C 315.93 324.09 317.64 322.46 319.39 320.88 C 320.46 323.84 318.85 326.64 317.83 329.36 C 318.96 330.62 320.09 331.90 321.21 333.18 C 321.95 330.65 322.67 328.12 323.43 325.59 C 327.08 326.40 330.94 323.80 331.35 320.05 C 330.44 315.93 326.82 313.32 324.16 310.32 C 319.98 314.45 315.66 318.43 311.39 322.46 M 332.03 324.02 C 333.16 325.16 334.31 326.32 335.44 327.49 C 331.99 330.69 328.61 333.98 325.05 337.06 C 326.07 338.16 327.08 339.27 328.09 340.39 C 331.41 337.11 334.92 334.01 338.18 330.66 C 339.35 331.75 340.45 332.92 341.73 333.90 C 342.66 333.23 343.54 332.49 344.43 331.78 C 341.23 328.36 337.94 325.04 334.85 321.53 C 333.91 322.35 332.97 323.18 332.03 324.02 Z" />
<path fill="#8b3830" opacity="1.00" d=" M 446.18 22.21 C 448.85 17.87 453.97 15.58 458.97 15.62 C 485.64 15.61 512.31 15.63 538.98 15.61 C 543.36 15.70 548.11 16.54 551.38 19.70 C 555.00 23.08 555.93 28.30 556.10 33.03 C 555.99 37.79 555.08 43.04 551.51 46.50 C 548.19 49.63 543.49 50.83 539.03 50.77 C 521.38 50.74 503.73 50.77 486.08 50.75 C 485.89 63.59 485.89 76.43 486.05 89.27 C 500.71 89.26 515.36 89.26 530.02 89.27 C 534.45 89.09 539.07 90.59 542.13 93.89 C 545.17 97.12 545.92 101.75 546.16 106.01 C 546.10 111.29 545.07 117.26 540.72 120.76 C 536.94 123.94 531.75 124.25 527.03 124.28 C 513.39 124.22 499.74 124.32 486.10 124.22 C 485.77 140.50 486.09 156.78 485.90 173.06 C 485.85 178.90 483.29 185.04 478.20 188.21 C 473.12 191.43 466.82 191.52 461.02 191.09 C 455.24 190.76 449.29 187.88 446.50 182.63 C 444.18 178.84 443.95 174.28 443.84 169.97 C 443.85 123.95 443.85 77.94 443.83 31.93 C 443.91 28.59 444.13 25.01 446.18 22.21 Z" />
<path fill="#8b3830" opacity="1.00" d=" M 594.26 17.22 C 598.51 15.14 603.36 15.64 607.95 15.61 C 632.32 15.63 656.69 15.61 681.07 15.61 C 685.37 15.74 690.05 16.57 693.26 19.70 C 697.04 23.37 698.06 28.96 697.91 34.03 C 697.78 38.66 696.55 43.71 692.96 46.91 C 689.68 49.68 685.29 50.81 681.06 50.77 C 663.58 50.74 646.10 50.79 628.61 50.74 C 628.62 61.55 628.62 72.36 628.62 83.17 C 642.07 83.14 655.53 83.18 668.99 83.14 C 673.81 83.11 679.14 83.81 682.79 87.28 C 686.52 90.74 687.44 96.15 687.53 101.01 C 687.41 105.65 686.59 110.75 683.19 114.20 C 680.03 117.48 675.34 118.69 670.90 118.61 C 656.81 118.62 642.71 118.64 628.61 118.59 C 628.63 130.99 628.60 143.40 628.63 155.81 C 645.10 155.64 661.57 155.80 678.04 155.72 C 683.29 155.70 688.96 155.51 693.66 158.24 C 699.05 161.39 700.92 168.10 700.75 173.98 C 700.75 179.57 698.84 185.85 693.74 188.82 C 689.97 191.27 685.31 191.25 680.99 191.28 C 654.02 191.18 627.05 191.39 600.08 191.18 C 592.21 191.20 586.03 183.67 586.28 176.06 C 586.25 127.69 586.26 79.33 586.28 30.96 C 586.20 25.39 589.20 19.74 594.26 17.22 Z" />
<path fill="#8b3830" opacity="1.00" d=" M 750.23 16.15 C 757.84 14.92 767.01 15.33 772.63 21.34 C 776.62 25.50 777.39 31.51 777.44 37.03 C 777.44 81.34 777.44 125.65 777.45 169.96 C 777.45 175.91 776.35 182.51 771.63 186.63 C 766.34 191.41 758.71 191.65 752.00 191.05 C 746.66 190.66 741.27 188.08 738.35 183.47 C 736.04 179.77 735.11 175.33 735.18 171.00 C 735.19 127.68 735.19 84.36 735.18 41.04 C 735.13 35.94 734.86 30.62 737.09 25.87 C 739.21 20.47 744.61 16.97 750.23 16.15 Z" />
<path fill="#8b3830" opacity="1.00" d=" M 807.06 16.91 C 812.11 14.89 817.66 15.80 822.96 15.61 C 828.30 15.69 834.27 14.87 838.90 18.15 C 843.98 21.81 844.99 28.41 847.28 33.83 C 855.01 53.87 861.56 74.34 869.36 94.35 C 874.18 83.53 877.76 72.19 882.16 61.19 C 886.63 49.53 890.90 37.79 895.40 26.14 C 897.99 19.55 905.03 15.31 912.03 15.60 C 918.20 15.87 924.52 14.89 930.56 16.45 C 935.13 17.51 938.19 22.44 937.35 27.01 C 936.64 31.19 934.54 34.93 932.79 38.73 C 922.68 60.30 912.54 81.86 902.43 103.42 C 898.53 112.09 894.06 120.53 890.50 129.34 C 890.01 143.53 890.55 157.76 890.26 171.96 C 889.95 177.45 888.49 183.40 884.02 187.02 C 878.76 191.40 871.46 191.61 864.97 191.06 C 859.68 190.67 854.30 188.15 851.43 183.55 C 848.73 179.25 848.12 174.00 848.20 169.01 C 848.24 157.01 848.17 145.01 848.24 133.00 C 848.29 130.92 848.08 128.81 847.14 126.93 C 833.77 98.28 820.47 69.60 807.16 40.92 C 805.16 36.35 802.47 31.98 801.62 26.99 C 800.90 22.94 803.17 18.45 807.06 16.91 Z" />
<path fill="#8b3830" opacity="1.00" d=" M 1000.43 16.55 C 1004.47 15.17 1008.80 15.68 1012.99 15.61 C 1019.65 15.70 1026.32 15.48 1032.98 15.68 C 1040.03 15.90 1046.48 21.13 1048.18 27.96 C 1063.37 77.02 1078.47 126.09 1093.68 175.14 C 1094.84 179.50 1094.79 184.91 1091.08 188.07 C 1086.77 192.17 1080.42 191.12 1075.01 191.27 C 1069.34 191.08 1063.04 192.20 1058.09 188.75 C 1054.26 186.45 1052.03 182.32 1051.01 178.09 C 1048.81 169.02 1046.30 160.03 1044.14 150.95 C 1026.80 151.01 1009.47 150.84 992.14 151.05 C 989.78 160.67 987.36 170.29 984.77 179.86 C 983.11 186.39 976.77 191.44 969.97 191.23 C 963.69 191.11 957.29 191.84 951.10 190.56 C 944.59 188.77 941.63 181.01 944.14 174.99 C 959.26 125.92 974.60 76.92 989.77 27.86 C 991.17 22.63 995.23 18.19 1000.43 16.55 M 1017.90 46.30 C 1016.27 51.76 1015.47 57.42 1013.97 62.91 C 1009.83 81.52 1004.77 99.92 1000.35 118.46 C 1012.29 118.37 1024.24 118.41 1036.18 118.44 C 1030.51 96.90 1025.12 75.29 1020.16 53.57 C 1019.62 51.08 1018.87 48.65 1017.90 46.30 Z" />
<path fill="#8b3830" opacity="1.00" d=" M 1116.93 31.00 C 1116.78 24.65 1120.70 18.12 1127.02 16.40 C 1133.87 14.80 1141.01 15.96 1147.98 15.59 C 1154.62 15.18 1161.45 18.37 1164.60 24.37 C 1177.56 49.12 1190.39 73.95 1203.26 98.75 C 1207.74 108.32 1211.83 118.07 1216.21 127.69 C 1218.10 131.69 1219.41 136.04 1222.14 139.59 C 1219.67 114.80 1215.90 90.03 1216.32 65.04 C 1216.33 55.33 1216.30 45.62 1216.32 35.91 C 1216.33 30.42 1217.55 24.49 1221.57 20.48 C 1225.35 16.73 1230.91 15.73 1236.03 15.58 C 1241.47 15.58 1247.46 16.51 1251.50 20.51 C 1255.86 24.74 1256.71 31.18 1256.69 36.96 C 1256.65 83.33 1256.71 129.69 1256.66 176.06 C 1256.93 183.27 1251.54 190.71 1244.03 191.10 C 1236.70 191.43 1229.36 191.27 1222.03 191.19 C 1216.57 191.24 1211.56 187.75 1209.23 182.90 C 1197.47 160.03 1185.76 137.14 1174.03 114.26 C 1168.40 103.73 1164.02 92.60 1159.08 81.75 C 1156.66 76.89 1155.19 71.52 1151.97 67.10 C 1152.74 79.79 1154.92 92.33 1155.66 105.02 C 1158.18 126.60 1156.97 148.34 1157.28 170.01 C 1157.39 176.17 1156.17 183.13 1151.12 187.24 C 1146.12 191.43 1139.16 191.58 1132.98 191.07 C 1127.18 190.74 1121.46 187.43 1118.99 182.06 C 1116.51 176.39 1116.89 170.06 1116.89 164.02 C 1116.93 119.68 1116.84 75.34 1116.93 31.00 Z" />
<path fill="#8b3830" opacity="1.00" d=" M 1295.09 15.94 C 1300.21 16.10 1305.35 16.09 1310.48 15.93 C 1310.50 145.23 1310.53 274.53 1310.47 403.83 C 1305.34 403.68 1300.21 403.72 1295.08 403.78 C 1295.04 274.50 1295.00 145.21 1295.09 15.94 Z" />
<path fill="#8b3830" opacity="1.00" d=" M 1543.37 17.43 C 1551.02 14.56 1560.81 20.52 1560.50 29.01 C 1561.06 33.86 1558.64 38.90 1554.28 41.18 C 1548.97 44.28 1541.57 43.14 1537.62 38.39 C 1532.31 31.75 1534.76 19.97 1543.37 17.43 Z" />
<path fill="#8b3830" opacity="1.00" d=" M 1371.43 29.48 C 1380.04 25.13 1390.08 24.74 1399.50 25.77 C 1406.58 26.50 1413.28 29.08 1419.69 32.09 C 1417.80 37.44 1415.72 42.73 1413.64 48.01 C 1404.55 42.78 1393.20 40.56 1383.09 43.95 C 1376.55 46.22 1374.49 55.75 1379.40 60.54 C 1384.76 66.03 1392.58 67.61 1399.39 70.57 C 1407.11 73.44 1414.88 77.50 1419.51 84.59 C 1424.69 91.88 1424.95 101.41 1423.50 109.92 C 1421.71 119.21 1414.29 126.69 1405.37 129.46 C 1395.14 132.62 1384.14 132.70 1373.61 131.14 C 1366.95 130.26 1360.82 127.32 1354.82 124.49 C 1356.60 118.82 1358.86 113.32 1360.70 107.67 C 1367.52 111.58 1375.02 114.62 1382.98 114.90 C 1388.16 115.20 1393.74 115.07 1398.40 112.49 C 1404.56 108.97 1406.04 99.25 1400.58 94.45 C 1389.89 84.54 1373.26 84.69 1363.13 73.93 C 1356.10 66.92 1354.93 56.02 1357.42 46.79 C 1359.11 39.25 1364.59 32.91 1371.43 29.48 Z" />
<path fill="#8b3830" opacity="1.00" d=" M 1444.57 67.52 C 1450.61 58.20 1461.22 52.66 1472.01 50.99 C 1483.65 49.62 1495.80 50.05 1506.80 54.50 C 1505.06 59.90 1503.80 65.45 1502.16 70.88 C 1492.46 67.69 1481.69 66.41 1471.89 69.88 C 1466.06 71.81 1461.26 76.73 1459.95 82.79 C 1457.68 91.27 1458.59 101.50 1465.01 108.01 C 1469.25 111.99 1475.25 113.61 1480.95 113.77 C 1489.03 114.08 1497.31 113.93 1505.00 111.15 C 1506.07 116.73 1506.89 122.36 1507.95 127.95 C 1497.76 131.66 1486.68 132.20 1475.96 131.40 C 1465.14 130.60 1454.08 126.43 1446.89 118.04 C 1442.40 112.95 1440.03 106.38 1438.77 99.80 C 1437.30 88.83 1438.32 76.97 1444.57 67.52 Z" />
<path fill="#8b3830" opacity="1.00" d=" M 1609.54 64.51 C 1615.45 56.38 1625.06 51.02 1635.11 50.44 C 1642.92 49.97 1651.17 50.88 1657.95 55.09 C 1664.33 58.92 1668.70 65.48 1670.81 72.52 C 1673.49 80.62 1673.30 89.31 1672.81 97.73 C 1655.91 97.62 1639.01 97.69 1622.11 97.69 C 1622.75 101.24 1623.52 105.10 1626.33 107.65 C 1631.72 113.01 1639.72 114.33 1647.04 113.86 C 1653.52 114.01 1659.67 111.82 1665.84 110.12 C 1666.91 115.94 1667.91 121.78 1668.59 127.66 C 1657.72 131.09 1646.17 132.79 1634.82 131.09 C 1624.37 129.88 1613.92 124.86 1607.95 115.94 C 1602.30 107.86 1600.91 97.68 1601.52 88.04 C 1601.70 79.62 1604.61 71.32 1609.54 64.51 M 1629.06 70.13 C 1624.68 73.23 1623.28 78.69 1622.18 83.62 C 1632.60 83.64 1643.03 83.57 1653.46 83.66 C 1653.68 76.88 1649.90 69.57 1642.99 67.78 C 1638.29 67.04 1632.93 66.96 1629.06 70.13 Z" />
<path fill="#8b3830" opacity="1.00" d=" M 1689.39 54.62 C 1699.73 52.07 1710.33 50.28 1721.02 50.67 C 1729.77 50.37 1739.31 52.90 1745.01 59.95 C 1750.60 66.97 1751.62 76.29 1751.82 84.97 C 1751.86 100.00 1751.85 115.03 1751.82 130.06 C 1745.02 129.88 1738.22 129.97 1731.43 129.96 C 1731.43 114.99 1731.48 100.01 1731.41 85.04 C 1731.20 80.14 1730.77 74.53 1727.22 70.80 C 1722.22 66.84 1715.43 68.48 1709.62 68.89 C 1709.61 89.28 1709.64 109.67 1709.60 130.07 C 1702.86 129.89 1696.13 129.89 1689.40 130.07 C 1689.36 104.92 1689.38 79.77 1689.39 54.62 Z" />
<path fill="#8b3830" opacity="1.00" d=" M 1774.26 69.22 C 1780.11 58.88 1791.43 52.63 1802.96 50.97 C 1814.50 49.63 1826.51 50.08 1837.41 54.45 C 1835.98 59.95 1834.28 65.37 1833.03 70.90 C 1822.85 67.58 1811.41 66.27 1801.27 70.40 C 1795.27 72.83 1791.07 78.60 1790.09 84.92 C 1789.18 91.65 1789.28 99.04 1793.19 104.88 C 1796.90 110.86 1804.19 113.42 1810.93 113.73 C 1819.25 114.05 1827.85 114.11 1835.74 111.05 C 1836.58 116.71 1837.69 122.33 1838.81 127.95 C 1828.62 131.59 1817.58 132.22 1806.88 131.41 C 1797.92 130.77 1788.95 127.89 1781.90 122.22 C 1775.70 117.21 1771.54 109.91 1770.04 102.12 C 1767.61 91.14 1768.70 79.11 1774.26 69.22 Z" />
<path fill="#8b3830" opacity="1.00" d=" M 1855.93 66.95 C 1861.51 57.85 1871.40 51.42 1882.10 50.53 C 1890.69 49.81 1899.92 50.83 1907.17 55.87 C 1912.88 59.66 1916.68 65.73 1918.77 72.16 C 1921.26 80.41 1921.66 89.13 1921.00 97.68 C 1904.10 97.67 1887.19 97.68 1870.29 97.67 C 1870.22 105.22 1876.43 110.93 1883.31 112.78 C 1893.54 115.41 1904.26 113.31 1914.10 110.04 C 1914.71 115.89 1915.77 121.68 1916.92 127.44 C 1906.03 131.20 1894.31 132.75 1882.86 131.09 C 1872.67 129.87 1862.44 125.12 1856.42 116.56 C 1851.65 110.07 1849.74 101.93 1849.39 94.00 C 1849.05 84.63 1850.84 74.94 1855.93 66.95 M 1880.29 68.29 C 1874.01 70.67 1871.23 77.46 1870.27 83.62 C 1880.76 83.62 1891.24 83.61 1901.73 83.63 C 1901.14 79.19 1900.31 74.37 1896.88 71.17 C 1892.62 66.81 1885.77 66.62 1880.29 68.29 Z" />
<path fill="#8b3830" opacity="1.00" d=" M 189.75 59.74 C 199.28 51.76 213.13 50.10 224.65 54.29 C 235.76 58.33 242.23 68.83 250.10 76.96 C 253.71 82.16 260.80 81.33 266.20 80.24 C 272.92 79.83 279.23 76.59 286.03 77.44 C 302.04 78.48 316.14 91.17 319.06 106.92 C 321.24 115.01 317.95 125.57 325.40 131.50 C 333.56 136.25 343.43 137.91 350.75 144.19 C 363.20 153.98 368.13 172.31 361.59 186.85 C 358.27 193.87 353.77 200.25 350.16 207.11 C 348.52 210.27 348.89 214.23 350.78 217.20 C 355.89 226.77 363.51 235.74 364.08 247.04 C 365.29 259.20 359.99 271.80 350.36 279.35 C 344.34 284.28 336.60 286.12 329.72 289.48 C 323.82 283.25 317.98 276.95 311.97 270.81 C 318.17 267.45 324.93 265.31 331.29 262.31 C 337.07 259.46 339.66 251.90 336.78 246.12 C 333.82 240.53 330.28 235.27 327.33 229.68 C 321.74 218.42 322.16 204.32 328.59 193.50 C 331.35 188.66 334.32 183.94 337.01 179.06 C 339.96 173.95 338.00 166.09 332.38 163.69 C 326.19 160.69 319.58 158.60 313.44 155.49 C 304.17 150.65 297.40 141.38 295.64 131.07 C 294.92 125.38 294.88 119.61 293.83 113.97 C 292.74 107.69 286.13 103.09 279.86 104.00 C 274.93 104.65 270.06 105.70 265.18 106.62 C 257.32 108.99 248.77 107.14 241.66 103.38 C 232.43 98.62 226.34 89.91 219.41 82.49 C 215.77 77.48 207.89 77.55 203.39 81.31 C 197.02 87.32 191.93 94.60 185.28 100.32 C 177.30 106.45 166.35 109.45 156.56 106.32 C 147.87 97.08 139.13 87.88 130.39 78.67 C 134.60 77.73 138.98 76.86 143.27 77.75 C 149.19 79.04 155.21 79.84 161.18 80.82 C 165.21 81.58 169.73 80.66 172.73 77.74 C 178.61 71.94 183.58 65.25 189.75 59.74 Z" />
<path fill="#8b3830" opacity="1.00" d=" M 1519.47 52.17 C 1533.43 52.34 1547.40 52.30 1561.37 52.19 C 1561.41 68.48 1561.35 84.77 1561.39 101.05 C 1561.44 105.70 1562.65 111.47 1567.54 113.31 C 1574.53 114.94 1581.80 113.17 1588.20 110.21 C 1589.17 115.68 1589.83 121.20 1590.81 126.67 C 1580.19 131.64 1567.63 133.47 1556.34 129.82 C 1547.47 126.75 1542.68 117.63 1541.68 108.78 C 1540.10 95.62 1541.26 82.32 1540.87 69.11 C 1533.72 69.20 1526.58 69.13 1519.44 69.16 C 1519.44 63.50 1519.41 57.83 1519.47 52.17 Z" />
<path fill="#8b3830" opacity="1.00" d=" M 174.64 125.38 C 186.11 123.38 198.29 124.98 208.65 130.39 C 221.45 136.89 231.31 148.90 235.19 162.73 C 237.98 171.64 237.60 181.20 236.04 190.30 C 215.49 168.73 195.07 147.05 174.64 125.38 Z" />
<path fill="#8b3830" opacity="1.00" d=" M 102.81 126.64 C 108.47 132.75 114.23 138.76 119.92 144.84 C 116.70 148.63 113.32 152.43 108.93 154.89 C 102.97 158.25 96.35 160.21 90.19 163.14 C 85.00 165.82 81.81 172.28 83.95 177.93 C 88.16 187.12 95.35 195.02 97.29 205.19 C 98.41 213.04 98.08 221.37 94.55 228.62 C 91.49 234.73 87.66 240.42 84.36 246.40 C 82.28 249.79 82.95 254.12 84.36 257.63 C 86.22 261.26 90.47 262.47 93.95 264.00 C 101.17 267.18 109.12 269.38 114.99 274.95 C 121.44 280.71 125.34 288.99 126.14 297.56 C 126.97 302.72 126.34 308.11 127.92 313.14 C 129.39 317.12 132.90 320.27 137.03 321.26 C 148.13 322.60 158.78 315.72 169.84 318.54 C 177.09 319.96 183.71 323.85 189.05 328.87 C 193.55 333.40 197.70 338.26 201.97 342.99 C 205.70 347.85 213.63 348.05 218.08 344.10 C 225.32 337.33 230.76 328.53 239.46 323.40 C 246.37 319.15 254.94 316.52 262.99 318.73 C 270.80 319.49 278.51 322.49 286.42 321.00 C 292.29 327.10 298.06 333.29 303.93 339.39 C 297.00 343.67 288.72 346.71 280.48 345.32 C 274.39 344.07 268.26 343.10 262.11 342.24 C 258.29 341.63 254.14 342.54 251.25 345.20 C 245.28 350.94 240.36 357.73 234.18 363.25 C 221.27 374.10 200.34 373.61 188.12 361.93 C 182.28 356.09 177.11 349.61 171.32 343.74 C 164.67 340.20 156.89 343.29 149.91 344.13 C 132.75 349.91 112.83 339.26 106.65 322.56 C 103.23 314.30 104.28 305.11 102.30 296.55 C 99.71 290.15 92.31 288.97 86.73 286.33 C 80.31 283.95 74.09 280.65 69.43 275.53 C 60.91 266.61 57.12 253.14 60.50 241.18 C 62.22 234.20 66.69 228.39 70.12 222.19 C 72.61 217.98 76.16 213.10 73.95 208.00 C 69.73 198.56 62.18 190.54 60.30 180.11 C 56.85 164.60 64.83 147.30 79.06 140.10 C 85.04 137.22 91.35 135.05 97.38 132.26 C 99.80 131.08 101.26 128.72 102.81 126.64 Z" />
<path fill="#8b3830" opacity="1.00" d=" M 1382.52 148.61 C 1389.53 147.21 1396.92 148.00 1403.60 150.54 C 1412.05 153.92 1418.26 161.46 1421.47 169.84 C 1426.91 183.52 1426.77 198.56 1425.99 213.03 C 1424.89 223.00 1422.62 233.27 1416.69 241.57 C 1411.88 248.44 1404.18 253.29 1395.83 254.32 C 1386.93 255.51 1377.29 254.42 1369.83 249.09 C 1361.21 243.07 1356.66 232.86 1354.65 222.83 C 1352.25 212.75 1352.62 202.32 1352.92 192.04 C 1353.87 180.92 1356.28 169.32 1363.27 160.32 C 1367.93 154.17 1374.91 149.92 1382.52 148.61 M 1384.39 166.63 C 1378.26 169.06 1375.80 176.10 1374.73 182.09 C 1372.88 194.00 1372.94 206.19 1374.32 218.15 C 1375.13 224.70 1377.18 232.21 1383.30 235.75 C 1386.51 237.45 1390.43 237.13 1393.90 236.52 C 1399.67 234.57 1402.63 228.54 1403.92 222.98 C 1406.11 212.11 1405.99 200.92 1405.35 189.89 C 1404.71 183.17 1404.00 175.93 1399.70 170.42 C 1396.30 165.72 1389.58 164.74 1384.39 166.63 Z" />
<path fill="#8b3830" opacity="1.00" d=" M 171.29 157.20 C 172.77 156.61 175.18 156.46 175.90 158.25 C 177.75 161.74 173.91 165.10 170.91 166.25 C 168.77 167.24 166.95 164.87 166.52 163.01 C 167.28 160.55 169.00 158.39 171.29 157.20 Z" />
<path fill="#8b3830" opacity="1.00" d=" M 134.09 195.78 C 129.71 184.24 129.98 171.24 133.95 159.63 C 155.66 182.75 177.59 205.66 199.25 228.83 C 188.23 231.69 176.27 231.74 165.60 227.50 C 151.17 222.14 139.38 210.22 134.09 195.78 Z" />
<path fill="#8b3830" opacity="1.00" d=" M 182.38 173.00 C 183.68 171.60 184.98 170.21 186.29 168.82 C 187.26 170.39 189.92 172.86 187.58 174.44 C 185.81 176.32 184.03 173.73 182.38 173.00 Z" />
<path fill="#8b3830" opacity="1.00" d=" M 1527.42 186.49 C 1533.26 178.92 1542.32 173.94 1551.87 173.20 C 1560.73 172.55 1570.32 173.80 1577.55 179.38 C 1583.95 184.21 1587.67 191.77 1589.28 199.49 C 1590.51 206.38 1590.66 213.41 1590.19 220.38 C 1573.29 220.37 1556.40 220.41 1539.51 220.36 C 1539.90 225.46 1542.29 230.52 1546.97 232.99 C 1558.10 239.48 1571.68 236.59 1583.20 232.75 C 1584.29 238.55 1585.02 244.42 1586.00 250.24 C 1577.92 252.87 1569.54 254.69 1561.00 254.40 C 1549.92 254.55 1538.19 251.77 1529.89 244.05 C 1521.71 236.47 1518.27 224.93 1518.72 214.00 C 1518.41 204.20 1521.46 194.30 1527.42 186.49 M 1548.46 191.51 C 1542.80 194.23 1540.60 200.58 1539.56 206.34 C 1549.99 206.30 1560.42 206.33 1570.86 206.32 C 1570.40 202.33 1569.91 198.05 1567.11 194.94 C 1562.75 189.45 1554.54 188.98 1548.46 191.51 Z" />
<path fill="#8b3830" opacity="1.00" d=" M 1775.08 187.00 C 1781.13 178.82 1790.87 173.62 1801.02 173.08 C 1809.31 172.69 1818.18 173.95 1825.04 178.97 C 1831.55 183.59 1835.48 191.08 1837.10 198.77 C 1838.81 205.84 1838.83 213.18 1838.35 220.40 C 1821.39 220.35 1804.43 220.42 1787.47 220.36 C 1787.88 225.72 1790.70 230.96 1795.66 233.36 C 1806.77 239.40 1820.01 236.47 1831.37 232.72 C 1831.93 238.62 1833.36 244.38 1834.06 250.26 C 1825.94 252.85 1817.54 254.71 1808.98 254.40 C 1798.15 254.52 1786.71 251.91 1778.47 244.53 C 1772.49 239.22 1768.69 231.70 1767.52 223.83 C 1765.35 211.25 1767.24 197.38 1775.08 187.00 M 1796.62 191.47 C 1790.83 194.11 1788.72 200.59 1787.46 206.33 C 1797.99 206.30 1808.52 206.35 1819.05 206.31 C 1818.52 202.09 1817.74 197.52 1814.62 194.37 C 1810.20 189.39 1802.44 189.11 1796.62 191.47 Z" />
<path fill="#8b3830" opacity="1.00" d=" M 1862.55 180.56 C 1869.22 174.71 1878.41 173.23 1886.99 172.99 C 1896.14 172.91 1905.43 173.91 1914.00 177.29 C 1912.79 183.07 1911.89 188.89 1910.85 194.70 C 1901.00 191.19 1890.32 188.48 1879.90 191.03 C 1877.26 191.97 1874.23 194.75 1875.70 197.79 C 1878.41 202.00 1883.56 203.46 1888.00 205.12 C 1895.94 207.99 1904.62 210.02 1911.02 215.86 C 1920.47 224.24 1919.40 241.83 1908.44 248.47 C 1898.51 254.67 1886.28 254.79 1874.98 254.13 C 1867.33 253.80 1860.27 250.60 1853.16 248.11 C 1854.04 242.35 1855.49 236.71 1856.26 230.93 C 1862.06 233.08 1867.88 235.28 1873.96 236.56 C 1879.89 237.43 1885.97 237.33 1891.92 236.57 C 1894.24 236.11 1897.43 234.86 1897.39 232.03 C 1897.71 229.20 1895.37 227.04 1893.08 225.87 C 1883.00 220.94 1870.93 220.12 1862.10 212.71 C 1852.35 204.91 1853.21 188.33 1862.55 180.56 Z" />
<path fill="#8b3830" opacity="1.00" d=" M 1943.85 181.89 C 1949.07 176.49 1956.60 174.05 1963.93 173.38 C 1974.93 172.34 1986.24 173.38 1996.65 177.21 C 1995.50 183.05 1994.65 188.93 1993.43 194.75 C 1983.69 191.10 1973.03 188.52 1962.68 191.02 C 1960.26 191.82 1957.61 193.98 1958.22 196.83 C 1958.66 199.60 1961.48 201.02 1963.69 202.28 C 1972.86 206.73 1983.47 208.11 1991.81 214.26 C 1996.91 217.96 2000.21 224.06 2000.00 230.42 L 2000.00 233.20 C 1999.62 237.55 1998.12 241.96 1995.06 245.16 C 1990.74 249.80 1984.52 251.98 1978.50 253.33 C 1971.41 254.54 1964.16 254.64 1957.01 254.08 C 1949.64 253.62 1942.82 250.57 1935.96 248.14 C 1936.78 242.39 1938.01 236.71 1939.01 230.98 C 1942.99 232.42 1946.95 233.91 1951.02 235.12 C 1958.40 237.58 1966.36 237.51 1974.02 236.65 C 1976.65 236.36 1979.79 234.98 1980.21 232.03 C 1980.15 229.10 1977.89 226.82 1975.38 225.67 C 1966.93 221.68 1957.41 220.43 1949.23 215.82 C 1944.33 213.03 1939.87 208.70 1938.55 203.05 C 1936.76 195.74 1938.40 187.30 1943.85 181.89 Z" />
<path fill="#8b3830" opacity="1.00" d=" M 1441.24 177.29 C 1452.52 174.25 1464.29 172.86 1475.96 173.55 C 1484.80 174.04 1493.64 177.80 1499.33 184.72 C 1506.66 193.29 1508.77 205.06 1508.50 216.03 C 1508.05 225.13 1506.37 234.56 1501.28 242.30 C 1497.86 247.56 1492.56 251.52 1486.57 253.35 C 1478.26 255.48 1469.34 254.37 1461.64 250.68 C 1461.70 260.48 1461.68 270.27 1461.66 280.07 C 1454.85 279.89 1448.04 279.89 1441.24 280.07 C 1441.20 245.81 1441.20 211.55 1441.24 177.29 M 1461.69 191.19 C 1461.64 205.48 1461.70 219.77 1461.66 234.07 C 1467.98 237.10 1476.85 238.95 1482.40 233.49 C 1487.39 227.98 1487.70 220.05 1487.65 213.01 C 1487.50 206.07 1485.86 198.38 1480.37 193.66 C 1475.14 189.27 1467.90 190.97 1461.69 191.19 Z" />
<path fill="#8b3830" opacity="1.00" d=" M 1606.77 177.22 C 1619.26 174.39 1632.14 172.37 1644.96 173.81 C 1652.47 174.57 1660.04 178.38 1663.97 185.02 C 1668.07 191.55 1668.82 199.46 1669.20 206.98 C 1669.25 222.19 1669.17 237.41 1669.23 252.62 C 1662.40 252.64 1655.57 252.57 1648.75 252.67 C 1648.68 238.09 1648.83 223.51 1648.68 208.93 C 1648.48 203.80 1648.41 198.10 1645.01 193.94 C 1640.16 189.41 1633.01 191.11 1627.08 191.56 C 1626.73 211.92 1627.12 232.28 1626.93 252.65 C 1620.19 252.60 1613.45 252.62 1606.72 252.62 C 1606.78 227.49 1606.68 202.35 1606.77 177.22 Z" />
<path fill="#8b3830" opacity="1.00" d=" M 1689.40 177.26 C 1702.01 174.33 1715.06 172.35 1728.01 173.86 C 1735.48 174.66 1742.88 178.60 1746.76 185.20 C 1751.09 192.30 1751.70 200.85 1751.84 208.96 C 1751.84 223.53 1751.85 238.09 1751.83 252.66 C 1745.04 252.61 1738.25 252.56 1731.46 252.69 C 1731.40 238.15 1731.46 223.61 1731.44 209.06 C 1731.36 203.96 1730.98 198.43 1727.90 194.17 C 1723.09 189.32 1715.66 191.13 1709.61 191.58 C 1709.61 211.94 1709.63 232.31 1709.60 252.68 C 1702.86 252.58 1696.13 252.58 1689.40 252.68 C 1689.37 227.54 1689.36 202.40 1689.40 177.26 Z" />
<path fill="#8b3830" opacity="1.00" d=" M 258.38 214.02 C 262.91 210.62 268.23 207.89 274.01 207.82 C 285.38 207.34 296.42 215.93 298.46 227.18 C 300.28 235.20 297.31 243.47 291.96 249.50 C 280.73 237.71 269.59 225.83 258.38 214.02 Z" />
<path fill="#8b3830" opacity="1.00" d=" M 641.29 234.39 C 645.50 229.21 652.64 227.92 658.97 227.96 C 665.16 228.11 672.11 229.87 675.76 235.32 C 678.79 239.57 679.31 244.92 679.23 250.00 C 679.21 264.97 679.18 279.94 679.24 294.92 C 698.58 294.79 717.92 294.81 737.25 294.91 C 737.29 278.94 737.23 262.96 737.28 247.00 C 737.19 241.60 739.10 235.91 743.33 232.38 C 747.65 228.77 753.55 227.93 759.01 228.02 C 764.27 228.11 769.91 229.36 773.78 233.17 C 777.60 237.04 779.04 242.70 778.90 248.02 C 778.87 293.70 778.92 339.38 778.88 385.06 C 778.87 391.41 776.04 398.29 770.10 401.22 C 764.95 404.12 758.84 403.92 753.15 403.48 C 747.84 402.71 742.40 400.02 739.82 395.11 C 737.87 391.73 737.16 387.81 737.26 383.95 C 737.26 366.45 737.27 348.96 737.26 331.47 C 717.91 331.53 698.56 331.51 679.21 331.47 C 679.21 348.65 679.21 365.83 679.22 383.01 C 679.26 387.96 678.40 393.16 675.23 397.13 C 671.45 401.97 664.99 403.85 659.06 403.71 C 653.38 403.99 647.32 402.85 642.91 399.06 C 638.72 395.31 637.03 389.51 637.17 384.04 C 637.14 339.32 637.18 294.61 637.14 249.90 C 636.93 244.48 637.68 238.68 641.29 234.39 Z" />
<path fill="#8b3830" opacity="1.00" d=" M 830.27 233.17 C 833.06 229.67 837.60 228.03 841.99 228.00 C 865.31 228.07 888.64 228.06 911.97 228.03 C 918.08 228.10 924.54 227.24 930.31 229.80 C 934.65 231.75 937.45 236.26 937.91 240.92 C 938.67 246.81 938.52 253.60 934.40 258.31 C 930.84 262.29 925.15 263.26 920.06 263.23 C 903.12 263.15 886.18 263.31 869.24 263.14 C 869.17 273.94 869.22 284.73 869.21 295.53 C 882.83 295.47 896.45 295.52 910.07 295.49 C 915.20 295.49 920.90 296.67 924.32 300.83 C 927.79 305.07 928.18 310.84 927.83 316.09 C 927.61 321.32 925.03 326.88 920.07 329.16 C 915.15 331.81 909.40 331.07 904.04 331.16 C 892.44 331.11 880.84 331.24 869.25 331.08 C 869.16 343.44 869.23 355.81 869.21 368.17 C 887.46 368.16 905.71 368.13 923.96 368.18 C 929.79 368.17 936.39 370.33 939.07 375.95 C 941.48 381.20 941.57 387.35 940.20 392.91 C 939.30 396.84 936.53 400.30 932.82 401.93 C 928.89 404.03 924.32 403.67 920.03 403.69 C 894.00 403.66 867.97 403.67 841.94 403.69 C 835.87 404.07 829.81 400.07 827.80 394.34 C 826.40 390.00 826.83 385.39 826.78 380.91 C 826.80 335.28 826.78 289.65 826.79 244.01 C 826.86 240.19 827.62 236.11 830.27 233.17 Z" />
<path fill="#8b3830" opacity="1.00" d=" M 980.53 233.63 C 984.73 229.21 991.13 228.01 996.98 227.95 C 1002.53 228.06 1008.61 229.16 1012.66 233.30 C 1016.78 237.38 1017.92 243.47 1017.95 249.06 C 1018.00 288.76 1017.87 328.46 1018.01 368.16 C 1035.03 368.17 1052.06 368.13 1069.09 368.17 C 1074.63 368.22 1080.91 370.05 1083.75 375.23 C 1087.29 382.01 1087.22 390.73 1083.36 397.36 C 1080.49 401.66 1075.10 403.72 1070.07 403.67 C 1043.38 403.69 1016.68 403.68 989.98 403.67 C 982.13 403.91 975.42 396.73 975.65 388.98 C 975.57 342.34 975.65 295.70 975.61 249.07 C 975.69 243.64 976.65 237.71 980.53 233.63 Z" />
<path fill="#8b3830" opacity="1.00" d=" M 1120.70 233.76 C 1123.80 229.71 1129.02 227.93 1133.99 227.98 C 1150.31 228.10 1166.64 228.07 1182.96 228.00 C 1196.70 228.19 1210.68 229.55 1223.56 234.64 C 1230.66 237.56 1237.62 241.32 1242.97 246.93 C 1250.33 254.47 1254.68 264.61 1255.99 275.00 C 1257.80 287.85 1256.40 301.51 1250.23 313.07 C 1242.58 327.04 1228.92 337.34 1213.58 341.42 C 1196.90 346.54 1179.30 345.45 1162.09 345.49 C 1162.11 357.67 1162.10 369.85 1162.11 382.03 C 1162.06 387.85 1160.86 394.20 1156.56 398.45 C 1151.87 402.78 1145.20 404.00 1139.02 403.71 C 1132.37 403.86 1124.99 401.74 1121.05 396.03 C 1118.29 392.28 1117.72 387.51 1117.62 382.99 C 1117.60 336.97 1117.65 290.96 1117.59 244.94 C 1117.56 241.04 1118.04 236.82 1120.70 233.76 M 1162.10 261.42 C 1162.11 278.32 1162.10 295.21 1162.11 312.11 C 1171.11 311.97 1180.14 312.45 1189.13 311.74 C 1197.42 310.79 1206.27 307.06 1210.24 299.26 C 1214.08 291.25 1214.65 281.38 1210.75 273.28 C 1208.16 267.90 1202.48 264.87 1196.94 263.39 C 1185.56 260.36 1173.72 261.77 1162.10 261.42 Z" />
<path fill="#8b3830" opacity="1.00" d=" M 185.49 256.72 C 195.60 253.72 207.14 261.51 208.11 272.00 C 209.83 282.12 201.25 292.39 191.01 292.49 C 182.21 293.22 173.71 286.39 172.28 277.73 C 170.29 268.64 176.56 259.02 185.49 256.72 Z" />
<path fill="#8b3830" opacity="1.00" d=" M 1364.18 280.16 C 1371.41 272.96 1382.07 270.50 1391.99 270.65 C 1401.64 270.50 1411.13 273.29 1419.70 277.63 C 1417.74 282.89 1415.73 288.13 1413.70 293.36 C 1404.35 288.44 1392.82 285.43 1382.67 289.63 C 1376.21 292.07 1374.62 301.77 1379.70 306.31 C 1385.37 311.78 1393.40 313.30 1400.39 316.42 C 1408.12 319.28 1415.75 323.71 1420.11 330.96 C 1424.15 337.14 1424.70 344.86 1423.98 352.03 C 1423.35 360.54 1418.24 368.65 1410.62 372.60 C 1400.98 377.84 1389.65 377.72 1379.01 377.23 C 1370.44 376.95 1362.32 373.73 1354.81 369.83 C 1356.68 364.18 1358.91 358.65 1360.72 352.97 C 1367.72 357.26 1375.74 360.43 1384.07 360.33 C 1389.48 360.49 1395.46 360.48 1399.89 356.87 C 1404.92 352.68 1405.53 343.96 1400.32 339.62 C 1390.36 330.67 1375.65 330.20 1365.48 321.54 C 1360.80 317.68 1357.41 312.17 1356.60 306.11 C 1355.37 296.98 1357.41 286.80 1364.18 280.16 Z" />
<path fill="#8b3830" opacity="1.00" d=" M 1868.05 278.10 C 1874.81 277.22 1881.49 275.79 1888.27 274.93 C 1888.25 282.49 1888.24 290.05 1888.28 297.61 C 1899.15 297.49 1910.03 297.60 1920.91 297.55 C 1920.88 303.20 1920.88 308.86 1920.90 314.52 C 1910.02 314.46 1899.14 314.55 1888.27 314.47 C 1888.30 325.67 1888.15 336.88 1888.33 348.08 C 1888.50 352.48 1890.20 357.90 1895.09 358.97 C 1903.27 360.39 1912.03 359.09 1919.42 355.23 C 1920.49 361.14 1921.61 367.04 1922.32 373.01 C 1911.68 376.97 1900.10 377.96 1888.87 376.76 C 1882.95 376.06 1876.74 373.87 1873.18 368.83 C 1868.74 362.52 1867.84 354.54 1868.05 347.03 C 1868.07 336.19 1867.99 325.35 1868.07 314.51 C 1862.14 314.49 1856.21 314.47 1850.29 314.55 C 1850.24 308.87 1850.25 303.19 1850.28 297.52 C 1856.17 297.58 1862.06 297.55 1867.96 297.57 C 1868.17 291.08 1867.94 284.59 1868.05 278.10 Z" />
<path fill="#8b3830" opacity="1.00" d=" M 289.78 278.63 C 290.71 279.87 291.62 281.12 292.52 282.39 C 291.50 283.38 290.46 284.35 289.42 285.31 C 288.24 284.29 287.06 283.27 285.90 282.26 C 287.19 281.05 288.49 279.84 289.78 278.63 Z" />
<path fill="#8b3830" opacity="1.00" d=" M 530.41 289.61 C 538.25 287.32 547.34 288.97 553.49 294.47 C 563.94 303.06 565.60 319.93 557.72 330.74 C 550.17 342.14 532.64 344.52 522.20 335.81 C 510.92 327.06 509.34 309.01 518.13 298.00 C 521.28 294.10 525.49 290.87 530.41 289.61 Z" />
<path fill="#8b3830" opacity="1.00" d=" M 296.95 294.11 C 298.33 292.84 299.72 291.58 301.11 290.31 C 301.85 291.55 302.64 292.76 303.30 294.05 C 302.65 295.15 301.90 296.18 301.03 297.14 C 299.65 296.14 298.29 295.14 296.95 294.11 Z" />
<path fill="#8b3830" opacity="1.00" d=" M 1523.90 300.03 C 1534.33 297.17 1545.18 295.90 1555.98 296.09 C 1565.09 296.28 1574.54 299.25 1580.83 306.12 C 1588.92 314.52 1591.33 326.68 1591.20 337.98 C 1590.76 347.53 1589.16 357.50 1583.61 365.53 C 1579.25 372.04 1571.85 376.31 1564.07 377.07 C 1557.25 377.90 1550.49 376.13 1544.28 373.44 C 1544.36 383.18 1544.30 392.93 1544.31 402.67 C 1537.50 402.57 1530.70 402.63 1523.90 402.63 C 1523.90 368.43 1523.89 334.23 1523.90 300.03 M 1544.33 314.12 C 1544.31 328.36 1544.32 342.61 1544.33 356.86 C 1550.42 359.49 1558.28 361.55 1564.06 357.12 C 1569.44 352.47 1570.30 344.73 1570.34 338.04 C 1570.54 330.49 1569.18 322.02 1563.38 316.66 C 1558.17 311.98 1550.64 313.66 1544.33 314.12 Z" />
<path fill="#8b3830" opacity="1.00" d=" M 1606.75 299.99 C 1616.25 297.36 1626.10 296.18 1635.95 296.04 C 1644.17 295.96 1652.77 297.54 1659.50 302.55 C 1667.85 308.76 1672.47 318.98 1673.39 329.17 C 1674.39 339.89 1673.62 351.15 1668.94 361.00 C 1665.83 367.56 1660.34 373.16 1653.38 375.53 C 1644.74 378.78 1635.15 377.07 1626.91 373.46 C 1626.99 383.19 1626.96 392.92 1626.92 402.65 C 1620.19 402.61 1613.46 402.59 1606.74 402.66 C 1606.74 368.44 1606.73 334.22 1606.75 299.99 M 1627.08 314.12 C 1626.86 328.39 1626.87 342.66 1627.08 356.93 C 1633.45 359.63 1641.88 361.69 1647.56 356.44 C 1652.58 351.01 1653.20 343.03 1653.15 335.98 C 1652.89 328.92 1651.24 321.02 1645.57 316.27 C 1640.36 312.05 1633.18 313.68 1627.08 314.12 Z" />
<path fill="#8b3830" opacity="1.00" d=" M 1712.35 296.52 C 1723.69 294.00 1736.45 296.81 1744.98 304.93 C 1756.02 315.31 1758.56 331.79 1756.16 346.17 C 1754.24 358.05 1746.92 369.48 1735.69 374.43 C 1728.93 377.67 1721.22 377.86 1713.91 377.06 C 1703.85 375.54 1694.75 369.16 1689.68 360.37 C 1683.32 349.49 1682.42 336.09 1685.11 323.97 C 1688.13 310.69 1698.65 298.94 1712.35 296.52 M 1714.40 314.52 C 1708.45 317.24 1705.80 323.92 1704.84 329.99 C 1704.07 338.17 1704.10 347.12 1708.73 354.26 C 1713.69 361.74 1726.15 361.71 1731.32 354.44 C 1735.44 348.57 1736.49 341.06 1736.20 334.04 C 1735.70 328.21 1734.61 321.93 1730.61 317.39 C 1726.62 312.94 1719.71 312.63 1714.40 314.52 Z" />
<path fill="#8b3830" opacity="1.00" d=" M 1776.30 302.69 C 1795.75 295.46 1817.44 294.10 1837.52 299.46 C 1836.35 305.79 1835.18 312.11 1833.79 318.39 C 1821.75 315.41 1808.99 314.73 1796.88 317.62 C 1796.92 336.85 1796.87 356.09 1796.91 375.33 C 1790.02 375.32 1783.14 375.30 1776.27 375.34 C 1776.28 351.12 1776.22 326.91 1776.30 302.69 Z" />
<path fill="#8b3830" opacity="1.00" d=" M 1440.74 297.53 C 1447.46 297.58 1454.18 297.56 1460.91 297.55 C 1460.92 311.70 1460.81 325.86 1460.95 340.01 C 1461.41 345.66 1461.40 352.17 1465.33 356.68 C 1470.05 360.94 1476.95 359.34 1482.66 358.75 C 1482.71 338.34 1482.66 317.93 1482.68 297.52 C 1489.58 297.58 1496.48 297.58 1503.38 297.52 C 1503.36 322.59 1503.42 347.67 1503.35 372.74 C 1492.76 375.34 1481.95 377.62 1470.99 377.20 C 1462.32 377.28 1452.85 374.75 1447.30 367.65 C 1441.88 360.73 1440.74 351.54 1440.73 343.02 C 1440.74 327.86 1440.73 312.69 1440.74 297.53 Z" />
<path fill="#8b3830" opacity="1.00" d=" M 305.12 311.53 C 304.85 307.47 308.02 303.87 311.99 303.32 C 313.50 303.94 315.34 305.13 314.97 307.05 C 314.16 311.16 308.80 314.94 305.12 311.53 Z" />
<path fill="#8b3830" opacity="1.00" d=" M 324.81 315.73 C 325.74 317.33 328.13 318.82 326.76 320.84 C 324.78 322.78 322.65 320.51 321.16 319.17 C 322.37 318.01 323.58 316.86 324.81 315.73 Z" />
</g>
</svg>
