<svg xmlns="http://www.w3.org/2000/svg" viewBox="0 0 2000 423"><g fill="#a20002"><path d="M133.95 14.93C158.12 5.34 184.09.37 210.07.1c40.66-.34 81.36 11.24 115.59 33.21 30.15 19.21 55.29 46.17 72.33 77.6 24.15 44.05 31.35 96.86 20.64 145.87-5.41 25.01-15.49 48.97-29.5 70.37-22.13 33.92-54.19 61.26-91.21 77.7-23.5 10.6-48.97 16.3-74.63 18.15H201.1c-7.45-.51-14.85-1.44-22.23-2.46-32.94-5.13-64.6-18.23-91.53-37.87-29.29-21.28-53.03-50.17-68.07-83.11C6.83 272.51.34 242.78.1 213.03c-.3-42.33 12.39-84.69 36.24-119.7 23.69-35.13 58.16-62.91 97.61-78.4m48.04 17.96c-28.51 4.6-55.77 16.37-78.88 33.66 39.84 41.95 79.49 84.09 119.28 126.08 42.7 45.3 85.6 90.4 128.22 135.77 13.02-15.82 23.78-33.58 30.93-52.82 15.55-40.77 15.55-87.18-.01-127.95-12.64-33.69-35.7-63.3-65.09-84.03-38.45-27.46-87.91-38.63-134.45-30.71M93.24 78.04c.22 3.19 3.02 6.28 1.02 9.4-1.9-1.77-3.26-3.97-4.13-6.41-1.2.18-2.41.37-3.61.57.88 3.29 2.31 6.92 5.73 8.3 2.76 1.56 6.4-.18 7.44-3.02 1.04-3.4-2.87-6.33-1.6-9.67 2.65-.17 3.26 3.02 4.46 4.75 1.02-.12 2.04-.25 3.06-.37-.4-3.05-1.74-6.2-4.72-7.53-3.04-1.96-7.46.44-7.65 3.98m6.55 20.26c1.22 3.04 4.49 4.11 7.37 4.92l.28-3.6c-2.06-.69-4.83-1.92-4.43-4.59.79-3.13 4.02-6.42 7.5-5.59 1.96.56 2.19 2.9 3.08 4.43 1.17-.19 2.34-.37 3.52-.56-.83-2.67-1.72-5.77-4.53-6.99-6.87-4.18-16.6 4.83-12.79 11.98M80.32 86.68c-23.48 24.94-40.11 56.42-46.5 90.13-8.55 42.97-.77 88.97 21.63 126.66 18.23 30.96 45.83 56.3 78.29 71.72 26.65 12.78 56.46 18.75 85.97 17.43 39.92-1.49 78.96-16.99 109.43-42.75L80.32 86.68m26.78 19.39c1 1.1 1.99 2.2 2.99 3.31 4.29-4.11 8.62-8.17 12.94-12.25-1-1.06-2-2.11-3-3.17-4.24 4.11-8.51 8.19-12.93 12.11m5.65 6.04c2.71 2.85 5.4 5.72 8.09 8.59l2.49-2.76c-1.66-1.69-3.33-3.38-4.99-5.06.9-.9 1.81-1.79 2.72-2.68 1.34 1.48 2.68 2.97 4 4.47l2.79-2.61c-1.39-1.38-2.77-2.75-4.16-4.12.76-.81 1.52-1.62 2.28-2.42 1.62 1.79 3.26 3.57 4.9 5.35.84-.91 1.69-1.82 2.54-2.72-2.64-2.65-5.2-5.37-7.65-8.18-4.33 4.05-8.59 8.19-13.01 12.14m10.23 10.86c.97 1.03 1.94 2.07 2.91 3.11 2.99-2.92 5.87-5.94 8.76-8.97-1.9 4.2-3.4 8.55-5.04 12.85 1.01 1.1 2.01 2.2 3.01 3.32 4.29-4.07 8.56-8.17 12.92-12.16-.91-1.07-1.82-2.13-2.73-3.2-3.03 2.86-5.85 5.93-8.73 8.93 1.81-4.18 3.31-8.48 4.86-12.76-1.01-1.11-2-2.23-2.98-3.36-4.24 4.17-8.62 8.19-12.98 12.24m15.71 16.37c1.15 3.19 4.49 4.5 7.5 5.29.12-.9.35-2.7.46-3.6-2-.8-4.5-1.62-4.76-4.14.63-3 3.16-5.61 6.16-6.25 2.82-.44 3.69 2.64 4.61 4.61 1.18-.19 2.36-.39 3.54-.59-.87-2.74-1.91-5.91-4.83-7.09-6.76-3.66-15.9 4.68-12.68 11.77m7.58 8.28c2.61 2.77 5.22 5.55 7.83 8.34.89-.87 1.77-1.74 2.66-2.6-1.7-1.74-3.38-3.49-5.06-5.23.95-.82 1.91-1.63 2.87-2.45 1.33 1.48 2.67 2.95 4.02 4.43.84-.91 1.68-1.82 2.53-2.73-1.36-1.4-2.71-2.8-4.06-4.19.57-.57 1.72-1.7 2.29-2.26 1.6 1.74 3.19 3.47 4.79 5.21.89-.81 1.77-1.62 2.66-2.44-2.56-2.81-5.19-5.57-7.73-8.41-4.13 4.25-8.62 8.13-12.8 12.33m23.12 5.69c-3.39 1.71-6.37 4.86-6.71 8.79-.24 4.45 3.87 8.54 8.31 8.33 4.16-.55 7.76-3.64 9.26-7.52 2.11-5.89-5.21-12.7-10.86-9.6m16.32 10.34c-4.26 4.09-8.56 8.15-12.86 12.2 1.03 1.06 2.06 2.13 3.09 3.2 1.33-1.39 2.67-2.77 4.01-4.14 1.82 1.53 3.42 3.9 6.01 4.04 4.04.76 8.41-4.28 6.03-8.02-1.64-2.78-4.09-4.95-6.28-7.28m-1.72 24.03c2.74 2.76 5.44 5.58 7.99 8.52.82-.95 1.63-1.89 2.45-2.83-1.62-1.73-3.25-3.45-4.85-5.2.91-.84 1.83-1.68 2.76-2.51 1.3 1.5 2.6 3 3.9 4.51.89-.88 1.78-1.75 2.67-2.62-1.33-1.46-2.66-2.91-3.98-4.37.74-.75 1.47-1.5 2.22-2.24 1.63 1.79 3.27 3.58 4.86 5.41.83-.93 1.66-1.86 2.5-2.79-2.57-2.68-5.14-5.37-7.58-8.16-4.29 4.11-8.65 8.16-12.94 12.28m10.33 10.72c.89 1.04 1.79 2.09 2.69 3.13 3.05-2.83 5.88-5.88 8.66-8.97-1.64 4.25-3.29 8.49-4.8 12.79 1 1.12 2 2.25 3.01 3.38 4.19-4.12 8.48-8.14 12.79-12.12-.9-1.1-1.8-2.2-2.7-3.31-3.08 2.97-6 6.09-8.81 9.32 1.8-4.31 3.37-8.7 5.02-13.07-1.05-1.13-2.08-2.27-3.1-3.41-4.15 4.2-8.54 8.14-12.76 12.26m12.32 13.08l2.73 3.09c3.05-2.75 5.81-5.79 8.72-8.68-1.78 4.12-3.32 8.33-4.84 12.55.97 1.14 1.93 2.28 2.88 3.43 4.31-4.1 8.62-8.2 13.02-12.2-.95-1.03-1.91-2.07-2.86-3.09-3.09 2.87-5.93 5.99-8.83 9.05 1.95-4.22 3.49-8.6 5.06-12.97-1.02-1.09-2.05-2.16-3.08-3.23-4.24 4.05-8.52 8.05-12.8 12.05m12.41 13.28c2.62 2.74 5.22 5.51 7.84 8.26.9-.82 1.81-1.64 2.72-2.46-1.69-1.74-3.37-3.48-5.07-5.21.9-.88 1.81-1.76 2.72-2.64 1.34 1.51 2.67 3.02 4 4.54.86-.91 1.73-1.81 2.6-2.7-1.33-1.42-2.66-2.83-3.99-4.25l2.24-2.28c1.61 1.71 3.21 3.44 4.83 5.15.91-.8 1.81-1.6 2.72-2.39-2.63-2.73-5.25-5.48-7.78-8.31-4.25 4.12-8.68 8.06-12.83 12.29m17.69 6.24c.24 2.69 3 5.64.45 7.95-1.82-1.67-3.01-3.8-3.6-6.19-1.31.17-2.62.34-3.92.51.99 3.45 2.56 7.5 6.37 8.59 2.87 1.11 6.47-.74 6.91-3.86-.06-2.99-1.71-5.67-1.95-8.63 2.81-1.13 3.56 2.58 4.65 4.34.86-.14 2.58-.43 3.44-.57-.92-3.05-2.26-6.42-5.49-7.63-3.4-1.8-8.02 1.73-6.86 5.49m10 9.96c.57 2.77 1.78 5.36 2.55 8.08-3.37.69-4.62-2.55-5.5-5.09-.91.05-2.74.17-3.65.22.85 3.26 2.11 6.87 5.44 8.36 3.02 1.99 7.07-.29 7.87-3.57.04-3.19-2.64-6-1.72-9.27 2.44.42 3.18 2.96 4.27 4.8.82-.1 2.47-.29 3.29-.39-.62-3.18-2.26-6.69-5.64-7.63-3.08-1.25-6.78 1.17-6.91 4.49m14.68 16.95c.11 2.11 2.85 4.85.43 6.35-2.57-.72-3.09-3.43-3.77-5.63-.98.07-2.95.22-3.93.29.8 3.58 2.43 7.36 6.07 8.83 2.95 1.53 6.43-.83 7.21-3.78.24-3.18-2.7-6.12-1.52-9.26 2.42.39 3.13 2.87 4.07 4.74.88-.1 2.64-.32 3.51-.43-.9-3.62-3.19-8.1-7.54-7.9-3.59-.44-5.88 3.7-4.53 6.79m6.01 11.71c-3.85 5.03 3.63 13.14 8.92 9.76 3.9-2.32 6.87-5.83 10.14-8.91-.89-1.01-1.78-2.01-2.67-3.02-3.13 2.64-5.79 5.85-9.16 8.19-2.13 1.65-5.19-1.3-3.79-3.49 2.45-3.43 5.96-5.92 8.85-8.96-.95-1.04-1.91-2.08-2.86-3.12-3.15 3.16-6.85 5.86-9.43 9.55m8.94 15.79c.95 1.05 1.9 2.1 2.86 3.16 1.42-1.3 2.82-2.61 4.25-3.9 1.72 1.49 3.34 3.38 5.68 3.89 3.98.82 8.12-3.6 6.43-7.51-1.35-3.18-4.27-5.32-6.44-7.92-4.09 4.26-8.51 8.2-12.78 12.28m11.14 11.78c.95 1.06 1.9 2.12 2.87 3.18 1.42-1.29 2.82-2.6 4.23-3.91 1.65 1.41 3.14 3.27 5.37 3.79 3.63 1.03 7.75-2.57 7.24-6.28-1.18-3.71-4.48-6.13-6.96-8.95-4.15 4.15-8.49 8.12-12.75 12.17m19.91 3.02c-2.92 1.66-5.48 4.34-6.18 7.72-.74 3.56 1.74 7.11 4.86 8.61 5.82 2.15 12.04-2.89 12.93-8.59.38-5.74-6.34-10.74-11.61-7.74m3.97 22.25c.94 1.08 1.89 2.17 2.83 3.26 1.72-1.64 3.43-3.27 5.2-4.85 1 2.98-.56 5.78-1.58 8.51 1.13 1.25 2.25 2.52 3.38 3.79.73-2.52 1.44-5.05 2.2-7.56 3.65.77 7.53-1.79 7.92-5.57-.9-4.12-4.53-6.72-7.18-9.72-4.18 4.13-8.5 8.11-12.77 12.14m20.64 1.56c1.14 1.14 2.28 2.3 3.41 3.46-3.45 3.21-6.82 6.5-10.39 9.58 1.02 1.1 2.04 2.21 3.05 3.33 3.34-3.32 6.88-6.44 10.17-9.81 1.13 1.17 2.25 2.36 3.38 3.55.9-.82 1.8-1.64 2.7-2.45-3.18-3.37-6.44-6.68-9.5-10.15-.95.83-1.89 1.65-2.82 2.49zM446.19 22.19c2.69-4.35 7.83-6.63 12.84-6.57 26.67-.01 53.35 0 80.03-.01 4.35.09 9.05.95 12.31 4.08 3.62 3.37 4.55 8.58 4.73 13.31-.11 4.57-.93 9.56-4.15 13.05-3.3 3.47-8.27 4.78-12.94 4.72-17.66-.02-35.33 0-52.99-.02-.14 12.84-.02 25.68-.07 38.51 15.03.03 30.06-.05 45.09.03 6.33-.15 12.83 4.05 14.19 10.44 1.63 6.45 1.33 14.13-2.96 19.51-3.43 4.17-9.16 5.02-14.25 5.03-13.98-.03-27.96.04-41.94-.05-.33 16.28.04 32.56-.18 48.84-.04 5.84-2.62 11.99-7.72 15.16-5.08 3.21-11.37 3.3-17.17 2.87-5.81-.33-11.78-3.24-14.56-8.54-2.26-3.76-2.5-8.25-2.61-12.52 0-46.03.01-92.07-.01-138.1.08-3.35.31-6.94 2.36-9.74zM591.28 19.27c2.86-2.69 6.89-3.65 10.72-3.66 26.33.02 52.66.01 78.99 0 4.34.12 9.08.94 12.31 4.12 3.76 3.68 4.76 9.26 4.61 14.32-.13 4.86-1.51 10.22-5.52 13.33-3.22 2.4-7.29 3.43-11.27 3.39-17.5-.03-35 .02-52.51-.03.01 10.81.01 21.62.01 32.43 13.8-.02 27.61-.01 41.42-.01 5.63-.07 11.99 1.67 14.97 6.87 3.09 5.88 3.17 13.06 1.18 19.3-2.04 6.33-8.95 9.63-15.27 9.28-14.1.01-28.21.03-42.31-.02.02 12.4-.01 24.81.02 37.22 16.13-.17 32.26-.02 48.4-.08 5.54 0 11.54-.38 16.54 2.45 5.13 2.94 7.15 9.16 7.18 14.77.2 5.89-1.59 12.69-7 15.86-4.07 2.65-9.12 2.43-13.77 2.47-26.31-.06-52.62.03-78.92-.04-5.53.2-10.93-3.1-13.19-8.15-2.07-4.02-1.57-8.65-1.62-13.01.02-46.05.02-92.1 0-138.15-.16-4.67 1.45-9.53 5.03-12.66zM750.27 16.14c7.4-1.18 16.15-.83 21.85 4.67 4.37 4.14 5.3 10.45 5.33 16.19-.01 44.33-.01 88.67 0 133.01 0 5.96-1.12 12.56-5.87 16.66-5.3 4.75-12.92 4.97-19.63 4.37-6.31-.41-12.64-4.12-14.96-10.19-2.39-5.3-1.75-11.21-1.81-16.85 0-42.68.02-85.36-.01-128.04-.08-4.36.89-8.81 3.2-12.54 2.59-4.11 7.19-6.54 11.9-7.28zM802.42 21.42c1.71-4.16 6.52-5.62 10.65-5.77 5.3-.12 10.61 0 15.93-.05 4.56-.14 9.54 1.17 12.44 4.94 3.09 4.14 4.17 9.32 6.11 14.02 7.65 19.8 14.08 40.05 21.83 59.8 9.25-22.74 17.34-45.98 26.3-68.85 2.6-5.88 8.85-9.8 15.24-9.88 5.01-.04 10.02-.09 15.03.03 4.1.15 8.85 1.63 10.58 5.74 2.08 4.06.24 8.61-1.44 12.46-14.63 31.13-29.23 62.27-43.85 93.4-.74 1.46-1 3.08-.94 4.71.03 12.67.02 25.35.03 38.02-.11 5.87-1.16 12.41-5.76 16.54-5.24 4.83-12.87 5.12-19.58 4.53-5.3-.39-10.69-2.9-13.56-7.51-2.53-4.03-3.24-8.92-3.23-13.6.02-12.67.01-25.34.03-38.01.05-1.75-.37-3.46-1.1-5.03-14.52-31.1-28.93-62.26-43.42-93.38-1.61-3.74-3.29-8.18-1.29-12.11zM990.03 27.1c1.99-6.86 8.91-11.58 15.98-11.48 9 .03 18-.1 27 .06 7.01.23 13.44 5.42 15.15 12.22 14.82 47.83 29.53 95.69 44.37 143.51 1.4 3.97 2.49 8.33 1.31 12.5-1.53 4.48-6.25 7.27-10.87 7.26-5.67.18-11.35.15-17.01.03-5.38-.07-10.55-3.3-13.06-8.03-2.15-4.34-2.75-9.21-4.09-13.81-1.53-6.15-3.25-12.24-4.67-18.41-17.33 0-34.66.01-51.98.07-2.38 9.64-4.8 19.27-7.39 28.85-1.66 6.52-7.99 11.56-14.78 11.36-6.28-.11-12.67.6-18.86-.66-6.51-1.77-9.5-9.53-7-15.56 15.22-49.32 30.59-98.61 45.9-147.91m27.85 19.2c-1.6 5.46-2.41 11.11-3.91 16.6-4.13 18.62-9.2 37.01-13.62 55.56 11.94-.09 23.89-.05 35.83-.02-5.59-21.25-10.92-42.56-15.82-63.98-.64-2.77-1.31-5.56-2.48-8.16zM1122.59 18.68c4.88-3.97 11.55-2.97 17.39-3.07 5.35.18 10.93-.68 16.07 1.23 4.19 1.49 7.35 5.01 9.32 8.9 10.79 20.81 21.61 41.61 32.41 62.42 8.55 15.7 14.93 32.44 22.51 48.6.55.98 1.17 1.93 1.86 2.84-2.49-24.81-6.25-49.61-5.83-74.61.05-10.31-.09-20.61.06-30.91.2-6.25 2.72-13.11 8.61-16.08 5.91-2.85 12.92-3 19.22-1.46 5.11 1.14 9.52 5.08 11.07 10.1 1.81 5.25 1.35 10.86 1.4 16.31 0 44.02-.01 88.04.01 132.06.15 5.15-1.69 10.68-6.1 13.69-4.47 3.4-10.39 2.42-15.62 2.57-5.33-.16-10.7.4-15.98-.44-4.6-.93-8.21-4.5-10.15-8.64-12.77-24.95-25.59-49.88-38.34-74.84-4.72-10.26-9.2-20.64-13.79-30.96-1.47-3.16-2.54-6.56-4.76-9.3.81 12.69 2.96 25.24 3.71 37.94 2.49 21.25 1.32 42.66 1.62 64 .19 6.45-.83 13.84-6.13 18.19-5.01 4.21-11.97 4.36-18.16 3.85-5.8-.33-11.52-3.62-13.99-8.99-2.63-6-2.07-12.69-2.11-19.07.01-43.68 0-87.36.01-131.04-.07-4.95 1.51-10.27 5.69-13.29zM1295.08 15.93c5.13.15 10.27.17 15.4 0 .02 129.3.05 258.6-.01 387.9-5.13-.15-10.26-.11-15.38-.05-.09-129.28-.1-258.57-.01-387.85zM1543.4 17.42c6.68-2.37 14.99 1.59 16.77 8.58.68 4.07.63 8.75-2.19 12.05-4.54 5.87-14.1 6.49-19.41 1.35-6.53-6.28-4.27-19.35 4.83-21.98zM1377.27 27.12c14.12-3.77 29.47-1.67 42.42 4.98-1.9 5.35-3.97 10.64-6.05 15.91-9.07-5.22-20.37-7.43-30.47-4.09-6.91 2.32-8.77 12.58-3.2 17.21 6.43 5.79 15.32 7.27 22.95 10.9 9.46 3.55 18.01 11.04 20.47 21.13 1.38 7.66 1.41 16.03-2.15 23.13-3.65 7.56-11.34 12.34-19.31 14.18-10.69 2.31-21.86 2.17-32.53-.13-5.07-1.39-9.87-3.58-14.59-5.86 1.8-5.66 4.05-11.16 5.89-16.81 10.4 6.24 23.28 9.41 35.16 5.98 7.16-1.97 10.68-11.79 6.02-17.68-4.35-5.49-11.25-7.87-17.52-10.43-8.21-3.08-17.08-6.16-22.69-13.3-6.22-7.47-6.54-18.18-3.78-27.12 2.62-8.96 10.61-15.46 19.38-18zM1444.56 67.54c6.02-9.32 16.63-14.86 27.4-16.54 11.66-1.38 23.82-.95 34.83 3.49-1.73 5.41-2.99 10.95-4.63 16.39-9.7-3.19-20.49-4.47-30.29-.99-5.52 1.86-10.19 6.36-11.69 12.06-2.31 7.87-1.91 17.11 3 23.94 3.55 4.97 9.79 7.2 15.66 7.74 8.76.51 17.79.51 26.16-2.48 1.07 5.58 1.88 11.22 2.96 16.8-10.2 3.7-21.29 4.25-32.01 3.45-10.79-.8-21.83-4.96-29.01-13.31-4.52-5.1-6.91-11.7-8.17-18.31-1.47-10.96-.45-22.8 5.79-32.24zM1606.41 69.54c5.25-10.47 16-18.06 27.73-19.02 8.35-.67 17.27.26 24.42 4.96 6.25 3.97 10.42 10.6 12.43 17.63 2.5 7.94 2.3 16.4 1.82 24.61-16.9-.09-33.8-.03-50.7-.03.44 5.65 3.6 10.97 8.88 13.32 10.95 5.33 23.75 2.62 34.85-.89 1.07 5.82 2.06 11.65 2.75 17.53-9.9 3.1-20.33 4.88-30.72 3.8-8.46-.65-16.96-3.25-23.62-8.64-7.73-6.24-12.08-16.05-12.64-25.86-.69-9.33.18-19.09 4.8-27.41m22.04 1.07c-3.95 3.17-5.19 8.32-6.27 13.01 10.43.01 20.86-.05 31.29.04.15-6.49-3.18-13.43-9.62-15.63-5.14-1.2-11.25-1.14-15.4 2.58zM1689.39 54.63c10.64-2.67 21.57-4.4 32.58-3.95 8.7-.2 18.12 2.69 23.53 9.89 5.37 7.26 6.19 16.63 6.34 25.37-.01 14.71.03 29.42-.02 44.13-6.79-.05-13.58-.24-20.36 0-.09-15.37.07-30.75-.08-46.12-.3-4.55-.84-9.73-4.17-13.16-4.99-3.95-11.79-2.3-17.59-1.9-.02 20.4.02 40.79-.02 61.19-6.74-.12-13.47-.23-20.2-.01-.04-25.15-.02-50.29-.01-75.44zM1774.26 69.22c5.84-10.32 17.13-16.57 28.64-18.25 11.55-1.34 23.59-.9 34.51 3.48-1.42 5.5-3.13 10.92-4.38 16.45-10.17-3.32-21.59-4.63-31.72-.52-5.99 2.42-10.21 8.16-11.21 14.48-.93 6.75-.83 14.17 3.1 20.04 3.71 5.96 10.98 8.52 17.71 8.83 8.33.32 16.94.37 24.84-2.68.83 5.66 1.92 11.27 3.07 16.87-10.17 3.68-21.21 4.28-31.92 3.5-9.21-.66-18.46-3.68-25.58-9.69-5.88-4.97-9.81-12.05-11.27-19.57-2.45-10.99-1.35-23.04 4.21-32.94zM1857.57 64.54c5.91-8.11 15.46-13.53 25.53-14.1 8.27-.53 17.07.57 24.04 5.41 5.73 3.79 9.55 9.88 11.64 16.34 2.48 8.24 2.89 16.95 2.22 25.49-16.91-.01-33.81 0-50.71-.01-.02 10.17 10.57 16.18 19.7 16.14 8.26.74 16.32-1.27 24.11-3.77.61 5.85 1.67 11.64 2.82 17.41-10.69 3.66-22.16 5.25-33.39 3.73-8.84-.97-17.67-4.45-23.98-10.86-5.36-5.47-8.52-12.78-9.56-20.31-1.82-12.16.11-25.42 7.58-35.47m22.74 3.75c-6.29 2.37-9.1 9.17-10.02 15.35 10.48-.05 20.96-.01 31.45-.02-.6-4.46-1.45-9.3-4.91-12.5-4.27-4.31-11.07-4.49-16.52-2.83z"/><path d="M189.75 59.74c10.89-9.06 27.45-10.12 39.68-3.18 6.72 3.71 11.16 10.16 16.4 15.57 3.51 3.6 6.35 9.02 12.12 8.89 7.13-.18 14.25-1.57 21.16-3.37 11.06-1.48 22.64 2.84 30.35 10.86 6.55 6.77 10.15 16.11 10.45 25.48.58 6.07-.09 13.54 5.53 17.54 8.19 4.73 18.07 6.41 25.38 12.72 12.41 9.79 17.3 28.09 10.77 42.6-3.22 6.78-7.5 12.99-11.09 19.57-1.67 2.84-1.86 6.53-.39 9.48 3.53 6.76 8.01 13.01 11.2 19.95 6.33 14.32 2.18 32.42-9.78 42.54-6.18 5.59-14.48 7.54-21.81 11.09-5.9-6.24-11.74-12.53-17.75-18.67 6.22-3.38 13.01-5.52 19.4-8.54 5.74-2.89 8.28-10.43 5.39-16.19-2.96-5.55-6.47-10.8-9.41-16.37-5.38-10.8-5.24-24.25.51-34.89 2.94-5.31 6.22-10.43 9.14-15.76 2.96-5.1 1.01-12.96-4.6-15.37-5.77-2.76-11.85-4.81-17.64-7.52-7.86-3.76-14.28-10.56-17.32-18.74-3.22-7.73-1.88-16.34-3.83-24.35-1.49-5.85-7.79-9.93-13.74-9.08-6.34.88-12.62 2.21-18.88 3.52-10.79 1.08-21.5-3.85-29.09-11.32-4.62-4.78-9-9.79-13.44-14.73-2.73-3.06-7.42-3.37-11.14-2.28-4.55 1.34-7.12 5.65-10.28 8.84-4.93 5.08-9.06 11.17-15.33 14.73-7.49 4.34-16.76 6.3-25.15 3.56-8.69-9.25-17.43-18.44-26.17-27.65 4.21-.94 8.6-1.8 12.89-.92 5.95 1.31 12 2.09 18.01 3.08 4 .75 8.47-.21 11.45-3.09 5.87-5.8 10.85-12.49 17.01-18zM1519.47 52.17c13.96.16 27.93.13 41.9.02.04 16.29-.01 32.57.02 48.86.05 4.63 1.25 10.39 6.11 12.24 6.99 1.67 14.29-.13 20.7-3.07.97 5.47 1.63 10.98 2.61 16.45-9.83 4.65-21.21 6.4-31.88 3.95-6.62-1.55-12.32-6.42-14.83-12.75-3.92-9.82-3.15-20.58-3.21-30.93-.01-5.94.02-11.89-.02-17.83-7.13.1-14.27 0-21.39.08-.07-5.68-.07-11.35-.01-17.02z"/><path d="M174.63 125.38c11.47-2 23.64-.41 34 5 12.61 6.41 22.38 18.15 26.37 31.72 2.98 9.09 2.65 18.89 1.05 28.2-20.56-21.56-40.98-43.25-61.42-64.92zM102.82 126.64c5.65 6.12 11.42 12.12 17.1 18.21-3.36 3.98-6.97 7.93-11.63 10.41-5.64 2.99-11.74 4.98-17.55 7.59-5.51 2.54-9.04 9.27-6.76 15.15 4.22 9.15 11.37 17.04 13.3 27.18 1.13 7.83.81 16.13-2.69 23.37-3.26 6.6-7.54 12.64-10.88 19.19-1.48 4.56-.48 10.87 4.06 13.39 8.34 4.6 18.15 6.45 25.68 12.5 6.11 4.95 10.54 12.02 12 19.77 1.2 5.52 1.11 11.19 1.74 16.78.69 6.19 6.4 11.67 12.77 11.28 7.1-.32 14-2.33 20.98-3.55 10.68-.82 21.16 4.1 28.66 11.5 4.26 4.39 8.27 9.02 12.36 13.57 3.72 4.86 11.64 5.07 16.1 1.15 7.24-6.77 12.67-15.56 21.35-20.7 6.92-4.26 15.5-6.93 23.57-4.7 7.83.76 15.55 3.75 23.48 2.28 5.82 6.13 11.62 12.28 17.47 18.38-6.91 4.26-15.16 7.3-23.37 5.95-6.1-1.26-12.25-2.23-18.41-3.09-3.85-.63-8.05.3-10.95 2.99-5.73 5.57-10.56 12.02-16.39 17.48-13.03 11.56-34.9 11.06-47.23-1.31-5.39-5.6-10.44-11.52-15.72-17.22-4.9-3.68-11.41-1.62-16.95-.96-4.72.37-9.11 2.6-13.88 2.46-14.05.42-27.75-8.32-33.52-21.11-3.9-7.99-3.45-17.1-4.67-25.7-.49-4.19-3.87-7.62-7.71-9.06-7.9-3.58-16.69-5.84-23.19-11.87-11.29-9.66-15.86-26.55-10.29-40.44 3.19-7.43 8.07-13.97 11.76-21.14 1.5-2.85 1.65-6.33.2-9.22-4.16-8.58-10.74-16.09-12.98-25.52-3.4-13.06 1.17-27.82 11.36-36.67 7.32-6.64 17.36-8.58 25.94-13.01 2.13-1.24 3.44-3.4 4.89-5.31zM1382.46 148.62c7.01-1.42 14.4-.63 21.09 1.89 8.47 3.38 14.69 10.92 17.9 19.3 5.46 13.67 5.32 28.71 4.55 43.18-1.1 9.99-3.37 20.28-9.32 28.59-4.86 6.95-12.69 11.82-21.14 12.78-7.8.95-16.13.31-23.07-3.63-7.4-4-12.49-11.27-15.3-19.04-4.84-12.97-4.84-27.05-4.18-40.69 1.09-10.99 3.59-22.47 10.73-31.24 4.61-5.85 11.4-9.85 18.74-11.14m1.93 18.02c-2.94.97-5.06 3.49-6.55 6.09-3.22 5.87-3.71 12.69-4.23 19.23-.47 10.36-.5 20.86 1.55 31.07 1.32 5.52 4.2 11.6 9.99 13.52 3.87.65 8.42.97 11.75-1.57 4.2-2.95 6.16-8.06 7.21-12.91 1.97-10.58 1.88-21.43 1.24-32.14-.64-6.75-1.35-14.02-5.67-19.55-3.41-4.68-10.12-5.63-15.29-3.74zM171.27 157.2c1.5-.59 3.89-.76 4.62 1.05 1.52 2.31-.39 4.99-2.24 6.42-1.59 1.35-4.38 2.84-5.94.65-2.78-2.9.97-6.63 3.56-8.12z"/><path d="M134.07 195.74c-4.36-11.53-4.08-24.51-.12-36.11 21.72 23.11 43.64 46.04 65.3 69.2-11.03 2.86-23 2.91-33.68-1.35-14.43-5.36-26.22-17.29-31.5-31.74zM182.38 172.99c1.29-1.4 2.61-2.78 3.92-4.17.93 1.46 1.86 2.92 2.76 4.41-.98.72-1.99 1.38-3.03 1.99-1.29-.62-2.46-1.46-3.65-2.23zM1529.22 184.36c6.27-6.98 15.45-11.04 24.8-11.35 7.96-.17 16.4 1.12 22.97 5.96 6.73 4.8 10.66 12.6 12.29 20.55 1.23 6.88 1.38 13.9.91 20.86-16.91.01-33.83-.01-50.74.02.49 5.06 2.84 10.12 7.51 12.58 11.13 6.51 24.72 3.61 36.24-.23 1.09 5.8 1.82 11.67 2.8 17.5-8.08 2.62-16.47 4.44-25 4.15-11.07.14-22.78-2.62-31.08-10.32-7.93-7.34-11.49-18.46-11.2-29.08-.49-11.03 3.06-22.38 10.5-30.64m15.3 10.15c-3.06 3.2-4.02 7.65-4.96 11.83 10.43-.04 20.86 0 31.3-.02-.18-5.97-2.61-12.42-8.39-15.01-5.88-2.21-13.55-1.74-17.95 3.2zM1775.89 185.97c6.05-7.59 15.37-12.34 25.06-12.88 8.31-.41 17.2.84 24.08 5.88 6.52 4.61 10.46 12.11 12.07 19.8 1.71 7.08 1.73 14.41 1.25 21.63-16.98-.03-33.96-.02-50.94 0 .52 5.32 3.28 10.56 8.24 12.96 11.11 6.04 24.35 3.11 35.72-.64.55 5.9 1.99 11.66 2.69 17.54-8.11 2.59-16.5 4.45-25.06 4.14-10.84.12-22.28-2.48-30.53-9.87-5.97-5.3-9.78-12.82-10.95-20.68-2.25-13-.14-27.42 8.37-37.88m20.76 5.49c-5.81 2.63-7.93 9.12-9.19 14.87 10.53-.03 21.06.02 31.59-.02-.53-4.21-1.31-8.77-4.41-11.92-4.41-4.99-12.16-5.27-17.99-2.93zM1862.5 180.6c6.66-5.87 15.86-7.37 24.46-7.61 9.16-.07 18.47.9 27.06 4.32-1.23 5.75-2.14 11.57-3.14 17.37-9.88-3.45-20.54-6.22-30.98-3.65-2.64.95-5.66 3.71-4.21 6.77 2.92 4.43 8.42 5.86 13.13 7.59 7.7 2.78 16.1 4.82 22.26 10.53 9.4 8.4 8.29 25.95-2.65 32.56-9.9 6.18-22.1 6.31-33.37 5.65-7.68-.31-14.77-3.52-21.9-6.02.88-5.77 2.32-11.43 3.13-17.2 5.75 2.21 11.57 4.34 17.62 5.64 5.92.88 11.97.78 17.91.03 2.38-.43 5.65-1.71 5.57-4.6.29-2.82-2.05-4.95-4.32-6.12-10.08-4.92-22.13-5.74-30.96-13.13-9.75-7.79-8.92-24.33.39-32.13zM1943.92 181.82c5.22-5.35 12.7-7.78 20-8.44 11.01-.95 22.34-.07 32.74 3.85-1.17 5.82-2.01 11.71-3.23 17.52-9.75-3.65-20.41-6.23-30.76-3.73-2.41.81-5.06 2.97-4.45 5.8.43 2.77 3.25 4.19 5.46 5.46 9.15 4.44 19.73 5.82 28.07 11.94 5.12 3.69 8.47 9.81 8.25 16.2v2.66c-.34 4.39-1.85 8.83-4.93 12.07-4.5 4.82-11.03 7.03-17.33 8.33-6.85 1.04-13.83 1.15-20.72.6-7.37-.46-14.19-3.51-21.06-5.94.81-5.76 2.06-11.43 3.05-17.16 4.23 1.54 8.46 3.11 12.8 4.38 6.85 2.17 14.19 2.06 21.28 1.42 2.69-.26 5.95-1.15 6.96-4 .63-3.19-2-5.91-4.69-7.12-8.42-3.97-17.92-5.23-26.08-9.81-4.91-2.79-9.4-7.12-10.72-12.78-1.82-7.35-.14-15.84 5.36-21.25zM1441.24 177.29c10.96-2.97 22.38-4.31 33.74-3.82 8.93.35 17.99 3.84 23.91 10.74 7.65 8.57 9.89 20.59 9.61 31.76-.44 9.13-2.12 18.59-7.24 26.35-3.41 5.25-8.71 9.2-14.69 11.02-8.31 2.14-17.23 1.03-24.93-2.66.06 9.8.04 19.6.02 29.4-6.81-.17-13.62-.2-20.42-.01-.04-34.26-.05-68.52 0-102.78m20.45 13.9c-.04 14.29.01 28.59-.02 42.88 6.32 3.03 15.19 4.88 20.74-.59 4.97-5.49 5.29-13.41 5.24-20.43-.14-6.95-1.78-14.67-7.29-19.4-5.24-4.38-12.46-2.67-18.67-2.46zM1606.77 177.22c12.47-2.83 25.34-4.84 38.15-3.42 7.55.75 15.16 4.59 19.09 11.29 4.07 6.52 4.8 14.4 5.19 21.89.03 15.23-.01 30.45.01 45.67-6.82-.05-13.65-.07-20.46.02-.05-14.24.04-28.48-.05-42.71-.2-5.45-.08-11.54-3.67-16.01-4.84-4.54-12.01-2.84-17.94-2.39-.24 20.36-.02 40.72-.15 61.09-6.74-.04-13.47-.07-20.19.02 0-25.15-.05-50.3.02-75.45zM1689.41 177.25c12.59-2.9 25.62-4.91 38.55-3.4 7.48.79 14.9 4.73 18.8 11.33 4.34 7.11 4.95 15.69 5.08 23.82 0 14.55.01 29.1-.01 43.65-6.79-.04-13.58-.09-20.37.04-.09-15.22.06-30.44-.07-45.66-.26-4.6-.77-9.75-3.96-13.33-4.93-4.28-11.93-2.54-17.82-2.13 0 20.37.03 40.74-.01 61.11-6.74-.1-13.47-.1-20.2 0-.02-25.14-.05-50.29.01-75.43zM258.38 214.02c4.52-3.41 9.85-6.13 15.62-6.19 11.38-.5 22.44 8.11 24.46 19.37 1.82 8.02-1.16 16.28-6.5 22.3-11.23-11.79-22.37-23.67-33.58-35.48zM642.85 232.75c4.36-3.88 10.5-4.82 16.14-4.73 5.5.08 11.47 1.4 15.37 5.56 3.61 3.86 4.89 9.28 4.84 14.44.05 15.63-.05 31.26.05 46.9 19.33-.13 38.67-.11 58-.01.04-15.99-.02-31.98.03-47.97-.08-5.36 1.83-11.01 6.01-14.53 4.05-3.43 9.56-4.33 14.7-4.46 5.39.05 11.2 1.07 15.34 4.79 4.14 3.83 5.71 9.73 5.57 15.23-.01 45.35-.01 90.71 0 136.06.09 5.5-1.53 11.4-5.78 15.14-4.14 3.57-9.8 4.78-15.15 4.54-4.88.19-9.9-.9-13.92-3.77-4.6-3.37-6.8-9.27-6.76-14.85-.07-17.87 0-35.75-.03-53.62-19.35.06-38.7.04-58.05 0 0 17.2 0 34.39.01 51.59.04 4.94-.83 10.13-4.01 14.1-4.01 5.12-10.94 6.83-17.19 6.55-6.01.21-12.57-1.48-16.61-6.2-3.12-3.73-4.34-8.67-4.24-13.46-.02-45.37-.01-90.75-.01-136.13-.18-5.52 1.48-11.38 5.69-15.17zM830.26 233.18c3.02-3.8 8.03-5.36 12.75-5.15 23.65.06 47.3-.05 70.96-.02 5.23-.04 10.69-.51 15.67 1.51 4.7 1.77 7.81 6.52 8.28 11.44.75 5.88.59 12.64-3.51 17.35-3.58 3.99-9.29 4.96-14.39 4.92-16.93-.08-33.86.08-50.78-.09-.07 10.8-.01 21.59-.03 32.38 13.62-.05 27.23 0 40.85-.03 5.33-.02 11.32 1.3 14.64 5.83 3.35 4.52 3.48 10.41 3.05 15.79-.46 4.89-3.04 9.93-7.67 12.04-3.39 1.84-7.33 2.09-11.1 2.03-13.25-.09-26.49.08-39.73-.1-.09 12.36-.02 24.72-.04 37.09 18.27-.01 36.55-.04 54.82.01 5.83 0 12.41 2.19 15.06 7.82 2.61 5.8 2.54 12.65.58 18.65-2.13 5.89-8.58 9.12-14.59 9.01-27.7.04-55.4-.01-83.1.03-4.9.31-9.75-2.19-12.54-6.18-2.23-3.02-2.6-6.93-2.67-10.55.04-47.66.01-95.32.02-142.98.08-3.81.84-7.88 3.47-10.8zM981.08 233.08c4.5-4.24 11.03-5.22 16.97-5.05 5.47.14 11.38 1.55 15.13 5.82 4.2 4.61 4.86 11.2 4.79 17.16.07 39.05-.12 78.1.06 117.15 17.01 0 34.02-.02 51.03.01 5.53.05 11.79 1.85 14.66 7 3.57 6.79 3.51 15.53-.35 22.17-2.86 4.3-8.23 6.37-13.25 6.33-25.06.03-50.11-.02-75.17.02-3.98-.04-8.27.44-11.81-1.78-5.09-2.58-7.7-8.36-7.53-13.89.01-46.35.02-92.69 0-139.04.09-5.64 1.17-11.86 5.47-15.9zM1120.31 234.27c3.25-4.71 9.21-6.52 14.71-6.33 17.32.22 34.64.02 51.97.14 17.84.52 36.54 3.74 51.21 14.59 9.81 7.46 15.94 19.12 17.61 31.22 2.88 17.36-.71 36.66-13.13 49.73-10.91 12.7-27.43 18.81-43.66 20.83-12.23 1.78-24.62.81-36.93 1.04.04 10.51-.01 21.03.03 31.55.11 6.8.11 14.28-4.24 19.94-4.24 5.21-11.39 6.95-17.85 6.73-6.75.28-14.31-1.53-18.6-7.14-3.03-3.83-3.74-8.83-3.81-13.56-.02-44.99.02-89.98-.02-134.98-.01-4.65-.33-9.87 2.71-13.76m41.79 27.15c.01 16.9 0 33.79.01 50.69 8.99-.14 18 .33 26.98-.37 8.33-.94 17.24-4.7 21.2-12.56 3.79-8.01 4.35-17.86.44-25.94-2.6-5.36-8.26-8.37-13.79-9.85-11.38-3.02-23.23-1.62-34.84-1.97zM185.47 256.73c9.4-2.77 20.14 3.69 22.27 13.19 1.56 6.28-.34 13.34-5.18 17.7-5.43 5.27-14.31 6.49-20.92 2.81-5.38-2.73-9.03-8.34-9.62-14.32-1-8.64 5.09-17.18 13.45-19.38zM1369.2 276.19c7.07-4.35 15.59-5.76 23.79-5.53 9.32.01 18.44 2.8 26.7 6.97-1.95 5.26-3.96 10.5-6 15.73-7.24-3.78-15.38-6.37-23.63-5.57-4.36.43-9.31 1.64-11.83 5.56-2.27 4.01-2.17 9.73 1.46 12.94 5.68 5.5 13.74 7.01 20.74 10.15 7.75 2.86 15.38 7.32 19.72 14.59 4.01 6.17 4.55 13.85 3.83 20.99-.63 8.51-5.73 16.62-13.35 20.57-9.62 5.24-20.94 5.13-31.57 4.65-8.58-.28-16.73-3.5-24.25-7.41 1.87-5.65 4.1-11.17 5.9-16.84 6.99 4.23 14.95 7.42 23.25 7.34 4.75.06 9.86.29 14.1-2.25 6.58-3.34 8.08-13.59 2.3-18.42-10.8-9.72-27.43-9.59-37.42-20.54-6.8-6.87-7.92-17.48-5.63-26.5 1.48-6.81 5.95-12.82 11.89-16.43zM1868.08 278.08c6.75-.86 13.42-2.3 20.19-3.15-.02 7.56-.03 15.12.01 22.68 10.87-.12 21.75-.01 32.63-.06-.03 5.65-.03 11.31-.01 16.97-10.87-.06-21.74.04-32.61-.07-.07 10.19-.01 20.38-.04 30.57-.04 3.61.25 7.39 2.12 10.58 1.56 2.66 4.77 3.71 7.71 3.85 7.3.41 14.83-.73 21.34-4.22 1.07 5.91 2.19 11.81 2.9 17.78-10.62 3.95-22.18 4.94-33.4 3.76-6.4-.71-13.17-3.33-16.55-9.15-4.58-7.34-4.39-16.25-4.41-24.57.01-9.53.25-19.05-.04-28.57-5.88.05-11.75-.03-17.61.08-.09-5.68-.06-11.36-.03-17.04 5.92.06 11.85.04 17.79.03-.04-6.49-.26-12.98.01-19.47zM289.81 278.64c.92 1.26 1.83 2.52 2.73 3.8-1.21.78-2.35 3.48-3.97 2-.96-.67-1.89-1.38-2.8-2.11 1.35-1.23 2.69-2.46 4.04-3.69zM530.43 289.6c7.86-2.28 16.96-.62 23.11 4.91 10.6 8.76 12.09 26.04 3.76 36.81-4.48 5.95-11.79 9.97-19.35 9.63-7.36.55-14.61-2.99-19.27-8.59-8.7-10.11-8.2-26.91 1.24-36.38 2.88-2.97 6.46-5.36 10.51-6.38zM296.95 294.11c1.39-1.27 2.78-2.53 4.17-3.8.6 1.44 2.35 2.77 1.88 4.45-.5.59-1.51 1.77-2.01 2.35-1.37-.98-2.71-1.98-4.04-3zM1523.9 300.03c10.76-2.93 21.98-4.25 33.13-3.9 9.01.35 18.26 3.6 24.31 10.54 7.71 8.4 9.97 20.26 9.86 31.32-.44 9.57-2.05 19.57-7.63 27.6-4.36 6.48-11.74 10.72-19.48 11.48-6.83.83-13.59-.93-19.81-3.63.09 9.74.02 19.49.03 29.23-6.81-.1-13.62-.04-20.42-.04.01-34.2-.01-68.4.01-102.6m20.43 14.08c-.02 14.26-.02 28.51 0 42.76 6.09 2.6 13.92 4.68 19.7.28 5.42-4.67 6.28-12.47 6.31-19.19.2-7.53-1.18-15.97-6.96-21.3-5.22-4.68-12.74-3-19.05-2.55zM1606.75 299.99c9.51-2.64 19.38-3.81 29.24-3.95 8.2-.07 16.78 1.5 23.49 6.5 8.6 6.37 13.21 16.97 14 27.45.85 10.46.03 21.42-4.55 31.01-3.1 6.55-8.57 12.14-15.51 14.51-8.65 3.28-18.26 1.57-26.51-2.05.07 9.73.08 19.46.01 29.19-6.73-.04-13.45-.07-20.17.02-.02-34.23-.02-68.45 0-102.68m20.19 14.19c.12 14.25-.17 28.51.14 42.76 6.35 2.67 14.72 4.73 20.41-.43 5.31-5.69 5.79-14.14 5.63-21.53-.43-7.32-2.5-15.79-9.21-19.85-5.24-2.75-11.38-1.43-16.97-.95zM1712.42 296.5c11.57-2.55 24.61.47 33.11 8.96 11.08 10.94 13.2 27.98 10.27 42.67-2.42 11.42-9.89 22.18-20.93 26.65-6.52 2.95-13.89 3.02-20.87 2.29-9.84-1.46-18.78-7.57-23.93-16.04-6.56-10.7-7.64-24.03-5.17-36.14 2.76-13.67 13.46-25.93 27.52-28.39m2.01 18c-6.28 2.89-8.92 10.07-9.72 16.48-.59 8.1-.45 17 4.45 23.88 5.41 7.13 17.83 6.56 22.6-1.04 4.58-7.33 5.25-16.54 3.82-24.9-1.03-5.43-3.13-11.43-8.36-14.12-4-1.77-8.72-1.77-12.79-.3zM1776.3 302.69c19.45-7.24 41.13-8.58 61.22-3.24-1.17 6.33-2.33 12.66-3.73 18.94-12.03-2.97-24.8-3.67-36.91-.77.04 19.24-.02 38.48.03 57.71-6.89-.01-13.77-.03-20.64.01.01-24.21-.05-48.43.03-72.65zM1440.74 297.53c6.72.05 13.44.02 20.17.02.01 14.15-.1 28.3.04 42.45.46 5.66.45 12.17 4.38 16.69 4.73 4.25 11.61 2.65 17.32 2.06.06-20.41.01-40.82.03-61.23 6.9.06 13.8.06 20.7 0-.02 25.07.04 50.14-.03 75.22-10.56 2.6-21.35 4.87-32.3 4.46-8.47.08-17.69-2.29-23.32-9.03-5.57-6.66-6.89-15.74-6.99-24.15-.01-15.5 0-31 0-46.49zM305.13 311.55c-.29-4.07 2.88-7.65 6.85-8.24 1.49.64 3.34 1.79 3 3.7-.8 4.13-6.15 7.93-9.85 4.54zM324.85 315.71c1.03 1.6 3.72 3.86 1.36 5.54-2.01 1.24-3.62-.99-5.06-2.07 1.22-1.17 2.45-2.33 3.7-3.47z"/></g></svg>