<svg xmlns="http://www.w3.org/2000/svg" viewBox="0 0 2266 467">
    <g fill="#ccc">
        <path d=" M 227.29 0.00 L 239.09 0.00 C 278.06 1.12 316.77 11.78 350.45 31.49 C 402.62 61.58 442.27 112.61 458.21 170.73 C 471.54 218.60 469.15 270.73 451.24 317.10 C 438.56 350.15 418.18 380.19 392.25 404.28 C 355.20 438.91 306.57 460.92 256.05 465.61 C 242.40 467.11 228.60 467.44 214.94 466.00 C 183.56 463.55 152.69 454.69 124.85 440.00 C 94.89 424.25 68.45 401.88 47.91 374.99 C 27.00 347.69 12.23 315.71 5.13 282.06 C 2.09 268.10 0.66 253.86 0.00 239.61 L 0.00 227.79 C 0.86 201.10 5.86 174.49 15.54 149.57 C 34.67 99.51 71.74 56.62 118.39 30.28 C 151.47 11.39 189.25 1.18 227.29 0.00 M 113.59 73.28 C 204.52 169.55 295.43 265.84 386.37 362.09 C 417.70 325.14 434.75 276.49 433.24 228.06 C 432.41 193.99 422.65 160.19 405.11 130.96 C 385.51 98.06 356.25 71.00 321.89 54.06 C 288.10 37.25 249.46 30.52 211.95 34.58 C 176.46 38.28 142.12 51.87 113.59 73.28 M 102.90 85.00 C 101.97 88.44 105.29 91.41 104.75 94.73 C 101.67 96.71 100.02 91.68 99.66 89.40 C 98.26 89.51 96.86 89.62 95.47 89.73 C 95.87 94.33 99.02 99.33 104.00 99.69 C 107.84 100.00 111.20 95.69 109.48 92.09 C 109.11 89.86 106.56 87.43 108.24 85.30 C 110.95 85.02 111.86 88.13 112.48 90.17 C 113.41 90.08 115.27 89.92 116.21 89.83 C 116.01 86.01 113.68 82.13 109.83 81.11 C 106.95 80.20 103.54 82.01 102.90 85.00 M 109.05 102.94 C 107.97 108.22 112.60 113.50 117.94 113.39 C 118.05 112.46 118.29 110.58 118.41 109.65 C 116.02 109.27 113.23 107.81 113.42 104.99 C 114.03 101.28 117.98 97.64 121.88 98.72 C 123.85 99.35 124.38 101.47 124.79 103.24 C 125.75 103.16 127.69 103.00 128.66 102.91 C 128.42 99.73 126.93 96.53 123.95 95.07 C 117.96 91.72 110.35 96.70 109.05 102.94 M 88.48 95.59 C 57.25 128.30 37.60 171.84 34.10 216.97 C 31.06 253.64 38.31 291.14 55.08 323.92 C 72.83 358.92 101.14 388.43 135.34 407.65 C 165.56 424.77 200.34 433.65 235.06 433.31 C 281.42 433.11 327.41 415.99 362.65 385.89 C 271.27 289.11 179.88 192.35 88.48 95.59 M 118.01 117.01 C 119.09 118.16 120.17 119.32 121.26 120.47 C 125.98 116.01 130.72 111.56 135.44 107.10 C 134.35 105.95 133.27 104.80 132.18 103.64 C 127.45 108.10 122.73 112.55 118.01 117.01 M 124.25 123.64 C 127.15 126.71 130.05 129.79 132.94 132.87 C 133.91 131.95 134.88 131.03 135.85 130.12 C 134.04 128.20 132.23 126.28 130.41 124.37 C 131.39 123.45 132.37 122.53 133.36 121.61 C 134.83 123.17 136.31 124.74 137.80 126.30 C 138.77 125.40 139.74 124.50 140.72 123.61 C 139.24 122.02 137.75 120.44 136.26 118.86 C 137.11 118.05 137.95 117.25 138.80 116.45 C 140.55 118.30 142.30 120.15 144.04 122.01 C 145.00 121.10 145.96 120.19 146.92 119.28 C 144.10 116.28 141.26 113.28 138.43 110.27 C 133.70 114.73 128.99 119.19 124.25 123.64 M 135.50 135.59 C 136.54 136.67 137.58 137.76 138.62 138.85 C 142.00 135.76 145.31 132.59 148.17 129.00 C 146.14 133.68 144.57 138.54 142.83 143.32 C 143.93 144.50 145.03 145.67 146.13 146.85 C 150.85 142.39 155.58 137.93 160.31 133.47 C 159.27 132.38 158.24 131.28 157.21 130.19 C 153.85 133.29 150.50 136.43 147.66 140.04 C 149.73 135.35 151.34 130.49 152.96 125.63 C 151.87 124.50 150.77 123.36 149.68 122.22 C 144.95 126.67 140.23 131.13 135.50 135.59 M 152.31 152.48 C 153.37 156.32 157.04 159.07 161.02 159.08 C 161.17 157.83 161.33 156.58 161.49 155.34 C 159.20 154.95 156.47 153.65 156.49 150.94 C 156.85 147.32 160.38 143.98 164.09 144.18 C 166.50 144.42 167.50 146.82 167.84 148.91 C 169.13 148.81 170.43 148.71 171.73 148.60 C 171.48 145.45 170.04 142.27 167.10 140.80 C 159.98 136.68 150.14 144.69 152.31 152.48 M 161.07 162.69 C 163.97 165.77 166.86 168.84 169.77 171.91 C 170.74 170.99 171.70 170.08 172.67 169.17 C 170.86 167.25 169.05 165.32 167.24 163.40 C 168.22 162.48 169.19 161.57 170.17 160.65 C 171.65 162.22 173.13 163.78 174.61 165.35 C 175.58 164.44 176.55 163.54 177.53 162.63 C 176.05 161.05 174.57 159.48 173.08 157.91 C 173.72 157.31 174.98 156.10 175.62 155.50 C 177.37 157.35 179.12 159.20 180.87 161.05 C 181.82 160.14 182.78 159.23 183.74 158.32 C 180.91 155.32 178.09 152.32 175.25 149.33 C 170.52 153.78 165.80 158.24 161.07 162.69 M 186.25 169.25 C 182.91 171.00 179.96 174.10 179.29 177.92 C 178.28 183.62 184.29 189.27 189.93 187.64 C 194.25 186.36 198.14 182.65 198.84 178.09 C 199.69 171.72 192.04 165.92 186.25 169.25 M 204.63 180.49 C 199.93 184.96 195.18 189.40 190.47 193.86 C 191.55 195.01 192.63 196.16 193.72 197.31 C 195.27 195.86 196.82 194.40 198.37 192.94 C 200.04 194.60 201.66 196.54 204.02 197.18 C 208.41 198.59 213.60 193.71 211.83 189.26 C 210.33 185.70 207.09 183.34 204.63 180.49 M 202.74 206.88 C 205.64 209.95 208.53 213.02 211.43 216.09 C 212.39 215.18 213.36 214.27 214.33 213.36 C 212.53 211.43 210.72 209.50 208.90 207.58 C 209.88 206.67 210.86 205.75 211.84 204.84 C 213.32 206.41 214.80 207.98 216.29 209.55 C 217.25 208.64 218.21 207.72 219.18 206.81 C 217.70 205.23 216.22 203.66 214.75 202.09 C 215.59 201.28 216.45 200.48 217.30 199.69 C 219.04 201.55 220.79 203.40 222.56 205.24 C 223.50 204.32 224.45 203.41 225.40 202.49 C 222.57 199.50 219.75 196.50 216.92 193.51 C 212.18 197.95 207.47 202.42 202.74 206.88 M 213.99 218.81 C 215.02 219.90 216.06 220.99 217.09 222.09 C 220.47 219.02 223.77 215.84 226.65 212.28 C 224.61 216.95 223.02 221.80 221.32 226.60 C 222.41 227.75 223.50 228.91 224.59 230.07 C 229.34 225.64 234.06 221.17 238.79 216.70 C 237.75 215.61 236.72 214.51 235.70 213.42 C 232.32 216.52 228.98 219.67 226.14 223.28 C 228.23 218.62 229.76 213.75 231.47 208.95 C 230.37 207.78 229.27 206.61 228.18 205.44 C 223.44 209.89 218.73 214.36 213.99 218.81 M 241.82 219.92 C 237.10 224.38 232.36 228.83 227.65 233.29 C 228.67 234.38 229.70 235.48 230.73 236.57 C 234.11 233.49 237.43 230.32 240.29 226.74 C 238.27 231.42 236.68 236.26 234.96 241.05 C 236.06 242.22 237.16 243.38 238.26 244.55 C 242.98 240.09 247.71 235.64 252.43 231.18 C 251.41 230.09 250.40 229.00 249.39 227.91 C 245.98 230.94 242.68 234.11 239.84 237.70 C 241.87 233.04 243.43 228.19 245.12 223.40 C 244.01 222.24 242.92 221.08 241.82 219.92 M 241.30 247.77 C 244.19 250.84 247.09 253.90 249.98 256.98 C 250.95 256.06 251.91 255.15 252.88 254.24 C 251.08 252.32 249.27 250.40 247.46 248.48 C 248.44 247.56 249.41 246.64 250.39 245.72 C 251.87 247.29 253.35 248.86 254.84 250.43 C 255.80 249.52 256.77 248.60 257.74 247.69 C 256.26 246.12 254.77 244.54 253.29 242.97 C 254.14 242.17 254.99 241.37 255.84 240.57 C 257.58 242.42 259.32 244.26 261.07 246.11 C 262.03 245.21 263.00 244.31 263.97 243.41 C 261.14 240.40 258.31 237.39 255.47 234.39 C 250.75 238.86 246.01 243.30 241.30 247.77 M 261.07 255.97 C 261.50 258.28 264.42 261.70 261.21 263.07 C 259.00 261.69 257.94 259.35 257.55 256.85 C 256.15 256.95 254.75 257.04 253.36 257.15 C 253.74 261.21 256.04 265.40 260.08 266.78 C 263.39 268.13 267.63 265.60 267.77 261.98 C 268.06 258.82 264.82 256.01 265.83 253.00 C 268.53 251.77 269.82 255.66 270.37 257.60 C 271.62 257.48 272.87 257.36 274.13 257.24 C 273.90 252.90 270.65 248.33 265.99 248.33 C 262.21 248.20 259.42 252.57 261.07 255.97 M 272.64 268.55 C 272.98 270.59 275.78 273.81 272.90 274.95 C 270.22 274.27 269.48 271.32 268.98 268.98 C 267.58 269.05 266.19 269.14 264.80 269.23 C 265.12 273.77 268.19 278.67 273.03 279.19 C 276.80 279.71 280.43 275.57 278.86 271.93 C 278.49 269.67 276.21 267.33 277.28 265.13 C 279.91 263.90 281.25 267.75 281.77 269.70 C 282.71 269.61 284.60 269.44 285.55 269.35 C 285.34 264.87 281.83 260.17 277.01 260.44 C 273.12 260.63 270.85 265.21 272.64 268.55 M 287.69 280.99 C 286.98 284.35 289.63 287.21 289.77 290.50 C 286.71 293.01 284.81 287.80 284.45 285.39 C 283.41 285.47 281.31 285.63 280.26 285.71 C 280.69 289.21 282.28 292.75 285.42 294.60 C 288.31 296.61 292.81 295.66 294.26 292.34 C 295.77 288.87 292.78 285.70 292.33 282.34 C 294.35 279.23 297.09 284.05 297.29 286.15 C 298.55 286.02 299.81 285.89 301.07 285.76 C 300.73 282.09 298.64 278.33 294.95 277.19 C 292.01 276.04 288.36 277.88 287.69 280.99 M 294.56 297.57 C 290.87 303.24 298.40 311.45 304.37 308.23 C 308.78 305.74 311.96 301.61 315.78 298.35 C 314.73 297.23 313.69 296.13 312.65 295.03 C 309.31 297.95 306.38 301.36 302.78 303.97 C 300.25 306.02 296.51 302.12 298.69 299.70 C 301.52 296.23 305.17 293.54 308.22 290.26 C 307.13 289.15 306.06 288.04 304.99 286.92 C 301.54 290.49 297.31 293.39 294.56 297.57 M 304.52 314.80 C 305.61 315.94 306.69 317.10 307.78 318.25 C 309.33 316.81 310.88 315.35 312.42 313.89 C 314.10 315.52 315.69 317.48 318.04 318.12 C 322.47 319.61 327.72 314.59 325.85 310.12 C 324.33 306.62 321.13 304.27 318.70 301.45 C 313.97 305.90 309.25 310.36 304.52 314.80 M 316.80 327.84 C 317.88 328.98 318.96 330.13 320.05 331.28 C 321.60 329.83 323.14 328.37 324.69 326.91 C 326.31 328.50 327.86 330.37 330.11 331.08 C 334.60 332.77 340.08 327.64 338.10 323.07 C 336.55 319.61 333.39 317.28 330.97 314.46 C 326.24 318.92 321.51 323.37 316.80 327.84 M 340.36 330.55 C 336.55 331.86 333.27 335.03 332.12 338.93 C 330.39 344.66 336.24 350.91 342.08 349.63 C 346.03 348.75 349.42 345.69 350.99 342.00 C 353.65 335.80 346.73 328.36 340.36 330.55 M 343.11 355.73 C 344.19 356.88 345.28 358.04 346.37 359.20 C 348.08 357.50 349.83 355.83 351.79 354.41 C 353.73 357.30 350.82 360.43 350.29 363.37 C 351.51 364.65 352.72 365.93 353.94 367.21 C 354.79 364.50 355.64 361.78 356.49 359.06 C 360.40 360.03 364.96 357.19 365.00 353.00 C 364.40 348.38 360.01 345.74 357.29 342.37 C 352.56 346.82 347.84 351.28 343.11 355.73 M 366.03 357.43 C 367.23 358.70 368.42 359.96 369.62 361.24 C 365.85 364.78 362.09 368.34 358.33 371.88 C 359.41 373.03 360.49 374.17 361.58 375.33 C 365.36 371.80 369.11 368.24 372.88 364.69 C 374.08 365.96 375.29 367.24 376.50 368.53 C 377.45 367.61 378.41 366.70 379.37 365.79 C 375.90 362.08 372.40 358.40 368.92 354.70 C 367.95 355.61 366.99 356.52 366.03 357.43 Z" />
        <path d=" M 557.64 14.83 C 574.95 12.33 593.28 14.02 608.94 22.21 C 615.11 25.56 622.23 29.13 624.73 36.21 C 626.97 42.67 623.32 49.27 619.11 54.00 C 614.72 59.22 607.98 63.26 600.94 61.94 C 595.17 61.31 590.93 56.89 585.47 55.41 C 574.16 51.74 561.15 53.45 551.37 60.29 C 541.55 67.13 534.70 77.71 531.36 89.12 C 527.68 101.68 527.46 115.01 528.92 127.94 C 530.53 141.39 535.31 155.14 545.44 164.56 C 558.12 176.53 578.59 177.83 593.58 169.58 C 597.58 166.78 601.97 163.99 607.04 163.97 C 614.11 163.76 620.06 168.64 624.17 173.95 C 627.71 178.41 629.74 184.64 627.47 190.14 C 624.71 197.40 617.72 201.55 611.30 205.18 C 593.06 215.22 571.15 216.77 550.97 212.87 C 531.28 209.09 513.26 197.97 500.63 182.47 C 488.78 167.95 482.79 149.46 480.98 131.00 C 478.83 109.14 480.82 86.33 490.21 66.23 C 498.65 48.25 512.64 32.59 530.37 23.41 C 538.88 19.01 548.17 16.19 557.64 14.83 Z" />
        <path d=" M 736.47 14.80 C 754.59 12.49 773.60 13.87 790.46 21.30 C 808.83 29.33 823.59 44.76 831.56 63.08 C 839.65 81.51 841.61 102.03 840.67 121.96 C 839.67 142.48 834.19 163.22 822.26 180.17 C 813.51 192.87 801.18 203.22 786.72 208.75 C 770.06 215.16 751.63 216.15 734.10 213.37 C 716.42 210.53 699.79 201.60 687.86 188.21 C 673.14 172.24 665.77 150.77 663.78 129.42 C 662.00 109.46 663.05 88.89 669.64 69.83 C 675.09 53.98 685.16 39.66 698.71 29.72 C 709.71 21.54 722.93 16.64 736.47 14.80 M 742.46 54.60 C 731.54 57.08 723.02 65.65 718.27 75.50 C 711.28 89.89 710.31 106.35 711.19 122.07 C 712.21 137.37 716.25 153.49 727.19 164.83 C 739.65 177.93 762.74 178.19 775.68 165.65 C 786.14 155.67 790.99 141.26 792.51 127.19 C 793.90 113.45 793.60 99.32 789.81 85.97 C 786.91 75.96 781.51 66.29 772.99 60.04 C 764.33 53.67 752.78 52.21 742.46 54.60 Z" />
        <path d=" M 867.71 22.69 C 870.46 18.84 875.41 17.37 879.96 17.38 C 885.63 17.37 891.32 17.33 897.00 17.40 C 904.54 17.53 911.63 23.04 913.37 30.43 C 917.77 47.91 922.08 65.42 926.46 82.91 C 931.46 103.47 937.15 123.85 941.67 144.53 C 943.77 152.48 944.99 160.73 947.99 168.40 C 948.57 167.17 949.05 165.91 949.42 164.60 C 954.43 144.95 958.54 125.09 963.63 105.46 C 969.92 80.32 976.13 55.16 982.46 30.03 C 984.25 23.10 990.80 17.88 997.91 17.46 C 1003.29 17.26 1008.67 17.40 1014.06 17.38 C 1018.60 17.37 1023.55 18.90 1026.19 22.84 C 1028.97 26.84 1028.57 32.11 1027.24 36.56 C 1011.55 88.69 995.87 140.83 980.19 192.97 C 979.01 196.68 978.25 200.67 975.88 203.85 C 972.52 208.55 966.79 211.32 961.05 211.25 C 951.05 211.24 941.06 211.29 931.07 211.22 C 924.14 211.13 917.51 206.28 915.52 199.61 C 899.12 145.21 882.77 90.79 866.39 36.38 C 865.05 31.91 864.77 26.60 867.71 22.69 Z" />
        <path d=" M 1177.29 17.43 C 1191.86 17.30 1206.44 17.40 1221.02 17.38 C 1241.49 17.70 1262.57 21.77 1279.97 33.06 C 1291.25 40.26 1300.56 50.56 1306.25 62.71 C 1314.84 80.78 1316.67 101.24 1315.92 121.00 C 1315.08 140.37 1310.73 160.28 1299.35 176.32 C 1289.92 189.61 1276.02 199.42 1260.74 204.87 C 1247.72 209.56 1233.80 211.29 1220.01 211.25 C 1205.01 211.22 1190.02 211.30 1175.02 211.22 C 1170.58 211.22 1166.04 209.03 1163.88 205.06 C 1161.89 201.70 1162.08 197.70 1162.11 193.96 C 1162.17 140.28 1162.05 86.61 1162.17 32.94 C 1162.19 24.83 1169.17 17.64 1177.29 17.43 M 1208.75 54.57 C 1208.75 94.32 1208.75 134.06 1208.75 173.81 C 1217.01 173.92 1225.39 173.78 1233.42 171.59 C 1244.30 168.77 1254.54 162.15 1260.22 152.27 C 1266.01 142.22 1267.81 130.44 1268.33 119.01 C 1268.71 107.20 1268.15 95.14 1264.41 83.85 C 1261.79 75.70 1256.71 68.24 1249.47 63.53 C 1237.62 55.40 1222.71 54.14 1208.75 54.57 Z" />
        <path d=" M 1077.24 18.19 C 1084.99 16.72 1093.81 16.75 1100.60 21.29 C 1106.59 25.40 1108.58 33.08 1108.56 39.98 C 1108.56 89.68 1108.57 139.37 1108.55 189.07 C 1108.48 195.46 1106.73 202.42 1101.54 206.59 C 1096.11 210.95 1088.74 211.58 1082.05 211.13 C 1075.91 210.74 1069.40 208.42 1065.83 203.13 C 1062.79 198.75 1061.96 193.26 1061.94 188.03 C 1061.93 141.03 1061.94 94.03 1061.94 47.03 C 1061.94 40.50 1061.49 33.58 1064.57 27.59 C 1066.96 22.62 1071.93 19.32 1077.24 18.19 Z" />
        <path d=" M 1488.75 18.25 C 1494.41 18.25 1500.08 18.25 1505.75 18.25 C 1505.75 160.92 1505.75 303.58 1505.75 446.25 C 1500.08 446.25 1494.41 446.25 1488.75 446.25 C 1488.75 303.58 1488.74 160.91 1488.75 18.25 Z" />
        <path d=" M 1763.39 19.67 C 1770.77 17.58 1779.78 22.13 1781.10 30.01 C 1782.75 36.68 1779.59 44.46 1772.89 46.87 C 1767.41 49.06 1760.57 47.89 1756.57 43.43 C 1749.85 36.08 1753.07 21.78 1763.39 19.67 Z" />
        <path d=" M 1582.57 29.76 C 1597.27 26.80 1612.93 29.06 1626.16 36.16 C 1623.98 41.96 1621.76 47.75 1619.58 53.55 C 1610.35 48.40 1599.40 45.92 1588.95 48.14 C 1585.44 48.92 1581.87 50.75 1580.16 54.05 C 1578.12 57.99 1578.04 63.35 1581.16 66.77 C 1585.40 71.76 1591.84 73.88 1597.76 76.16 C 1605.81 79.35 1614.39 82.07 1620.88 88.09 C 1626.22 92.96 1630.03 99.66 1630.84 106.90 C 1632.17 116.81 1630.55 127.90 1623.39 135.38 C 1616.15 143.13 1605.14 145.63 1594.94 146.21 C 1584.94 146.61 1574.60 146.31 1565.17 142.62 C 1561.53 141.27 1557.98 139.69 1554.58 137.83 C 1556.76 131.71 1558.98 125.61 1561.17 119.50 C 1568.26 123.41 1575.90 126.80 1584.10 127.29 C 1590.60 127.71 1597.75 127.95 1603.44 124.25 C 1607.90 121.35 1609.45 115.41 1608.45 110.40 C 1607.39 106.37 1604.02 103.48 1600.65 101.31 C 1591.47 95.53 1580.52 93.52 1571.20 88.02 C 1563.85 83.72 1557.79 76.46 1556.64 67.83 C 1555.47 59.02 1556.79 49.42 1562.21 42.14 C 1567.04 35.54 1574.66 31.43 1582.57 29.76 Z" />
        <path d=" M 1661.50 66.41 C 1668.72 60.64 1677.76 57.43 1686.91 56.50 C 1698.73 55.34 1710.96 56.24 1722.04 60.78 C 1720.39 66.82 1718.75 72.85 1717.10 78.89 C 1707.42 75.48 1696.80 74.59 1686.75 76.77 C 1679.56 78.37 1672.93 83.44 1670.86 90.71 C 1668.22 99.78 1668.58 110.64 1674.72 118.27 C 1679.32 124.03 1687.04 125.78 1694.05 126.27 C 1702.83 126.75 1711.78 126.02 1720.20 123.35 C 1721.29 129.52 1722.40 135.68 1723.49 141.85 C 1712.76 145.65 1701.20 146.46 1689.91 145.78 C 1679.93 145.18 1669.87 142.32 1661.82 136.24 C 1654.93 131.09 1650.19 123.38 1648.18 115.06 C 1643.92 98.17 1647.25 77.74 1661.50 66.41 Z" />
        <path d=" M 1851.33 59.22 C 1860.32 55.35 1870.59 55.23 1879.98 57.66 C 1888.15 59.75 1895.41 65.17 1899.52 72.56 C 1905.64 83.39 1906.08 96.32 1905.28 108.43 C 1886.68 108.46 1868.09 108.41 1849.51 108.46 C 1849.42 115.56 1854.52 121.62 1860.98 124.02 C 1872.81 128.68 1885.91 125.88 1897.58 122.06 C 1898.59 128.46 1899.64 134.86 1900.68 141.27 C 1892.70 143.91 1884.42 145.85 1875.99 145.96 C 1863.95 146.31 1851.17 144.23 1841.40 136.73 C 1833.01 130.39 1828.10 120.27 1826.91 109.96 C 1825.63 99.06 1826.61 87.54 1831.80 77.71 C 1835.91 69.54 1842.83 62.72 1851.33 59.22 M 1859.48 76.47 C 1853.17 79.33 1850.41 86.41 1849.56 92.86 C 1861.01 92.87 1872.46 92.90 1883.92 92.84 C 1883.69 88.16 1882.61 83.23 1879.30 79.71 C 1874.40 74.30 1865.88 73.68 1859.48 76.47 Z" />
        <path d=" M 2023.13 69.07 C 2030.50 61.75 2040.66 57.72 2050.89 56.57 C 2062.90 55.30 2075.36 56.17 2086.63 60.78 C 2084.98 66.82 2083.32 72.85 2081.69 78.89 C 2072.06 75.49 2061.50 74.61 2051.50 76.73 C 2044.39 78.29 2037.76 83.18 2035.57 90.33 C 2032.81 99.37 2033.09 110.22 2039.05 117.96 C 2043.47 123.78 2051.10 125.68 2058.05 126.23 C 2067.03 126.80 2076.19 126.06 2084.80 123.35 C 2085.86 129.52 2086.99 135.67 2088.07 141.84 C 2077.18 145.71 2065.43 146.48 2053.98 145.75 C 2043.80 145.06 2033.52 141.99 2025.50 135.53 C 2018.77 130.16 2014.30 122.31 2012.49 113.94 C 2009.04 98.55 2011.52 80.56 2023.13 69.07 Z" />
        <path d=" M 2125.20 59.04 C 2133.64 55.52 2143.16 55.32 2152.01 57.30 C 2160.62 59.16 2168.44 64.59 2172.81 72.30 C 2179.07 83.17 2179.51 96.22 2178.72 108.43 C 2160.13 108.46 2141.54 108.41 2122.96 108.45 C 2122.87 115.40 2127.75 121.42 2134.06 123.87 C 2145.96 128.74 2159.23 125.93 2171.00 122.06 C 2172.04 128.46 2173.07 134.86 2174.11 141.26 C 2166.00 143.98 2157.56 145.90 2148.98 145.98 C 2137.17 146.26 2124.66 144.17 2115.04 136.88 C 2106.58 130.60 2101.61 120.47 2100.36 110.15 C 2099.09 99.32 2099.98 87.87 2105.06 78.06 C 2109.22 69.59 2116.39 62.55 2125.20 59.04 M 2132.48 76.69 C 2126.44 79.69 2123.87 86.56 2122.99 92.85 C 2134.43 92.89 2145.88 92.87 2157.34 92.86 C 2157.13 88.28 2156.12 83.48 2152.97 79.98 C 2148.02 74.22 2139.04 73.57 2132.48 76.69 Z" />
        <path d=" M 207.86 66.81 C 222.13 53.75 246.46 54.17 260.18 67.83 C 266.18 74.14 271.92 80.71 277.78 87.14 C 281.52 89.79 286.50 89.59 290.83 88.85 C 296.27 87.82 301.83 87.30 307.14 85.65 C 318.39 84.07 330.23 87.76 338.69 95.33 C 346.11 101.86 350.90 111.21 352.09 121.01 C 352.61 125.71 352.95 130.43 353.39 135.14 C 353.49 139.62 356.29 143.83 360.15 146.00 C 367.63 149.57 375.76 151.82 382.81 156.25 C 395.83 164.51 403.55 180.48 401.35 195.82 C 399.80 208.54 390.61 218.26 385.41 229.51 C 383.92 233.57 385.27 237.97 387.63 241.40 C 392.67 250.61 399.62 259.26 400.98 269.99 C 403.67 286.54 395.05 304.35 380.08 312.06 C 374.60 314.72 368.87 316.82 363.28 319.23 C 356.82 312.36 350.33 305.53 343.88 298.66 C 350.69 294.92 358.15 292.56 365.19 289.30 C 370.84 286.27 373.90 279.33 371.90 273.14 C 367.45 263.32 359.76 254.91 357.45 244.15 C 355.15 233.73 356.65 222.37 362.22 213.20 C 365.53 207.30 369.29 201.63 372.29 195.57 C 373.80 190.39 372.26 183.41 367.01 180.88 C 357.97 176.14 347.53 173.98 339.43 167.53 C 332.28 161.84 327.33 153.48 325.83 144.46 C 324.92 138.36 324.80 132.18 323.94 126.07 C 322.80 118.83 315.32 113.54 308.09 114.75 C 301.66 115.78 295.16 116.55 288.90 118.37 C 276.46 120.16 264.01 114.42 255.26 105.82 C 249.91 100.19 244.85 94.27 239.53 88.62 C 234.48 85.17 226.84 86.26 222.75 90.80 C 218.11 95.83 213.53 100.92 208.94 106.00 C 201.57 114.39 190.23 119.13 179.10 118.59 C 176.41 117.91 173.01 118.18 171.13 115.79 C 162.04 106.08 152.85 96.48 143.77 86.77 C 148.03 85.79 152.46 84.86 156.84 85.53 C 162.54 86.81 168.37 87.42 174.11 88.51 C 179.46 89.79 185.68 89.85 190.01 85.97 C 196.17 79.78 201.59 72.89 207.86 66.81 Z" />
        <path d=" M 1923.37 60.97 C 1936.27 57.66 1949.64 55.75 1962.97 56.64 C 1971.19 57.22 1979.76 60.28 1984.94 66.99 C 1990.87 74.60 1992.07 84.63 1992.35 93.97 C 1992.41 110.64 1992.35 127.32 1992.38 144.00 C 1984.87 144.00 1977.37 144.00 1969.87 144.00 C 1969.86 128.31 1969.89 112.62 1969.86 96.93 C 1969.56 90.94 1969.62 84.21 1965.74 79.28 C 1960.43 74.27 1952.41 76.23 1945.88 76.71 C 1945.88 99.14 1945.87 121.57 1945.88 144.00 C 1938.37 144.00 1930.87 144.01 1923.37 143.99 C 1923.38 116.32 1923.37 88.64 1923.37 60.97 Z" />
        <path d=" M 1736.19 58.25 C 1751.58 58.26 1766.98 58.24 1782.38 58.26 C 1782.38 76.20 1782.37 94.13 1782.38 112.07 C 1782.45 115.98 1783.00 120.23 1785.68 123.28 C 1787.78 125.62 1791.07 126.38 1794.12 126.42 C 1800.27 126.45 1806.34 124.83 1811.90 122.23 C 1812.85 128.28 1813.84 134.32 1814.82 140.36 C 1804.65 145.22 1792.98 147.20 1781.85 145.24 C 1775.49 144.11 1769.37 140.72 1765.78 135.26 C 1761.01 128.17 1760.21 119.32 1759.90 111.02 C 1759.82 99.64 1759.89 88.26 1759.87 76.88 C 1751.97 76.87 1744.08 76.88 1736.19 76.87 C 1736.18 70.67 1736.18 64.46 1736.19 58.25 Z" />
        <path d=" M 1362.13 120.20 C 1365.36 119.45 1368.70 119.63 1372.00 119.62 C 1384.68 119.64 1397.36 119.60 1410.04 119.63 C 1414.30 119.67 1418.93 120.79 1421.85 124.14 C 1424.90 127.61 1425.50 132.50 1425.36 136.95 C 1425.18 141.20 1424.06 145.78 1420.74 148.69 C 1417.56 151.54 1413.11 152.25 1409.00 152.25 C 1394.99 152.23 1380.99 152.29 1367.00 152.22 C 1362.27 152.17 1357.08 150.67 1354.31 146.56 C 1351.14 141.72 1351.02 135.46 1352.16 129.95 C 1353.14 125.05 1357.23 121.12 1362.13 120.20 Z" />
        <path d=" M 192.32 138.19 C 208.15 135.38 225.12 139.08 237.99 148.80 C 256.59 162.34 265.49 187.41 259.87 209.69 C 237.32 185.89 214.83 162.04 192.32 138.19 Z" />
        <path d=" M 112.99 139.45 C 119.30 146.17 125.66 152.85 131.97 159.58 C 127.97 165.05 122.79 169.76 116.58 172.58 C 110.81 175.14 104.89 177.36 99.13 179.94 C 94.91 182.37 91.47 187.01 91.86 192.08 C 91.53 195.74 93.59 198.87 95.40 201.84 C 97.74 205.82 100.06 209.81 102.38 213.79 C 109.20 225.50 109.64 240.60 103.82 252.79 C 100.18 259.71 95.83 266.24 92.20 273.15 C 90.19 278.52 91.94 285.94 97.48 288.52 C 104.10 291.74 111.09 294.13 117.77 297.23 C 126.42 301.46 133.37 309.07 136.66 318.14 C 139.76 326.39 138.96 335.38 140.47 343.94 C 141.98 350.74 149.04 355.58 155.95 354.52 C 162.67 353.54 169.42 352.60 175.97 350.79 C 184.46 349.76 193.11 352.21 200.33 356.67 C 209.19 361.94 215.16 370.58 222.17 377.91 C 226.32 383.97 236.02 384.04 240.99 378.98 C 245.88 373.88 250.45 368.47 255.35 363.36 C 263.18 355.76 273.80 350.30 284.91 350.64 C 291.91 352.02 298.99 352.98 306.02 354.23 C 309.17 354.84 312.40 354.62 315.53 353.95 C 321.98 360.73 328.42 367.54 334.81 374.38 C 326.58 379.68 316.20 382.94 306.48 380.32 C 300.69 379.44 294.92 378.41 289.13 377.49 C 284.78 376.71 280.14 377.88 276.79 380.78 C 270.45 387.08 264.99 394.26 258.44 400.35 C 243.81 413.11 219.36 412.15 205.97 398.00 C 200.37 391.91 194.81 385.78 189.32 379.60 C 186.13 377.10 181.74 377.09 177.91 377.48 C 171.57 378.52 165.18 379.37 158.98 381.10 C 148.78 382.21 138.18 379.20 130.12 372.83 C 121.61 366.24 116.07 356.10 114.82 345.43 C 114.31 340.62 113.95 335.79 113.50 330.98 C 113.20 325.77 109.28 321.16 104.41 319.52 C 95.43 315.57 85.50 312.86 78.31 305.81 C 65.84 294.51 61.50 275.05 68.78 259.74 C 72.47 252.55 76.91 245.78 80.81 238.71 C 82.31 235.88 82.54 232.42 81.47 229.40 C 76.63 219.02 68.49 210.04 66.28 198.53 C 63.42 184.63 68.39 169.42 79.02 160.00 C 87.25 152.43 98.64 150.33 108.28 145.21 C 110.46 143.88 111.84 141.67 112.99 139.45 Z" />
        <path d=" M 1584.59 164.72 C 1594.12 163.01 1604.51 163.96 1612.94 169.02 C 1620.22 173.39 1625.30 180.68 1628.32 188.50 C 1632.42 199.13 1633.49 210.65 1633.62 221.97 C 1633.62 232.54 1632.80 243.25 1629.60 253.38 C 1627.16 261.11 1623.03 268.51 1616.77 273.78 C 1611.30 278.46 1604.25 281.06 1597.11 281.60 C 1588.68 282.28 1579.80 280.99 1572.56 276.39 C 1565.61 272.06 1560.69 265.07 1557.70 257.54 C 1553.63 247.24 1552.44 236.07 1552.26 225.07 C 1552.14 213.30 1553.04 201.30 1557.07 190.15 C 1561.28 177.85 1571.40 166.98 1584.59 164.72 M 1588.18 184.14 C 1580.65 186.47 1577.78 194.87 1576.50 201.88 C 1574.63 214.09 1574.82 226.54 1575.78 238.81 C 1576.56 245.86 1577.98 253.55 1583.25 258.73 C 1587.91 263.11 1595.69 263.28 1600.99 259.97 C 1606.65 255.91 1608.58 248.70 1609.64 242.17 C 1611.09 230.79 1611.01 219.25 1610.16 207.83 C 1609.44 200.80 1608.20 193.20 1603.33 187.73 C 1599.66 183.47 1593.34 182.74 1588.18 184.14 Z" />
        <path d=" M 189.19 173.18 C 192.47 171.46 196.01 175.81 193.77 178.72 C 192.11 181.59 187.87 185.11 184.70 182.33 C 181.84 178.87 185.98 174.55 189.19 173.18 Z" />
        <path d=" M 147.60 176.13 C 171.57 201.48 195.53 226.84 219.46 252.22 C 207.32 255.86 193.99 255.44 182.17 250.83 C 165.75 244.59 152.46 230.68 147.00 213.97 C 142.92 201.76 143.23 188.23 147.60 176.13 Z" />
        <path d=" M 201.09 190.38 C 202.46 189.08 203.83 187.79 205.21 186.50 C 206.40 187.96 209.10 190.20 207.01 192.06 C 205.05 194.46 202.54 191.99 201.09 190.38 Z" />
        <path d=" M 1649.94 196.37 C 1660.63 193.20 1671.82 191.93 1682.95 191.83 C 1692.41 191.78 1702.33 194.01 1709.71 200.23 C 1717.90 207.02 1722.32 217.44 1723.51 227.84 C 1724.64 238.24 1723.98 249.00 1720.54 258.93 C 1717.77 267.01 1712.38 274.55 1704.53 278.31 C 1694.44 283.21 1682.38 281.87 1672.43 277.29 C 1672.45 288.03 1672.43 298.76 1672.44 309.50 C 1664.93 309.50 1657.44 309.50 1649.94 309.50 C 1649.93 271.79 1649.94 234.08 1649.94 196.37 M 1672.44 211.77 C 1672.42 227.46 1672.45 243.16 1672.43 258.85 C 1678.45 261.84 1686.03 263.44 1692.35 260.47 C 1699.12 256.62 1700.59 248.02 1701.08 240.91 C 1701.53 231.76 1700.43 221.26 1693.42 214.62 C 1687.63 209.54 1679.42 211.18 1672.44 211.77 Z" />
        <path d=" M 1742.21 210.34 C 1749.05 198.58 1762.46 191.23 1776.02 191.48 C 1787.09 191.29 1798.97 195.00 1805.82 204.17 C 1814.35 215.40 1815.07 230.34 1814.12 243.87 C 1795.54 243.88 1776.96 243.86 1758.39 243.88 C 1758.26 251.01 1763.42 257.07 1769.89 259.46 C 1781.70 264.08 1794.79 261.30 1806.43 257.48 C 1807.44 263.89 1808.51 270.29 1809.52 276.70 C 1801.29 279.40 1792.74 281.40 1784.04 281.38 C 1772.38 281.64 1760.06 279.52 1750.55 272.36 C 1742.45 266.38 1737.47 256.87 1736.00 247.02 C 1734.14 234.59 1735.49 221.20 1742.21 210.34 M 1767.36 212.39 C 1761.66 215.54 1759.25 222.19 1758.41 228.30 C 1769.86 228.32 1781.32 228.32 1792.78 228.30 C 1792.55 223.11 1791.16 217.56 1787.06 214.06 C 1781.73 209.43 1773.45 209.20 1767.36 212.39 Z" />
        <path d=" M 1832.26 196.36 C 1845.24 193.08 1858.69 191.11 1872.10 192.08 C 1880.20 192.70 1888.61 195.75 1893.75 202.34 C 1899.63 209.85 1900.91 219.76 1901.18 229.01 C 1901.20 245.80 1901.18 262.59 1901.18 279.37 C 1893.70 279.38 1886.22 279.38 1878.75 279.37 C 1878.73 263.91 1878.78 248.45 1878.73 233.00 C 1878.40 226.76 1878.62 219.65 1874.46 214.55 C 1869.11 209.74 1861.23 211.67 1854.75 212.11 C 1854.74 234.53 1854.76 256.95 1854.74 279.38 C 1847.24 279.37 1839.74 279.38 1832.25 279.37 C 1832.26 251.70 1832.24 224.03 1832.26 196.36 Z" />
        <path d=" M 1923.37 196.38 C 1936.29 193.08 1949.67 191.15 1963.02 192.06 C 1971.37 192.64 1980.09 195.84 1985.23 202.77 C 1991.03 210.53 1992.12 220.59 1992.36 229.98 C 1992.40 246.45 1992.36 262.91 1992.37 279.37 C 1984.87 279.38 1977.37 279.38 1969.88 279.37 C 1969.80 262.74 1970.01 246.10 1969.77 229.46 C 1969.28 224.17 1969.13 217.98 1965.05 214.04 C 1959.56 209.90 1952.19 211.67 1945.88 212.11 C 1945.87 234.53 1945.88 256.95 1945.87 279.38 C 1938.37 279.38 1930.87 279.37 1923.38 279.38 C 1923.36 251.71 1923.37 224.04 1923.37 196.38 Z" />
        <path d=" M 2034.11 194.43 C 2042.90 190.79 2052.85 190.73 2062.00 193.00 C 2070.05 195.01 2077.29 200.21 2081.48 207.42 C 2087.91 218.34 2088.40 231.54 2087.56 243.86 C 2068.98 243.90 2050.40 243.86 2031.82 243.88 C 2032.01 247.87 2033.25 251.94 2036.19 254.78 C 2041.59 260.17 2049.56 261.92 2056.97 261.83 C 2064.81 261.93 2072.45 259.84 2079.86 257.47 C 2080.88 263.88 2081.95 270.28 2082.96 276.70 C 2074.57 279.46 2065.85 281.46 2056.98 281.39 C 2045.41 281.59 2033.21 279.39 2023.82 272.24 C 2015.57 266.08 2010.63 256.25 2009.31 246.17 C 2007.84 235.00 2008.80 223.14 2014.13 213.05 C 2018.31 204.75 2025.44 197.88 2034.11 194.43 M 2041.22 212.16 C 2035.24 215.20 2032.69 222.04 2031.85 228.30 C 2043.30 228.32 2054.76 228.32 2066.22 228.31 C 2065.97 223.69 2064.96 218.82 2061.75 215.31 C 2056.74 209.61 2047.76 208.98 2041.22 212.16 Z" />
        <path d=" M 2115.19 199.16 C 2122.16 193.63 2131.29 191.79 2140.00 191.53 C 2150.49 191.25 2161.23 192.29 2171.01 196.33 C 2169.88 202.71 2168.69 209.07 2167.53 215.44 C 2156.85 211.77 2145.36 208.48 2134.06 211.27 C 2130.54 212.05 2126.81 216.06 2129.34 219.64 C 2132.60 223.81 2138.02 225.28 2142.77 227.10 C 2151.88 230.36 2162.02 232.71 2168.94 239.98 C 2175.49 246.66 2176.33 257.33 2172.83 265.71 C 2170.47 271.40 2165.20 275.32 2159.62 277.55 C 2149.96 281.45 2139.30 281.74 2129.03 281.17 C 2120.30 280.70 2112.08 277.46 2104.03 274.31 C 2105.18 268.02 2106.34 261.73 2107.51 255.45 C 2116.66 258.91 2126.07 262.59 2136.03 262.39 C 2140.86 262.22 2146.00 262.42 2150.48 260.33 C 2153.96 258.39 2153.01 253.06 2150.01 251.12 C 2144.35 247.39 2137.53 246.10 2131.23 243.88 C 2122.46 241.13 2112.93 237.21 2108.44 228.61 C 2103.78 218.82 2106.47 205.82 2115.19 199.16 Z" />
        <path d=" M 2205.17 200.15 C 2212.17 193.88 2221.89 191.82 2231.04 191.53 C 2241.58 191.31 2252.49 192.15 2262.24 196.48 C 2260.89 202.77 2259.88 209.13 2258.68 215.44 C 2250.66 212.94 2242.59 209.93 2234.05 210.30 C 2229.20 210.45 2222.92 210.34 2220.11 215.10 C 2218.50 218.34 2221.47 221.39 2224.13 222.86 C 2234.36 228.59 2246.70 229.76 2256.36 236.68 C 2261.94 240.57 2265.66 246.95 2266.00 253.78 L 2266.00 257.31 C 2265.57 264.07 2262.38 270.79 2256.55 274.49 C 2246.12 281.25 2233.11 281.76 2221.07 281.23 C 2212.01 280.90 2203.50 277.56 2195.17 274.32 C 2196.32 268.03 2197.49 261.75 2198.65 255.46 C 2208.05 259.01 2217.74 262.75 2227.97 262.39 C 2232.65 262.14 2237.77 262.44 2242.00 260.08 C 2245.66 257.40 2243.41 251.72 2239.76 250.20 C 2228.30 244.27 2214.19 243.65 2204.31 234.71 C 2194.30 225.97 2195.42 208.65 2205.17 200.15 Z" />
        <path d=" M 284.83 236.15 C 291.31 230.39 300.57 227.86 309.03 230.00 C 319.40 232.39 327.77 241.52 329.20 252.06 C 330.54 260.39 327.45 269.08 321.54 275.02 C 309.29 262.07 297.07 249.11 284.83 236.15 Z" />
        <path d=" M 691.01 249.95 C 701.50 247.57 712.56 247.50 723.05 249.98 C 742.37 254.55 758.97 268.57 767.53 286.39 C 776.84 305.45 779.75 326.97 779.57 347.99 C 779.40 369.48 775.97 391.54 765.50 410.59 C 758.19 423.65 747.76 435.45 734.22 442.22 C 721.85 448.50 707.57 450.13 693.90 448.75 C 681.35 447.53 669.05 443.33 658.53 436.35 C 655.42 434.00 652.62 430.84 651.61 426.99 C 650.75 422.77 653.07 418.76 655.44 415.46 C 659.55 409.83 665.68 404.85 672.97 404.78 C 677.95 404.58 682.49 406.86 686.73 409.20 C 695.58 412.66 705.94 412.70 714.59 408.61 C 721.83 405.16 727.03 398.52 730.24 391.32 C 735.32 380.01 736.47 367.47 737.62 355.29 C 731.97 362.27 724.63 367.85 716.23 371.09 C 704.11 376.48 690.12 375.17 677.83 371.12 C 662.59 365.96 650.43 352.96 646.39 337.37 C 642.23 321.47 642.13 304.18 647.40 288.51 C 653.99 269.28 671.29 254.44 691.01 249.95 M 693.22 289.15 C 687.15 295.43 685.84 304.64 685.70 313.01 C 685.67 320.91 686.69 329.62 692.21 335.73 C 698.02 341.99 707.52 342.97 715.49 341.32 C 724.76 339.27 731.70 331.93 736.29 323.99 C 735.16 314.49 733.22 304.88 728.57 296.42 C 725.95 291.63 722.26 287.19 717.26 284.79 C 709.40 281.02 699.16 282.66 693.22 289.15 Z" />
        <path d=" M 1158.56 248.84 C 1175.05 246.88 1192.33 248.85 1207.17 256.65 C 1212.79 259.73 1219.08 262.84 1222.11 268.84 C 1224.62 273.55 1223.50 279.30 1220.74 283.63 C 1217.55 288.63 1213.24 293.29 1207.61 295.48 C 1202.28 297.57 1196.21 296.37 1191.40 293.52 C 1181.05 286.81 1167.32 286.26 1156.08 291.02 C 1144.74 295.99 1136.31 306.17 1131.62 317.45 C 1126.00 331.21 1125.42 346.48 1126.89 361.11 C 1128.37 374.86 1133.05 389.00 1143.32 398.71 C 1156.02 410.92 1176.77 412.28 1191.86 403.85 C 1195.73 401.13 1200.00 398.46 1204.90 398.36 C 1211.43 398.01 1217.13 402.20 1221.17 406.94 C 1224.93 411.24 1227.70 417.18 1226.08 422.96 C 1224.34 429.44 1218.89 433.98 1213.34 437.26 C 1195.58 448.58 1173.48 451.15 1152.98 447.94 C 1127.91 444.27 1104.85 428.85 1091.95 407.04 C 1083.91 393.45 1080.02 377.76 1078.80 362.12 C 1077.32 342.91 1079.06 323.13 1086.35 305.17 C 1094.69 284.66 1110.17 266.72 1130.19 256.94 C 1139.07 252.60 1148.75 249.97 1158.56 248.84 Z" />
        <path d=" M 536.18 254.18 C 540.72 251.70 546.00 251.61 551.04 251.75 C 556.21 251.92 561.76 250.98 566.54 253.51 C 571.58 255.98 574.60 261.52 574.61 267.05 C 574.65 314.10 574.61 361.14 574.63 408.18 C 581.43 408.33 588.26 407.87 595.04 408.45 C 600.98 409.02 606.75 412.87 608.39 418.81 C 610.15 425.25 610.11 432.69 606.66 438.58 C 603.44 443.87 596.87 445.68 591.02 445.62 C 562.68 445.63 534.34 445.62 506.00 445.63 C 500.80 445.67 495.10 444.55 491.42 440.57 C 487.36 436.11 486.74 429.65 487.19 423.90 C 487.53 418.93 489.61 413.71 494.02 411.03 C 498.48 408.18 503.95 408.08 509.07 408.18 C 515.48 408.20 521.89 408.18 528.31 408.18 C 528.31 371.39 528.31 334.60 528.31 297.82 C 520.85 297.78 513.40 297.86 505.95 297.79 C 501.40 297.79 496.47 295.87 494.32 291.63 C 491.15 285.09 491.69 276.33 497.04 271.05 C 499.78 268.09 503.63 266.53 507.51 265.73 C 517.54 263.21 527.11 259.10 536.18 254.18 Z" />
        <path d=" M 1002.45 252.74 C 1010.13 251.08 1018.83 251.05 1025.78 255.20 C 1032.14 259.07 1034.49 266.96 1034.44 274.02 C 1034.44 323.68 1034.43 373.34 1034.44 422.99 C 1034.43 428.94 1033.09 435.35 1028.79 439.74 C 1024.46 444.17 1018.00 445.54 1012.02 445.63 C 1005.66 445.73 998.72 444.62 993.94 440.08 C 989.34 435.74 987.87 429.13 987.87 423.02 C 987.88 373.34 987.87 323.66 987.87 273.98 C 987.94 268.81 988.99 263.40 992.20 259.21 C 994.69 255.89 998.47 253.76 1002.45 252.74 Z" />
        <path d=" M 1285.15 252.20 C 1292.73 251.18 1301.32 251.44 1307.58 256.40 C 1313.08 260.81 1314.64 268.25 1314.62 274.97 C 1314.64 302.29 1314.62 329.62 1314.63 356.95 C 1314.55 367.89 1315.02 379.06 1318.54 389.51 C 1320.71 396.09 1324.93 402.23 1331.13 405.58 C 1338.73 409.65 1347.91 410.00 1356.19 408.10 C 1364.13 406.26 1370.84 400.46 1374.14 393.06 C 1378.80 382.72 1379.50 371.15 1379.67 359.96 C 1379.71 330.97 1379.66 301.97 1379.69 272.98 C 1379.76 267.12 1381.32 260.79 1385.85 256.75 C 1390.73 252.37 1397.65 251.51 1403.96 251.76 C 1409.52 251.96 1415.44 253.53 1419.33 257.76 C 1423.37 262.12 1424.49 268.32 1424.50 274.07 C 1424.48 302.05 1424.53 330.03 1424.48 358.00 C 1424.08 377.83 1421.67 398.35 1412.14 416.06 C 1405.39 428.73 1393.91 438.72 1380.45 443.69 C 1366.62 448.92 1351.54 449.87 1336.92 448.80 C 1320.92 447.60 1304.62 442.43 1292.73 431.28 C 1280.64 420.21 1274.29 404.34 1271.21 388.54 C 1267.27 369.29 1268.42 349.56 1268.25 330.05 C 1268.25 311.70 1268.25 293.34 1268.24 274.98 C 1268.22 269.36 1269.20 263.38 1272.80 258.87 C 1275.78 255.05 1280.46 252.97 1285.15 252.20 Z" />
        <path d=" M 203.37 283.51 C 209.18 281.64 215.84 282.60 220.85 286.11 C 226.31 289.81 229.67 296.35 229.51 302.94 C 229.46 309.49 225.94 315.87 220.44 319.41 C 214.39 323.45 206.10 323.74 199.77 320.18 C 192.98 316.51 188.77 308.69 189.50 301.01 C 190.02 293.07 195.77 285.84 203.37 283.51 Z" />
        <path d=" M 1582.39 300.63 C 1597.15 297.60 1612.89 299.87 1626.17 307.00 C 1623.97 312.79 1621.77 318.59 1619.58 324.38 C 1610.37 319.24 1599.44 316.76 1589.00 318.96 C 1585.17 319.76 1581.31 321.94 1579.75 325.70 C 1578.13 329.60 1578.25 334.57 1581.30 337.77 C 1585.83 342.94 1592.64 344.98 1598.84 347.40 C 1605.73 350.18 1612.99 352.51 1618.86 357.24 C 1625.31 362.20 1629.96 369.68 1630.86 377.84 C 1632.07 387.30 1630.71 397.80 1624.26 405.24 C 1618.53 412.08 1609.66 415.27 1601.05 416.45 C 1592.36 417.57 1583.50 417.43 1574.85 416.12 C 1567.71 414.90 1560.95 412.02 1554.58 408.67 C 1556.76 402.55 1558.98 396.45 1561.17 390.33 C 1568.25 394.24 1575.89 397.63 1584.08 398.12 C 1590.50 398.54 1597.52 398.77 1603.20 395.24 C 1607.65 392.52 1609.29 386.84 1608.59 381.90 C 1607.94 378.12 1605.02 375.25 1602.05 373.08 C 1592.45 366.42 1580.50 364.57 1570.60 358.49 C 1563.58 354.20 1557.84 347.15 1556.66 338.84 C 1555.45 330.00 1556.75 320.37 1562.15 313.04 C 1566.96 306.46 1574.52 302.33 1582.39 300.63 Z" />
        <path d=" M 2120.26 307.57 C 2127.75 306.35 2135.24 305.12 2142.75 303.92 C 2142.74 312.30 2142.74 320.68 2142.75 329.06 C 2154.73 329.07 2166.71 329.06 2178.69 329.07 C 2178.67 335.29 2178.68 341.52 2178.69 347.75 C 2166.71 347.75 2154.73 347.74 2142.75 347.75 C 2142.80 360.17 2142.63 372.59 2142.84 385.00 C 2142.96 389.69 2144.87 395.49 2150.03 396.67 C 2159.19 398.22 2168.85 396.81 2177.20 392.71 C 2178.24 399.17 2179.27 405.64 2180.32 412.11 C 2170.08 416.18 2158.86 417.17 2147.95 416.69 C 2140.69 416.29 2132.72 415.00 2127.55 409.39 C 2121.80 403.10 2120.59 394.17 2120.31 385.98 C 2120.17 373.24 2120.29 360.50 2120.25 347.75 C 2113.74 347.74 2107.24 347.75 2100.75 347.75 C 2100.74 341.52 2100.74 335.29 2100.75 329.07 C 2107.24 329.06 2113.74 329.07 2120.25 329.06 C 2120.25 321.89 2120.24 314.73 2120.26 307.57 Z" />
        <path d=" M 315.15 311.34 C 316.51 310.03 317.88 308.74 319.26 307.45 C 320.46 308.95 323.09 311.03 321.12 312.99 C 319.15 315.43 316.58 312.98 315.15 311.34 Z" />
        <path d=" M 871.40 319.72 C 879.40 317.46 888.57 318.59 895.32 323.64 C 905.62 330.86 909.53 344.91 905.90 356.74 C 903.15 365.73 895.73 373.43 886.47 375.63 C 880.90 376.91 874.91 376.74 869.54 374.71 C 859.56 370.84 852.51 360.71 851.98 350.06 C 850.58 337.11 858.68 323.43 871.40 319.72 Z" />
        <path d=" M 327.44 324.34 C 328.80 323.04 330.17 321.75 331.55 320.46 C 332.81 321.97 335.51 324.36 333.19 326.19 C 331.16 328.37 328.85 325.89 327.44 324.34 Z" />
        <path d=" M 1741.12 331.77 C 1751.45 328.70 1762.26 327.44 1773.01 327.25 C 1782.24 327.08 1791.92 328.90 1799.46 334.54 C 1808.14 340.97 1813.03 351.42 1814.48 361.94 C 1815.85 372.27 1815.28 382.97 1812.16 392.95 C 1809.50 401.51 1804.07 409.65 1795.82 413.65 C 1785.71 418.65 1773.56 417.31 1763.56 412.70 C 1763.57 423.42 1763.56 434.15 1763.57 444.87 C 1756.08 444.88 1748.60 444.87 1741.13 444.87 C 1741.12 407.17 1741.12 369.47 1741.12 331.77 M 1763.57 347.19 C 1763.54 362.88 1763.59 378.56 1763.55 394.25 C 1769.63 397.31 1777.34 398.89 1783.70 395.77 C 1790.41 391.77 1791.77 383.13 1792.24 376.00 C 1792.64 367.03 1791.52 356.83 1784.78 350.23 C 1779.01 344.93 1770.62 346.57 1763.57 347.19 Z" />
        <path d=" M 1832.25 331.78 C 1842.86 328.63 1853.97 327.36 1865.01 327.25 C 1874.37 327.17 1884.16 329.28 1891.57 335.29 C 1899.92 341.98 1904.48 352.41 1905.75 362.85 C 1907.00 373.57 1906.28 384.68 1902.63 394.89 C 1899.82 402.80 1894.44 410.13 1886.71 413.78 C 1876.65 418.61 1864.65 417.28 1854.75 412.72 C 1854.75 423.44 1854.74 434.15 1854.75 444.87 C 1847.24 444.88 1839.74 444.88 1832.25 444.87 C 1832.25 407.18 1832.25 369.48 1832.25 331.78 M 1854.76 347.18 C 1854.73 362.88 1854.77 378.57 1854.73 394.27 C 1859.37 396.71 1864.74 397.80 1869.97 397.31 C 1874.34 396.93 1878.23 394.03 1880.13 390.10 C 1883.50 383.32 1883.72 375.48 1883.27 368.06 C 1882.55 360.97 1880.33 353.05 1874.11 348.85 C 1868.32 345.14 1861.16 346.71 1854.76 347.18 Z" />
        <path d=" M 1952.18 327.21 C 1960.45 326.24 1969.12 327.36 1976.55 331.27 C 1983.82 335.02 1989.65 341.33 1993.15 348.71 C 1997.68 358.11 1998.71 368.86 1997.60 379.15 C 1996.49 389.19 1992.46 399.12 1985.26 406.34 C 1970.78 421.00 1944.28 420.86 1929.87 406.16 C 1922.84 399.17 1918.87 389.55 1917.67 379.80 C 1916.18 367.77 1917.89 354.95 1924.49 344.58 C 1930.40 334.91 1940.96 328.46 1952.18 327.21 M 1951.44 347.56 C 1948.08 348.86 1945.43 351.57 1943.77 354.72 C 1940.56 360.58 1939.87 367.45 1940.08 374.03 C 1940.29 380.02 1941.38 386.21 1944.66 391.34 C 1950.00 399.77 1964.13 399.74 1969.75 391.62 C 1974.20 385.40 1975.15 377.44 1974.95 369.99 C 1974.69 363.53 1973.52 356.69 1969.48 351.46 C 1965.25 346.24 1957.45 345.36 1951.44 347.56 Z" />
        <path d=" M 2019.25 334.73 C 2040.66 326.50 2064.63 325.17 2086.80 331.02 C 2085.48 337.98 2084.09 344.93 2082.79 351.90 C 2069.44 348.83 2055.33 347.66 2041.94 351.16 C 2041.93 372.38 2041.94 393.60 2041.93 414.81 C 2034.37 414.81 2026.81 414.81 2019.25 414.81 C 2019.25 388.12 2019.25 361.42 2019.25 334.73 Z" />
        <path d=" M 1649.25 329.07 C 1656.72 329.06 1664.21 329.06 1671.69 329.07 C 1671.75 345.37 1671.55 361.68 1671.80 377.98 C 1672.26 383.59 1672.51 390.06 1676.64 394.37 C 1681.91 398.85 1689.42 397.04 1695.68 396.39 C 1695.70 373.95 1695.68 351.51 1695.69 329.07 C 1703.25 329.06 1710.81 329.06 1718.38 329.07 C 1718.38 356.68 1718.38 384.30 1718.38 411.91 C 1704.65 415.41 1690.41 417.94 1676.21 416.36 C 1668.34 415.48 1660.38 411.92 1655.79 405.24 C 1650.59 397.94 1649.62 388.69 1649.28 379.99 C 1649.21 363.02 1649.27 346.04 1649.25 329.07 Z" />
        <path d=" M 340.50 335.74 C 342.98 333.40 347.68 335.39 347.03 338.94 C 346.05 342.62 341.32 346.96 337.54 344.39 C 334.57 341.53 337.81 337.41 340.50 335.74 Z" />
        <path d=" M 354.03 351.98 C 355.29 350.78 356.56 349.59 357.83 348.40 C 358.80 349.60 360.17 350.63 360.58 352.19 C 360.69 353.63 359.26 354.59 358.02 354.89 C 356.29 354.58 355.23 353.09 354.03 351.98 Z" />
    </g>
</svg>